<svg width="826" height="774" viewBox="0 0 826 774" fill="none" xmlns="http://www.w3.org/2000/svg">
<path opacity="0.2" d="M416.982 212.599C419.775 212.657 422.552 212.772 425.312 212.944L425.262 213.774C428.037 213.948 430.795 214.178 433.535 214.465L433.621 213.639C436.397 213.929 439.154 214.277 441.892 214.681L441.771 215.503C444.52 215.909 447.249 216.371 449.957 216.889L450.112 216.071C452.855 216.596 455.575 217.179 458.272 217.815L458.081 218.624C460.786 219.262 463.467 219.956 466.123 220.705L466.348 219.904C469.033 220.661 471.693 221.473 474.325 222.34L474.066 223.131C476.704 223.999 479.314 224.922 481.896 225.897L482.188 225.12C484.797 226.106 487.376 227.145 489.925 228.237L489.598 229.001C492.149 230.094 494.669 231.241 497.156 232.438L497.518 231.688V231.687C500.029 232.895 502.506 234.159 504.949 235.471L504.557 236.203C507.001 237.515 509.411 238.878 511.784 240.29L512.208 239.576C514.602 241.001 516.96 242.476 519.278 243.999L518.823 244.693C521.141 246.216 523.42 247.787 525.658 249.405L526.146 248.73C528.403 250.362 530.619 252.041 532.793 253.767H532.794L532.276 254.419C534.448 256.142 536.576 257.912 538.66 259.726L539.205 259.099C541.305 260.927 543.361 262.8 545.369 264.716L544.796 265.317C546.801 267.23 548.759 269.187 550.669 271.185L551.269 270.61C553.192 272.622 555.065 274.677 556.889 276.771L556.264 277.317C558.082 279.406 559.85 281.536 561.565 283.704L562.217 283.188C563.943 285.369 565.617 287.589 567.235 289.848L566.561 290.333C568.173 292.583 569.731 294.871 571.233 297.193L571.933 296.74V296.739C573.443 299.074 574.894 301.446 576.289 303.852L575.57 304.27C576.958 306.662 578.288 309.089 579.558 311.548L580.295 311.167C581.57 313.636 582.785 316.137 583.938 318.669L583.184 319.014C584.329 321.529 585.413 324.074 586.435 326.648L587.205 326.342C588.229 328.922 589.189 331.532 590.085 334.168L589.3 334.436C590.188 337.049 591.013 339.69 591.771 342.355L592.57 342.128C593.329 344.795 594.024 347.487 594.65 350.203L593.84 350.391C594.46 353.078 595.014 355.788 595.5 358.52L596.318 358.373C596.804 361.1 597.219 363.849 597.568 366.617L596.746 366.722C597.091 369.454 597.368 372.206 597.576 374.976L598.402 374.913C598.61 377.672 598.753 380.448 598.822 383.241L597.991 383.262C598.026 384.645 598.043 386.033 598.043 387.424C598.043 388.815 598.026 390.202 597.991 391.585L598.822 391.605C598.753 394.398 598.61 397.174 598.402 399.933L597.576 399.871C597.368 402.641 597.091 405.393 596.746 408.126L597.568 408.229C597.219 410.997 596.804 413.746 596.318 416.473L595.5 416.328C595.014 419.06 594.46 421.769 593.84 424.456L594.651 424.643C594.025 427.359 593.329 430.05 592.57 432.718L591.771 432.491C591.013 435.157 590.189 437.798 589.301 440.412L590.086 440.679C589.19 443.315 588.229 445.924 587.205 448.504L586.435 448.199C585.413 450.773 584.329 453.319 583.184 455.834L583.938 456.177C582.785 458.709 581.57 461.21 580.295 463.679L579.558 463.299C578.288 465.758 576.958 468.184 575.57 470.577L576.289 470.994C574.894 473.399 573.443 475.771 571.933 478.106L571.233 477.654C569.732 479.977 568.173 482.264 566.561 484.514L567.236 484.998C565.618 487.256 563.943 489.476 562.217 491.658L561.565 491.144C559.85 493.312 558.082 495.441 556.264 497.53L556.889 498.075C555.065 500.17 553.191 502.224 551.269 504.235L550.669 503.662C548.759 505.66 546.801 507.616 544.796 509.529L545.368 510.13C543.36 512.046 541.305 513.92 539.205 515.748L538.66 515.121C536.576 516.935 534.448 518.704 532.276 520.428L532.793 521.08C530.619 522.805 528.403 524.484 526.146 526.115L525.658 525.441C523.42 527.059 521.141 528.631 518.823 530.153L519.278 530.847C516.96 532.37 514.602 533.845 512.208 535.27L511.784 534.557C509.411 535.969 507.001 537.331 504.557 538.644L504.949 539.375C502.506 540.687 500.029 541.95 497.518 543.159L497.156 542.408C494.669 543.606 492.149 544.752 489.598 545.846L489.925 546.608C487.376 547.701 484.797 548.74 482.188 549.726L481.896 548.949C479.314 549.925 476.704 550.848 474.066 551.716L474.325 552.506C471.693 553.372 469.033 554.184 466.348 554.941L466.123 554.142C463.467 554.89 460.786 555.584 458.082 556.223L458.272 557.03C455.575 557.667 452.855 558.25 450.112 558.774L449.957 557.958C447.25 558.476 444.521 558.938 441.771 559.344L441.892 560.165C439.154 560.569 436.397 560.918 433.621 561.208L433.535 560.382C430.795 560.669 428.037 560.899 425.262 561.072L425.312 561.901C422.552 562.074 419.775 562.189 416.982 562.247L416.966 561.417C415.581 561.446 414.192 561.46 412.8 561.46C411.407 561.46 410.019 561.446 408.634 561.417L408.616 562.247C405.824 562.189 403.047 562.074 400.286 561.901L400.338 561.072C397.563 560.899 394.805 560.669 392.064 560.382L391.978 561.208C389.202 560.918 386.445 560.569 383.707 560.165L383.828 559.344C381.079 558.938 378.35 558.476 375.643 557.958L375.486 558.774C372.744 558.25 370.023 557.667 367.326 557.03L367.518 556.223C364.813 555.584 362.132 554.89 359.477 554.142L359.251 554.941C356.566 554.184 353.906 553.372 351.273 552.506L351.533 551.716C348.896 550.848 346.286 549.925 343.704 548.949L343.41 549.726C340.802 548.74 338.222 547.701 335.674 546.608L336.002 545.846C333.451 544.752 330.931 543.606 328.443 542.408L328.082 543.159H328.081C325.57 541.95 323.093 540.687 320.649 539.375L321.043 538.644C318.598 537.331 316.189 535.969 313.815 534.557L313.391 535.27C310.996 533.845 308.639 532.37 306.32 530.847L306.776 530.153C304.459 528.631 302.18 527.059 299.941 525.441L299.453 526.115C297.196 524.484 294.979 522.805 292.806 521.08L293.323 520.428C291.152 518.704 289.023 516.935 286.939 515.121L286.394 515.748C284.293 513.92 282.239 512.046 280.23 510.13L280.804 509.529C278.799 507.616 276.84 505.66 274.931 503.662L274.33 504.235C272.407 502.224 270.533 500.17 268.71 498.075L269.336 497.53C267.517 495.441 265.75 493.312 264.034 491.144L263.382 491.658C261.656 489.476 259.981 487.256 258.362 484.998L259.039 484.514C257.426 482.264 255.868 479.977 254.366 477.654L253.666 478.106C252.156 475.771 250.705 473.399 249.31 470.994L250.029 470.577C248.642 468.184 247.312 465.758 246.042 463.299L245.304 463.679C244.029 461.21 242.813 458.709 241.66 456.177L242.416 455.834C241.27 453.319 240.186 450.773 239.165 448.199L238.394 448.504C237.37 445.924 236.409 443.315 235.513 440.679L236.299 440.412C235.411 437.798 234.587 435.157 233.828 432.491L233.028 432.719C232.269 430.051 231.574 427.359 230.947 424.643L231.76 424.456C231.14 421.769 230.586 419.06 230.1 416.328L229.28 416.473C228.795 413.746 228.379 410.997 228.03 408.229L228.854 408.126C228.509 405.393 228.232 402.641 228.023 399.871L227.196 399.933C226.989 397.174 226.846 394.398 226.776 391.605L227.608 391.585C227.591 390.894 227.579 390.201 227.57 389.508L227.557 387.424C227.557 386.033 227.574 384.645 227.608 383.262L226.776 383.241C226.846 380.448 226.989 377.672 227.196 374.913L228.023 374.976C228.232 372.206 228.509 369.454 228.854 366.722L228.03 366.617C228.38 363.849 228.795 361.1 229.28 358.373L230.1 358.52C230.586 355.788 231.14 353.078 231.76 350.391L230.948 350.203C231.575 347.487 232.269 344.795 233.028 342.128L233.828 342.355C234.587 339.69 235.411 337.049 236.299 334.436L235.514 334.168C236.41 331.532 237.37 328.922 238.394 326.342L239.165 326.648C240.186 324.074 241.271 321.529 242.416 319.014L241.66 318.669C242.813 316.137 244.029 313.636 245.304 311.167L246.042 311.548C247.312 309.089 248.642 306.662 250.029 304.27L249.31 303.852C250.705 301.446 252.156 299.074 253.666 296.739L253.667 296.74L254.366 297.193C255.868 294.871 257.426 292.583 259.039 290.333L258.363 289.848C259.982 287.589 261.656 285.369 263.382 283.188L264.034 283.704C265.75 281.536 267.517 279.406 269.336 277.317L268.71 276.771C270.533 274.677 272.407 272.622 274.33 270.61L274.931 271.185C276.84 269.187 278.799 267.23 280.804 265.317L280.229 264.716C282.238 262.8 284.293 260.927 286.394 259.099L286.939 259.726C289.023 257.912 291.152 256.142 293.323 254.419L292.806 253.767C294.979 252.041 297.196 250.362 299.453 248.73L299.941 249.405C302.18 247.787 304.459 246.216 306.776 244.693L306.32 243.999C308.639 242.476 310.996 241.001 313.391 239.576L313.815 240.29C316.188 238.878 318.599 237.515 321.043 236.203L320.649 235.471C323.093 234.159 325.57 232.895 328.081 231.687L328.082 231.688L328.443 232.438C330.931 231.241 333.451 230.094 336.002 229.001L335.674 228.237C338.222 227.145 340.802 226.106 343.41 225.12L343.703 225.897C346.285 224.922 348.896 223.999 351.533 223.131L351.273 222.34C353.906 221.473 356.566 220.661 359.251 219.904L359.477 220.705C362.132 219.956 364.813 219.262 367.518 218.624L367.326 217.815C370.023 217.179 372.744 216.596 375.486 216.071L375.643 216.889C378.35 216.371 381.079 215.909 383.828 215.503L383.707 214.681C386.445 214.277 389.202 213.929 391.978 213.639L392.064 214.465C394.804 214.178 397.563 213.948 400.338 213.774L400.286 212.944C403.047 212.772 405.824 212.657 408.616 212.599L408.634 213.43C410.019 213.401 411.407 213.387 412.8 213.387C414.192 213.387 415.581 213.401 416.966 213.43L416.982 212.599Z" stroke="#9EA1AE" stroke-width="1.66654" stroke-dasharray="8.33 8.33"/>
<path opacity="0.2" d="M637.863 278.717C639.205 281.162 640.502 283.632 641.754 286.126L641.011 286.5C642.258 288.983 643.461 291.491 644.617 294.02L645.374 293.674C646.533 296.208 647.646 298.766 648.712 301.345H648.713L647.943 301.664C649.004 304.23 650.018 306.819 650.985 309.427L651.765 309.137C652.734 311.751 653.655 314.386 654.528 317.041L653.738 317.302C654.605 319.937 655.424 322.592 656.194 325.266L656.994 325.036C657.765 327.711 658.486 330.405 659.158 333.117L658.352 333.318C659.019 336.011 659.637 338.722 660.205 341.45L661.02 341.28C661.587 344.005 662.107 346.747 662.574 349.505V349.506L661.753 349.644C662.216 352.375 662.628 355.122 662.99 357.884L663.814 357.775C664.176 360.533 664.488 363.306 664.748 366.093L663.92 366.171C664.177 368.932 664.384 371.708 664.539 374.496L665.369 374.449C665.523 377.22 665.627 380.004 665.679 382.8H665.68L664.847 382.815C664.872 384.207 664.886 385.602 664.886 387C664.886 388.397 664.872 389.792 664.847 391.184L665.679 391.199C665.627 393.995 665.523 396.778 665.369 399.55L664.539 399.505C664.384 402.293 664.177 405.068 663.92 407.83L664.748 407.906C664.488 410.693 664.176 413.466 663.814 416.224L662.99 416.117C662.628 418.878 662.216 421.624 661.753 424.355L662.574 424.495C662.107 427.253 661.587 429.994 661.02 432.719L660.205 432.551C659.637 435.278 659.019 437.989 658.352 440.682L659.158 440.882C658.486 443.594 657.765 446.288 656.994 448.964L656.194 448.734C655.424 451.408 654.605 454.064 653.738 456.699L654.529 456.958C653.656 459.612 652.735 462.247 651.766 464.861L650.985 464.573C650.018 467.182 649.004 469.77 647.943 472.336L648.712 472.653C647.645 475.233 646.532 477.791 645.373 480.326L644.617 479.98C643.461 482.51 642.258 485.016 641.011 487.5L641.754 487.873C640.501 490.367 639.205 492.837 637.863 495.283L637.134 494.883C635.797 497.32 634.416 499.734 632.992 502.121L633.707 502.547C632.278 504.943 630.805 507.313 629.291 509.657L628.593 509.206C627.085 511.54 625.535 513.848 623.944 516.129L624.626 516.604C623.031 518.891 621.394 521.151 619.718 523.383L619.053 522.883C617.384 525.104 615.675 527.298 613.927 529.463L614.574 529.985C612.823 532.154 611.032 534.294 609.203 536.404L608.575 535.86C606.756 537.959 604.899 540.028 603.006 542.066L603.615 542.633C601.718 544.675 599.785 546.687 597.815 548.667L597.226 548.08C595.266 550.05 593.271 551.989 591.241 553.895L591.811 554.502C589.78 556.409 587.716 558.284 585.617 560.126L585.068 559.501C582.981 561.332 580.861 563.131 578.708 564.896L579.235 565.54C577.08 567.307 574.893 569.041 572.674 570.74L572.168 570.079C569.964 571.767 567.728 573.42 565.463 575.039L565.946 575.716C563.68 577.334 561.384 578.919 559.059 580.467L558.598 579.773C556.286 581.312 553.946 582.815 551.577 584.282L552.015 584.99C549.646 586.457 547.249 587.887 544.825 589.28L544.411 588.559C542.006 589.942 539.574 591.287 537.116 592.595L537.507 593.331C535.049 594.639 532.564 595.91 530.056 597.142L529.689 596.396C527.196 597.621 524.678 598.808 522.137 599.957L522.48 600.717C519.945 601.862 517.386 602.967 514.805 604.035L514.487 603.266C511.923 604.327 509.337 605.35 506.729 606.332L507.021 607.11C504.414 608.092 501.785 609.034 499.136 609.936L498.868 609.148C496.244 610.042 493.599 610.896 490.935 611.71L491.177 612.506C488.516 613.318 485.835 614.089 483.137 614.82L482.92 614.017C480.24 614.743 477.542 615.429 474.826 616.073L475.018 616.882C472.313 617.523 469.591 618.125 466.852 618.684L466.685 617.868C463.969 618.422 461.236 618.936 458.488 619.408L458.628 620.227C455.883 620.698 453.123 621.128 450.349 621.515L450.234 620.691C447.491 621.074 444.733 621.415 441.962 621.715L442.05 622.542C439.286 622.84 436.51 623.097 433.72 623.311L433.657 622.481C430.889 622.694 428.107 622.864 425.314 622.992L425.353 623.823C422.58 623.95 419.795 624.035 417 624.078L416.988 623.247C415.595 623.268 414.199 623.278 412.8 623.278C411.401 623.278 410.005 623.268 408.611 623.247L408.599 624.078C405.804 624.035 403.019 623.95 400.247 623.823L400.285 622.992C397.492 622.864 394.711 622.694 391.943 622.481L391.879 623.31C389.089 623.096 386.312 622.84 383.549 622.542L383.639 621.715C380.867 621.415 378.109 621.074 375.365 620.691L375.25 621.515C372.475 621.128 369.715 620.698 366.971 620.227L367.111 619.408C364.363 618.936 361.631 618.422 358.915 617.868L358.749 618.684C356.009 618.125 353.287 617.523 350.581 616.882L350.773 616.073C348.058 615.429 345.36 614.743 342.68 614.017L342.462 614.82C339.763 614.089 337.083 613.318 334.422 612.506L334.665 611.71C332.001 610.896 329.356 610.042 326.731 609.148L326.463 609.935C323.813 609.033 321.184 608.092 318.577 607.11L318.871 606.332C316.263 605.35 313.676 604.327 311.112 603.266L310.794 604.035C308.213 602.967 305.654 601.862 303.119 600.717H303.12L303.463 599.957C300.921 598.808 298.403 597.621 295.91 596.396L295.543 597.142C293.034 595.91 290.55 594.639 288.092 593.331L288.483 592.595C286.026 591.287 283.594 589.942 281.188 588.559L280.773 589.28C278.35 587.887 275.953 586.457 273.584 584.99L274.023 584.282C271.655 582.815 269.314 581.312 267.002 579.773L266.54 580.467C264.215 578.919 261.919 577.334 259.653 575.716L260.138 575.039C257.872 573.42 255.636 571.767 253.432 570.079L252.925 570.74C250.706 569.041 248.519 567.307 246.363 565.54L246.892 564.896C244.739 563.131 242.618 561.333 240.531 559.501L239.982 560.125C237.884 558.283 235.819 556.409 233.788 554.502L234.358 553.895C232.329 551.989 230.333 550.05 228.374 548.08L227.783 548.667C225.814 546.687 223.88 544.675 221.983 542.633L222.594 542.066C220.701 540.028 218.844 537.959 217.025 535.86L216.396 536.404C214.567 534.294 212.776 532.154 211.024 529.985L211.673 529.463C209.925 527.298 208.216 525.104 206.547 522.883L205.881 523.383C204.204 521.151 202.568 518.891 200.973 516.604L201.655 516.129C200.064 513.848 198.515 511.54 197.007 509.206L196.308 509.657C194.793 507.313 193.321 504.943 191.892 502.547L192.607 502.121C191.184 499.734 189.803 497.32 188.466 494.883L187.735 495.283C186.394 492.837 185.097 490.367 183.845 487.873L184.589 487.5C183.342 485.017 182.14 482.51 180.983 479.98L180.226 480.326C179.067 477.791 177.953 475.233 176.887 472.653L177.657 472.336C176.596 469.769 175.581 467.182 174.614 464.573L173.833 464.861C172.864 462.247 171.943 459.612 171.07 456.958L171.861 456.699C170.995 454.063 170.175 451.408 169.405 448.734L168.604 448.964C167.834 446.288 167.113 443.594 166.44 440.882L167.249 440.682C166.581 437.989 165.963 435.278 165.395 432.551L164.579 432.719C164.011 429.994 163.493 427.252 163.025 424.494L163.847 424.355C163.384 421.624 162.971 418.878 162.609 416.117L161.784 416.224C161.423 413.466 161.11 410.693 160.851 407.906L161.681 407.83C161.423 405.068 161.217 402.293 161.062 399.505L160.229 399.55C160.075 396.778 159.973 393.995 159.921 391.199L160.753 391.184C160.727 389.792 160.714 388.397 160.714 387C160.714 385.602 160.727 384.207 160.753 382.815L159.921 382.8C159.971 380.122 160.066 377.454 160.21 374.799L160.229 374.45L161.062 374.496C161.217 371.708 161.423 368.932 161.681 366.171L160.851 366.094C161.11 363.307 161.423 360.534 161.784 357.775L162.609 357.884C162.971 355.123 163.384 352.376 163.847 349.645L163.025 349.506C163.493 346.748 164.011 344.006 164.579 341.28L165.395 341.45C165.963 338.722 166.581 336.011 167.249 333.318L166.44 333.117C167.113 330.405 167.834 327.711 168.604 325.036L169.405 325.266C170.175 322.592 170.994 319.937 171.861 317.302L171.07 317.041C171.943 314.386 172.865 311.751 173.834 309.137L174.614 309.427C175.581 306.819 176.596 304.23 177.657 301.664L176.887 301.345C177.808 299.116 178.766 296.902 179.757 294.706L180.226 293.674L180.983 294.02C182.14 291.491 183.342 288.983 184.589 286.5L183.845 286.126C185.039 283.747 186.274 281.389 187.55 279.054L187.735 278.717L188.466 279.117C189.803 276.68 191.184 274.267 192.607 271.88L191.892 271.453C193.321 269.057 194.793 266.686 196.307 264.343L197.007 264.795C198.515 262.46 200.064 260.152 201.655 257.872L200.973 257.395C202.568 255.108 204.204 252.848 205.881 250.617L206.547 251.117C208.216 248.895 209.925 246.701 211.673 244.537L211.024 244.013C212.776 241.844 214.567 239.704 216.396 237.594L217.025 238.14C218.844 236.041 220.7 233.972 222.594 231.933L221.983 231.367C223.88 229.324 225.814 227.312 227.783 225.332L228.374 225.92C230.334 223.95 232.329 222.011 234.358 220.104L233.788 219.497C235.818 217.59 237.883 215.715 239.981 213.874L240.531 214.5C242.618 212.668 244.739 210.869 246.892 209.104L246.363 208.46C248.519 206.692 250.706 204.958 252.925 203.26L253.432 203.922C255.636 202.234 257.871 200.58 260.137 198.962L259.653 198.283C261.919 196.664 264.215 195.081 266.54 193.533L267.002 194.226C269.314 192.688 271.655 191.184 274.023 189.718L273.584 189.01C275.953 187.543 278.35 186.112 280.773 184.719L281.188 185.441C283.594 184.058 286.026 182.712 288.483 181.404L288.092 180.669C290.55 179.36 293.034 178.089 295.543 176.856L295.91 177.603C298.403 176.378 300.921 175.191 303.463 174.043L303.12 173.284L303.119 173.283C305.654 172.137 308.213 171.031 310.794 169.964L311.112 170.733C313.676 169.672 316.263 168.651 318.871 167.669L318.577 166.888C321.184 165.907 323.814 164.965 326.463 164.063L326.731 164.851C329.356 163.958 332.001 163.104 334.665 162.291L334.422 161.494C337.083 160.682 339.763 159.91 342.462 159.178L342.68 159.983C345.36 159.257 348.058 158.572 350.773 157.927L350.581 157.117C353.286 156.475 356.009 155.873 358.748 155.314L358.749 155.315L358.915 156.132C361.631 155.577 364.363 155.064 367.111 154.593L366.971 153.772C369.715 153.301 372.475 152.871 375.25 152.484L375.365 153.309C378.109 152.927 380.867 152.585 383.639 152.286L383.549 151.457C386.312 151.158 389.089 150.902 391.879 150.688L391.943 151.519C394.711 151.307 397.492 151.136 400.285 151.008L400.247 150.176C403.019 150.049 405.804 149.964 408.599 149.922L408.611 150.754C410.005 150.732 411.401 150.721 412.8 150.721C414.199 150.721 415.595 150.732 416.988 150.754L417 149.922C419.795 149.964 422.579 150.049 425.352 150.176L425.314 151.008C428.107 151.136 430.888 151.307 433.656 151.519L433.72 150.688C436.509 150.902 439.286 151.158 442.05 151.457L441.962 152.286C444.733 152.585 447.491 152.927 450.234 153.309L450.349 152.484C453.123 152.871 455.883 153.301 458.628 153.772L458.488 154.593C461.236 155.064 463.969 155.577 466.685 156.132L466.852 155.315V155.314C469.591 155.873 472.313 156.475 475.018 157.117L474.826 157.927C477.542 158.572 480.24 159.257 482.92 159.983L483.137 159.178C485.836 159.91 488.516 160.682 491.177 161.494L490.935 162.291C493.599 163.104 496.244 163.958 498.868 164.851L499.136 164.063C501.785 164.965 504.414 165.907 507.021 166.888L506.729 167.669C509.336 168.651 511.923 169.672 514.487 170.733L514.805 169.964C517.386 171.031 519.945 172.137 522.48 173.283V173.284L522.137 174.043C524.678 175.191 527.196 176.378 529.689 177.603L530.056 176.856C532.564 178.089 535.049 179.36 537.507 180.669H537.508L537.116 181.404C539.574 182.712 542.006 184.058 544.411 185.441L544.825 184.719C547.249 186.112 549.646 187.543 552.015 189.01L551.577 189.718C553.946 191.184 556.286 192.688 558.598 194.226L559.059 193.533C561.384 195.081 563.679 196.665 565.945 198.284L565.463 198.962C567.728 200.58 569.964 202.234 572.168 203.922L572.674 203.26C574.893 204.958 577.08 206.692 579.235 208.46H579.236L578.708 209.104C580.861 210.869 582.981 212.668 585.068 214.5L585.617 213.874C587.715 215.715 589.78 217.59 591.811 219.497L591.241 220.104C593.271 222.011 595.266 223.95 597.226 225.92L597.815 225.332C599.785 227.312 601.718 229.324 603.615 231.367L603.006 231.933C604.899 233.972 606.756 236.041 608.575 238.14L609.203 237.594C611.032 239.704 612.823 241.844 614.574 244.013L613.927 244.537C615.675 246.701 617.384 248.895 619.053 251.117L619.718 250.617C621.394 252.848 623.031 255.108 624.626 257.395L623.944 257.872C625.535 260.152 627.085 262.46 628.593 264.795L629.292 264.343C630.806 266.686 632.278 269.057 633.707 271.453H633.708L632.992 271.88C634.416 274.267 635.797 276.68 637.134 279.117L637.863 278.717Z" stroke="#9EA1AE" stroke-width="1.66654" stroke-dasharray="8.33 8.33"/>
<path opacity="0.2" d="M762.12 374.953C762.23 377.691 762.305 380.438 762.342 383.193V383.254L761.509 383.265C761.527 384.649 761.537 386.036 761.537 387.424C761.537 388.812 761.527 390.198 761.509 391.582L762.342 391.594C762.305 394.369 762.23 397.135 762.12 399.893L761.289 399.861C761.179 402.625 761.031 405.381 760.848 408.128L761.679 408.183C761.494 410.952 761.271 413.711 761.014 416.461L760.186 416.385C759.927 419.138 759.632 421.882 759.302 424.616L760.128 424.715C759.795 427.469 759.425 430.212 759.02 432.945L758.196 432.824C757.79 435.559 757.348 438.283 756.87 440.996L757.689 441.139C757.209 443.87 756.692 446.59 756.14 449.298L755.324 449.132C754.771 451.84 754.182 454.537 753.559 457.221L754.369 457.409C753.742 460.109 753.079 462.797 752.381 465.471L751.576 465.261C750.878 467.936 750.145 470.597 749.377 473.245L750.176 473.476C749.404 476.137 748.599 478.785 747.758 481.419L746.965 481.167C746.124 483.799 745.25 486.417 744.341 489.021L745.126 489.295C744.213 491.91 743.266 494.511 742.285 497.096L741.508 496.802C740.528 499.385 739.515 501.953 738.469 504.506L739.237 504.821C738.187 507.383 737.103 509.929 735.986 512.46L735.226 512.125C734.11 514.652 732.963 517.163 731.782 519.657L732.534 520.012C731.35 522.515 730.133 525.001 728.885 527.47L728.143 527.095C726.896 529.56 725.618 532.007 724.309 534.436L725.041 534.831C723.728 537.268 722.382 539.687 721.006 542.089L720.285 541.675C718.913 544.07 717.509 546.447 716.075 548.806L716.785 549.238C715.347 551.603 713.879 553.95 712.381 556.278L711.682 555.829C710.188 558.15 708.664 560.452 707.111 562.734L707.798 563.202C706.241 565.49 704.655 567.759 703.039 570.009L702.364 569.523C700.755 571.764 699.115 573.986 697.448 576.187L698.111 576.689C696.44 578.896 694.742 581.083 693.015 583.249L692.363 582.729C690.643 584.885 688.895 587.021 687.12 589.135L687.757 589.671C685.977 591.791 684.171 593.889 682.337 595.967L681.714 595.416C679.889 597.483 678.036 599.53 676.158 601.554L676.768 602.12C674.885 604.149 672.977 606.156 671.043 608.14L670.447 607.559C668.522 609.534 666.572 611.487 664.597 613.417L665.177 614.011C663.197 615.945 661.193 617.856 659.164 619.744L658.598 619.135C656.579 621.014 654.536 622.869 652.469 624.701L653.02 625.323C650.949 627.158 648.855 628.97 646.736 630.758L646.2 630.122C644.093 631.9 641.962 633.655 639.809 635.385L640.329 636.034C638.173 637.767 635.994 639.476 633.792 641.16L633.286 640.499C631.096 642.174 628.884 643.824 626.65 645.45L627.14 646.123C624.903 647.751 622.644 649.353 620.364 650.93L619.892 650.247C617.624 651.816 615.336 653.359 613.027 654.877L613.484 655.572C611.173 657.092 608.841 658.586 606.489 660.054L606.049 659.348C603.71 660.808 601.351 662.241 598.974 663.649L599.397 664.366C597.017 665.775 594.618 667.157 592.199 668.513L591.793 667.788C589.389 669.136 586.965 670.458 584.523 671.753L584.913 672.487C582.47 673.783 580.009 675.053 577.529 676.295L577.156 675.551C574.692 676.785 572.21 677.993 569.711 679.173L570.066 679.925C567.565 681.105 565.047 682.259 562.512 683.385L562.175 682.624C559.656 683.742 557.121 684.833 554.57 685.896L554.891 686.665C552.338 687.728 549.769 688.765 547.184 689.772L546.881 688.996C544.314 689.996 541.731 690.969 539.134 691.913L539.418 692.695C536.818 693.64 534.204 694.557 531.574 695.445L531.309 694.656C528.699 695.537 526.075 696.39 523.438 697.214L523.686 698.008C521.045 698.832 518.39 699.628 515.722 700.395L515.493 699.596C512.847 700.357 510.188 701.088 507.516 701.791L507.727 702.594C505.05 703.298 502.361 703.973 499.659 704.618L499.467 703.809C496.791 704.448 494.102 705.058 491.401 705.638L491.575 706.451C488.869 707.033 486.151 707.586 483.421 708.108L483.265 707.291C480.564 707.807 477.852 708.294 475.129 708.752L475.266 709.573C472.536 710.032 469.796 710.46 467.045 710.859L466.927 710.036C464.206 710.43 461.474 710.795 458.732 711.131L458.832 711.956C456.086 712.291 453.331 712.597 450.565 712.873L450.483 712.046C447.747 712.318 445 712.561 442.245 712.774L442.31 713.604C439.553 713.817 436.787 713.999 434.013 714.151L433.968 713.321C431.22 713.472 428.464 713.593 425.699 713.684L425.726 714.515C422.965 714.606 420.197 714.668 417.421 714.698L417.412 713.866C416.027 713.881 414.64 713.888 413.251 713.888C411.862 713.888 410.475 713.881 409.09 713.866L409.081 714.698C406.305 714.668 403.536 714.606 400.775 714.515L400.803 713.684C398.038 713.593 395.282 713.472 392.534 713.321L392.488 714.151C389.714 713.999 386.949 713.817 384.192 713.604H384.193L384.258 712.774C381.502 712.561 378.755 712.318 376.019 712.046L375.937 712.873C373.171 712.597 370.415 712.291 367.669 711.956L367.771 711.131C365.029 710.795 362.297 710.43 359.576 710.036L359.456 710.859C356.705 710.46 353.965 710.032 351.235 709.573L351.374 708.752C348.651 708.294 345.938 707.807 343.237 707.291L343.081 708.108C340.351 707.586 337.633 707.033 334.927 706.451L335.102 705.638C332.401 705.058 329.712 704.448 327.036 703.809L326.843 704.618C324.141 703.973 321.452 703.298 318.775 702.594L318.987 701.791C316.315 701.088 313.656 700.357 311.01 699.596L310.779 700.395C308.111 699.628 305.457 698.832 302.816 698.008L303.064 697.214C300.427 696.39 297.803 695.537 295.194 694.656L294.927 695.445C292.298 694.557 289.683 693.64 287.084 692.695L287.368 691.913C284.771 690.969 282.189 689.996 279.622 688.996L279.319 689.772C276.734 688.765 274.165 687.729 271.611 686.665L271.933 685.896C269.381 684.833 266.847 683.742 264.328 682.624L263.99 683.385C261.455 682.259 258.937 681.105 256.436 679.925L256.791 679.173C254.292 677.993 251.81 676.785 249.346 675.551L248.973 676.295C246.493 675.053 244.031 673.783 241.588 672.487L241.979 671.753C239.537 670.458 237.114 669.136 234.71 667.788L234.303 668.513C231.884 667.157 229.485 665.775 227.104 664.366L227.528 663.649C225.151 662.242 222.792 660.808 220.454 659.348L220.013 660.053C217.661 658.585 215.329 657.092 213.018 655.572L213.476 654.877C211.167 653.359 208.878 651.816 206.611 650.247L206.137 650.93C203.857 649.353 201.599 647.751 199.362 646.124L199.853 645.45C197.619 643.824 195.407 642.174 193.217 640.499L192.71 641.16C190.508 639.476 188.329 637.767 186.172 636.034L186.694 635.385C184.541 633.655 182.41 631.9 180.303 630.122L179.766 630.758C177.647 628.97 175.553 627.158 173.482 625.323L174.034 624.701C171.967 622.869 169.923 621.014 167.904 619.135L167.338 619.744C165.309 617.856 163.305 615.945 161.325 614.011L161.906 613.417C159.931 611.487 157.981 609.534 156.056 607.559L155.459 608.14C153.525 606.156 151.617 604.148 149.734 602.119L150.345 601.554C148.467 599.53 146.614 597.483 144.789 595.416L144.165 595.967C142.331 593.889 140.524 591.791 138.744 589.671L139.383 589.135C137.608 587.021 135.86 584.885 134.14 582.728L133.487 583.249C131.76 581.083 130.061 578.896 128.39 576.689L129.054 576.187C127.387 573.986 125.748 571.764 124.139 569.523L123.463 570.009C121.847 567.759 120.261 565.49 118.704 563.202L119.392 562.734C117.839 560.452 116.315 558.15 114.821 555.829L114.121 556.278C112.623 553.95 111.155 551.603 109.717 549.238L110.428 548.806C108.994 546.447 107.59 544.07 106.218 541.675L105.495 542.088C104.119 539.686 102.774 537.267 101.461 534.831L102.194 534.436C100.885 532.007 99.6065 529.56 98.3604 527.095L97.6172 527.47C96.3685 525.001 95.152 522.515 93.9678 520.012L94.7207 519.657C93.5403 517.162 92.3915 514.652 91.2764 512.125L90.5156 512.46C89.399 509.929 88.3151 507.383 87.2646 504.821L88.0342 504.506C86.9875 501.953 85.9738 499.385 84.9941 496.802L84.2168 497.096C83.2361 494.511 82.2888 491.91 81.376 489.295L82.1621 489.021C81.2533 486.417 80.3784 483.799 79.5381 481.167L78.7441 481.419C77.9034 478.785 77.0976 476.137 76.3262 473.476L77.125 473.245C76.3574 470.597 75.6246 467.936 74.9268 465.261L74.1201 465.47C73.4223 462.796 72.7591 460.109 72.1318 457.41H72.1328L72.9443 457.221C72.3206 454.537 71.7315 451.84 71.1787 449.132L70.3623 449.298C69.8097 446.59 69.2925 443.87 68.8115 441.139L69.6328 440.996C69.155 438.283 68.7126 435.559 68.3066 432.824L67.4824 432.945C67.0768 430.212 66.7072 427.469 66.374 424.715L67.2012 424.615C66.8705 421.882 66.5756 419.138 66.3174 416.385L65.4883 416.461C65.2305 413.711 65.0081 410.952 64.8232 408.183L65.6553 408.128C65.4719 405.381 65.3243 402.626 65.2139 399.861L64.3818 399.893C64.2716 397.135 64.1971 394.368 64.1602 391.593L64.9941 391.582C64.9849 390.89 64.9773 390.198 64.9727 389.505L64.9658 387.424C64.9658 386.035 64.9757 384.649 64.9941 383.264L64.1602 383.254C64.1886 381.121 64.2389 378.994 64.3105 376.872L64.3818 374.952L65.2139 374.985C65.3243 372.221 65.4719 369.465 65.6553 366.719L64.8242 366.663C65.0091 363.894 65.2304 361.134 65.4883 358.385L66.3174 358.463C66.5756 355.709 66.8705 352.965 67.2012 350.231L66.374 350.132C66.7072 347.378 67.0768 344.634 67.4824 341.901L68.3066 342.023C68.7126 339.288 69.155 336.564 69.6328 333.851L68.8125 333.707L68.8115 333.706C69.2924 330.975 69.8098 328.256 70.3623 325.549L71.1787 325.715C71.7315 323.006 72.3207 320.31 72.9443 317.626L72.1328 317.436L72.1318 317.435C72.7591 314.736 73.4232 312.049 74.1211 309.375L74.9268 309.586C75.6246 306.911 76.3573 304.249 77.125 301.601L76.3262 301.37C77.0978 298.708 77.9042 296.061 78.7451 293.427L79.5381 293.68C80.3785 291.048 81.2533 288.43 82.1621 285.826L81.376 285.552C82.2888 282.936 83.2361 280.336 84.2168 277.75L84.9941 278.045C85.9737 275.462 86.9876 272.894 88.0342 270.342L87.2646 270.025C88.3152 267.463 89.3988 264.916 90.5156 262.385L91.2764 262.722C92.3915 260.195 93.5403 257.684 94.7207 255.189L93.9678 254.833C95.1518 252.331 96.3677 249.844 97.6162 247.376L98.3604 247.752C99.6065 245.288 100.885 242.841 102.194 240.411L101.461 240.015C102.774 237.578 104.12 235.159 105.496 232.758L106.218 233.172C107.59 230.776 108.994 228.399 110.428 226.04L109.717 225.608C111.155 223.243 112.623 220.895 114.121 218.567L114.821 219.018C116.315 216.698 117.839 214.396 119.392 212.113L118.703 211.644C120.26 209.356 121.846 207.087 123.462 204.838L124.139 205.323C125.748 203.082 127.387 200.861 129.054 198.66L128.39 198.157C130.061 195.95 131.76 193.763 133.487 191.597L133.488 191.598L134.14 192.118C135.86 189.962 137.608 187.825 139.383 185.711L138.744 185.176C140.524 183.055 142.331 180.957 144.165 178.88L144.789 179.43C146.614 177.363 148.467 175.317 150.345 173.293L149.734 172.726C151.617 170.698 153.525 168.69 155.459 166.706L156.056 167.287C157.98 165.312 159.931 163.359 161.906 161.429L161.325 160.835C163.305 158.901 165.308 156.989 167.337 155.101L167.904 155.712C169.923 153.833 171.967 151.978 174.034 150.146L173.482 149.523C175.553 147.688 177.647 145.876 179.766 144.089L180.303 144.724C182.41 142.946 184.541 141.192 186.694 139.462L186.172 138.812C188.329 137.079 190.508 135.37 192.71 133.686L193.217 134.348C195.407 132.673 197.619 131.023 199.853 129.397L199.362 128.723C201.599 127.095 203.858 125.492 206.138 123.915L206.611 124.6C208.878 123.032 211.167 121.488 213.476 119.969L213.018 119.274C215.329 117.754 217.661 116.26 220.013 114.792L220.454 115.499C222.793 114.039 225.151 112.605 227.529 111.197L227.104 110.48C229.485 109.071 231.884 107.689 234.303 106.333L234.71 107.059C237.114 105.711 239.537 104.389 241.979 103.094L241.589 102.358C244.032 101.062 246.493 99.7933 248.973 98.5515L249.346 99.2957C251.81 98.0614 254.293 96.8545 256.792 95.6746L256.436 94.9216C258.876 93.7696 261.332 92.6433 263.805 91.5437L263.99 91.4617L264.328 92.2224C266.846 91.1042 269.382 90.0138 271.933 88.9509L271.612 88.1814C274.165 87.1178 276.735 86.0824 279.319 85.075L279.622 85.8513C282.189 84.8508 284.772 83.8775 287.369 82.9333L287.084 82.1511C289.684 81.2061 292.298 80.289 294.928 79.4011L295.194 80.1912C297.804 79.3101 300.428 78.4565 303.065 77.6326L302.816 76.8386C305.457 76.0138 308.112 75.2179 310.78 74.4509L311.01 75.2507C313.656 74.4903 316.315 73.759 318.987 73.0564L318.775 72.2507C321.452 71.5471 324.141 70.8732 326.843 70.2283L327.036 71.0378C329.712 70.399 332.401 69.7891 335.102 69.2087L334.927 68.3943C337.633 67.8127 340.351 67.2602 343.081 66.738L343.238 67.5564C345.939 67.0398 348.651 66.5521 351.374 66.0945L351.236 65.2732C353.966 64.8145 356.706 64.3859 359.457 63.9871L359.576 64.8113C362.297 64.4167 365.029 64.0517 367.771 63.7166L367.67 62.8904C370.416 62.5547 373.171 62.2479 375.937 61.9724L376.02 62.8015C378.756 62.5289 381.502 62.2858 384.258 62.073L384.193 61.2419C386.95 61.029 389.715 60.8466 392.489 60.6941L392.534 61.5261C395.282 61.375 398.038 61.2539 400.803 61.1628L400.775 60.3308C403.536 60.2399 406.305 60.1777 409.081 60.1472L409.09 60.9812C410.475 60.966 411.862 60.9578 413.251 60.9578C414.64 60.9578 416.028 60.966 417.413 60.9812L417.421 60.1472C420.197 60.1777 422.966 60.2399 425.727 60.3308L425.7 61.1628C428.465 61.2539 431.221 61.375 433.969 61.5261L434.013 60.6941C436.787 60.8466 439.552 61.029 442.309 61.2419L442.245 62.073C445 62.2858 447.747 62.5289 450.483 62.8015L450.565 61.9724C453.331 62.2479 456.087 62.5547 458.833 62.8904L458.732 63.7166C461.474 64.0517 464.206 64.4167 466.927 64.8113L467.045 63.9871C469.796 64.3859 472.536 64.8145 475.266 65.2732L475.129 66.0945C477.852 66.5521 480.564 67.0398 483.265 67.5564L483.421 66.738C486.151 67.2602 488.869 67.8127 491.575 68.3943L491.401 69.2087C494.102 69.7891 496.791 70.399 499.467 71.0378L499.659 70.2283C502.361 70.8732 505.05 71.5481 507.727 72.2517L507.516 73.0564C510.188 73.759 512.847 74.4903 515.493 75.2507L515.722 74.4509C518.39 75.2179 521.045 76.0138 523.686 76.8386L523.438 77.6326C526.075 78.4565 528.699 79.3101 531.309 80.1912L531.574 79.4011C534.204 80.289 536.818 81.2061 539.418 82.1511L539.134 82.9343C541.731 83.8785 544.314 84.8508 546.881 85.8513L547.184 85.075C549.768 86.0823 552.337 87.1179 554.89 88.1814L554.57 88.9509C557.121 90.0138 559.656 91.1042 562.175 92.2224L562.512 91.4617C565.047 92.5874 567.565 93.7408 570.066 94.9216L569.711 95.6746C572.21 96.8545 574.693 98.0614 577.157 99.2957L577.529 98.5515C580.009 99.7933 582.47 101.062 584.913 102.358L584.524 103.094C586.966 104.389 589.389 105.711 591.793 107.059L592.199 106.333C594.618 107.689 597.017 109.071 599.397 110.48L598.974 111.197C601.352 112.605 603.71 114.039 606.049 115.499L606.489 114.792C608.841 116.26 611.173 117.754 613.484 119.274L613.027 119.97C615.336 121.488 617.624 123.032 619.892 124.6L620.364 123.915C622.644 125.493 624.903 127.095 627.141 128.723L626.65 129.397C628.884 131.023 631.096 132.673 633.286 134.348L633.792 133.686C635.994 135.37 638.173 137.079 640.33 138.812L639.809 139.462C641.962 141.192 644.093 142.947 646.2 144.725L646.736 144.089C648.855 145.876 650.949 147.688 653.02 149.523L652.469 150.146C654.536 151.978 656.58 153.833 658.599 155.712L659.165 155.101C661.194 156.989 663.197 158.901 665.177 160.835L664.597 161.43C666.572 163.36 668.522 165.313 670.447 167.288L671.043 166.706C672.977 168.69 674.885 170.698 676.768 172.727L676.158 173.293C678.036 175.317 679.889 177.364 681.714 179.431L682.337 178.88C684.171 180.957 685.978 183.056 687.758 185.176L687.12 185.711C688.895 187.825 690.643 189.962 692.363 192.118L693.015 191.598V191.597C694.742 193.763 696.441 195.95 698.112 198.157L697.449 198.66C699.116 200.861 700.755 203.083 702.364 205.324L703.04 204.838C704.655 207.087 706.241 209.356 707.798 211.644L707.111 212.113C708.664 214.396 710.188 216.698 711.682 219.018L712.381 218.567C713.879 220.895 715.347 223.243 716.785 225.608L716.075 226.04C717.509 228.399 718.913 230.776 720.285 233.172L721.006 232.758C722.382 235.159 723.727 237.578 725.041 240.015H725.042L724.309 240.411C725.618 242.841 726.896 245.288 728.143 247.752L728.886 247.376C730.134 249.845 731.35 252.331 732.534 254.834L731.782 255.19C732.963 257.685 734.11 260.196 735.226 262.722L735.986 262.385C737.103 264.916 738.187 267.463 739.237 270.025L738.469 270.342C739.515 272.894 740.528 275.463 741.508 278.046L742.285 277.75C743.266 280.336 744.213 282.936 745.126 285.552L744.341 285.826C745.25 288.43 746.124 291.048 746.965 293.68L747.758 293.427C748.599 296.061 749.404 298.709 750.176 301.37L749.378 301.601C750.146 304.249 750.878 306.911 751.576 309.586L752.381 309.375C753.079 312.05 753.742 314.737 754.369 317.437H754.37L753.559 317.626C754.182 320.31 754.771 323.006 755.324 325.715L756.14 325.549C756.692 328.256 757.208 330.976 757.689 333.707L756.87 333.851C757.348 336.564 757.79 339.288 758.196 342.023L759.02 341.901C759.425 344.634 759.795 347.378 760.128 350.132L759.302 350.231C759.632 352.965 759.927 355.709 760.186 358.463L761.014 358.385C761.272 361.134 761.493 363.894 761.678 366.663H761.679L760.848 366.719C761.031 369.465 761.179 372.222 761.289 374.986L762.12 374.953Z" stroke="url(#paint0_linear_1061_11298)" stroke-width="1.66654" stroke-dasharray="8.33 8.33"/>
<path opacity="0.2" d="M825.391 374.573C825.483 377.324 825.543 380.082 825.574 382.848L824.743 382.856C824.759 384.236 824.767 385.617 824.767 387C824.767 388.383 824.759 389.764 824.743 391.144L825.574 391.151C825.543 393.917 825.483 396.675 825.391 399.426L824.559 399.398C824.466 402.146 824.343 404.886 824.189 407.618L825.02 407.664C824.864 410.428 824.679 413.185 824.462 415.934L823.633 415.869C823.417 418.611 823.17 421.346 822.893 424.072L823.721 424.155C823.441 426.905 823.13 429.646 822.79 432.378L821.965 432.276C821.624 435.009 821.254 437.734 820.853 440.449L821.675 440.57C821.272 443.299 820.839 446.018 820.376 448.729L819.556 448.589C819.091 451.306 818.596 454.014 818.071 456.712L818.887 456.87C818.361 459.574 817.807 462.268 817.222 464.952L816.408 464.775C815.82 467.47 815.203 470.155 814.556 472.828L815.363 473.022C814.714 475.702 814.036 478.372 813.328 481.03L812.525 480.816C811.817 483.477 811.079 486.128 810.312 488.767L811.109 488.998C810.339 491.647 809.54 494.285 808.712 496.911L807.92 496.661C807.093 499.285 806.235 501.896 805.351 504.496L806.139 504.764C805.249 507.376 804.33 509.976 803.384 512.564L802.604 512.279C801.659 514.861 800.687 517.431 799.687 519.988L800.461 520.291C799.455 522.861 798.421 525.417 797.359 527.961L796.592 527.641C795.532 530.179 794.446 532.704 793.331 535.216L794.092 535.553C792.973 538.073 791.826 540.58 790.652 543.073L789.9 542.72C788.729 545.208 787.531 547.684 786.306 550.145L787.051 550.516C785.822 552.983 784.565 555.435 783.283 557.873L782.547 557.487C781.267 559.922 779.961 562.342 778.628 564.747L779.355 565.15C778.02 567.561 776.657 569.956 775.269 572.337L774.551 571.919C773.166 574.295 771.755 576.655 770.318 579L771.028 579.435C769.589 581.785 768.122 584.119 766.632 586.438L765.934 585.988C764.447 588.301 762.935 590.599 761.398 592.88L762.089 593.344C760.549 595.63 758.984 597.899 757.396 600.152L756.716 599.673C755.131 601.92 753.523 604.151 751.89 606.364L752.559 606.857C750.923 609.074 749.264 611.275 747.581 613.458L746.923 612.95C745.244 615.128 743.54 617.289 741.814 619.433L742.462 619.953C740.735 622.098 738.984 624.226 737.211 626.336L736.574 625.802C734.805 627.907 733.012 629.995 731.197 632.064L731.822 632.612C730.007 634.682 728.17 636.735 726.31 638.769L725.695 638.207C723.84 640.236 721.962 642.247 720.062 644.239L720.664 644.812C718.764 646.806 716.843 648.782 714.899 650.737L714.309 650.15C712.371 652.1 710.412 654.031 708.433 655.942L709.01 656.54C707.028 658.454 705.026 660.35 703.003 662.226L702.437 661.615C700.422 663.482 698.386 665.33 696.331 667.158L696.883 667.779C694.823 669.611 692.745 671.425 690.646 673.217L690.105 672.584C688.017 674.367 685.909 676.13 683.781 677.873L684.309 678.517C682.177 680.263 680.026 681.988 677.856 683.693L677.343 683.04C675.183 684.738 673.004 686.415 670.807 688.071L671.308 688.736C669.109 690.394 666.891 692.029 664.655 693.646L664.169 692.973C661.941 694.583 659.695 696.174 657.431 697.742L657.904 698.426C655.643 699.993 653.363 701.538 651.066 703.062L650.606 702.37C648.314 703.892 646.005 705.392 643.679 706.87L644.124 707.572C641.803 709.047 639.465 710.501 637.11 711.933L636.679 711.222C634.33 712.65 631.964 714.056 629.582 715.44L629.999 716.159C627.619 717.542 625.224 718.904 622.812 720.242L622.409 719.516C620.007 720.849 617.59 722.16 615.157 723.448L615.546 724.183C613.111 725.472 610.66 726.739 608.194 727.983L607.82 727.241C605.37 728.478 602.905 729.692 600.426 730.883L600.786 731.633C598.302 732.826 595.802 733.996 593.289 735.144L592.944 734.388C590.448 735.527 587.937 736.644 585.413 737.737L585.743 738.5C583.217 739.594 580.677 740.667 578.123 741.715L577.807 740.944C575.264 741.987 572.708 743.006 570.14 744.002L570.44 744.777C567.876 745.771 565.299 746.742 562.709 747.688L562.424 746.908C559.839 747.853 557.242 748.774 554.632 749.671L554.901 750.458C552.304 751.351 549.694 752.219 547.072 753.064L546.817 752.273C544.201 753.117 541.572 753.935 538.933 754.73L539.173 755.526C536.538 756.32 533.893 757.089 531.235 757.834L531.011 757.033C528.368 757.774 525.714 758.491 523.049 759.184L523.257 759.989C520.589 760.682 517.909 761.349 515.22 761.993L515.027 761.185C512.362 761.822 509.686 762.437 507 763.025L507.178 763.837C504.487 764.427 501.786 764.993 499.075 765.533L498.913 764.718C496.222 765.254 493.522 765.766 490.812 766.253L490.957 767.072C488.251 767.559 485.535 768.019 482.81 768.455L482.679 767.634C479.962 768.069 477.236 768.479 474.502 768.864L474.617 769.688C471.9 770.07 469.174 770.427 466.439 770.76L466.34 769.936C463.611 770.268 460.873 770.575 458.127 770.856L458.211 771.684C455.477 771.964 452.734 772.22 449.984 772.45L449.916 771.621C447.182 771.85 444.44 772.053 441.691 772.231L441.744 773.062C438.992 773.241 436.233 773.394 433.466 773.521L433.429 772.691C430.695 772.818 427.954 772.919 425.207 772.995L425.229 773.826C422.477 773.902 419.718 773.953 416.952 773.979L416.945 773.147C415.565 773.16 414.183 773.167 412.8 773.167C411.416 773.167 410.035 773.16 408.654 773.147L408.646 773.979C405.881 773.953 403.122 773.902 400.369 773.826L400.393 772.995C397.645 772.919 394.904 772.818 392.171 772.691L392.133 773.521C389.366 773.394 386.607 773.241 383.854 773.062L383.908 772.231C381.159 772.053 378.417 771.85 375.684 771.621L375.614 772.45C372.865 772.22 370.123 771.964 367.389 771.684L367.474 770.856C364.728 770.575 361.99 770.268 359.261 769.936L359.16 770.76C356.425 770.427 353.699 770.07 350.981 769.688L351.098 768.864C348.363 768.479 345.637 768.069 342.921 767.634L342.789 768.455C340.064 768.019 337.348 767.559 334.642 767.072L334.789 766.253C332.079 765.766 329.378 765.254 326.687 764.718L326.523 765.533C323.813 764.993 321.112 764.427 318.421 763.837L318.6 763.025C315.914 762.437 313.238 761.822 310.573 761.185L310.379 761.993C307.689 761.349 305.01 760.682 302.342 759.989L302.552 759.184C299.887 758.491 297.232 757.774 294.589 757.033L294.364 757.834C291.707 757.089 289.061 756.32 286.427 755.526L286.667 754.73C284.027 753.935 281.399 753.117 278.782 752.273L278.527 753.064C275.905 752.219 273.295 751.351 270.697 750.458L270.969 749.671C268.359 748.774 265.761 747.853 263.177 746.908L262.891 747.689C260.301 746.743 257.723 745.771 255.159 744.777L255.46 744.002C252.891 743.006 250.335 741.987 247.793 740.944L247.477 741.715H247.476C244.922 740.667 242.383 739.594 239.856 738.5L240.188 737.737C237.663 736.644 235.152 735.526 232.655 734.387L232.31 735.144C229.797 733.996 227.298 732.826 224.813 731.633L225.174 730.883C222.695 729.692 220.23 728.478 217.78 727.241L217.404 727.983C214.939 726.739 212.488 725.472 210.053 724.183L210.443 723.448C208.011 722.16 205.593 720.849 203.191 719.516L202.787 720.242C200.375 718.903 197.98 717.541 195.6 716.158L196.018 715.44C193.636 714.056 191.27 712.65 188.921 711.222L188.488 711.933C186.134 710.501 183.796 709.046 181.475 707.571L181.922 706.87C179.595 705.392 177.285 703.892 174.993 702.37L174.533 703.062C172.236 701.538 169.956 699.993 167.694 698.426L168.169 697.742C165.905 696.174 163.659 694.583 161.431 692.973L160.943 693.646C158.708 692.029 156.49 690.394 154.291 688.736L154.793 688.071C152.596 686.415 150.417 684.738 148.257 683.04L147.742 683.692C145.573 681.987 143.421 680.262 141.29 678.516L141.818 677.873C139.691 676.13 137.583 674.367 135.495 672.584L134.954 673.217C132.855 671.424 130.775 669.611 128.716 667.779L129.269 667.158C127.213 665.33 125.178 663.482 123.163 661.615L122.597 662.226H122.596C120.572 660.35 118.571 658.454 116.589 656.54L117.167 655.942C115.188 654.031 113.229 652.1 111.292 650.15L110.699 650.737C108.756 648.782 106.836 646.806 104.936 644.812L105.537 644.239C103.638 642.247 101.76 640.236 99.9043 638.207L99.29 638.769C97.4301 636.735 95.5927 634.682 93.7773 632.612L94.4033 632.064C92.5882 629.995 90.7951 627.907 89.0254 625.802L88.3887 626.336C86.615 624.226 84.8642 622.098 83.1367 619.953L83.7852 619.433C82.0592 617.289 80.3568 615.128 78.6777 612.95L78.0186 613.457C76.3355 611.274 74.6754 609.074 73.04 606.857L73.71 606.364C72.0771 604.151 70.4682 601.92 68.8838 599.673L68.2041 600.152C66.6151 597.899 65.0504 595.63 63.5107 593.344L64.2012 592.88C62.6648 590.599 61.1534 588.301 59.667 585.988L58.9668 586.438C57.4764 584.12 56.0109 581.785 54.5713 579.435L55.2812 579C53.8449 576.655 52.4338 574.295 51.0488 571.919L50.3301 572.337C48.9421 569.956 47.5789 567.561 46.2432 565.15L46.9717 564.747C45.639 562.342 44.3327 559.922 43.0527 557.487L42.3164 557.874C41.0341 555.435 39.7776 552.982 38.5488 550.515L39.2949 550.145C38.0695 547.684 36.8705 545.208 35.6992 542.72L34.9463 543.073C33.7728 540.58 32.6255 538.073 31.5068 535.553L32.2686 535.216C31.1539 532.704 30.0671 530.179 29.0078 527.641L28.2402 527.961C27.1786 525.417 26.1442 522.861 25.1387 520.291L25.9141 519.988C24.9134 517.431 23.9403 514.861 22.9961 512.279L22.2148 512.564C21.2684 509.976 20.3501 507.376 19.4609 504.764L20.249 504.496C19.3642 501.896 18.508 499.285 17.6807 496.661L16.8867 496.911C16.0585 494.285 15.2603 491.647 14.4902 488.998L15.2881 488.767C14.5211 486.128 13.7837 483.477 13.0752 480.816L12.2705 481.03C11.5627 478.372 10.8851 475.702 10.2363 473.022L11.0449 472.828C10.3976 470.155 9.77918 467.47 9.19141 464.775L8.37695 464.953C7.7914 462.269 7.23785 459.574 6.71191 456.87L7.52832 456.712C7.00358 454.014 6.50853 451.306 6.04395 448.589L5.22266 448.729C4.75928 446.018 4.32684 443.299 3.92383 440.57L4.74707 440.449C4.346 437.734 3.97527 435.009 3.63477 432.276L2.80859 432.378C2.46819 429.646 2.15729 426.905 1.87793 424.155L2.70703 424.072C2.43004 421.346 2.183 418.611 1.9668 415.869L1.1377 415.934C0.920998 413.185 0.734234 410.428 0.579102 407.664L1.41016 407.618C1.25681 404.886 1.13443 402.146 1.04199 399.398L0.208984 399.426C0.116426 396.675 0.0563905 393.917 0.0253906 391.151L0.856445 391.144C0.840977 389.764 0.833008 388.383 0.833008 387C0.833008 385.617 0.840977 384.236 0.856445 382.856L0.0253906 382.848C0.047243 380.899 0.0822924 378.954 0.134766 377.012L0.208984 374.573L1.04199 374.602C1.13443 371.854 1.25681 369.114 1.41016 366.382L0.579102 366.335C0.734241 363.571 0.920991 360.814 1.1377 358.065L1.9668 358.131C2.183 355.389 2.43004 352.654 2.70703 349.928L1.87793 349.844C2.15729 347.094 2.46819 344.353 2.80859 341.621L3.63477 341.724C3.97527 338.991 4.346 336.266 4.74707 333.551L3.92383 333.429C4.32685 330.7 4.75928 327.981 5.22266 325.271L6.04395 325.411C6.50853 322.694 7.00358 319.986 7.52832 317.288L6.71191 317.129C7.23786 314.425 7.7914 311.73 8.37695 309.046L8.37793 309.047L9.19141 309.225C9.77918 306.53 10.3976 303.845 11.0449 301.172L10.2363 300.977C10.8852 298.297 11.5627 295.627 12.2705 292.969L13.0752 293.184C13.7837 290.523 14.5211 287.872 15.2881 285.233L14.4902 285.001C15.2603 282.352 16.0585 279.714 16.8867 277.088L17.6807 277.339C18.508 274.715 19.3642 272.104 20.249 269.504L19.4609 269.235C20.3501 266.623 21.2684 264.023 22.2148 261.435L22.9961 261.721C23.9403 259.139 24.9134 256.569 25.9141 254.012L25.1387 253.708C26.1442 251.138 27.1786 248.582 28.2402 246.038L29.0078 246.359C30.0671 243.821 31.1539 241.296 32.2686 238.784L31.5068 238.446C32.6254 235.926 33.7728 233.419 34.9463 230.926L35.6992 231.28C36.8705 228.792 38.0695 226.316 39.2949 223.855L38.5488 223.484C39.7776 221.017 41.0341 218.564 42.3164 216.125L43.0527 216.513C44.3327 214.078 45.639 211.658 46.9717 209.253L46.2432 208.849C47.5789 206.438 48.9421 204.043 50.3301 201.662L51.0488 202.081C52.4338 199.705 53.8449 197.345 55.2812 195L54.5713 194.564C56.0109 192.214 57.4764 189.88 58.9668 187.561L59.667 188.012C61.1534 185.699 62.6648 183.401 64.2012 181.12L63.5107 180.655C65.0504 178.369 66.6151 176.1 68.2041 173.847L68.8838 174.327C70.4682 172.08 72.0771 169.849 73.71 167.636L73.04 167.142C74.6754 164.925 76.3355 162.725 78.0186 160.542L78.6777 161.05C80.3568 158.872 82.0592 156.711 83.7852 154.567L83.1367 154.046C84.8642 151.901 86.615 149.773 88.3887 147.663L89.0254 148.198C90.7951 146.093 92.5882 144.005 94.4033 141.936L93.7773 141.387C95.5927 139.317 97.4301 137.264 99.29 135.23L99.9043 135.793C101.76 133.764 103.638 131.753 105.537 129.761L104.936 129.187C106.836 127.194 108.756 125.217 110.699 123.262L110.7 123.263L111.292 123.85C113.229 121.9 115.188 119.969 117.167 118.058L116.589 117.459C118.571 115.545 120.572 113.649 122.596 111.773L122.597 111.774L123.163 112.385C125.178 110.518 127.213 108.67 129.269 106.842L128.716 106.22C130.271 104.836 131.837 103.463 133.415 102.103L134.954 100.782L135.495 101.416C137.583 99.6332 139.691 97.8697 141.818 96.127L141.29 95.4834C143.422 93.737 145.573 92.0113 147.743 90.3057L148.257 90.96C150.417 89.2623 152.596 87.5853 154.793 85.9287L154.292 85.2627C156.49 83.6051 158.708 81.9694 160.943 80.3535L161.431 81.0273C163.659 79.4165 165.905 77.8265 168.169 76.2578L167.694 75.5732C169.956 74.0061 172.236 72.4611 174.533 70.9365L174.993 71.6299C177.285 70.1084 179.595 68.6082 181.922 67.1299L181.475 66.4277C183.796 64.9526 186.133 63.4981 188.488 62.0664L188.921 62.7783C191.27 61.3501 193.636 59.9438 196.018 58.5596L195.6 57.8408C197.98 56.4576 200.375 55.0956 202.787 53.7568L203.191 54.4844C205.593 53.1513 208.011 51.8401 210.443 50.5518L210.053 49.8164C212.488 48.5267 214.939 47.26 217.404 46.0156L217.78 46.7588C220.23 45.5224 222.695 44.3082 225.174 43.1172L224.813 42.3662C227.298 41.1729 229.797 40.0027 232.31 38.8555L232.655 39.6123C235.152 38.4726 237.663 37.3562 240.188 36.2627L239.856 35.499C242.383 34.4047 244.922 33.3317 247.476 32.2842L247.477 32.2852L247.793 33.0557C250.335 32.0128 252.891 30.9939 255.46 29.998L255.159 29.2217C257.723 28.2275 260.301 27.2564 262.891 26.3096L263.177 27.0918C265.761 26.1469 268.359 25.2262 270.969 24.3291L270.697 23.541C273.295 22.6481 275.905 21.7797 278.527 20.9346L278.782 21.7266C281.399 20.8833 284.027 20.0645 286.667 19.2695L286.427 18.4727C289.061 17.6793 291.707 16.9098 294.364 16.165L294.589 16.9668C297.232 16.2259 299.887 15.5086 302.552 14.8164L302.342 14.0098C305.01 13.3168 307.689 12.6496 310.379 12.0059L310.573 12.8154C313.238 12.1776 315.914 11.5635 318.6 10.9746L318.421 10.1621C321.112 9.57209 323.813 9.00621 326.523 8.46582L326.687 9.28223C329.378 8.74576 332.079 8.23401 334.789 7.74707L334.642 6.92676C337.348 6.44051 340.064 5.98038 342.789 5.54395L342.921 6.36621C345.637 5.93113 348.363 5.5207 351.098 5.13574L350.981 4.31152C353.699 3.92893 356.425 3.57193 359.16 3.23926L359.261 4.06445C361.99 3.73244 364.728 3.42523 367.474 3.14355L367.389 2.31543C370.123 2.03497 372.865 1.77898 375.614 1.54883L375.684 2.37891C378.417 2.15009 381.159 1.94707 383.908 1.76855L383.854 0.936523C386.607 0.757807 389.366 0.60543 392.133 0.477539L392.171 1.30859C394.904 1.18224 397.645 1.08105 400.393 1.00488L400.369 0.172852C403.122 0.0965339 405.881 0.046067 408.646 0.0205078L408.654 0.852539C410.035 0.839785 411.416 0.833008 412.8 0.833008C414.183 0.833008 415.565 0.839786 416.945 0.852539L416.952 0.0205078C419.718 0.0460584 422.477 0.0965427 425.229 0.172852L425.207 1.00488C427.954 1.08105 430.695 1.18224 433.429 1.30859L433.466 0.477539C436.232 0.605421 438.992 0.757816 441.744 0.936523L441.691 1.76855C444.44 1.94707 447.182 2.15008 449.916 2.37891L449.984 1.54883C452.734 1.779 455.477 2.03494 458.211 2.31543L458.127 3.14355C460.873 3.42523 463.611 3.73245 466.34 4.06445L466.439 3.23926C469.174 3.57189 471.9 3.92898 474.617 4.31152L474.502 5.13574C477.236 5.52071 479.962 5.93112 482.679 6.36621L482.81 5.54395C485.535 5.98037 488.251 6.44052 490.957 6.92676L490.812 7.74707C493.522 8.23397 496.222 8.74581 498.913 9.28223L499.075 8.46582C501.786 9.00621 504.487 9.5721 507.178 10.1621L507.001 10.9746C509.687 11.5635 512.362 12.1776 515.027 12.8154L515.22 12.0059C517.909 12.6496 520.589 13.3168 523.257 14.0098L523.049 14.8164C525.714 15.5085 528.368 16.226 531.011 16.9668L531.235 16.165C533.893 16.9098 536.538 17.6793 539.173 18.4727L538.933 19.2695C541.572 20.0645 544.201 20.8833 546.817 21.7266L547.072 20.9346C549.694 21.7796 552.304 22.6482 554.901 23.541L554.632 24.3291C557.242 25.2261 559.839 26.1469 562.424 27.0918L562.709 26.3105C565.299 27.2573 567.876 28.2276 570.44 29.2217L570.14 29.998C572.708 30.9939 575.264 32.0128 577.807 33.0557L578.123 32.2852V32.2842C580.677 33.3318 583.217 34.4046 585.743 35.499L585.413 36.2627C587.938 37.3562 590.448 38.4736 592.944 39.6133L593.289 38.8555C595.802 40.0028 598.302 41.1727 600.786 42.3662L600.426 43.1172C602.905 44.3082 605.37 45.5223 607.82 46.7588L608.194 46.0156C610.66 47.26 613.111 48.5267 615.546 49.8164L615.157 50.5518C617.59 51.8402 620.007 53.1512 622.409 54.4844L622.812 53.7568C625.224 55.0954 627.619 56.4569 629.999 57.8398L629.582 58.5596C631.964 59.9438 634.33 61.3501 636.679 62.7783L637.11 62.0664C639.465 63.4982 641.803 64.9525 644.125 66.4277L643.679 67.1299C646.005 68.6082 648.314 70.1084 650.606 71.6299L651.066 70.9365C653.363 72.461 655.643 74.0062 657.904 75.5732L657.431 76.2578C659.695 77.8265 661.941 79.4166 664.169 81.0273L664.655 80.3535C666.891 81.9695 669.109 83.605 671.308 85.2627L670.807 85.9287C673.004 87.5853 675.183 89.2623 677.343 90.96L677.856 90.3066C680.026 92.0119 682.177 93.7364 684.309 95.4824L683.781 96.127C685.909 97.8698 688.017 99.6332 690.105 101.416L690.646 100.782C692.745 102.574 694.823 104.388 696.883 106.22L696.331 106.842C698.386 108.67 700.422 110.518 702.437 112.385L703.003 111.774V111.773C705.026 113.649 707.028 115.545 709.01 117.459L708.433 118.058C710.412 119.969 712.371 121.9 714.309 123.85L714.899 123.263V123.262C716.843 125.217 718.764 127.193 720.664 129.187L720.062 129.761C721.962 131.753 723.84 133.764 725.695 135.793L726.31 135.23C728.17 137.264 730.007 139.317 731.822 141.387L731.197 141.936C733.012 144.005 734.805 146.093 736.574 148.198L737.211 147.663C738.984 149.773 740.735 151.901 742.462 154.046L741.814 154.567C743.54 156.711 745.244 158.872 746.923 161.05L747.581 160.541C749.264 162.724 750.923 164.925 752.559 167.142L751.89 167.636C753.522 169.849 755.131 172.08 756.716 174.327L757.396 173.847C758.984 176.1 760.549 178.369 762.089 180.655L761.398 181.12C762.935 183.401 764.447 185.699 765.934 188.012L766.632 187.561C768.122 189.88 769.589 192.214 771.028 194.564L770.318 195C771.755 197.345 773.166 199.705 774.551 202.081L775.269 201.663C776.656 204.044 778.02 206.438 779.355 208.849H779.356L778.628 209.253C779.961 211.658 781.267 214.078 782.547 216.513L783.283 216.126C784.565 218.564 785.822 221.016 787.051 223.483V223.484L786.306 223.855C787.531 226.316 788.729 228.792 789.9 231.28L790.652 230.926C791.826 233.419 792.973 235.926 794.092 238.446H794.093L793.331 238.784C794.446 241.296 795.532 243.821 796.592 246.359L797.359 246.038C798.421 248.582 799.455 251.138 800.461 253.708H800.462L799.687 254.012C800.687 256.569 801.659 259.139 802.604 261.721L803.384 261.435C804.33 264.023 805.249 266.623 806.139 269.235L805.351 269.504C806.235 272.104 807.093 274.715 807.92 277.339L808.712 277.088C809.54 279.714 810.339 282.352 811.109 285.001L810.312 285.233C811.079 287.872 811.817 290.523 812.525 293.184L813.328 292.969C814.036 295.627 814.714 298.297 815.363 300.977L814.556 301.172C815.203 303.845 815.82 306.53 816.408 309.225L817.222 309.047C817.807 311.731 818.361 314.425 818.887 317.129L818.071 317.288C818.596 319.986 819.091 322.694 819.556 325.411L820.376 325.271C820.839 327.981 821.272 330.7 821.675 333.429L820.853 333.551C821.254 336.266 821.624 338.991 821.965 341.724L822.79 341.621C823.13 344.353 823.441 347.094 823.721 349.844H823.722L822.893 349.928C823.17 352.654 823.417 355.389 823.633 358.131L824.462 358.065C824.679 360.814 824.864 363.571 825.02 366.335L824.189 366.382C824.343 369.114 824.466 371.854 824.559 374.602L825.391 374.573Z" stroke="url(#paint1_linear_1061_11298)" stroke-width="1.66654" stroke-dasharray="8.33 8.33"/>
<defs>
<linearGradient id="paint0_linear_1061_11298" x1="393.652" y1="779.033" x2="383.423" y2="60.1047" gradientUnits="userSpaceOnUse">
<stop offset="0.128613" stop-opacity="0.04"/>
<stop offset="1"/>
</linearGradient>
<linearGradient id="paint1_linear_1061_11298" x1="389.625" y1="850.042" x2="377.531" y2="-0.023669" gradientUnits="userSpaceOnUse">
<stop offset="0.128613" stop-opacity="0.04"/>
<stop offset="1"/>
</linearGradient>
</defs>
</svg>
