<svg width="80" height="80" viewBox="0 0 80 80" fill="none" xmlns="http://www.w3.org/2000/svg">
  <rect width="80" height="80" rx="16" fill="#FFF2F2"/>
  <path d="M40 26.6667C36.3181 26.6667 33.3333 29.6514 33.3333 33.3333C33.3333 37.0152 36.3181 40 40 40C43.6819 40 46.6667 37.0152 46.6667 33.3333C46.6667 29.6514 43.6819 26.6667 40 26.6667Z" fill="#FF6B6B"/>
  <path d="M40 43.3333C33.5467 43.3333 28.3333 48.5467 28.3333 55C28.3333 55.9205 29.0795 56.6667 30 56.6667H50C50.9205 56.6667 51.6667 55.9205 51.6667 55C51.6667 48.5467 46.4533 43.3333 40 43.3333Z" fill="#FF6B6B"/>
  <path d="M53.3333 36.6667H53.0083C52.3333 35.0917 51.3333 33.6667 50 33.3333C50.4667 32.5 50.8333 31.5833 50.8333 30.5833C50.8333 26.9167 47.9167 24 44.25 24C41.4167 24 39.0833 25.8333 38.3333 28.3333C35.8333 29.0833 34 31.4167 34 34.25C34 35.25 34.3667 36.1667 34.8333 37L34.5 37.3333C33.1667 38.6667 32.3333 40.4167 32.3333 42.3333V43.3333C32.3333 45.175 33.325 46.7833 34.8333 47.6667C36.1667 53.8333 41.6667 58.3333 48.3333 58.3333C55.4167 58.3333 61.1667 52.5833 61.1667 45.5C61.1667 40.8333 57.3333 36.6667 53.3333 36.6667ZM48.3333 55C44.65 55 41.6667 52.0167 41.6667 48.3333C41.6667 44.65 44.65 41.6667 48.3333 41.6667C52.0167 41.6667 55 44.65 55 48.3333C55 52.0167 52.0167 55 48.3333 55Z" fill="#FF6B6B"/>
</svg> 