<svg width="1281" height="323" viewBox="0 0 1281 323" fill="none" xmlns="http://www.w3.org/2000/svg">
<path opacity="0.05" d="M640.69 1303.14C1000.33 1303.14 1291.88 1011.59 1291.88 651.946C1291.88 292.304 1000.33 0.755859 640.69 0.755859C281.048 0.755859 -10.5 292.304 -10.5 651.946C-10.5 1011.59 281.048 1303.14 640.69 1303.14Z" fill="white"/>
<path opacity="0.05" d="M640.689 1217.79C953.2 1217.79 1206.54 964.455 1206.54 651.945C1206.54 339.435 953.2 86.0957 640.689 86.0957C328.179 86.0957 74.8398 339.435 74.8398 651.945C74.8398 964.455 328.179 1217.79 640.689 1217.79Z" fill="white"/>
<path opacity="0.05" d="M640.69 1099.04C887.615 1099.04 1087.79 898.872 1087.79 651.946C1087.79 405.021 887.615 204.848 640.69 204.848C393.764 204.848 193.592 405.021 193.592 651.946C193.592 898.872 393.764 1099.04 640.69 1099.04Z" fill="white"/>
</svg>
