<svg width="35" height="34" viewBox="0 0 35 34" fill="none" xmlns="http://www.w3.org/2000/svg">
<path d="M23.2726 24.3312L24.8309 22.8791C24.9962 22.7138 25.0788 22.5308 25.0788 22.3301C25.0788 22.1295 24.9962 21.9464 24.8309 21.7812L19.4476 16.3978C19.5657 16.0673 19.6601 15.7485 19.7309 15.4416C19.8018 15.1347 19.8372 14.8159 19.8372 14.4853C19.8372 13.1159 19.3532 11.9472 18.3851 10.9791C17.417 10.011 16.2483 9.527 14.8788 9.527C14.4774 9.527 14.0761 9.58601 13.6747 9.70409C13.2733 9.82216 12.8837 9.98742 12.5059 10.1999L15.6226 13.2812L13.7101 15.0874L10.6643 12.077C10.4518 12.4548 10.2924 12.8443 10.1861 13.2458C10.0799 13.6472 10.0268 14.0603 10.0268 14.4853C10.0268 15.8312 10.499 16.9704 11.4434 17.903C12.3878 18.8357 13.533 19.302 14.8788 19.302C15.2094 19.302 15.534 19.2725 15.8528 19.2135C16.1715 19.1545 16.4962 19.0659 16.8268 18.9478L22.1747 24.3312C22.3163 24.4728 22.4993 24.5437 22.7236 24.5437C22.948 24.5437 23.1309 24.4728 23.2726 24.3312ZM17.4997 31.1666C15.5636 31.1666 13.7337 30.7947 12.0101 30.051C10.2865 29.3072 8.78129 28.292 7.49447 27.0051C6.20766 25.7183 5.19238 24.2131 4.44863 22.4895C3.70488 20.7659 3.33301 18.936 3.33301 16.9999C3.33301 15.0402 3.70488 13.1985 4.44863 11.4749C5.19238 9.75133 6.20766 8.252 7.49447 6.977C8.78129 5.702 10.2865 4.69263 12.0101 3.94888C13.7337 3.20513 15.5636 2.83325 17.4997 2.83325C19.4594 2.83325 21.3011 3.20513 23.0247 3.94888C24.7483 4.69263 26.2476 5.702 27.5226 6.977C28.7976 8.252 29.807 9.75133 30.5507 11.4749C31.2945 13.1985 31.6663 15.0402 31.6663 16.9999C31.6663 18.936 31.2945 20.7659 30.5507 22.4895C29.807 24.2131 28.7976 25.7183 27.5226 27.0051C26.2476 28.292 24.7483 29.3072 23.0247 30.051C21.3011 30.7947 19.4594 31.1666 17.4997 31.1666Z" fill="#3A96AF"/>
</svg>
