<svg width="35" height="34" viewBox="0 0 35 34" fill="none" xmlns="http://www.w3.org/2000/svg">
<path d="M13.958 2.83325C12.7844 2.83325 11.833 3.78464 11.833 4.95825V6.37492C11.833 7.54853 12.7844 8.49992 13.958 8.49992H21.0413C22.2149 8.49992 23.1663 7.54853 23.1663 6.37492V4.95825C23.1663 3.78464 22.2149 2.83325 21.0413 2.83325H13.958Z" fill="#3A96AF"/>
<path fill-rule="evenodd" clip-rule="evenodd" d="M9.70833 5.71851C7.92629 5.81848 6.80131 6.10245 5.9948 6.90896C4.75 8.15376 4.75 10.1572 4.75 14.1642V22.6642C4.75 26.6711 4.75 28.6746 5.9948 29.9194C7.23959 31.1642 9.24306 31.1642 13.25 31.1642H21.75C25.7569 31.1642 27.7603 31.1642 29.0052 29.9194C30.25 28.6746 30.25 26.6711 30.25 22.6642V14.1642C30.25 10.1572 30.25 8.15376 29.0052 6.90896C28.1987 6.10245 27.0737 5.81848 25.2917 5.71851V6.37496C25.2917 8.72217 23.3889 10.625 21.0417 10.625H13.9583C11.6111 10.625 9.70833 8.72217 9.70833 6.37496V5.71851ZM16.1441 21.7679C14.9003 20.8551 13.25 19.3817 13.25 17.987C13.25 15.6166 15.5875 14.7316 17.5 16.5626C19.4125 14.7316 21.75 15.6166 21.75 17.987C21.75 19.3817 20.0999 20.8553 18.8559 21.7679C18.2613 22.2042 17.964 22.4224 17.5 22.4224C17.036 22.4224 16.7387 22.2042 16.1441 21.7679Z" fill="#3A96AF"/>
</svg>
