<svg width="40" height="24" viewBox="0 0 40 24" fill="none" xmlns="http://www.w3.org/2000/svg">
  <rect width="40" height="24" rx="4" fill="#F5F9FC"/>
  <path d="M20.1333 11.0667V13.0667H19.0667V8H21.8667C22.2667 8 22.6667 8.13333 22.9333 8.4C23.2 8.66667 23.3333 9 23.3333 9.4C23.3333 9.8 23.2 10.1333 22.9333 10.4C22.6667 10.6667 22.2667 10.8 21.8667 10.8H20.1333V11.0667ZM20.1333 8.93333V9.86667H21.9333C22.0667 9.86667 22.2 9.8 22.2667 9.73333C22.3333 9.66667 22.4 9.53333 22.4 9.4C22.4 9.26667 22.3333 9.13333 22.2667 9.06667C22.2 9 22.0667 8.93333 21.9333 8.93333H20.1333Z" fill="#3C4043"/>
  <path d="M25.0667 9.73333C25.5333 9.73333 25.9333 9.86667 26.2 10.1333C26.4667 10.4 26.6 10.8 26.6 11.2667V13.0667H25.6V12.6C25.4 13 25.0667 13.1333 24.6 13.1333C24.2667 13.1333 24 13.0667 23.8 12.8667C23.6 12.6667 23.4667 12.4 23.4667 12.1333C23.4667 11.8667 23.5333 11.6 23.8 11.4C24.0667 11.2 24.3333 11.0667 24.8 11.0667H25.5333C25.5333 10.9333 25.4667 10.8 25.3333 10.6667C25.2 10.5333 25.0667 10.5333 24.8667 10.5333C24.7333 10.5333 24.6 10.5333 24.4667 10.6C24.3333 10.6667 24.2667 10.7333 24.2 10.8L23.4 10.3333C23.5333 10.1333 23.7333 10 24 9.93333C24.2667 9.8 24.6667 9.73333 25.0667 9.73333ZM24.8 12.4C24.9333 12.4 25.0667 12.3333 25.2 12.2667C25.3333 12.2 25.4 12.0667 25.4 11.9333V11.6667H24.8667C24.5333 11.6667 24.4 11.8 24.4 12C24.4 12.0667 24.4667 12.1333 24.5333 12.2C24.6 12.3333 24.6667 12.4 24.8 12.4Z" fill="#3C4043"/>
  <path d="M29.8667 9.8L27.6 14.4H26.5333L27.4 12.6667L26 9.8H27.0667L27.9333 11.6667L28.8 9.8H29.8667Z" fill="#3C4043"/>
  <path d="M17.6 10.9333C17.6 10.7333 17.5333 10.5333 17.4 10.4C17.2667 10.2667 17.0667 10.2 16.8667 10.2C16.5333 10.2 16.2667 10.3333 16.0667 10.6C15.8667 10.8667 15.8 11.2 15.8 11.6C15.8 12 15.9333 12.3333 16.0667 12.6C16.2667 12.8667 16.5333 13 16.8667 13C17.2 13 17.4667 12.8667 17.6667 12.6L18.2667 13.2C17.9333 13.6 17.4667 13.8 16.8667 13.8C16.2667 13.8 15.7333 13.6 15.3333 13.2C14.9333 12.8 14.7333 12.2667 14.7333 11.6C14.7333 10.9333 14.9333 10.4 15.3333 10C15.7333 9.6 16.2667 9.4 16.8667 9.4C17.4667 9.4 17.9333 9.6 18.2667 9.93333C18.6 10.2667 18.7333 10.6667 18.7333 11.2H16.6667C16.6667 11.2 17.6 10.9333 17.6 10.9333Z" fill="#4285F4"/>
  <path d="M12.1333 11.6C12.1333 10.9333 12.3333 10.4 12.7333 10C13.1333 9.6 13.6 9.4 14.2 9.4C14.8 9.4 15.2667 9.6 15.6667 10C16.0667 10.4 16.2667 10.9333 16.2667 11.6C16.2667 12.2667 16.0667 12.8 15.6667 13.2C15.2667 13.6 14.8 13.8 14.2 13.8C13.6 13.8 13.1333 13.6 12.7333 13.2C12.3333 12.8 12.1333 12.2667 12.1333 11.6ZM13.2 11.6C13.2 12 13.3333 12.3333 13.4667 12.6C13.6667 12.8667 13.9333 13 14.2667 13C14.6 13 14.8667 12.8667 15.0667 12.6C15.2667 12.3333 15.4 12 15.4 11.6C15.4 11.2 15.2667 10.8667 15.0667 10.6C14.8667 10.3333 14.6 10.2 14.2667 10.2C13.9333 10.2 13.6667 10.3333 13.4667 10.6C13.2667 10.8667 13.2 11.2 13.2 11.6Z" fill="#EA4335"/>
  <path d="M10.4667 13.7333C9.86667 13.7333 9.4 13.5333 9 13.1333C8.6 12.7333 8.4 12.2 8.4 11.5333C8.4 10.9333 8.6 10.3333 9 9.93333C9.4 9.53333 9.86667 9.33333 10.4667 9.33333C11 9.33333 11.4667 9.53333 11.8 9.93333L11.2 10.5333C11 10.3333 10.7333 10.2 10.4667 10.2C10.1333 10.2 9.86667 10.3333 9.66667 10.6C9.46667 10.8667 9.33333 11.2 9.33333 11.6C9.33333 12 9.46667 12.3333 9.66667 12.6C9.86667 12.8667 10.1333 13 10.4667 13C10.8 13 11.0667 12.8667 11.3333 12.6L11.9333 13.2C11.7333 13.4 11.5333 13.5333 11.2667 13.6667C11.0667 13.7333 10.8 13.7333 10.4667 13.7333Z" fill="#FBBC04"/>
</svg> 