<svg width="125" height="34" viewBox="0 0 125 34" fill="none" xmlns="http://www.w3.org/2000/svg">
<path d="M49.2768 19.9799H39.7881C39.8546 20.8304 40.127 21.4783 40.6087 21.9301C41.0905 22.3786 41.6819 22.6045 42.3862 22.6045C43.4327 22.6045 44.1603 22.1627 44.569 21.2789H49.0309C48.8017 22.1793 48.3897 22.9866 47.7917 23.7076C47.1936 24.4285 46.4461 24.99 45.5491 25.3986C44.6487 25.8073 43.6454 26.0099 42.5324 26.0099C41.1901 26.0099 39.9974 25.7242 38.9509 25.1528C37.9043 24.5813 37.087 23.764 36.499 22.7009C35.9109 21.6377 35.6152 20.3952 35.6152 18.9732C35.6152 17.5512 35.9043 16.3087 36.4857 15.2455C37.0671 14.1824 37.8778 13.3651 38.9243 12.7936C39.9708 12.2222 41.1702 11.9365 42.529 11.9365C43.8879 11.9365 45.0308 12.2155 46.0607 12.7704C47.0906 13.3252 47.8947 14.1192 48.4761 15.1492C49.0575 16.1791 49.3465 17.3818 49.3465 18.7539C49.3465 19.146 49.3233 19.5546 49.2734 19.9799H49.2768ZM45.0607 17.6509C45.0607 16.9333 44.8148 16.3585 44.3264 15.9333C43.8347 15.508 43.2234 15.2954 42.4859 15.2954C41.7483 15.2954 41.1901 15.5013 40.7084 15.91C40.2267 16.3186 39.9276 16.9001 39.8147 17.6509H45.0607Z" fill="#3A96AF"/>
<path d="M53.9116 7.67053V25.8139H49.7188V7.67053H53.9116Z" fill="#3A96AF"/>
<path d="M67.9389 19.9799H58.4502C58.5167 20.8304 58.7891 21.4783 59.2708 21.9301C59.7526 22.3786 60.344 22.6045 61.0483 22.6045C62.0948 22.6045 62.8224 22.1627 63.2311 21.2789H67.693C67.4638 22.1793 67.0518 22.9866 66.4538 23.7076C65.8557 24.4285 65.1082 24.99 64.2112 25.3986C63.3108 25.8073 62.3075 26.0099 61.1945 26.0099C59.8523 26.0099 58.6595 25.7242 57.613 25.1528C56.5664 24.5813 55.7491 23.764 55.1611 22.7009C54.573 21.6377 54.2773 20.3952 54.2773 18.9732C54.2773 17.5512 54.5664 16.3087 55.1478 15.2455C55.7292 14.1824 56.5399 13.3651 57.5864 12.7936C58.633 12.2222 59.8356 11.9365 61.1912 11.9365C62.5467 11.9365 63.6929 12.2155 64.7228 12.7704C65.7528 13.3252 66.5568 14.1192 67.1382 15.1492C67.7196 16.1791 68.0086 17.3818 68.0086 18.7539C68.0086 19.146 67.9854 19.5546 67.9355 19.9799H67.9389ZM63.7228 17.6509C63.7228 16.9333 63.4769 16.3585 62.9886 15.9333C62.4968 15.508 61.8855 15.2954 61.148 15.2954C60.4104 15.2954 59.8523 15.5013 59.3705 15.91C58.8888 16.3186 58.5898 16.9001 58.4768 17.6509H63.7228Z" fill="#3A96AF"/>
<path d="M74.5341 21.8935L77.5009 12.1357H81.9628L77.1089 25.8172H71.936L67.082 12.1357H71.5705L74.5374 21.8935H74.5341Z" fill="#3A96AF"/>
<path d="M81.8526 15.2489C82.3842 14.1857 83.1085 13.3684 84.0221 12.797C84.9358 12.2255 85.9591 11.9398 87.0887 11.9398C88.0521 11.9398 88.8993 12.1358 89.6269 12.5279C90.3545 12.9199 90.9127 13.4349 91.3081 14.0728V12.1358H95.5009V25.8173H91.3081V23.8804C90.8994 24.5182 90.3313 25.0332 89.6037 25.4253C88.8761 25.8173 88.0289 26.0133 87.0654 26.0133C85.9524 26.0133 84.9391 25.7243 84.0255 25.1428C83.1085 24.5614 82.3875 23.7375 81.856 22.6677C81.3244 21.5979 81.0586 20.3587 81.0586 18.9533C81.0586 17.548 81.3244 16.312 81.856 15.2522L81.8526 15.2489ZM90.4343 16.4981C89.8529 15.8934 89.1485 15.5911 88.3146 15.5911C87.4807 15.5911 86.773 15.8901 86.1949 16.4848C85.6135 17.0828 85.3245 17.9034 85.3245 18.95C85.3245 19.9965 85.6135 20.8271 86.1949 21.4384C86.7764 22.0531 87.4807 22.3587 88.3146 22.3587C89.1485 22.3587 89.8562 22.0564 90.4343 21.4517C91.0157 20.847 91.3047 20.0231 91.3047 18.9766C91.3047 17.93 91.0157 17.1061 90.4343 16.5014V16.4981Z" fill="#3A96AF"/>
<path d="M108.874 13.5445C109.831 14.5843 110.309 16.0096 110.309 17.8236V25.8172H106.139V18.3884C106.139 17.4748 105.904 16.7605 105.428 16.2555C104.953 15.7505 104.315 15.4947 103.515 15.4947C102.714 15.4947 102.076 15.7472 101.601 16.2555C101.126 16.7638 100.89 17.4748 100.89 18.3884V25.8172H96.6973V12.1358H100.89V13.9498C101.315 13.3451 101.887 12.8667 102.608 12.5145C103.325 12.1624 104.136 11.9863 105.036 11.9863C106.638 11.9863 107.917 12.5046 108.874 13.5445Z" fill="#3A96AF"/>
<path d="M111.351 15.2489C111.882 14.1857 112.607 13.3684 113.52 12.797C114.434 12.2255 115.457 11.9398 116.587 11.9398C117.55 11.9398 118.397 12.1358 119.125 12.5279C119.853 12.9199 120.411 13.4349 120.806 14.0728V12.1358H124.999V25.8173H120.806V23.8804C120.397 24.5182 119.829 25.0332 119.102 25.4253C118.374 25.8173 117.527 26.0133 116.563 26.0133C115.45 26.0133 114.437 25.7243 113.523 25.1428C112.607 24.5614 111.886 23.7375 111.354 22.6677C110.822 21.5979 110.557 20.3587 110.557 18.9533C110.557 17.548 110.822 16.312 111.354 15.2522L111.351 15.2489ZM119.932 16.4981C119.351 15.8934 118.647 15.5911 117.813 15.5911C116.979 15.5911 116.271 15.8901 115.693 16.4848C115.112 17.0828 114.823 17.9034 114.823 18.95C114.823 19.9965 115.112 20.8271 115.693 21.4384C116.274 22.0531 116.979 22.3587 117.813 22.3587C118.647 22.3587 119.354 22.0564 119.932 21.4517C120.514 20.847 120.803 20.0231 120.803 18.9766C120.803 17.93 120.514 17.1061 119.932 16.5014V16.4981Z" fill="#3A96AF"/>
<path d="M2.7824 14.4347C4.71202 14.9598 6.62826 15.5116 8.35388 16.6051C7.07973 17.3342 5.72197 17.5917 4.30068 17.2439C2.42456 16.7857 0.999924 15.6955 0 13.9833C0.170556 13.8863 0.280915 13.816 0.401308 13.7592C2.04667 12.9766 3.7355 12.9532 5.46112 13.4549C6.6918 13.8127 7.77867 14.4381 8.7786 15.224C9.69157 15.943 10.5912 16.6787 11.5075 17.3977C12.1931 17.9328 12.9254 18.3876 13.7648 18.6551C14.8417 18.9962 15.865 18.8324 16.8516 18.3341C17.6642 17.9261 18.3732 17.3676 19.0688 16.7924C20.1657 15.8861 21.2392 14.9464 22.4899 14.2541C23.8811 13.4816 25.3626 13.0669 26.9645 13.1338C27.8775 13.1706 28.747 13.3913 29.5663 13.806C29.6399 13.8428 29.7068 13.8996 29.8238 13.9833C28.9878 15.5116 27.7136 16.4881 26.1151 17.0532C24.5266 17.6151 22.9882 17.4378 21.4265 16.6152C22.3595 16.0065 23.3026 15.6219 24.2724 15.3109C25.2322 15.0032 26.2087 14.7424 27.1819 14.4013C26.8475 14.4013 26.5097 14.3779 26.1753 14.4046C24.2992 14.5585 22.51 15.0233 20.9549 16.1269C19.5704 17.1068 18.3698 18.2806 17.5605 19.8022C16.9051 21.0329 16.6275 22.3204 16.9853 23.7049C17.1559 24.3671 17.4803 24.949 17.915 25.4606C18.2194 25.8151 18.3899 26.1997 18.4367 26.6579C18.4936 27.213 18.5036 27.7648 18.3397 28.3634C18.1826 28.2865 18.0388 28.2297 17.9117 28.1461C16.8047 27.4304 15.875 26.5408 15.2229 25.3837C14.9955 24.9791 14.8082 24.9858 14.5775 25.4004C13.9086 26.6144 12.9288 27.5207 11.7583 28.233C11.6847 28.2765 11.6078 28.3133 11.454 28.3935C11.4138 28.0156 11.3302 27.6779 11.357 27.3468C11.3904 26.8953 11.4874 26.4438 11.5911 26.0024C11.6279 25.8452 11.7449 25.6947 11.8553 25.5643C13.2331 23.9089 13.4772 21.8388 12.3904 19.9627C10.7483 17.1268 8.36726 15.2507 5.08657 14.632C4.32743 14.4882 3.5616 14.3879 2.7824 14.4414V14.4347Z" fill="#3A96AF"/>
<path d="M14.9421 0.589585C18.3465 3.74988 18.8247 9.08058 15.3434 12.4817C15.3835 10.0236 15.2732 7.64925 14.9421 5.28823C14.9086 5.28823 14.8719 5.28823 14.8384 5.28488C14.7648 6.48546 14.6745 7.68603 14.621 8.88661C14.5675 10.0772 14.5475 11.271 14.4672 12.475C12.959 10.94 12.1798 9.08727 12.1028 6.94362C12.0226 4.75315 13.4539 1.5661 14.9454 0.586243L14.9421 0.589585Z" fill="#D97E59"/>
<path d="M17.8218 15.4614C18.8953 13.9732 20.0724 12.5486 20.8149 10.8497C20.7948 10.833 20.7781 10.8163 20.758 10.7962C20.457 11.134 20.1494 11.465 19.8517 11.8061C19.544 12.1606 19.2431 12.5218 18.9421 12.883C18.6511 13.2341 18.3635 13.592 18.0793 13.9498C17.7883 14.3143 17.5007 14.6822 17.1663 15.0333C17.0024 14.5651 16.9489 14.1003 17.0024 13.6221C17.2365 11.5319 18.3535 10.0036 20.0557 8.85988C20.6142 8.48532 21.2162 8.20107 21.8683 8.0372C22.3298 7.92015 22.3833 7.94691 22.4736 8.40172C22.7846 9.94341 22.5338 11.4015 21.7746 12.7693C21.1125 13.9665 20.1594 14.8561 18.8652 15.3376C18.5508 15.4547 18.2064 15.4982 17.8753 15.5751L17.8184 15.4614H17.8218Z" fill="#D97E59"/>
<path d="M12.6604 15.0333C11.413 13.5385 10.2024 12.0871 8.99514 10.639C8.97173 10.6557 8.95167 10.6724 8.92826 10.6892C9.67068 12.4716 10.8378 13.9832 12.0685 15.4513C12.0484 15.4848 12.0317 15.5149 12.0116 15.5483C11.7642 15.5149 11.51 15.5115 11.2692 15.448C10.1054 15.1403 9.22924 14.4113 8.51692 13.4783C7.34309 11.9399 7.0187 10.2009 7.38991 8.32146C7.46683 7.93353 7.51699 7.90343 7.89155 8.01713C10.4131 8.77962 12.0551 10.4083 12.7005 12.9833C12.8678 13.6488 12.8711 14.3243 12.6604 15.0333Z" fill="#D97E59"/>
<path d="M18.9174 19.5212C20.5761 19.4443 22.1279 19.5948 23.6796 19.7721C23.4388 19.5513 23.0241 19.3774 22.2516 19.2136C21.7332 19.1032 21.2082 19.0129 20.6832 18.946C20.1581 18.8791 19.6297 18.8557 19.011 18.8056C19.1615 18.6852 19.2552 18.5849 19.3722 18.5213C20.9908 17.6451 22.5927 17.702 24.1612 18.6384C24.7698 19.0029 25.2748 19.4978 25.6794 20.0864C25.8834 20.384 25.8734 20.4476 25.5724 20.6014C23.6629 21.5746 21.0343 21.5111 19.2284 19.8824C19.1348 19.7955 19.0579 19.6918 18.9141 19.5246L18.9174 19.5212Z" fill="#3A96AF"/>
<path d="M6.09734 19.7453C7.65575 19.6617 9.20747 19.4376 10.7893 19.5313C10.1171 21.2168 5.68265 21.7886 3.95703 20.4041C4.61584 19.2102 5.62914 18.4712 6.92336 18.0933C8.30118 17.6886 9.57199 17.9127 10.7324 18.7788C9.14393 18.9059 7.56545 19.033 6.09734 19.7487V19.7453Z" fill="#3A96AF"/>
<path d="M11.4778 24.9188C11.3039 25.0894 11.1534 25.2867 10.9594 25.4305C9.2171 26.7013 7.27076 27.1829 5.14049 26.8418C4.15729 26.6846 3.43159 26.1562 3.047 25.2098C3.00353 25.0994 2.97009 24.9857 2.91992 24.8286H11.431L11.4778 24.9188Z" fill="#D97E59"/>
<path d="M18.3926 24.8252H26.8869C26.7097 25.6345 26.3084 26.2164 25.5793 26.5475C24.9004 26.8551 24.1781 26.9321 23.4457 26.9187C21.9809 26.8953 20.6165 26.5241 19.3691 25.7449C18.9979 25.5108 18.6434 25.2499 18.3959 24.8252H18.3926Z" fill="#D97E59"/>
<path d="M3.85156 27.1327C6.24603 28.029 8.50338 27.6778 10.6905 26.4873C10.7139 26.5575 10.7373 26.591 10.7306 26.6211C10.6403 27.2531 10.6604 27.8785 10.7875 28.5039C10.8209 28.6644 10.7775 28.7614 10.627 28.8283C9.11203 29.4704 7.56366 29.7981 5.93502 29.3299C4.81805 29.0089 4.26625 28.1394 3.85491 27.1361L3.85156 27.1327Z" fill="#3A96AF"/>
<path d="M19.185 26.4873C20.2251 27.106 21.3354 27.4571 22.5159 27.5708C23.6797 27.6845 24.8368 27.631 25.9939 27.1394C25.9471 27.2799 25.927 27.3668 25.8869 27.4471C25.218 28.8249 24.1245 29.5272 22.5828 29.5306C21.4558 29.5306 20.3789 29.3065 19.3389 28.8784C19.0981 28.7781 19.0145 28.6644 19.0513 28.3835C19.1282 27.7748 19.1416 27.1595 19.185 26.4873Z" fill="#3A96AF"/>
<path d="M23.2754 11.9466C23.3222 11.562 23.3456 11.1741 23.4225 10.7962C23.7536 9.17757 25.2485 7.66932 26.7801 7.38506C27.1614 7.31483 27.1681 7.32152 27.2283 7.7061C27.5125 9.54877 26.2952 11.6824 24.5596 12.3579C24.3355 12.4449 24.0947 12.4817 23.8339 12.5017C24.5395 11.3613 25.3722 10.3246 25.914 9.10399C24.9241 9.93336 24.1884 10.9834 23.3991 11.98C23.359 11.97 23.3155 11.9566 23.2754 11.9466Z" fill="#D97E59"/>
<path d="M2.69856 7.36163C4.53119 7.43521 6.6414 9.54207 6.48088 11.98C5.60469 10.96 4.87899 9.86646 3.85231 9.03709C4.4409 10.2611 5.2803 11.3312 6.05282 12.485C4.10648 12.3813 2.02302 9.80292 2.69521 7.36163H2.69856Z" fill="#D97E59"/>
<path d="M19.3563 7.89337C20.0753 6.81319 20.8712 5.81327 21.423 4.65616C20.4398 5.45878 19.7241 6.49215 18.9449 7.50545C18.47 5.91025 20.3027 3.23152 22.3326 3.23487C23.1687 4.78993 21.2457 7.85324 19.3563 7.89337Z" fill="#D97E59"/>
<path d="M8.49789 4.7431C9.043 5.84 9.79545 6.81317 10.4308 7.85657C10.4108 7.88333 10.3874 7.91008 10.3673 7.93684C10.1399 7.85992 9.89912 7.80641 9.68509 7.70274C8.32064 7.05396 7.59829 5.93364 7.39764 4.46218C7.35416 4.14783 7.37757 3.82009 7.39764 3.50239C7.42104 3.19472 7.47121 3.16462 7.77553 3.23151C9.30385 3.56259 10.2603 4.52907 10.7853 5.96374C10.9525 6.42859 11.0094 6.9135 10.9191 7.48871C10.5145 6.95698 10.1667 6.46872 9.78541 6.00722C9.40417 5.54906 8.9828 5.11765 8.58149 4.67621C8.55474 4.69962 8.52464 4.71969 8.49789 4.7431Z" fill="#D97E59"/>
<path d="M14.9143 14.9731C15.8273 14.9731 16.5831 15.7155 16.5931 16.6084C16.6032 17.508 15.8173 18.2805 14.9043 18.2739C13.9579 18.2672 13.2355 17.5381 13.2422 16.5984C13.2523 15.6821 13.9847 14.9698 14.9143 14.9731Z" fill="#3A96AF"/>
<path d="M5.74805 29.9519C7.59072 30.4669 9.30296 30.099 10.9751 29.4268C11.3128 30.0187 11.6272 30.5705 11.9817 31.1892C11.4399 31.3531 10.9316 31.5404 10.4066 31.6541C9.96512 31.7511 9.50361 31.7945 9.0488 31.8012C7.68435 31.828 6.69446 31.1123 5.84168 30.1391C5.81159 30.1057 5.79821 30.0555 5.74805 29.9485V29.9519Z" fill="#3A96AF"/>
<path d="M24.0351 30.0021C23.2559 30.9251 22.4199 31.7244 21.1323 31.7779C20.1558 31.818 19.2127 31.6775 18.3031 31.3197C18.1794 31.2695 18.059 31.2094 17.9219 31.1458C18.2195 30.5673 18.5071 30.0155 18.768 29.5071C19.6609 29.7212 20.5237 29.9653 21.4032 30.1325C22.2794 30.2964 23.1623 30.2295 24.0385 30.0021H24.0351Z" fill="#3A96AF"/>
<path d="M13.0951 31.3799C13.7339 30.8615 14.3091 30.4 14.8943 29.9251C15.4796 30.3833 16.0849 30.8581 16.7704 31.3966C16.5765 31.5571 16.3992 31.7076 16.2187 31.8514C16.0916 31.9517 15.9645 32.0487 15.8274 32.1323C14.7673 32.7811 15.0248 32.771 13.9847 32.1089C13.667 31.9082 13.3961 31.6307 13.0918 31.3799H13.0951Z" fill="#3A96AF"/>
<path d="M16.2861 27.7614C16.8513 28.1661 17.4365 28.5774 18.0084 29.0021C18.0719 29.0489 18.1254 29.2162 18.092 29.2797C17.8545 29.7379 17.6037 30.186 17.3295 30.6241C17.2927 30.6843 17.0987 30.7077 17.0185 30.6709C16.4366 30.3833 15.9483 29.9686 15.5069 29.4971C15.4132 29.4001 15.3865 29.3031 15.4701 29.1693C15.751 28.7078 16.0152 28.2396 16.2894 27.7648L16.2861 27.7614Z" fill="#3A96AF"/>
<path d="M15.8555 32.9918C16.3604 32.5939 16.8387 32.206 17.3336 31.8381C17.4105 31.7812 17.5644 31.7812 17.668 31.8113C18.1764 31.9618 18.668 32.1658 19.183 32.2829C19.6946 32.3999 20.223 32.44 20.7314 32.5103C19.4371 33.5704 17.1497 33.654 15.8555 32.9885V32.9918Z" fill="#D97E59"/>
<path d="M13.5446 27.8116C13.8389 28.3166 14.1366 28.8249 14.4543 29.3667C13.9894 29.8951 13.461 30.3666 12.8089 30.6843C12.7353 30.7211 12.5481 30.671 12.5012 30.6007C12.2303 30.1927 11.9795 29.768 11.7321 29.3433C11.6585 29.2162 11.6685 29.0958 11.819 28.9955C12.3909 28.6109 12.9594 28.2163 13.5446 27.8116Z" fill="#3A96AF"/>
<path d="M13.9554 33.0286C12.2498 33.6306 10.658 33.5135 9.07617 32.5504C9.51092 32.4869 9.88882 32.4634 10.2467 32.3765C10.8821 32.2193 11.5041 32.0253 12.1328 31.8381C12.29 31.7913 12.4237 31.7244 12.5776 31.8581C13.0123 32.2394 13.4571 32.6072 13.9554 33.0253V33.0286Z" fill="#D97E59"/>
<path d="M14.9123 26.1428C15.1665 26.4772 15.4006 26.7749 15.6213 27.0825C15.6648 27.1461 15.6949 27.2531 15.6715 27.32C15.4976 27.845 15.3003 28.3567 14.9056 28.8316C14.618 28.4972 14.4709 28.1226 14.2836 27.7681C14.0896 27.4036 14.1131 27.106 14.4073 26.8083C14.5913 26.621 14.7317 26.387 14.9123 26.1428Z" fill="#3A96AF"/>
</svg>
