<svg xmlns="http://www.w3.org/2000/svg" fill="none" viewBox="1.31 55.66371681415929 653.69 168.30088495575222" style="max-height: 500px" width="653.69" height="168.30088495575222">
<path fill="#3A96AF" d="M211.143 166.67C191.41 166.67 175.32 150.58 175.32 130.847C175.32 111.114 191.41 95.1753 211.143 95.1753C224.501 95.1753 236.037 102.461 241.957 114.908C242.716 116.426 243.019 118.096 243.019 119.766C243.019 121.284 242.868 122.65 242.26 124.016C241.198 126.9 238.921 129.329 236.037 130.391L200.062 144.963C203.098 147.392 207.045 148.758 211.143 148.758C216.911 148.758 222.376 146.026 225.715 141.32L240.135 151.642C233.457 161.053 222.527 166.67 211.143 166.67ZM193.383 128.57L221.768 117.033C218.884 114.301 215.241 112.935 211.143 112.935C202.035 112.935 194.446 119.766 193.383 128.57ZM268.306 165H250.546V61.7809H268.306V165ZM313.864 166.67C294.131 166.67 278.041 150.58 278.041 130.847C278.041 111.114 294.131 95.1753 313.864 95.1753C327.222 95.1753 338.758 102.461 344.678 114.908C345.437 116.426 345.741 118.096 345.741 119.766C345.741 121.284 345.589 122.65 344.982 124.016C343.919 126.9 341.642 129.329 338.758 130.391L302.783 144.963C305.819 147.392 309.766 148.758 313.864 148.758C319.632 148.758 325.097 146.026 328.436 141.32L342.856 151.642C336.178 161.053 325.248 166.67 313.864 166.67ZM296.104 128.57L324.49 117.033C321.605 114.301 317.962 112.935 313.864 112.935C304.756 112.935 297.167 119.766 296.104 128.57ZM381.866 165.304L344.373 96.6932H364.562L381.866 128.114L399.019 96.6932H419.207L381.866 165.304ZM451.272 166.67C431.539 166.67 415.449 150.58 415.449 130.847C415.449 111.114 431.539 95.1753 451.272 95.1753C457.799 95.1753 463.871 96.845 469.184 100.033L474.193 96.6932H486.943V165.152H469.184V161.812C463.871 164.848 457.799 166.67 451.272 166.67ZM451.272 148.758C461.139 148.758 469.184 140.713 469.184 130.847C469.184 120.98 461.139 112.935 451.272 112.935C441.406 112.935 433.209 120.98 433.209 130.847C433.209 140.713 441.406 148.758 451.272 148.758ZM572.482 165H554.722V130.847C554.722 121.891 549.258 112.935 538.632 112.935C530.891 112.935 521.48 121.132 521.48 130.847V165H503.72V96.6932H516.471L521.48 100.184C526.793 96.9968 532.712 95.1753 538.632 95.1753C557.91 95.1753 572.482 110.81 572.482 130.847V165ZM615.955 166.67C596.222 166.67 580.132 150.58 580.132 130.847C580.132 111.114 596.222 95.1753 615.955 95.1753C622.483 95.1753 628.554 96.845 633.867 100.033L638.876 96.6932H651.627V165.152H633.867V161.812C628.554 164.848 622.483 166.67 615.955 166.67ZM615.955 148.758C625.822 148.758 633.867 140.713 633.867 130.847C633.867 120.98 625.822 112.935 615.955 112.935C606.089 112.935 597.892 120.98 597.892 130.847C597.892 140.713 606.089 148.758 615.955 148.758Z"/>
<path fill="#D97E59" d="M345.905 220.995C344.002 220.995 342.454 220.58 341.26 219.75C340.066 218.941 339.256 217.878 338.831 216.563H341.351C341.655 217.311 342.181 217.888 342.93 218.293C343.679 218.718 344.63 218.931 345.783 218.931C347.524 218.931 348.789 218.516 349.578 217.686C350.388 216.876 350.793 215.692 350.793 214.134V212.039C350.226 212.849 349.487 213.507 348.576 214.012C347.686 214.498 346.613 214.741 345.358 214.741C343.881 214.741 342.586 214.407 341.473 213.739C340.38 213.051 339.53 212.12 338.922 210.946C338.315 209.772 338.012 208.467 338.012 207.03C338.012 205.573 338.315 204.267 338.922 203.114C339.53 201.94 340.38 201.019 341.473 200.351C342.586 199.663 343.881 199.319 345.358 199.319C346.613 199.319 347.686 199.562 348.576 200.048C349.487 200.513 350.226 201.161 350.793 201.99V199.562H353.07V214.286C353.07 216.451 352.442 218.111 351.187 219.265C349.953 220.418 348.192 220.995 345.905 220.995ZM345.662 212.677C346.775 212.677 347.716 212.424 348.485 211.918C349.275 211.412 349.872 210.734 350.277 209.884C350.702 209.013 350.914 208.062 350.914 207.03C350.914 205.978 350.702 205.026 350.277 204.176C349.872 203.326 349.275 202.648 348.485 202.142C347.716 201.636 346.775 201.383 345.662 201.383C344.549 201.383 343.588 201.636 342.778 202.142C341.968 202.648 341.351 203.326 340.926 204.176C340.501 205.026 340.289 205.978 340.289 207.03C340.289 208.062 340.501 209.013 340.926 209.884C341.351 210.734 341.968 211.412 342.778 211.918C343.588 212.424 344.549 212.677 345.662 212.677ZM357.615 214.741V199.562H359.892V203.296C359.973 203.033 360.125 202.689 360.347 202.264C360.59 201.818 360.934 201.373 361.379 200.928C361.825 200.483 362.381 200.108 363.049 199.805C363.737 199.481 364.547 199.319 365.478 199.319H365.63V201.596H365.356C364.223 201.596 363.241 201.91 362.412 202.537C361.602 203.144 360.975 203.944 360.529 204.935C360.104 205.907 359.892 206.949 359.892 208.062V214.741H357.615ZM374.89 214.984C373.352 214.984 372.016 214.64 370.883 213.952C369.749 213.243 368.879 212.292 368.272 211.098C367.665 209.904 367.361 208.588 367.361 207.151C367.361 205.694 367.665 204.379 368.272 203.205C368.879 202.011 369.749 201.07 370.883 200.381C372.016 199.673 373.352 199.319 374.89 199.319C376.448 199.319 377.784 199.673 378.897 200.381C380.031 201.07 380.901 202.011 381.508 203.205C382.115 204.379 382.419 205.694 382.419 207.151C382.419 208.588 382.115 209.904 381.508 211.098C380.901 212.292 380.031 213.243 378.897 213.952C377.784 214.64 376.448 214.984 374.89 214.984ZM374.89 212.92C376.023 212.92 376.975 212.656 377.744 212.13C378.533 211.604 379.13 210.906 379.535 210.036C379.94 209.145 380.142 208.184 380.142 207.151C380.142 206.099 379.94 205.138 379.535 204.267C379.13 203.397 378.533 202.699 377.744 202.173C376.975 201.646 376.023 201.383 374.89 201.383C373.777 201.383 372.826 201.646 372.036 202.173C371.247 202.699 370.65 203.397 370.245 204.267C369.84 205.138 369.638 206.099 369.638 207.151C369.638 208.184 369.84 209.145 370.245 210.036C370.65 210.906 371.247 211.604 372.036 212.13C372.826 212.656 373.777 212.92 374.89 212.92ZM388.694 214.741L383.927 199.562H386.356L389.999 211.918L393.855 199.562H396.344L400.2 211.918L403.843 199.562H406.271L401.505 214.741H398.894L395.099 202.628L391.304 214.741H388.694ZM410.646 214.741V201.565H407.549V199.562H410.646V194.128H412.923V199.562H416.414V201.565H412.923V214.741H410.646ZM419.516 214.741V193.49H421.793V201.93C422.339 201.201 423.007 200.584 423.796 200.078C424.586 199.572 425.597 199.319 426.832 199.319C427.884 199.319 428.866 199.572 429.777 200.078C430.708 200.564 431.457 201.302 432.023 202.294C432.61 203.266 432.904 204.47 432.904 205.907V214.741H430.627V205.967C430.627 204.591 430.232 203.488 429.443 202.658C428.654 201.808 427.631 201.383 426.377 201.383C425.527 201.383 424.758 201.576 424.069 201.96C423.381 202.345 422.825 202.891 422.4 203.599C421.995 204.288 421.793 205.087 421.793 205.998V214.741H419.516ZM444.388 214.741V199.562H446.665V201.869C447.009 201.262 447.556 200.685 448.305 200.139C449.053 199.592 450.045 199.319 451.28 199.319C452.292 199.319 453.223 199.592 454.073 200.139C454.943 200.665 455.621 201.414 456.107 202.385C456.309 202.041 456.623 201.626 457.048 201.14C457.493 200.655 458.07 200.23 458.778 199.865C459.487 199.501 460.337 199.319 461.328 199.319C462.3 199.319 463.211 199.572 464.061 200.078C464.911 200.584 465.599 201.312 466.125 202.264C466.671 203.195 466.945 204.298 466.945 205.573V214.741H464.668V205.634C464.668 204.358 464.304 203.336 463.575 202.567C462.867 201.778 461.976 201.383 460.903 201.383C459.79 201.383 458.829 201.758 458.019 202.507C457.21 203.255 456.805 204.308 456.805 205.664V214.741H454.528V205.634C454.528 204.358 454.164 203.336 453.435 202.567C452.727 201.778 451.836 201.383 450.764 201.383C449.65 201.383 448.689 201.758 447.88 202.507C447.07 203.255 446.665 204.308 446.665 205.664V214.741H444.388ZM478.091 214.984C476.553 214.984 475.207 214.64 474.054 213.952C472.9 213.243 471.999 212.292 471.352 211.098C470.724 209.904 470.411 208.588 470.411 207.151C470.411 205.694 470.714 204.379 471.321 203.205C471.929 202.011 472.799 201.07 473.932 200.381C475.066 199.673 476.401 199.319 477.94 199.319C479.498 199.319 480.834 199.673 481.947 200.381C483.08 201.07 483.95 202.011 484.558 203.205C485.165 204.379 485.468 205.694 485.468 207.151V208.062H472.748C472.87 208.953 473.153 209.772 473.598 210.521C474.064 211.25 474.681 211.837 475.45 212.282C476.219 212.707 477.11 212.92 478.122 212.92C479.194 212.92 480.095 212.687 480.824 212.221C481.552 211.736 482.119 211.118 482.524 210.369H485.013C484.487 211.725 483.647 212.839 482.493 213.709C481.36 214.559 479.893 214.984 478.091 214.984ZM472.779 205.937H483.1C482.898 204.642 482.352 203.559 481.461 202.689C480.571 201.818 479.397 201.383 477.94 201.383C476.482 201.383 475.308 201.818 474.418 202.689C473.548 203.559 473.001 204.642 472.779 205.937ZM495.597 214.984C494.059 214.984 492.713 214.64 491.56 213.952C490.406 213.243 489.505 212.292 488.858 211.098C488.23 209.904 487.917 208.588 487.917 207.151C487.917 205.694 488.22 204.379 488.827 203.205C489.434 202.011 490.305 201.07 491.438 200.381C492.572 199.673 493.907 199.319 495.445 199.319C497.004 199.319 498.34 199.673 499.453 200.381C500.586 201.07 501.456 202.011 502.064 203.205C502.671 204.379 502.974 205.694 502.974 207.151V208.062H490.254C490.376 208.953 490.659 209.772 491.104 210.521C491.57 211.25 492.187 211.837 492.956 212.282C493.725 212.707 494.616 212.92 495.628 212.92C496.7 212.92 497.601 212.687 498.33 212.221C499.058 211.736 499.625 211.118 500.03 210.369H502.519C501.993 211.725 501.153 212.839 499.999 213.709C498.866 214.559 497.399 214.984 495.597 214.984ZM490.285 205.937H500.606C500.404 204.642 499.858 203.559 498.967 202.689C498.077 201.818 496.903 201.383 495.445 201.383C493.988 201.383 492.814 201.818 491.924 202.689C491.054 203.559 490.507 204.642 490.285 205.937ZM508.003 214.741V201.565H504.906V199.562H508.003V194.128H510.28V199.562H513.771V201.565H510.28V214.741H508.003ZM522.398 214.984C521.002 214.984 519.818 214.751 518.846 214.286C517.895 213.82 517.166 213.213 516.66 212.464C516.154 211.695 515.871 210.865 515.81 209.975H518.178C518.239 210.481 518.411 210.977 518.694 211.462C518.998 211.928 519.453 212.312 520.061 212.616C520.668 212.899 521.457 213.041 522.429 213.041C522.732 213.041 523.107 213.011 523.552 212.95C523.997 212.889 524.422 212.778 524.827 212.616C525.252 212.454 525.606 212.211 525.889 211.887C526.173 211.564 526.314 211.149 526.314 210.643C526.314 210.015 526.072 209.53 525.586 209.185C525.1 208.841 524.473 208.578 523.704 208.396C522.935 208.194 522.115 208.001 521.245 207.819C520.395 207.637 519.585 207.404 518.816 207.121C518.047 206.818 517.419 206.403 516.934 205.876C516.448 205.33 516.205 204.591 516.205 203.66C516.205 202.284 516.701 201.221 517.693 200.473C518.705 199.703 520.192 199.319 522.155 199.319C523.491 199.319 524.574 199.531 525.404 199.956C526.254 200.361 526.891 200.887 527.316 201.535C527.762 202.183 528.025 202.881 528.106 203.63H525.798C525.717 202.982 525.394 202.426 524.827 201.96C524.28 201.495 523.37 201.262 522.095 201.262C519.686 201.262 518.482 201.99 518.482 203.448C518.482 204.055 518.725 204.52 519.211 204.844C519.696 205.168 520.324 205.431 521.093 205.634C521.862 205.816 522.671 205.998 523.521 206.18C524.392 206.342 525.211 206.575 525.981 206.878C526.75 207.182 527.377 207.617 527.863 208.184C528.348 208.73 528.591 209.479 528.591 210.43C528.591 211.908 528.025 213.041 526.891 213.83C525.778 214.599 524.28 214.984 522.398 214.984ZM539.196 220.752V199.562H541.473V201.99C542.04 201.161 542.768 200.513 543.659 200.048C544.569 199.562 545.652 199.319 546.907 199.319C548.384 199.319 549.67 199.673 550.763 200.381C551.876 201.07 552.736 202.011 553.343 203.205C553.95 204.379 554.254 205.694 554.254 207.151C554.254 208.588 553.95 209.904 553.343 211.098C552.736 212.292 551.876 213.243 550.763 213.952C549.67 214.64 548.384 214.984 546.907 214.984C545.652 214.984 544.569 214.741 543.659 214.255C542.768 213.749 542.04 213.092 541.473 212.282V220.752H539.196ZM546.603 212.92C547.737 212.92 548.698 212.656 549.488 212.13C550.297 211.604 550.914 210.906 551.339 210.036C551.764 209.145 551.977 208.184 551.977 207.151C551.977 206.099 551.764 205.138 551.339 204.267C550.914 203.397 550.297 202.699 549.488 202.173C548.698 201.646 547.737 201.383 546.603 201.383C545.49 201.383 544.539 201.646 543.75 202.173C542.96 202.699 542.363 203.397 541.959 204.267C541.554 205.138 541.351 206.099 541.351 207.151C541.351 208.184 541.554 209.145 541.959 210.036C542.363 210.906 542.96 211.604 543.75 212.13C544.539 212.656 545.49 212.92 546.603 212.92ZM563.778 214.984C562.746 214.984 561.764 214.741 560.833 214.255C559.902 213.749 559.143 213.011 558.556 212.039C557.99 211.047 557.706 209.833 557.706 208.396V199.562H559.983V208.335C559.983 209.712 560.378 210.825 561.167 211.675C561.977 212.505 562.999 212.92 564.233 212.92C565.084 212.92 565.853 212.727 566.541 212.343C567.229 211.938 567.775 211.392 568.18 210.703C568.605 210.015 568.818 209.216 568.818 208.305V199.562H571.095V214.741H568.818V212.373C568.271 213.102 567.603 213.719 566.814 214.225C566.025 214.731 565.013 214.984 563.778 214.984ZM575.661 214.741V199.562H577.938V203.296C578.018 203.033 578.17 202.689 578.393 202.264C578.636 201.818 578.98 201.373 579.425 200.928C579.87 200.483 580.427 200.108 581.095 199.805C581.783 199.481 582.592 199.319 583.523 199.319H583.675V201.596H583.402C582.269 201.596 581.287 201.91 580.457 202.537C579.648 203.144 579.02 203.944 578.575 204.935C578.15 205.907 577.938 206.949 577.938 208.062V214.741H575.661ZM586.733 220.752V199.562H589.01V201.99C589.577 201.161 590.305 200.513 591.196 200.048C592.107 199.562 593.189 199.319 594.444 199.319C595.922 199.319 597.207 199.673 598.3 200.381C599.413 201.07 600.273 202.011 600.88 203.205C601.487 204.379 601.791 205.694 601.791 207.151C601.791 208.588 601.487 209.904 600.88 211.098C600.273 212.292 599.413 213.243 598.3 213.952C597.207 214.64 595.922 214.984 594.444 214.984C593.189 214.984 592.107 214.741 591.196 214.255C590.305 213.749 589.577 213.092 589.01 212.282V220.752H586.733ZM594.141 212.92C595.274 212.92 596.235 212.656 597.025 212.13C597.834 211.604 598.452 210.906 598.877 210.036C599.302 209.145 599.514 208.184 599.514 207.151C599.514 206.099 599.302 205.138 598.877 204.267C598.452 203.397 597.834 202.699 597.025 202.173C596.235 201.646 595.274 201.383 594.141 201.383C593.028 201.383 592.076 201.646 591.287 202.173C590.498 202.699 589.901 203.397 589.496 204.267C589.091 205.138 588.889 206.099 588.889 207.151C588.889 208.184 589.091 209.145 589.496 210.036C589.901 210.906 590.498 211.604 591.287 212.13C592.076 212.656 593.028 212.92 594.141 212.92ZM611.983 214.984C610.445 214.984 609.109 214.64 607.976 213.952C606.843 213.243 605.972 212.292 605.365 211.098C604.758 209.904 604.454 208.588 604.454 207.151C604.454 205.694 604.758 204.379 605.365 203.205C605.972 202.011 606.843 201.07 607.976 200.381C609.109 199.673 610.445 199.319 611.983 199.319C613.542 199.319 614.877 199.673 615.991 200.381C617.124 201.07 617.994 202.011 618.601 203.205C619.209 204.379 619.512 205.694 619.512 207.151C619.512 208.588 619.209 209.904 618.601 211.098C617.994 212.292 617.124 213.243 615.991 213.952C614.877 214.64 613.542 214.984 611.983 214.984ZM611.983 212.92C613.117 212.92 614.068 212.656 614.837 212.13C615.626 211.604 616.223 210.906 616.628 210.036C617.033 209.145 617.235 208.184 617.235 207.151C617.235 206.099 617.033 205.138 616.628 204.267C616.223 203.397 615.626 202.699 614.837 202.173C614.068 201.646 613.117 201.383 611.983 201.383C610.87 201.383 609.919 201.646 609.13 202.173C608.34 202.699 607.743 203.397 607.338 204.267C606.934 205.138 606.731 206.099 606.731 207.151C606.731 208.184 606.934 209.145 607.338 210.036C607.743 210.906 608.34 211.604 609.13 212.13C609.919 212.656 610.87 212.92 611.983 212.92ZM628.664 214.984C627.267 214.984 626.083 214.751 625.112 214.286C624.161 213.82 623.432 213.213 622.926 212.464C622.42 211.695 622.137 210.865 622.076 209.975H624.444C624.505 210.481 624.677 210.977 624.96 211.462C625.264 211.928 625.719 212.312 626.326 212.616C626.933 212.899 627.723 213.041 628.694 213.041C628.998 213.041 629.372 213.011 629.817 212.95C630.263 212.889 630.688 212.778 631.093 212.616C631.518 212.454 631.872 212.211 632.155 211.887C632.438 211.564 632.58 211.149 632.58 210.643C632.58 210.015 632.337 209.53 631.851 209.185C631.366 208.841 630.738 208.578 629.969 208.396C629.2 208.194 628.38 208.001 627.51 207.819C626.66 207.637 625.851 207.404 625.082 207.121C624.312 206.818 623.685 206.403 623.199 205.876C622.714 205.33 622.471 204.591 622.471 203.66C622.471 202.284 622.967 201.221 623.958 200.473C624.97 199.703 626.458 199.319 628.421 199.319C629.757 199.319 630.84 199.531 631.669 199.956C632.519 200.361 633.157 200.887 633.582 201.535C634.027 202.183 634.29 202.881 634.371 203.63H632.064C631.983 202.982 631.659 202.426 631.093 201.96C630.546 201.495 629.635 201.262 628.36 201.262C625.952 201.262 624.748 201.99 624.748 203.448C624.748 204.055 624.99 204.52 625.476 204.844C625.962 205.168 626.589 205.431 627.358 205.634C628.127 205.816 628.937 205.998 629.787 206.18C630.657 206.342 631.477 206.575 632.246 206.878C633.015 207.182 633.643 207.617 634.128 208.184C634.614 208.73 634.857 209.479 634.857 210.43C634.857 211.908 634.29 213.041 633.157 213.83C632.044 214.599 630.546 214.984 628.664 214.984ZM645.131 214.984C643.593 214.984 642.247 214.64 641.093 213.952C639.94 213.243 639.039 212.292 638.391 211.098C637.764 209.904 637.45 208.588 637.45 207.151C637.45 205.694 637.754 204.379 638.361 203.205C638.968 202.011 639.838 201.07 640.972 200.381C642.105 199.673 643.441 199.319 644.979 199.319C646.538 199.319 647.873 199.673 648.987 200.381C650.12 201.07 650.99 202.011 651.597 203.205C652.205 204.379 652.508 205.694 652.508 207.151V208.062H639.788C639.909 208.953 640.193 209.772 640.638 210.521C641.103 211.25 641.721 211.837 642.49 212.282C643.259 212.707 644.149 212.92 645.161 212.92C646.234 212.92 647.135 212.687 647.863 212.221C648.592 211.736 649.159 211.118 649.563 210.369H652.053C651.527 211.725 650.687 212.839 649.533 213.709C648.4 214.559 646.932 214.984 645.131 214.984ZM639.818 205.937H650.14C649.938 204.642 649.391 203.559 648.501 202.689C647.61 201.818 646.436 201.383 644.979 201.383C643.522 201.383 642.348 201.818 641.458 202.689C640.587 203.559 640.041 204.642 639.818 205.937Z"/>
<path fill="#3A96AF" d="M12.6292 120.538C21.3876 122.921 30.0853 125.426 37.9178 130.389C32.1345 133.699 25.9717 134.867 19.5206 133.289C11.005 131.209 4.5386 126.261 0 118.489C0.774143 118.049 1.27506 117.73 1.82151 117.472C9.28972 113.92 16.9553 113.814 24.7878 116.091C30.3737 117.715 35.307 120.553 39.8456 124.12C43.9896 127.384 48.0728 130.723 52.2319 133.987C55.3437 136.416 58.6679 138.48 62.4779 139.694C67.3657 141.243 72.0105 140.499 76.4884 138.237C80.177 136.385 83.395 133.85 86.5522 131.24C91.5311 127.126 96.4036 122.861 102.081 119.718C108.395 116.212 115.12 114.33 122.391 114.633C126.534 114.8 130.481 115.802 134.2 117.684C134.534 117.851 134.838 118.109 135.369 118.489C131.574 125.426 125.791 129.858 118.535 132.423C111.325 134.974 104.342 134.169 97.2536 130.435C101.489 127.672 105.769 125.927 110.171 124.515C114.528 123.119 118.96 121.935 123.377 120.386C121.859 120.386 120.326 120.28 118.808 120.402C110.293 121.1 102.172 123.21 95.1134 128.219C88.8291 132.666 83.3798 137.994 79.7064 144.901C76.7313 150.487 75.4714 156.331 77.0956 162.615C77.8697 165.621 79.3421 168.262 81.3154 170.584C82.6967 172.193 83.4709 173.939 83.6834 176.018C83.9414 178.538 83.987 181.043 83.2432 183.76C82.5297 183.411 81.877 183.153 81.3002 182.773C76.2759 179.525 72.056 175.487 69.0961 170.235C68.0639 168.398 67.2138 168.429 66.1665 170.311C63.1306 175.821 58.6831 179.935 53.3704 183.168C53.0364 183.365 52.6873 183.532 51.989 183.896C51.8069 182.181 51.4274 180.648 51.5488 179.145C51.7006 177.096 52.1408 175.047 52.6114 173.043C52.7784 172.33 53.3096 171.647 53.8105 171.055C60.0644 163.541 61.1725 154.145 56.2392 145.629C48.7862 132.757 37.9786 124.242 23.0877 121.434C19.642 120.781 16.1659 120.326 12.6292 120.568V120.538Z"/>
<path fill="#D97E59" d="M67.8198 57.6963C83.2723 72.0407 85.443 96.2365 69.6413 111.674C69.8235 100.517 69.3226 89.7398 67.8198 79.0232C67.668 79.0232 67.501 79.0232 67.3492 79.008C67.0153 84.4574 66.6055 89.9068 66.3626 95.3561C66.1197 100.76 66.0286 106.179 65.6643 111.644C58.8185 104.676 55.2817 96.2669 54.9326 86.537C54.5683 76.5945 61.065 62.1287 67.835 57.6812L67.8198 57.6963Z"/>
<path fill="#D97E59" d="M80.8933 125.198C85.7658 118.443 91.1089 111.977 94.4787 104.266C94.3876 104.19 94.3117 104.114 94.2207 104.023C92.8545 105.556 91.458 107.059 90.1071 108.607C88.7106 110.216 87.3445 111.856 85.9783 113.495C84.6577 115.089 83.3523 116.713 82.0621 118.337C80.7415 119.992 79.4361 121.661 77.9181 123.255C77.1743 121.13 76.9315 119.02 77.1743 116.85C78.2369 107.363 83.3068 100.426 91.033 95.2344C93.568 93.5343 96.3002 92.2441 99.2602 91.5003C101.355 90.969 101.598 91.0904 102.008 93.1548C103.419 100.152 102.281 106.771 98.8352 112.979C95.8297 118.413 91.5036 122.451 85.6292 124.637C84.2023 125.168 82.6389 125.365 81.1361 125.714L80.8781 125.198H80.8933Z"/>
<path fill="#D97E59" d="M57.4695 123.256C51.8076 116.471 46.3127 109.883 40.833 103.31C40.7267 103.386 40.6356 103.462 40.5294 103.538C43.8992 111.629 49.1967 118.49 54.7827 125.153C54.6916 125.305 54.6157 125.442 54.5247 125.594C53.4014 125.442 52.2478 125.427 51.1549 125.138C45.8725 123.742 41.8955 120.433 38.6623 116.198C33.3344 109.215 31.862 101.322 33.5469 92.7911C33.896 91.0303 34.1237 90.8937 35.8238 91.4098C47.269 94.8707 54.722 102.263 57.6516 113.951C58.4106 116.972 58.4257 120.038 57.4695 123.256Z"/>
<path fill="#3A96AF" d="M85.8663 143.626C93.3952 143.277 100.438 143.96 107.482 144.764C106.389 143.762 104.506 142.973 101 142.229C98.6472 141.728 96.2641 141.318 93.8809 141.015C91.4978 140.711 89.0994 140.605 86.2913 140.377C86.9743 139.831 87.3994 139.375 87.9306 139.087C95.2774 135.11 102.548 135.368 109.667 139.618C112.43 141.273 114.722 143.519 116.559 146.191C117.485 147.542 117.439 147.83 116.073 148.529C107.406 152.946 95.4747 152.657 87.2779 145.265C86.8529 144.87 86.5038 144.4 85.8511 143.641L85.8663 143.626Z"/>
<path fill="#3A96AF" d="M27.6698 144.644C34.7434 144.264 41.7865 143.247 48.9663 143.672C45.9153 151.322 25.7876 153.918 17.9551 147.634C20.9454 142.215 25.5447 138.86 31.4191 137.145C37.673 135.308 43.4411 136.325 48.7083 140.257C41.4981 140.834 34.3335 141.41 27.6698 144.659V144.644Z"/>
<path fill="#D97E59" d="M52.0943 168.126C51.305 168.9 50.6219 169.795 49.7415 170.448C41.8331 176.216 32.9987 178.402 23.3295 176.854C18.8668 176.14 15.5729 173.742 13.8273 169.446C13.63 168.945 13.4782 168.429 13.2505 167.716H51.8818L52.0943 168.126Z"/>
<path fill="#D97E59" d="M83.4858 167.7H122.041C121.237 171.374 119.415 174.015 116.106 175.518C113.025 176.914 109.746 177.263 106.422 177.202C99.7732 177.096 93.5801 175.411 87.9182 171.874C86.2333 170.812 84.6243 169.628 83.501 167.7H83.4858Z"/>
<path fill="#3A96AF" d="M17.4868 178.174C28.3552 182.242 38.6012 180.648 48.5284 175.245C48.6347 175.563 48.741 175.715 48.7106 175.852C48.3008 178.721 48.3918 181.559 48.9686 184.398C49.1204 185.126 48.9231 185.567 48.24 185.87C41.3638 188.785 34.3358 190.272 26.9435 188.147C21.8736 186.69 19.3691 182.743 17.502 178.189L17.4868 178.174Z"/>
<path fill="#3A96AF" d="M87.0853 175.245C91.806 178.053 96.8456 179.647 102.204 180.163C107.486 180.679 112.738 180.436 117.99 178.205C117.778 178.842 117.687 179.237 117.505 179.601C114.469 185.855 109.505 189.043 102.507 189.058C97.392 189.058 92.5043 188.041 87.7835 186.098C86.6906 185.642 86.3111 185.126 86.4781 183.851C86.8272 181.089 86.8879 178.296 87.0853 175.245Z"/>
<path fill="#D97E59" d="M105.651 109.245C105.864 107.5 105.97 105.739 106.319 104.024C107.822 96.6768 114.607 89.8309 121.559 88.5407C123.29 88.2219 123.32 88.2523 123.593 89.9979C124.884 98.3617 119.358 108.046 111.48 111.112C110.463 111.507 109.37 111.674 108.186 111.765C111.389 106.589 115.169 101.883 117.628 96.3428C113.135 100.107 109.795 104.874 106.213 109.397C106.031 109.351 105.834 109.291 105.651 109.245Z"/>
<path fill="#D97E59" d="M12.2517 88.434C20.5699 88.7679 30.148 98.3308 29.4194 109.397C25.4425 104.767 22.1486 99.8032 17.4885 96.0388C20.1601 101.594 23.9701 106.452 27.4765 111.689C18.6422 111.218 9.18546 99.5148 12.2365 88.434H12.2517Z"/>
<path fill="#D97E59" d="M87.8555 90.8475C91.1191 85.9446 94.7317 81.406 97.2363 76.154C92.7736 79.797 89.5252 84.4874 85.9885 89.0867C83.833 81.8462 92.1513 69.6876 101.365 69.7028C105.16 76.7611 96.4318 90.6653 87.8555 90.8475Z"/>
<path fill="#D97E59" d="M38.5729 76.5491C41.0471 81.5279 44.4624 85.9451 47.3465 90.681C47.2554 90.8025 47.1492 90.9239 47.0581 91.0454C46.0259 90.6962 44.933 90.4534 43.9615 89.9828C37.7684 87.038 34.4896 81.953 33.5789 75.2741C33.3816 73.8472 33.4878 72.3597 33.5789 70.9176C33.6851 69.5211 33.9128 69.3845 35.2942 69.6881C42.2311 71.1909 46.5724 75.5777 48.9555 82.0896C49.7145 84.1995 49.9725 86.4005 49.5627 89.0113C47.726 86.5978 46.1473 84.3816 44.4169 82.2869C42.6865 80.2073 40.7739 78.2492 38.9524 76.2456C38.8309 76.3518 38.6943 76.4429 38.5729 76.5491Z"/>
<path fill="#3A96AF" d="M67.7022 122.983C71.8461 122.983 75.2766 126.352 75.3221 130.405C75.3677 134.489 71.8006 137.995 67.6566 137.965C63.3609 137.934 60.0822 134.625 60.1125 130.36C60.1581 126.201 63.4823 122.967 67.7022 122.983Z"/>
<path fill="#3A96AF" d="M26.0962 190.971C34.46 193.308 42.2318 191.638 49.8214 188.587C51.3545 191.274 52.7814 193.779 54.3904 196.587C51.9313 197.331 49.6241 198.181 47.2409 198.697C45.2373 199.137 43.1425 199.334 41.0781 199.365C34.885 199.486 30.3919 196.238 26.5212 191.821C26.3846 191.669 26.3239 191.441 26.0962 190.955V190.971Z"/>
<path fill="#3A96AF" d="M109.093 191.198C105.557 195.388 101.762 199.016 95.9178 199.258C91.4855 199.441 87.2049 198.803 83.0761 197.179C82.5145 196.951 81.9681 196.678 81.3457 196.389C82.6967 193.763 84.0021 191.259 85.1861 188.952C89.2389 189.923 93.1552 191.031 97.1473 191.79C101.124 192.534 105.132 192.23 109.109 191.198H109.093Z"/>
<path fill="#3A96AF" d="M59.4385 197.452C62.3378 195.099 64.9486 193.004 67.605 190.849C70.2614 192.928 73.0088 195.084 76.1206 197.528C75.2402 198.256 74.4357 198.939 73.616 199.592C73.0392 200.047 72.4623 200.488 71.84 200.867C67.0282 203.812 68.197 203.766 63.4762 200.761C62.0342 199.85 60.8047 198.59 59.4233 197.452H59.4385Z"/>
<path fill="#3A96AF" d="M73.9237 181.027C76.489 182.864 79.1454 184.731 81.741 186.659C82.0294 186.871 82.2723 187.63 82.1205 187.919C81.0428 189.998 79.9043 192.032 78.6596 194.021C78.4927 194.294 77.6123 194.4 77.248 194.233C74.6068 192.928 72.3906 191.046 70.3869 188.905C69.9619 188.465 69.8405 188.025 70.2199 187.418C71.495 185.323 72.6942 183.198 73.9389 181.043L73.9237 181.027Z"/>
<path fill="#D97E59" d="M71.9668 204.768C74.2589 202.962 76.4295 201.201 78.676 199.531C79.0252 199.273 79.7234 199.273 80.194 199.41C82.5012 200.093 84.7326 201.019 87.0702 201.55C89.3926 202.082 91.7909 202.264 94.0982 202.583C88.2238 207.394 77.8412 207.774 71.9668 204.753V204.768Z"/>
<path fill="#3A96AF" d="M61.4724 181.256C62.8082 183.548 64.1591 185.855 65.6012 188.314C63.4912 190.712 61.0929 192.853 58.133 194.295C57.799 194.462 56.949 194.234 56.7365 193.915C55.5069 192.063 54.3685 190.135 53.2452 188.208C52.9113 187.631 52.9568 187.084 53.6399 186.629C56.2355 184.883 58.816 183.092 61.4724 181.256Z"/>
<path fill="#D97E59" d="M63.3424 204.935C55.6009 207.668 48.3756 207.136 41.1958 202.765C43.1691 202.476 44.8844 202.37 46.5085 201.976C49.3926 201.262 52.216 200.382 55.0697 199.532C55.7831 199.319 56.3903 199.016 57.0885 199.623C59.0618 201.353 61.0807 203.023 63.3424 204.92V204.935Z"/>
<path fill="#3A96AF" d="M67.6866 173.681C68.8402 175.199 69.9028 176.55 70.9046 177.946C71.1019 178.235 71.2386 178.72 71.1323 179.024C70.343 181.407 69.4474 183.73 67.6562 185.885C66.3508 184.367 65.6829 182.667 64.8329 181.058C63.9525 179.403 64.0588 178.053 65.3945 176.702C66.2294 175.852 66.8669 174.789 67.6866 173.681Z"/>
</svg>