<svg width="1304" height="442" viewBox="0 0 1304 442" fill="none" xmlns="http://www.w3.org/2000/svg">
<path d="M420.982 332.069C381.67 332.069 349.616 300.015 349.616 260.704C349.616 221.392 381.67 189.64 420.982 189.64C447.592 189.64 470.574 204.155 482.368 228.952C483.88 231.976 484.485 235.302 484.485 238.629C484.485 241.653 484.182 244.374 482.973 247.096C480.856 252.841 476.32 257.68 470.574 259.796L398.907 288.826C404.955 293.665 412.817 296.386 420.982 296.386C432.473 296.386 443.359 290.943 450.012 281.569L478.739 302.132C465.434 320.88 443.661 332.069 420.982 332.069ZM385.601 256.168L442.149 233.185C436.404 227.742 429.146 225.021 420.982 225.021C402.838 225.021 387.718 238.629 385.601 256.168ZM534.86 328.743H499.479V123.113H534.86V328.743ZM625.619 332.069C586.307 332.069 554.253 300.015 554.253 260.704C554.253 221.392 586.307 189.64 625.619 189.64C652.23 189.64 675.212 204.155 687.005 228.952C688.517 231.976 689.122 235.302 689.122 238.629C689.122 241.653 688.819 244.374 687.61 247.096C685.493 252.841 680.957 257.68 675.212 259.796L603.544 288.826C609.592 293.665 617.454 296.386 625.619 296.386C637.11 296.386 647.996 290.943 654.649 281.569L683.376 302.132C670.071 320.88 648.298 332.069 625.619 332.069ZM590.238 256.168L646.786 233.185C641.041 227.742 633.783 225.021 625.619 225.021C607.475 225.021 592.355 238.629 590.238 256.168ZM761.09 329.347L686.398 192.664H726.617L761.09 255.26L795.261 192.664H835.479L761.09 329.347ZM899.358 332.069C860.047 332.069 827.993 300.015 827.993 260.704C827.993 221.392 860.047 189.64 899.358 189.64C912.361 189.64 924.457 192.967 935.041 199.317L945.02 192.664H970.421V329.045H935.041V322.392C924.457 328.44 912.361 332.069 899.358 332.069ZM899.358 296.386C919.014 296.386 935.041 280.359 935.041 260.704C935.041 241.048 919.014 225.021 899.358 225.021C879.702 225.021 863.373 241.048 863.373 260.704C863.373 280.359 879.702 296.386 899.358 296.386ZM1140.83 328.743H1105.45V260.704C1105.45 242.862 1094.56 225.021 1073.39 225.021C1057.97 225.021 1039.22 241.35 1039.22 260.704V328.743H1003.84V192.664H1029.24L1039.22 199.62C1049.81 193.269 1061.6 189.64 1073.39 189.64C1111.8 189.64 1140.83 220.787 1140.83 260.704V328.743ZM1227.43 332.069C1188.12 332.069 1156.07 300.015 1156.07 260.704C1156.07 221.392 1188.12 189.64 1227.43 189.64C1240.44 189.64 1252.53 192.967 1263.12 199.317L1273.1 192.664H1298.5V329.045H1263.12V322.392C1252.53 328.44 1240.44 332.069 1227.43 332.069ZM1227.43 296.386C1247.09 296.386 1263.12 280.359 1263.12 260.704C1263.12 241.048 1247.09 225.021 1227.43 225.021C1207.78 225.021 1191.45 241.048 1191.45 260.704C1191.45 280.359 1207.78 296.386 1227.43 296.386Z" fill="#10293D"/>
<path d="M689.449 440.197C685.659 440.197 682.574 439.37 680.196 437.717C677.817 436.104 676.204 433.988 675.357 431.367H680.377C680.982 432.859 682.03 434.008 683.522 434.814C685.014 435.661 686.909 436.084 689.207 436.084C692.674 436.084 695.194 435.258 696.767 433.605C698.38 431.992 699.186 429.633 699.186 426.528V422.355C698.057 423.968 696.585 425.279 694.771 426.287C692.997 427.254 690.86 427.738 688.36 427.738C685.417 427.738 682.836 427.073 680.619 425.742C678.442 424.371 676.748 422.517 675.539 420.178C674.329 417.84 673.724 415.239 673.724 412.376C673.724 409.473 674.329 406.873 675.539 404.574C676.748 402.236 678.442 400.401 680.619 399.071C682.836 397.7 685.417 397.015 688.36 397.015C690.86 397.015 692.997 397.498 694.771 398.466C696.585 399.393 698.057 400.684 699.186 402.337V397.498H703.722V426.831C703.722 431.145 702.472 434.451 699.972 436.749C697.513 439.048 694.005 440.197 689.449 440.197ZM688.965 423.625C691.183 423.625 693.057 423.121 694.59 422.113C696.162 421.105 697.351 419.755 698.158 418.061C699.005 416.328 699.428 414.433 699.428 412.376C699.428 410.28 699.005 408.385 698.158 406.691C697.351 404.998 696.162 403.647 694.59 402.639C693.057 401.631 691.183 401.127 688.965 401.127C686.747 401.127 684.832 401.631 683.22 402.639C681.607 403.647 680.377 404.998 679.53 406.691C678.684 408.385 678.26 410.28 678.26 412.376C678.26 414.433 678.684 416.328 679.53 418.061C680.377 419.755 681.607 421.105 683.22 422.113C684.832 423.121 686.747 423.625 688.965 423.625ZM712.777 427.738V397.498H717.313V404.937C717.475 404.413 717.777 403.728 718.22 402.881C718.704 401.994 719.39 401.107 720.277 400.22C721.164 399.333 722.273 398.587 723.603 397.982C724.974 397.337 726.587 397.015 728.441 397.015H728.744V401.551H728.2C725.942 401.551 723.986 402.175 722.333 403.425C720.72 404.635 719.47 406.228 718.583 408.203C717.737 410.139 717.313 412.215 717.313 414.433V427.738H712.777ZM747.192 428.222C744.128 428.222 741.467 427.536 739.209 426.166C736.951 424.754 735.217 422.859 734.007 420.481C732.798 418.102 732.193 415.481 732.193 412.618C732.193 409.715 732.798 407.094 734.007 404.756C735.217 402.377 736.951 400.502 739.209 399.131C741.467 397.72 744.128 397.015 747.192 397.015C750.296 397.015 752.958 397.72 755.175 399.131C757.433 400.502 759.167 402.377 760.376 404.756C761.586 407.094 762.191 409.715 762.191 412.618C762.191 415.481 761.586 418.102 760.376 420.481C759.167 422.859 757.433 424.754 755.175 426.166C752.958 427.536 750.296 428.222 747.192 428.222ZM747.192 424.109C749.45 424.109 751.345 423.585 752.877 422.537C754.449 421.489 755.639 420.097 756.445 418.364C757.252 416.59 757.655 414.675 757.655 412.618C757.655 410.522 757.252 408.606 756.445 406.873C755.639 405.139 754.449 403.748 752.877 402.7C751.345 401.651 749.45 401.127 747.192 401.127C744.974 401.127 743.079 401.651 741.507 402.7C739.934 403.748 738.745 405.139 737.939 406.873C737.132 408.606 736.729 410.522 736.729 412.618C736.729 414.675 737.132 416.59 737.939 418.364C738.745 420.097 739.934 421.489 741.507 422.537C743.079 423.585 744.974 424.109 747.192 424.109ZM774.691 427.738L765.196 397.498H770.034L777.292 422.113L784.973 397.498H789.932L797.613 422.113L804.87 397.498H809.709L800.213 427.738H795.012L787.452 403.607L779.892 427.738H774.691ZM818.423 427.738V401.49H812.254V397.498H818.423V386.673H822.959V397.498H829.914V401.49H822.959V427.738H818.423ZM836.094 427.738V385.403H840.629V402.216C841.718 400.764 843.049 399.535 844.621 398.527C846.194 397.519 848.21 397.015 850.669 397.015C852.766 397.015 854.721 397.519 856.536 398.527C858.39 399.494 859.882 400.966 861.011 402.942C862.18 404.877 862.765 407.276 862.765 410.139V427.738H858.229V410.26C858.229 407.518 857.443 405.32 855.87 403.667C854.298 401.974 852.262 401.127 849.762 401.127C848.068 401.127 846.536 401.51 845.165 402.276C843.795 403.042 842.686 404.131 841.839 405.542C841.033 406.913 840.629 408.506 840.629 410.32V427.738H836.094ZM885.644 427.738V397.498H890.18V402.095C890.865 400.885 891.954 399.736 893.446 398.648C894.938 397.559 896.913 397.015 899.373 397.015C901.389 397.015 903.243 397.559 904.937 398.648C906.671 399.696 908.021 401.188 908.989 403.123C909.392 402.438 910.017 401.611 910.864 400.643C911.751 399.676 912.9 398.829 914.311 398.103C915.722 397.377 917.416 397.015 919.391 397.015C921.327 397.015 923.141 397.519 924.835 398.527C926.528 399.535 927.899 400.986 928.947 402.881C930.036 404.736 930.58 406.933 930.58 409.473V427.738H926.044V409.594C926.044 407.054 925.318 405.018 923.867 403.486C922.456 401.913 920.682 401.127 918.545 401.127C916.327 401.127 914.412 401.873 912.799 403.365C911.186 404.857 910.38 406.953 910.38 409.655V427.738H905.844V409.594C905.844 407.054 905.118 405.018 903.667 403.486C902.256 401.913 900.482 401.127 898.345 401.127C896.127 401.127 894.212 401.873 892.599 403.365C890.986 404.857 890.18 406.953 890.18 409.655V427.738H885.644ZM952.786 428.222C949.722 428.222 947.04 427.536 944.742 426.166C942.444 424.754 940.65 422.859 939.359 420.481C938.11 418.102 937.485 415.481 937.485 412.618C937.485 409.715 938.089 407.094 939.299 404.756C940.509 402.377 942.242 400.502 944.5 399.131C946.758 397.72 949.419 397.015 952.483 397.015C955.588 397.015 958.249 397.72 960.467 399.131C962.725 400.502 964.458 402.377 965.668 404.756C966.878 407.094 967.482 409.715 967.482 412.618V414.433H942.142C942.383 416.207 942.948 417.84 943.835 419.331C944.762 420.783 945.992 421.952 947.524 422.839C949.056 423.686 950.83 424.109 952.846 424.109C954.983 424.109 956.777 423.646 958.229 422.718C959.68 421.751 960.809 420.521 961.616 419.029H966.575C965.527 421.73 963.854 423.948 961.555 425.682C959.297 427.375 956.374 428.222 952.786 428.222ZM942.202 410.199H962.765C962.362 407.619 961.273 405.462 959.499 403.728C957.725 401.994 955.386 401.127 952.483 401.127C949.58 401.127 947.242 401.994 945.468 403.728C943.734 405.462 942.646 407.619 942.202 410.199ZM987.661 428.222C984.596 428.222 981.915 427.536 979.617 426.166C977.319 424.754 975.524 422.859 974.234 420.481C972.984 418.102 972.359 415.481 972.359 412.618C972.359 409.715 972.964 407.094 974.174 404.756C975.383 402.377 977.117 400.502 979.375 399.131C981.633 397.72 984.294 397.015 987.358 397.015C990.463 397.015 993.124 397.72 995.342 399.131C997.599 400.502 999.333 402.377 1000.54 404.756C1001.75 407.094 1002.36 409.715 1002.36 412.618V414.433H977.016C977.258 416.207 977.823 417.84 978.71 419.331C979.637 420.783 980.867 421.952 982.399 422.839C983.931 423.686 985.705 424.109 987.721 424.109C989.858 424.109 991.652 423.646 993.104 422.718C994.555 421.751 995.684 420.521 996.491 419.029H1001.45C1000.4 421.73 998.728 423.948 996.43 425.682C994.172 427.375 991.249 428.222 987.661 428.222ZM977.077 410.199H997.64C997.237 407.619 996.148 405.462 994.374 403.728C992.6 401.994 990.261 401.127 987.358 401.127C984.455 401.127 982.117 401.994 980.343 403.728C978.609 405.462 977.52 407.619 977.077 410.199ZM1012.37 427.738V401.49H1006.21V397.498H1012.37V386.673H1016.91V397.498H1023.87V401.49H1016.91V427.738H1012.37ZM1041.05 428.222C1038.27 428.222 1035.91 427.758 1033.98 426.831C1032.08 425.904 1030.63 424.694 1029.62 423.202C1028.61 421.67 1028.05 420.017 1027.93 418.243H1032.65C1032.77 419.251 1033.11 420.239 1033.67 421.206C1034.28 422.134 1035.19 422.9 1036.4 423.504C1037.61 424.069 1039.18 424.351 1041.11 424.351C1041.72 424.351 1042.46 424.291 1043.35 424.17C1044.24 424.049 1045.08 423.827 1045.89 423.504C1046.74 423.182 1047.44 422.698 1048.01 422.053C1048.57 421.408 1048.85 420.581 1048.85 419.573C1048.85 418.323 1048.37 417.356 1047.4 416.67C1046.44 415.985 1045.19 415.461 1043.65 415.098C1042.12 414.695 1040.49 414.312 1038.75 413.949C1037.06 413.586 1035.45 413.122 1033.92 412.558C1032.38 411.953 1031.13 411.126 1030.17 410.078C1029.2 408.989 1028.71 407.518 1028.71 405.663C1028.71 402.921 1029.7 400.805 1031.68 399.313C1033.69 397.781 1036.66 397.015 1040.57 397.015C1043.23 397.015 1045.39 397.438 1047.04 398.285C1048.73 399.091 1050 400.139 1050.85 401.43C1051.74 402.72 1052.26 404.111 1052.42 405.603H1047.83C1047.66 404.312 1047.02 403.204 1045.89 402.276C1044.8 401.349 1042.99 400.885 1040.45 400.885C1035.65 400.885 1033.25 402.337 1033.25 405.24C1033.25 406.449 1033.73 407.377 1034.7 408.022C1035.67 408.667 1036.92 409.191 1038.45 409.594C1039.98 409.957 1041.6 410.32 1043.29 410.683C1045.02 411.005 1046.66 411.469 1048.19 412.074C1049.72 412.679 1050.97 413.546 1051.94 414.675C1052.91 415.763 1053.39 417.255 1053.39 419.15C1053.39 422.093 1052.26 424.351 1050 425.924C1047.79 427.456 1044.8 428.222 1041.05 428.222ZM1074.52 439.713V397.498H1079.05V402.337C1080.18 400.684 1081.63 399.393 1083.41 398.466C1085.22 397.498 1087.38 397.015 1089.88 397.015C1092.82 397.015 1095.38 397.72 1097.56 399.131C1099.78 400.502 1101.49 402.377 1102.7 404.756C1103.91 407.094 1104.51 409.715 1104.51 412.618C1104.51 415.481 1103.91 418.102 1102.7 420.481C1101.49 422.859 1099.78 424.754 1097.56 426.166C1095.38 427.536 1092.82 428.222 1089.88 428.222C1087.38 428.222 1085.22 427.738 1083.41 426.77C1081.63 425.762 1080.18 424.452 1079.05 422.839V439.713H1074.52ZM1089.27 424.109C1091.53 424.109 1093.45 423.585 1095.02 422.537C1096.63 421.489 1097.86 420.097 1098.71 418.364C1099.55 416.59 1099.98 414.675 1099.98 412.618C1099.98 410.522 1099.55 408.606 1098.71 406.873C1097.86 405.139 1096.63 403.748 1095.02 402.7C1093.45 401.651 1091.53 401.127 1089.27 401.127C1087.06 401.127 1085.16 401.651 1083.59 402.7C1082.02 403.748 1080.83 405.139 1080.02 406.873C1079.21 408.606 1078.81 410.522 1078.81 412.618C1078.81 414.675 1079.21 416.59 1080.02 418.364C1080.83 420.097 1082.02 421.489 1083.59 422.537C1085.16 423.585 1087.06 424.109 1089.27 424.109ZM1123.49 428.222C1121.43 428.222 1119.48 427.738 1117.62 426.77C1115.77 425.762 1114.25 424.291 1113.09 422.355C1111.96 420.38 1111.39 417.961 1111.39 415.098V397.498H1115.93V414.977C1115.93 417.719 1116.71 419.936 1118.29 421.63C1119.9 423.283 1121.94 424.109 1124.4 424.109C1126.09 424.109 1127.62 423.726 1128.99 422.96C1130.36 422.154 1131.45 421.065 1132.26 419.694C1133.1 418.323 1133.53 416.731 1133.53 414.916V397.498H1138.06V427.738H1133.53V423.021C1132.44 424.472 1131.11 425.702 1129.54 426.71C1127.96 427.718 1125.95 428.222 1123.49 428.222ZM1147.16 427.738V397.498H1151.7V404.937C1151.86 404.413 1152.16 403.728 1152.6 402.881C1153.09 401.994 1153.77 401.107 1154.66 400.22C1155.55 399.333 1156.66 398.587 1157.99 397.982C1159.36 397.337 1160.97 397.015 1162.82 397.015H1163.13V401.551H1162.58C1160.32 401.551 1158.37 402.175 1156.72 403.425C1155.1 404.635 1153.85 406.228 1152.97 408.203C1152.12 410.139 1151.7 412.215 1151.7 414.433V427.738H1147.16ZM1169.22 439.713V397.498H1173.75V402.337C1174.88 400.684 1176.33 399.393 1178.11 398.466C1179.92 397.498 1182.08 397.015 1184.58 397.015C1187.52 397.015 1190.08 397.72 1192.26 399.131C1194.48 400.502 1196.19 402.377 1197.4 404.756C1198.61 407.094 1199.22 409.715 1199.22 412.618C1199.22 415.481 1198.61 418.102 1197.4 420.481C1196.19 422.859 1194.48 424.754 1192.26 426.166C1190.08 427.536 1187.52 428.222 1184.58 428.222C1182.08 428.222 1179.92 427.738 1178.11 426.77C1176.33 425.762 1174.88 424.452 1173.75 422.839V439.713H1169.22ZM1183.98 424.109C1186.23 424.109 1188.15 423.585 1189.72 422.537C1191.33 421.489 1192.56 420.097 1193.41 418.364C1194.26 416.59 1194.68 414.675 1194.68 412.618C1194.68 410.522 1194.26 408.606 1193.41 406.873C1192.56 405.139 1191.33 403.748 1189.72 402.7C1188.15 401.651 1186.23 401.127 1183.98 401.127C1181.76 401.127 1179.86 401.651 1178.29 402.7C1176.72 403.748 1175.53 405.139 1174.72 406.873C1173.92 408.606 1173.51 410.522 1173.51 412.618C1173.51 414.675 1173.92 416.59 1174.72 418.364C1175.53 420.097 1176.72 421.489 1178.29 422.537C1179.86 423.585 1181.76 424.109 1183.98 424.109ZM1219.52 428.222C1216.46 428.222 1213.8 427.536 1211.54 426.166C1209.28 424.754 1207.55 422.859 1206.34 420.481C1205.13 418.102 1204.52 415.481 1204.52 412.618C1204.52 409.715 1205.13 407.094 1206.34 404.756C1207.55 402.377 1209.28 400.502 1211.54 399.131C1213.8 397.72 1216.46 397.015 1219.52 397.015C1222.63 397.015 1225.29 397.72 1227.5 399.131C1229.76 400.502 1231.5 402.377 1232.71 404.756C1233.91 407.094 1234.52 409.715 1234.52 412.618C1234.52 415.481 1233.91 418.102 1232.71 420.481C1231.5 422.859 1229.76 424.754 1227.5 426.166C1225.29 427.536 1222.63 428.222 1219.52 428.222ZM1219.52 424.109C1221.78 424.109 1223.67 423.585 1225.21 422.537C1226.78 421.489 1227.97 420.097 1228.77 418.364C1229.58 416.59 1229.98 414.675 1229.98 412.618C1229.98 410.522 1229.58 408.606 1228.77 406.873C1227.97 405.139 1226.78 403.748 1225.21 402.7C1223.67 401.651 1221.78 401.127 1219.52 401.127C1217.3 401.127 1215.41 401.651 1213.84 402.7C1212.26 403.748 1211.07 405.139 1210.27 406.873C1209.46 408.606 1209.06 410.522 1209.06 412.618C1209.06 414.675 1209.46 416.59 1210.27 418.364C1211.07 420.097 1212.26 421.489 1213.84 422.537C1215.41 423.585 1217.3 424.109 1219.52 424.109ZM1252.75 428.222C1249.97 428.222 1247.61 427.758 1245.67 426.831C1243.78 425.904 1242.33 424.694 1241.32 423.202C1240.31 421.67 1239.75 420.017 1239.63 418.243H1244.34C1244.47 419.251 1244.81 420.239 1245.37 421.206C1245.98 422.134 1246.88 422.9 1248.09 423.504C1249.3 424.069 1250.88 424.351 1252.81 424.351C1253.42 424.351 1254.16 424.291 1255.05 424.17C1255.94 424.049 1256.78 423.827 1257.59 423.504C1258.44 423.182 1259.14 422.698 1259.71 422.053C1260.27 421.408 1260.55 420.581 1260.55 419.573C1260.55 418.323 1260.07 417.356 1259.1 416.67C1258.13 415.985 1256.88 415.461 1255.35 415.098C1253.82 414.695 1252.19 414.312 1250.45 413.949C1248.76 413.586 1247.15 413.122 1245.61 412.558C1244.08 411.953 1242.83 411.126 1241.86 410.078C1240.9 408.989 1240.41 407.518 1240.41 405.663C1240.41 402.921 1241.4 400.805 1243.38 399.313C1245.39 397.781 1248.36 397.015 1252.27 397.015C1254.93 397.015 1257.09 397.438 1258.74 398.285C1260.43 399.091 1261.7 400.139 1262.55 401.43C1263.44 402.72 1263.96 404.111 1264.12 405.603H1259.52C1259.36 404.312 1258.72 403.204 1257.59 402.276C1256.5 401.349 1254.69 400.885 1252.15 400.885C1247.35 400.885 1244.95 402.337 1244.95 405.24C1244.95 406.449 1245.43 407.377 1246.4 408.022C1247.37 408.667 1248.62 409.191 1250.15 409.594C1251.68 409.957 1253.3 410.32 1254.99 410.683C1256.72 411.005 1258.36 411.469 1259.89 412.074C1261.42 412.679 1262.67 413.546 1263.64 414.675C1264.6 415.763 1265.09 417.255 1265.09 419.15C1265.09 422.093 1263.96 424.351 1261.7 425.924C1259.48 427.456 1256.5 428.222 1252.75 428.222ZM1285.56 428.222C1282.49 428.222 1279.81 427.536 1277.51 426.166C1275.21 424.754 1273.42 422.859 1272.13 420.481C1270.88 418.102 1270.26 415.481 1270.26 412.618C1270.26 409.715 1270.86 407.094 1272.07 404.756C1273.28 402.377 1275.01 400.502 1277.27 399.131C1279.53 397.72 1282.19 397.015 1285.25 397.015C1288.36 397.015 1291.02 397.72 1293.24 399.131C1295.5 400.502 1297.23 402.377 1298.44 404.756C1299.65 407.094 1300.25 409.715 1300.25 412.618V414.433H1274.91C1275.15 416.207 1275.72 417.84 1276.61 419.331C1277.53 420.783 1278.76 421.952 1280.29 422.839C1281.83 423.686 1283.6 424.109 1285.62 424.109C1287.75 424.109 1289.55 423.646 1291 422.718C1292.45 421.751 1293.58 420.521 1294.39 419.029H1299.35C1298.3 421.73 1296.62 423.948 1294.33 425.682C1292.07 427.375 1289.14 428.222 1285.56 428.222ZM1274.97 410.199H1295.54C1295.13 407.619 1294.04 405.462 1292.27 403.728C1290.5 401.994 1288.16 401.127 1285.25 401.127C1282.35 401.127 1280.01 401.994 1278.24 403.728C1276.5 405.462 1275.42 407.619 1274.97 410.199Z" fill="#FF4E00"/>
<path d="M25.5075 240.876C42.9558 245.623 60.2831 250.613 75.8867 260.501C64.3654 267.094 52.0881 269.422 39.2363 266.277C22.2719 262.134 9.38979 252.276 0.348145 236.794C1.89037 235.917 2.88827 235.282 3.9769 234.767C18.8548 227.691 34.1258 227.48 49.7294 232.016C60.8576 235.251 70.6855 240.906 79.7271 248.012C87.9826 254.514 96.117 261.167 104.403 267.668C110.602 272.506 117.224 276.619 124.814 279.038C134.552 282.123 143.805 280.641 152.726 276.135C160.074 272.446 166.485 267.396 172.774 262.195C182.693 254 192.4 245.503 203.71 239.243C216.289 232.258 229.685 228.508 244.17 229.113C252.426 229.445 260.288 231.441 267.697 235.191C268.362 235.523 268.967 236.038 270.025 236.794C262.465 250.613 250.944 259.443 236.489 264.553C222.125 269.634 208.215 268.031 194.093 260.592C202.53 255.088 211.058 251.611 219.827 248.799C228.506 246.017 237.336 243.658 246.136 240.573C243.112 240.573 240.058 240.362 237.034 240.604C220.069 241.995 203.891 246.198 189.83 256.177C177.31 265.037 166.454 275.651 159.136 289.41C153.209 300.539 150.7 312.181 153.935 324.7C155.477 330.687 158.411 335.949 162.342 340.576C165.094 343.781 166.636 347.259 167.059 351.402C167.573 356.421 167.664 361.411 166.182 366.824C164.761 366.128 163.461 365.614 162.312 364.858C152.302 358.387 143.896 350.343 137.999 339.88C135.943 336.221 134.249 336.282 132.163 340.032C126.115 351.009 117.255 359.203 106.671 365.645C106.005 366.038 105.31 366.37 103.919 367.096C103.556 363.679 102.8 360.625 103.042 357.631C103.344 353.549 104.221 349.466 105.159 345.475C105.491 344.053 106.55 342.693 107.548 341.513C120.006 326.545 122.214 307.826 112.386 290.862C97.5383 265.219 76.0077 248.254 46.3426 242.66C39.4782 241.36 32.5533 240.452 25.5075 240.936V240.876Z" fill="#10293D"/>
<path d="M135.458 115.684C166.242 144.26 170.567 192.462 139.087 223.216C139.45 200.989 138.452 179.519 135.458 158.17C135.156 158.17 134.823 158.17 134.521 158.14C133.856 168.996 133.039 179.852 132.555 190.708C132.072 201.473 131.89 212.269 131.164 223.155C117.526 209.275 110.481 192.522 109.785 173.139C109.059 153.332 122.002 124.514 135.489 115.653L135.458 115.684Z" fill="#FF4E00"/>
<path d="M161.495 250.159C171.202 236.702 181.847 223.82 188.56 208.459C188.378 208.307 188.227 208.156 188.046 207.975C185.324 211.029 182.542 214.023 179.851 217.107C177.069 220.312 174.347 223.578 171.626 226.844C168.995 230.019 166.394 233.255 163.824 236.491C161.193 239.787 158.592 243.113 155.568 246.288C154.087 242.055 153.603 237.851 154.087 233.527C156.204 214.627 166.304 200.808 181.696 190.466C186.746 187.079 192.189 184.509 198.085 183.027C202.258 181.969 202.742 182.211 203.559 186.323C206.371 200.264 204.103 213.448 197.239 225.816C191.251 236.642 182.633 244.686 170.93 249.04C168.088 250.098 164.973 250.492 161.979 251.187L161.465 250.159H161.495Z" fill="#FF4E00"/>
<path d="M114.835 246.288C103.556 232.771 92.609 219.647 81.6925 206.554C81.4808 206.705 81.2994 206.856 81.0877 207.007C87.8009 223.125 98.3545 236.793 109.483 250.068C109.301 250.371 109.15 250.643 108.969 250.945C106.731 250.643 104.433 250.613 102.255 250.038C91.7321 247.256 83.8093 240.664 77.3682 232.227C66.7541 218.317 63.8209 202.592 67.1775 185.597C67.873 182.09 68.3266 181.818 71.7134 182.846C94.5141 189.74 109.362 204.467 115.198 227.751C116.71 233.769 116.74 239.878 114.835 246.288Z" fill="#FF4E00"/>
<path d="M171.414 286.87C186.413 286.175 200.444 287.535 214.475 289.138C212.298 287.142 208.548 285.57 201.563 284.088C196.876 283.09 192.128 282.274 187.381 281.669C182.633 281.064 177.855 280.852 172.261 280.399C173.622 279.31 174.468 278.403 175.527 277.828C190.163 269.906 204.647 270.42 218.83 278.887C224.333 282.183 228.9 286.658 232.559 291.981C234.403 294.672 234.312 295.246 231.591 296.637C214.324 305.437 190.556 304.863 174.226 290.136C173.38 289.35 172.684 288.412 171.384 286.9L171.414 286.87Z" fill="#10293D"/>
<path d="M55.4754 288.896C69.5671 288.14 83.5983 286.114 97.9016 286.961C91.8234 302.201 51.7257 307.372 36.1221 294.853C42.0793 284.058 51.2419 277.375 62.9446 273.958C75.4033 270.299 86.8944 272.325 97.3875 280.157C83.0237 281.306 68.7506 282.455 55.4754 288.926V288.896Z" fill="#10293D"/>
<path d="M104.131 335.677C102.558 337.219 101.197 339.003 99.4436 340.303C83.6888 351.795 66.0893 356.149 46.8267 353.065C37.9362 351.643 31.3742 346.865 27.8967 338.308C27.5036 337.31 27.2012 336.282 26.7476 334.86H103.707L104.131 335.677Z" fill="#FF4E00"/>
<path d="M166.666 334.83H243.475C241.872 342.148 238.243 347.41 231.651 350.403C225.512 353.186 218.981 353.881 212.358 353.76C199.113 353.548 186.775 350.192 175.496 343.146C172.139 341.029 168.934 338.671 166.696 334.83H166.666Z" fill="#FF4E00"/>
<path d="M35.1846 355.695C56.8361 363.799 77.2479 360.624 97.0246 349.859C97.2363 350.494 97.4479 350.796 97.3875 351.068C96.571 356.784 96.7524 362.439 97.9015 368.093C98.2039 369.545 97.8108 370.422 96.45 371.027C82.7515 376.833 68.7506 379.796 54.0239 375.563C43.9238 372.66 38.9343 364.797 35.2148 355.725L35.1846 355.695Z" fill="#10293D"/>
<path d="M173.833 349.859C183.238 355.453 193.278 358.628 203.952 359.657C214.476 360.685 224.938 360.201 235.401 355.756C234.978 357.026 234.797 357.812 234.434 358.538C228.386 370.996 218.497 377.347 204.557 377.377C194.366 377.377 184.629 375.351 175.225 371.48C173.047 370.573 172.291 369.545 172.624 367.005C173.319 361.501 173.44 355.937 173.833 349.859Z" fill="#10293D"/>
<path d="M210.816 218.377C211.24 214.9 211.451 211.392 212.147 207.975C215.141 193.339 228.658 179.701 242.508 177.13C245.955 176.495 246.015 176.556 246.56 180.033C249.13 196.695 238.123 215.988 222.428 222.097C220.402 222.883 218.225 223.216 215.866 223.397C222.247 213.085 229.777 203.711 234.675 192.674C225.725 200.173 219.072 209.668 211.935 218.68C211.572 218.589 211.179 218.468 210.816 218.377Z" fill="#FF4E00"/>
<path d="M24.7516 176.919C41.3229 177.584 60.4041 196.635 58.9526 218.68C51.0298 209.457 44.4678 199.568 35.1842 192.069C40.5064 203.136 48.0966 212.813 55.0819 223.246C37.4825 222.308 18.6432 198.994 24.7213 176.919H24.7516Z" fill="#FF4E00"/>
<path d="M175.375 181.727C181.876 171.959 189.073 162.918 194.063 152.455C185.172 159.712 178.701 169.056 171.655 178.219C167.361 163.795 183.933 139.573 202.288 139.603C209.848 153.664 192.46 181.364 175.375 181.727Z" fill="#FF4E00"/>
<path d="M77.1868 153.241C82.1159 163.16 88.9198 171.96 94.6653 181.394C94.4839 181.636 94.2722 181.878 94.0907 182.12C92.0345 181.425 89.8572 180.941 87.9219 180.003C75.5841 174.137 69.0523 164.007 67.238 150.701C66.8448 147.859 67.0565 144.895 67.238 142.022C67.4496 139.24 67.9032 138.968 70.655 139.573C84.4745 142.567 93.1231 151.306 97.8707 164.279C99.3827 168.482 99.8967 172.867 99.0803 178.068C95.4213 173.26 92.2764 168.845 88.829 164.672C85.3817 160.529 81.5715 156.628 77.9428 152.636C77.7009 152.848 77.4287 153.03 77.1868 153.241Z" fill="#FF4E00"/>
<path d="M135.216 245.744C143.471 245.744 150.305 252.457 150.396 260.531C150.487 268.666 143.381 275.651 135.125 275.591C126.567 275.53 120.036 268.938 120.096 260.441C120.187 252.155 126.809 245.714 135.216 245.744Z" fill="#10293D"/>
<path d="M52.3301 381.187C68.9921 385.844 84.4748 382.518 99.5946 376.44C102.649 381.792 105.491 386.782 108.697 392.376C103.798 393.858 99.2015 395.551 94.4539 396.579C90.4622 397.456 86.2892 397.849 82.1766 397.91C69.8388 398.152 60.8879 391.68 53.1768 382.881C52.9046 382.578 52.7837 382.125 52.3301 381.157V381.187Z" fill="#10293D"/>
<path d="M217.68 381.641C210.634 389.987 203.074 397.214 191.432 397.698C182.602 398.061 174.074 396.791 165.849 393.555C164.73 393.102 163.642 392.557 162.402 391.983C165.093 386.751 167.694 381.762 170.052 377.166C178.126 379.101 185.928 381.308 193.881 382.82C201.804 384.302 209.787 383.697 217.71 381.641H217.68Z" fill="#10293D"/>
<path d="M118.766 394.1C124.542 389.412 129.743 385.239 135.035 380.945C140.327 385.088 145.8 389.382 151.999 394.251C150.246 395.702 148.643 397.063 147.01 398.363C145.861 399.271 144.712 400.147 143.472 400.903C133.886 406.77 136.214 406.679 126.81 400.692C123.937 398.877 121.488 396.368 118.736 394.1H118.766Z" fill="#10293D"/>
<path d="M147.615 361.38C152.725 365.039 158.017 368.759 163.188 372.599C163.763 373.023 164.247 374.535 163.944 375.109C161.797 379.252 159.529 383.304 157.05 387.265C156.717 387.81 154.963 388.021 154.237 387.689C148.976 385.088 144.561 381.339 140.569 377.075C139.722 376.198 139.48 375.321 140.236 374.111C142.777 369.938 145.166 365.705 147.645 361.411L147.615 361.38Z" fill="#10293D"/>
<path d="M143.715 408.675C148.281 405.077 152.605 401.569 157.081 398.243C157.776 397.729 159.167 397.729 160.105 398.001C164.701 399.362 169.146 401.206 173.803 402.265C178.43 403.323 183.208 403.686 187.804 404.321C176.101 413.907 155.418 414.663 143.715 408.645V408.675Z" fill="#FF4E00"/>
<path d="M122.819 361.834C125.48 366.4 128.171 370.997 131.044 375.896C126.841 380.673 122.063 384.937 116.166 387.81C115.501 388.143 113.807 387.689 113.384 387.054C110.935 383.365 108.667 379.524 106.429 375.684C105.764 374.535 105.854 373.446 107.215 372.539C112.386 369.061 117.527 365.493 122.819 361.834Z" fill="#10293D"/>
<path d="M126.537 409.008C111.115 414.451 96.7208 413.393 82.4175 404.684C86.3486 404.109 89.7657 403.897 93.0013 403.111C98.7469 401.69 104.371 399.936 110.056 398.243C111.478 397.819 112.687 397.214 114.078 398.424C118.01 401.871 122.031 405.198 126.537 408.978V409.008Z" fill="#FF4E00"/>
<path d="M135.187 346.745C137.485 349.769 139.602 352.46 141.598 355.242C141.991 355.817 142.263 356.784 142.051 357.389C140.479 362.137 138.695 366.763 135.126 371.057C132.526 368.033 131.195 364.646 129.502 361.441C127.748 358.145 127.959 355.454 130.621 352.762C132.284 351.069 133.554 348.952 135.187 346.745Z" fill="#10293D"/>
</svg>
