<svg width="40" height="24" viewBox="0 0 40 24" fill="none" xmlns="http://www.w3.org/2000/svg">
  <rect width="40" height="24" rx="4" fill="#F5F9FC"/>
  <path d="M25.3333 7.33333H14.6667V16.6667H25.3333V7.33333Z" fill="white"/>
  <path d="M15.3333 12C15.3333 9.86667 16.4 8 18 7.33333C17.2 6.8 16.2667 6.53333 15.3333 6.53333C12.8 6.53333 10.6667 8.93333 10.6667 12C10.6667 15.0667 12.8 17.4667 15.3333 17.4667C16.2667 17.4667 17.2 17.2 18 16.6667C16.4 16 15.3333 14.1333 15.3333 12Z" fill="#EB001B"/>
  <path d="M29.3333 12C29.3333 15.0667 27.2 17.4667 24.6667 17.4667C23.7333 17.4667 22.8 17.2 22 16.6667C23.6 16 24.6667 14.1333 24.6667 12C24.6667 9.86667 23.6 8 22 7.33333C22.8 6.8 23.7333 6.53333 24.6667 6.53333C27.2 6.53333 29.3333 8.93333 29.3333 12Z" fill="#F79E1B"/>
  <path d="M24 12C24 14.1333 22.9333 16 21.3333 16.6667C19.7333 16 18.6667 14.1333 18.6667 12C18.6667 9.86667 19.7333 8 21.3333 7.33333C22.9333 8 24 9.86667 24 12Z" fill="#FF5F00"/>
</svg> 