<svg width="40" height="24" viewBox="0 0 40 24" fill="none" xmlns="http://www.w3.org/2000/svg">
  <rect width="40" height="24" rx="4" fill="#F5F9FC"/>
  <path d="M25.8667 9.46667C25.8667 10.9333 25 12 23.4667 12H22.2C22.0667 12 22 12.0667 21.9333 12.2L21.6 14.0667C21.6 14.2 21.4667 14.2667 21.4 14.2667H19.9333C19.8 14.2667 19.7333 14.2 19.7333 14.0667L20.8667 7.46667C20.8667 7.33333 20.9333 7.26667 21.0667 7.26667H24.1333C25.2 7.33333 25.8667 8.13333 25.8667 9.46667ZM23.6 9.53333C23.6 8.86667 23.2 8.53333 22.5333 8.53333H21.8C21.6667 8.53333 21.6 8.6 21.6 8.73333L21.2667 10.8C21.2667 10.9333 21.3333 11 21.4667 11H22.0667C22.9333 11 23.6 10.4667 23.6 9.53333ZM17.4667 14.0667L17.8 12.2C17.8 12.0667 17.7333 12 17.6 12H16.3333C16.2 12 16.1333 12.0667 16.0667 12.2L15.7333 14.0667C15.7333 14.2 15.6667 14.2667 15.5333 14.2667H14.0667C13.9333 14.2667 13.8667 14.2 13.8667 14.0667L15 7.46667C15 7.33333 15.0667 7.26667 15.2 7.26667H18.2667C19.3333 7.33333 20 8.13333 20 9.46667C20 10.9333 19.1333 12 17.6 12H17.4667ZM17.7333 9.53333C17.7333 8.86667 17.3333 8.53333 16.6667 8.53333H15.9333C15.8 8.53333 15.7333 8.6 15.7333 8.73333L15.4 10.8C15.4 10.9333 15.4667 11 15.6 11H16.2C17.0667 11 17.7333 10.4667 17.7333 9.53333Z" fill="#253B80"/>
  <path d="M29.8 9.46667C29.8 10.9333 28.9333 12 27.4 12H26.1333C26 12 25.9333 12.0667 25.8667 12.2L25.5333 14.0667C25.5333 14.2 25.4667 14.2667 25.3333 14.2667H23.8667C23.7333 14.2667 23.6667 14.2 23.6667 14.0667L24.8 7.46667C24.8 7.33333 24.8667 7.26667 25 7.26667H28.0667C29.1333 7.33333 29.8 8.13333 29.8 9.46667ZM27.5333 9.53333C27.5333 8.86667 27.1333 8.53333 26.4667 8.53333H25.7333C25.6 8.53333 25.5333 8.6 25.5333 8.73333L25.2 10.8C25.2 10.9333 25.2667 11 25.4 11H26C26.8667 11 27.5333 10.4667 27.5333 9.53333Z" fill="#179BD7"/>
</svg> 