<svg width="35" height="34" viewBox="0 0 35 34" fill="none" xmlns="http://www.w3.org/2000/svg">
<path fill-rule="evenodd" clip-rule="evenodd" d="M12.5432 24.4629C12.4893 26.3018 13.5547 26.6857 13.5547 26.6857C13.8791 26.9591 14.2658 27.1532 14.6823 27.2481C16.1089 31.6497 29.8138 31.4046 31.1667 27.2481C33.5665 26.7848 33.2959 23.9898 32.5805 21.8421C31.5747 19.1136 29.3378 16.2618 26.5937 15.2461C27.2476 14.7015 27.7737 14.0196 28.1346 13.2489C28.4954 12.4781 28.6823 11.6374 28.6818 10.7864C28.6818 7.56775 26.0539 4.95825 22.8126 4.95825C19.5713 4.95825 16.9433 7.56775 16.9433 10.7864C16.9433 12.5714 17.7508 14.1708 19.0258 15.2404C15.5068 16.6925 12.9568 20.6918 12.5432 24.4629ZM10.4196 24.3992C10.421 24.3425 10.4253 24.2858 10.4309 24.232C10.7752 21.0913 12.3746 17.7607 14.8552 15.4586C14.1808 14.7998 13.4102 14.2686 12.5758 13.9598C13.072 13.5467 13.4713 13.0295 13.7453 12.4449C14.0192 11.8602 14.1612 11.2224 14.161 10.5768C14.161 8.13584 12.1678 6.15675 9.70842 6.15675C7.24909 6.15675 5.25584 8.13584 5.25584 10.5768C5.25584 11.9311 5.86926 13.1438 6.83542 13.9555C4.16642 15.0563 2.23126 18.0922 1.91959 20.951C1.87709 22.3464 2.68459 22.6368 2.68459 22.6368C2.93109 22.8451 3.22434 22.991 3.54026 23.0647C4.12392 24.8638 7.41201 25.6402 10.4819 25.4787C10.4287 25.1214 10.4079 24.7601 10.4196 24.3992Z" fill="#3A96AF"/>
</svg>
