<svg width="40" height="24" viewBox="0 0 40 24" fill="none" xmlns="http://www.w3.org/2000/svg">
  <rect width="40" height="24" rx="4" fill="#F5F9FC"/>
  <path d="M18.6667 10.6667C18.6667 10.1333 19.1333 9.86667 19.8667 9.86667C20.9333 9.86667 22.3333 10.2667 23.4667 11V8C22.2667 7.46667 21.0667 7.2 19.8667 7.2C17.0667 7.2 15.2 8.66667 15.2 10.8C15.2 14.1333 19.8 13.6 19.8 15.0667C19.8 15.6667 19.2 15.9333 18.4 15.9333C17.2667 15.9333 15.7333 15.4 14.5333 14.6V17.6C15.8667 18.2667 17.2 18.5333 18.4 18.5333C21.2667 18.5333 23.2667 17.1333 23.2667 14.9333C23.2667 11.3333 18.6667 11.9333 18.6667 10.6667Z" fill="#6772E5"/>
</svg> 