<svg width="35" height="34" viewBox="0 0 35 34" fill="none" xmlns="http://www.w3.org/2000/svg">
<path fill-rule="evenodd" clip-rule="evenodd" d="M2.79869 4.23344C3.44066 3.96909 4.16258 4.31917 4.61757 4.84354C4.64071 4.87021 4.6643 4.89656 4.68829 4.92252C5.00194 5.26211 5.38126 5.5345 5.80327 5.72315C6.22528 5.91182 6.6812 6.01285 7.14341 6.02011C7.60561 6.02737 8.06447 5.94075 8.49221 5.76543C8.91995 5.59013 9.30763 5.32982 9.63179 5.00028C9.95596 4.67073 10.2099 4.27878 10.3781 3.84822C10.5463 3.41766 10.6254 2.95742 10.6105 2.49541C10.6087 2.43872 10.6054 2.38217 10.6008 2.32579C10.546 1.65824 10.7825 0.92999 11.3889 0.645514L12.3872 0.177183C12.9467 -0.0560234 13.5757 -0.0591359 14.1376 0.168521C14.6995 0.396178 15.1489 0.836235 15.3884 1.39319L16.5631 4.10662C16.518 4.19679 16.4755 4.28844 16.4354 4.38148L16.4335 4.38576L8.68829 22.2764L7.84643 24.1897L0.666933 7.57671C0.450157 7.03885 0.444307 6.43899 0.65055 5.89701C0.856794 5.35502 1.25994 4.91081 1.77945 4.65312L2.79869 4.23344ZM30.2964 9.1C30.7464 8.5713 31.4684 8.22217 32.1103 8.48652L33.1871 8.92988C33.7202 9.1943 34.1338 9.65012 34.3455 10.2063C34.5571 10.7624 34.551 11.378 34.3285 11.9299L25.4086 32.5703C25.1629 33.142 24.7018 33.5935 24.1252 33.8271C23.5486 34.0607 22.9032 34.0576 22.329 33.8181L11.5502 29.2252C10.9787 28.9794 10.5271 28.5185 10.2935 27.9417C10.0599 27.3651 10.0631 26.7199 10.3024 26.1455L11.4706 23.4907L19.2224 5.58474C19.4681 5.01323 19.9293 4.56166 20.5059 4.32805C21.0824 4.09445 21.7279 4.09766 22.3021 4.33694L23.3551 4.83099C23.9615 5.11545 24.1987 5.84312 24.1379 6.51015C24.1316 6.57847 24.1274 6.64702 24.1252 6.71575C24.1099 7.18986 24.191 7.66212 24.3637 8.10395C24.5363 8.54578 24.7969 8.94795 25.1294 9.2861C25.4621 9.62428 25.8599 9.8914 26.2987 10.0713C26.7378 10.2512 27.2087 10.3401 27.683 10.3326C28.1573 10.3251 28.625 10.2215 29.0581 10.0279C29.4911 9.83428 29.8804 9.5548 30.2022 9.20633C30.2345 9.1715 30.2658 9.13604 30.2964 9.1Z" fill="#3A96AF"/>
</svg>
