<svg width="35" height="34" viewBox="0 0 35 34" fill="none" xmlns="http://www.w3.org/2000/svg">
<path d="M15.977 18.6646L13.3916 15.9729C13.1791 15.7368 12.9194 15.6187 12.6124 15.6187C12.3055 15.6187 12.034 15.725 11.7978 15.9375C11.5617 16.1736 11.4437 16.4451 11.4437 16.7521C11.4437 17.059 11.5617 17.3306 11.7978 17.5667L15.2333 20.9667C15.4458 21.1792 15.6937 21.2854 15.977 21.2854C16.2603 21.2854 16.5083 21.1792 16.7208 20.9667L23.202 14.5208C23.4145 14.3083 23.5208 14.0486 23.5208 13.7417C23.5208 13.4347 23.4027 13.175 23.1666 12.9625C22.9541 12.7736 22.7003 12.685 22.4051 12.6969C22.11 12.7087 21.868 12.809 21.6791 12.9979L15.977 18.6646ZM12.2583 31.025L10.0624 27.2708L5.67077 26.3854C5.41104 26.3382 5.19264 26.1965 5.01556 25.9604C4.83848 25.7243 4.77354 25.4764 4.82077 25.2167L5.3166 20.9667L2.51868 17.7083C2.32979 17.5194 2.23535 17.2833 2.23535 17C2.23535 16.7167 2.32979 16.4806 2.51868 16.2917L5.3166 13.0687L4.82077 8.81874C4.77354 8.55899 4.83848 8.31107 5.01556 8.07499C5.19264 7.8389 5.41104 7.69723 5.67077 7.64999L10.0624 6.76457L12.2583 2.97499C12.3999 2.73887 12.6007 2.57359 12.8603 2.47915C13.1201 2.3847 13.3798 2.39651 13.6395 2.51457L17.4999 4.32082L21.3603 2.51457C21.6201 2.39651 21.8798 2.3788 22.1395 2.46144C22.3993 2.54408 22.5999 2.70345 22.7416 2.93957L24.9728 6.76457L29.3291 7.64999C29.5888 7.69723 29.8072 7.8389 29.9843 8.07499C30.1614 8.31107 30.2263 8.55899 30.1791 8.81874L29.6833 13.0687L32.4812 16.2917C32.6701 16.4806 32.7645 16.7167 32.7645 17C32.7645 17.2833 32.6701 17.5194 32.4812 17.7083L29.6833 20.9667L30.1791 25.2167C30.2263 25.4764 30.1614 25.7243 29.9843 25.9604C29.8072 26.1965 29.5888 26.3382 29.3291 26.3854L24.9728 27.2708L22.7416 31.0604C22.5999 31.2965 22.3993 31.4559 22.1395 31.5385C21.8798 31.6212 21.6201 31.6035 21.3603 31.4854L17.4999 29.6792L13.6395 31.4854C13.3798 31.6035 13.1201 31.6152 12.8603 31.5208C12.6007 31.4264 12.3999 31.2611 12.2583 31.025Z" fill="#3A96AF"/>
</svg>
