<svg width="40" height="24" viewBox="0 0 40 24" fill="none" xmlns="http://www.w3.org/2000/svg">
  <rect width="40" height="24" rx="4" fill="#F5F9FC"/>
  <path d="M16.3721 8.02344H13.2471C13.0346 8.02344 12.8596 8.17344 12.8096 8.38594L11.0221 15.5234C10.9846 15.6609 11.0846 15.7984 11.2346 15.7984H12.7596C12.9721 15.7984 13.1471 15.6484 13.1971 15.4359L13.5346 14.0109H16.0971C16.1221 14.0109 16.1471 14.0109 16.1721 14.0109L16.6596 15.4484C16.7096 15.6609 16.8971 15.7984 17.1096 15.7984H18.8221C18.9721 15.7984 19.0721 15.6484 19.0346 15.5234L17.2471 8.38594C17.1971 8.17344 17.0221 8.02344 16.8096 8.02344H16.3721ZM14.0221 12.5234L14.7596 9.76094C14.7596 9.73594 14.7846 9.72344 14.8096 9.72344C14.8346 9.72344 14.8596 9.73594 14.8596 9.76094L15.5971 12.5234C15.6096 12.5734 15.5721 12.6234 15.5221 12.6234H14.0971C14.0471 12.6234 14.0096 12.5734 14.0221 12.5234Z" fill="#172B85"/>
  <path d="M22.5471 8.02344H20.9596C20.7846 8.02344 20.6346 8.13594 20.5721 8.29844L18.7221 12.3359C18.6971 12.3859 18.6346 12.3859 18.6096 12.3359L17.9096 8.32344C17.8721 8.14844 17.7096 8.02344 17.5346 8.02344H15.9846C15.8346 8.02344 15.7346 8.16094 15.7721 8.29844L17.3096 15.2359C17.3346 15.3734 17.2596 15.5109 17.1346 15.5609C16.4596 15.8359 15.9596 16.2734 15.9596 16.7734C15.9596 16.8984 16.0596 16.9984 16.1846 16.9984H17.3846C17.5596 16.9984 17.7221 16.8859 17.7721 16.7234C17.8846 16.3859 18.1971 16.1484 18.5721 16.1484C18.9471 16.1484 19.2596 16.3859 19.3721 16.7234C19.4221 16.8859 19.5846 16.9984 19.7596 16.9984H20.9596C21.0846 16.9984 21.1846 16.8984 21.1846 16.7734C21.1846 16.0109 20.1971 15.3984 18.9971 15.1734C18.8846 15.1484 18.8096 15.0359 18.8346 14.9234L22.7846 8.29844C22.8596 8.16094 22.7471 8.02344 22.5471 8.02344Z" fill="#172B85"/>
  <path d="M24.6596 8.02344H23.0346C22.8846 8.02344 22.7596 8.14844 22.7596 8.29844V15.5234C22.7596 15.6734 22.8846 15.7984 23.0346 15.7984H24.6596C24.8096 15.7984 24.9346 15.6734 24.9346 15.5234V8.29844C24.9346 8.14844 24.8096 8.02344 24.6596 8.02344Z" fill="#172B85"/>
  <path d="M29.6721 8.02344H25.7971C25.6471 8.02344 25.5221 8.14844 25.5221 8.29844V9.64844C25.5221 9.79844 25.6471 9.92344 25.7971 9.92344H26.9971V15.5234C26.9971 15.6734 27.1221 15.7984 27.2721 15.7984H28.1971C28.3471 15.7984 28.4721 15.6734 28.4721 15.5234V9.92344H29.6721C29.8221 9.92344 29.9471 9.79844 29.9471 9.64844V8.29844C29.9471 8.14844 29.8221 8.02344 29.6721 8.02344Z" fill="#172B85"/>
</svg> 