<svg width="35" height="34" viewBox="0 0 35 34" fill="none" xmlns="http://www.w3.org/2000/svg">
<g clip-path="url(#clip0_1061_11345)">
<path d="M34.5 5.38338C34.5 4.06835 33.9776 2.80718 33.0477 1.87731C32.1179 0.947443 30.8567 0.425049 29.5417 0.425049H5.45833C4.1456 0.432487 2.88874 0.957269 1.96048 1.88553C1.03222 2.81379 0.507438 4.07064 0.5 5.38338L0.5 23.8C0.546955 25.1617 1.02698 26.4728 1.87029 27.5429C2.71361 28.6129 3.87624 29.3861 5.18917 29.75C22.3733 33.7592 21.325 33.5751 22.09 33.5751C22.9943 33.6036 23.8789 33.3071 24.5833 32.7392C25.0551 32.3393 25.4283 31.836 25.674 31.2685C25.9197 30.7009 26.0313 30.0844 26 29.4667V15.7392C26.0002 14.4212 25.5699 13.1393 24.7746 12.0883C23.9793 11.0373 22.8626 10.2748 21.5942 9.91672L6.25167 5.66672C5.97927 5.59345 5.74713 5.41497 5.60632 5.17055C5.46551 4.92613 5.42757 4.63578 5.50083 4.36338C5.5741 4.09098 5.75257 3.85884 5.997 3.71804C6.24142 3.57723 6.53177 3.53928 6.80417 3.61255C12.0883 5.02922 11.7908 5.02922 11.8617 5.02922H29.5417C29.8235 5.02922 30.0937 5.14116 30.293 5.34041C30.4922 5.53967 30.6042 5.80992 30.6042 6.09172C30.6042 6.37351 30.4922 6.64376 30.293 6.84302C30.0937 7.04227 29.8235 7.15422 29.5417 7.15422H22.1183C22.0338 7.15699 21.953 7.18995 21.8906 7.24712C21.8283 7.30428 21.7884 7.38189 21.7783 7.46588C21.7647 7.55177 21.7832 7.63967 21.8302 7.71282C21.8772 7.78598 21.9495 7.83927 22.0333 7.86255C23.7015 8.28999 25.1902 9.23776 26.2833 10.5684C26.3178 10.6098 26.3612 10.6428 26.4103 10.6649C26.4594 10.687 26.5129 10.6976 26.5667 10.6959H29.5417C29.8235 10.6959 30.0937 10.8078 30.293 11.0071C30.4922 11.2063 30.6042 11.4766 30.6042 11.7584C30.6042 12.0402 30.4922 12.3104 30.293 12.5097C30.0937 12.7089 29.8235 12.8209 29.5417 12.8209H28.125C28.0685 12.8213 28.0131 12.8358 27.9636 12.863C27.9142 12.8902 27.8722 12.9293 27.8417 12.9767C27.8179 13.0252 27.8055 13.0785 27.8055 13.1325C27.8055 13.1866 27.8179 13.2399 27.8417 13.2884C28.1029 14.0792 28.2367 14.9064 28.2383 15.7392V25.5709C28.2383 25.6648 28.2756 25.7549 28.3421 25.8213C28.4085 25.8877 28.4986 25.925 28.5925 25.925H29.655C30.9503 25.8954 32.1825 25.36 33.088 24.4333C33.9935 23.5066 34.5003 22.2623 34.5 20.9667V5.38338ZM22.4583 21.675C22.4583 22.2354 22.2922 22.7832 21.9808 23.2492C21.6695 23.7151 21.227 24.0783 20.7093 24.2927C20.1915 24.5072 19.6219 24.5633 19.0722 24.4539C18.5226 24.3446 18.0178 24.0748 17.6215 23.6785C17.2253 23.2823 16.9554 22.7774 16.8461 22.2278C16.7368 21.6782 16.7929 21.1085 17.0073 20.5908C17.2218 20.0731 17.5849 19.6306 18.0509 19.3192C18.5168 19.0079 19.0646 18.8417 19.625 18.8417C20.3764 18.8417 21.0971 19.1402 21.6285 19.6716C22.1598 20.2029 22.4583 20.9236 22.4583 21.675Z" fill="#3A96AF"/>
</g>
<defs>
<clipPath id="clip0_1061_11345">
<rect width="34" height="34" fill="white" transform="translate(0.5)"/>
</clipPath>
</defs>
</svg>
