<svg width="138" height="36" viewBox="0 0 138 36" fill="none" xmlns="http://www.w3.org/2000/svg">
<path d="M54.2122 21.2676H43.8066C43.8795 22.2004 44.1782 22.9108 44.7065 23.4063C45.2348 23.8982 45.8833 24.1459 46.6557 24.1459C47.8034 24.1459 48.6013 23.6614 49.0495 22.6922H53.9426C53.6912 23.6796 53.2394 24.5649 52.5836 25.3556C51.9278 26.1462 51.108 26.7619 50.1243 27.2101C49.1369 27.6582 48.0366 27.8805 46.8161 27.8805C45.3441 27.8805 44.0361 27.5671 42.8885 26.9405C41.7408 26.3138 40.8445 25.4175 40.1996 24.2516C39.5547 23.0857 39.2305 21.7231 39.2305 20.1637C39.2305 18.6043 39.5474 17.2417 40.185 16.0758C40.8226 14.9099 41.7116 14.0136 42.8593 13.3869C44.007 12.7602 45.3223 12.4469 46.8124 12.4469C48.3026 12.4469 49.5559 12.7529 50.6854 13.3614C51.8148 13.9699 52.6965 14.8406 53.3341 15.9701C53.9717 17.0996 54.2887 18.4185 54.2887 19.9232C54.2887 20.3531 54.2632 20.8013 54.2085 21.2676H54.2122ZM49.5887 18.7136C49.5887 17.9266 49.3191 17.2963 48.7835 16.8299C48.2443 16.3636 47.5739 16.1304 46.7651 16.1304C45.9562 16.1304 45.3441 16.3563 44.8158 16.8044C44.2875 17.2526 43.9596 17.8902 43.8357 18.7136H49.5887Z" fill="white"/>
<path d="M59.2943 7.7688V27.6656H54.6963V7.7688H59.2943Z" fill="white"/>
<path d="M74.677 21.2676H64.2714C64.3443 22.2004 64.6431 22.9108 65.1714 23.4063C65.6997 23.8982 66.3482 24.1459 67.1206 24.1459C68.2683 24.1459 69.0662 23.6614 69.5143 22.6922H74.4074C74.156 23.6796 73.7042 24.5649 73.0484 25.3556C72.3926 26.1462 71.5728 26.7619 70.5891 27.2101C69.6018 27.6582 68.5014 27.8805 67.2809 27.8805C65.809 27.8805 64.501 27.5671 63.3533 26.9405C62.2056 26.3138 61.3093 25.4175 60.6645 24.2516C60.0196 23.0857 59.6953 21.7231 59.6953 20.1637C59.6953 18.6043 60.0123 17.2417 60.6499 16.0758C61.2875 14.9099 62.1765 14.0136 63.3242 13.3869C64.4718 12.7602 65.7907 12.4469 67.2773 12.4469C68.7638 12.4469 70.0208 12.7529 71.1502 13.3614C72.2797 13.9699 73.1614 14.8406 73.799 15.9701C74.4366 17.0996 74.7535 18.4185 74.7535 19.9232C74.7535 20.3531 74.728 20.8013 74.6734 21.2676H74.677ZM70.0535 18.7136C70.0535 17.9266 69.7839 17.2963 69.2483 16.8299C68.7091 16.3636 68.0387 16.1304 67.2299 16.1304C66.4211 16.1304 65.809 16.3563 65.2807 16.8044C64.7524 17.2526 64.4245 17.8902 64.3006 18.7136H70.0535Z" fill="white"/>
<path d="M81.9095 23.3662L85.1631 12.6655H90.0562L84.7331 27.6691H79.0603L73.7373 12.6655H78.6596L81.9131 23.3662H81.9095Z" fill="white"/>
<path d="M89.9357 16.0796C90.5187 14.9137 91.3129 14.0174 92.3149 13.3907C93.3168 12.7641 94.439 12.4507 95.6777 12.4507C96.7343 12.4507 97.6634 12.6657 98.4613 13.0956C99.2592 13.5256 99.8713 14.0903 100.305 14.7898V12.6657H104.903V27.6693H100.305V25.5452C99.8567 26.2448 99.2337 26.8095 98.4358 27.2394C97.6379 27.6694 96.7088 27.8843 95.6522 27.8843C94.4317 27.8843 93.3204 27.5673 92.3185 26.9297C91.3129 26.2921 90.5223 25.3886 89.9394 24.2154C89.3564 23.0422 89.0649 21.6832 89.0649 20.142C89.0649 18.6009 89.3564 17.2455 89.9394 16.0832L89.9357 16.0796ZM99.3467 17.4495C98.7091 16.7864 97.9367 16.4549 97.0222 16.4549C96.1077 16.4549 95.3316 16.7828 94.6977 17.435C94.0601 18.0908 93.7431 18.9907 93.7431 20.1384C93.7431 21.2861 94.0601 22.1969 94.6977 22.8673C95.3353 23.5413 96.1077 23.8765 97.0222 23.8765C97.9367 23.8765 98.7127 23.545 99.3467 22.8819C99.9843 22.2188 100.301 21.3152 100.301 20.1675C100.301 19.0198 99.9843 18.1163 99.3467 17.4532V17.4495Z" fill="white"/>
<path d="M119.568 14.2102C120.617 15.3506 121.142 16.9136 121.142 18.9029V27.669H116.569V19.5223C116.569 18.5203 116.311 17.737 115.79 17.1832C115.269 16.6294 114.569 16.3489 113.691 16.3489C112.813 16.3489 112.114 16.6258 111.593 17.1832C111.072 17.7407 110.813 18.5203 110.813 19.5223V27.669H106.215V12.6654H110.813V14.6547C111.279 13.9916 111.906 13.4669 112.696 13.0807C113.483 12.6945 114.372 12.5014 115.36 12.5014C117.116 12.5014 118.519 13.0698 119.568 14.2102Z" fill="white"/>
<path d="M122.286 16.0796C122.869 14.9137 123.663 14.0174 124.665 13.3907C125.667 12.7641 126.789 12.4507 128.028 12.4507C129.084 12.4507 130.014 12.6657 130.811 13.0956C131.609 13.5256 132.221 14.0903 132.655 14.7898V12.6657H137.253V27.6693H132.655V25.5452C132.207 26.2448 131.584 26.8095 130.786 27.2394C129.988 27.6694 129.059 27.8843 128.002 27.8843C126.782 27.8843 125.671 27.5673 124.669 26.9297C123.663 26.2921 122.872 25.3886 122.289 24.2154C121.707 23.0422 121.415 21.6832 121.415 20.142C121.415 18.6009 121.707 17.2455 122.289 16.0832L122.286 16.0796ZM131.697 17.4495C131.059 16.7864 130.287 16.4549 129.372 16.4549C128.458 16.4549 127.682 16.7828 127.048 17.435C126.41 18.0908 126.093 18.9907 126.093 20.1384C126.093 21.2861 126.41 22.1969 127.048 22.8673C127.685 23.5413 128.458 23.8765 129.372 23.8765C130.287 23.8765 131.063 23.545 131.697 22.8819C132.334 22.2188 132.651 21.3152 132.651 20.1675C132.651 19.0198 132.334 18.1163 131.697 17.4532V17.4495Z" fill="white"/>
<path d="M3.05128 15.187C5.16737 15.7628 7.2688 16.3679 9.16117 17.5672C7.76389 18.3667 6.27493 18.6491 4.71628 18.2676C2.65887 17.7652 1.09655 16.5696 0 14.6919C0.187038 14.5856 0.308062 14.5085 0.440089 14.4462C2.24445 13.588 4.09649 13.5623 5.98887 14.1125C7.33847 14.5049 8.53038 15.1907 9.62694 16.0525C10.6281 16.841 11.6147 17.6478 12.6195 18.4363C13.3714 19.0231 14.1745 19.5219 15.095 19.8153C16.2759 20.1894 17.3982 20.0097 18.48 19.4632C19.3712 19.0158 20.1487 18.4033 20.9115 17.7725C22.1144 16.7787 23.2917 15.7481 24.6633 14.989C26.1889 14.1418 27.8136 13.687 29.5703 13.7604C30.5715 13.8007 31.525 14.0428 32.4235 14.4975C32.5042 14.5379 32.5775 14.6002 32.7059 14.6919C31.7891 16.3679 30.3918 17.4388 28.6388 18.0586C26.8967 18.6747 25.2097 18.4804 23.4971 17.5782C24.5203 16.9107 25.5545 16.4889 26.618 16.1479C27.6706 15.8105 28.7414 15.5244 29.8087 15.1503C29.4419 15.1503 29.0715 15.1247 28.7048 15.154C26.6474 15.3227 24.6853 15.8325 22.9799 17.0427C21.4616 18.1173 20.145 19.4045 19.2575 21.0732C18.5387 22.4228 18.2343 23.8348 18.6267 25.3531C18.8138 26.0792 19.1695 26.7174 19.6463 27.2785C19.98 27.6672 20.1671 28.089 20.2184 28.5914C20.2807 29.2002 20.2917 29.8053 20.112 30.4618C19.9397 30.3775 19.782 30.3151 19.6426 30.2234C18.4287 29.4386 17.4092 28.4631 16.694 27.1941C16.4446 26.7504 16.2393 26.7577 15.9862 27.2125C15.2527 28.5438 14.1782 29.5376 12.8946 30.3188C12.8139 30.3665 12.7296 30.4068 12.5609 30.4948C12.5168 30.0804 12.4252 29.71 12.4545 29.3469C12.4912 28.8518 12.5975 28.3567 12.7112 27.8726C12.7516 27.7002 12.8799 27.5352 13.0009 27.3922C14.5119 25.5768 14.7796 23.3067 13.5877 21.2493C11.787 18.1393 9.17585 16.0819 5.57812 15.4034C4.74562 15.2457 3.90578 15.1357 3.05128 15.1943V15.187Z" fill="white"/>
<path d="M16.3862 0.0036654C20.1196 3.46937 20.6441 9.31524 16.8263 13.045C16.8703 10.3494 16.7493 7.74558 16.3862 5.15639C16.3495 5.15639 16.3092 5.15639 16.2725 5.15272C16.1918 6.46933 16.0928 7.78592 16.0341 9.10253C15.9755 10.4081 15.9534 11.7174 15.8654 13.0377C14.2114 11.3543 13.3569 9.32257 13.2726 6.97176C13.1846 4.5696 14.7542 1.07455 16.3899 0L16.3862 0.0036654Z" fill="white"/>
<path d="M19.5435 16.3127C20.7207 14.6807 22.0117 13.1184 22.8258 11.2554C22.8038 11.237 22.7855 11.2187 22.7635 11.1967C22.4334 11.5671 22.096 11.9302 21.7696 12.3043C21.4322 12.693 21.1022 13.0891 20.7721 13.4852C20.453 13.8702 20.1376 14.2626 19.8259 14.6551C19.5068 15.0548 19.1914 15.4582 18.8247 15.8433C18.645 15.3299 18.5863 14.8201 18.645 14.2957C18.9017 12.0035 20.1266 10.3275 21.9933 9.07325C22.6058 8.6625 23.2659 8.35077 23.9811 8.17107C24.4872 8.04271 24.5458 8.07205 24.6449 8.57082C24.9859 10.2615 24.7109 11.8605 23.8784 13.3605C23.1522 14.6734 22.107 15.6489 20.6877 16.177C20.343 16.3054 19.9653 16.3531 19.6022 16.4374L19.5398 16.3127H19.5435Z" fill="white"/>
<path d="M13.885 15.8431C12.5171 14.2038 11.1895 12.6121 9.86553 11.0242C9.83985 11.0425 9.81785 11.0608 9.79218 11.0792C10.6063 13.0339 11.8863 14.6916 13.2359 16.3016C13.2139 16.3382 13.1955 16.3712 13.1735 16.4079C12.9021 16.3712 12.6234 16.3676 12.3594 16.2979C11.0831 15.9605 10.1222 15.161 9.34109 14.1378C8.05383 12.4508 7.69809 10.5437 8.10517 8.48263C8.18952 8.05721 8.24453 8.0242 8.65528 8.1489C11.4205 8.98507 13.2212 10.7711 13.929 13.595C14.1124 14.3248 14.116 15.0656 13.885 15.8431Z" fill="white"/>
<path d="M20.7463 20.765C22.5654 20.6806 24.2671 20.8457 25.9687 21.04C25.7047 20.798 25.2499 20.6073 24.4027 20.4276C23.8343 20.3065 23.2585 20.2075 22.6827 20.1342C22.107 20.0608 21.5275 20.0352 20.849 19.9801C21.0141 19.8481 21.1168 19.7381 21.2451 19.6684C23.0201 18.7075 24.7768 18.7699 26.4968 19.7968C27.1643 20.1965 27.7181 20.7393 28.1618 21.3848C28.3855 21.7112 28.3745 21.7808 28.0445 21.9495C25.9504 23.0168 23.0678 22.9471 21.0874 21.1611C20.9847 21.0657 20.9004 20.952 20.7427 20.7686L20.7463 20.765Z" fill="white"/>
<path d="M6.68552 21.0107C8.39453 20.919 10.0962 20.6733 11.8309 20.7759C11.0937 22.6243 6.23076 23.2514 4.33838 21.7331C5.06086 20.4239 6.17208 19.6134 7.59137 19.199C9.10234 18.7552 10.4959 19.0009 11.7685 19.9508C10.0265 20.0901 8.29551 20.2295 6.68552 21.0143V21.0107Z" fill="white"/>
<path d="M12.5865 26.6841C12.3958 26.8711 12.2308 27.0875 12.0181 27.2452C10.1074 28.6388 7.97295 29.1669 5.63682 28.7929C4.5586 28.6205 3.76277 28.041 3.34102 27.0032C3.29335 26.8821 3.25667 26.7575 3.20166 26.5851H12.5352L12.5865 26.6841Z" fill="white"/>
<path d="M20.1704 26.5815H29.4856C29.2912 27.4691 28.8512 28.1072 28.0517 28.4703C27.3072 28.8077 26.515 28.892 25.7119 28.8773C24.1055 28.8517 22.6092 28.4446 21.2413 27.5901C20.8342 27.3334 20.4455 27.0473 20.1741 26.5815H20.1704Z" fill="white"/>
<path d="M4.2251 29.1119C6.85096 30.0948 9.32646 29.7097 11.7249 28.4041C11.7506 28.4811 11.7763 28.5178 11.7689 28.5508C11.6699 29.244 11.6919 29.9298 11.8313 30.6156C11.868 30.7916 11.8203 30.898 11.6553 30.9713C9.99392 31.6755 8.29592 32.0349 6.50989 31.5214C5.28498 31.1693 4.67986 30.2158 4.22877 29.1156L4.2251 29.1119Z" fill="white"/>
<path d="M21.0396 28.4041C22.1802 29.0826 23.3977 29.4677 24.6923 29.5924C25.9686 29.7171 27.2375 29.6584 28.5064 29.1193C28.4551 29.2733 28.4331 29.3686 28.3891 29.4567C27.6556 30.9676 26.4563 31.7378 24.7657 31.7415C23.5298 31.7415 22.3489 31.4957 21.2083 31.0263C20.9442 30.9163 20.8526 30.7916 20.8929 30.4835C20.9772 29.8161 20.9919 29.1413 21.0396 28.4041Z" fill="white"/>
<path d="M25.5254 12.458C25.5767 12.0362 25.6024 11.6108 25.6868 11.1964C26.0498 9.42138 27.6892 7.76737 29.3688 7.45564C29.7869 7.37863 29.7942 7.38596 29.8603 7.80771C30.172 9.82846 28.8371 12.1683 26.9337 12.9091C26.688 13.0044 26.4239 13.0448 26.1378 13.0668C26.9117 11.8162 27.8249 10.6793 28.419 9.34069C27.3334 10.2502 26.5266 11.4018 25.6611 12.4947C25.6171 12.4837 25.5694 12.469 25.5254 12.458Z" fill="white"/>
<path d="M2.95986 7.43024C4.9696 7.51092 7.28373 9.82139 7.10769 12.4949C6.14683 11.3764 5.35101 10.1771 4.22511 9.26761C4.87058 10.6099 5.7911 11.7835 6.63827 13.0487C4.50384 12.935 2.21905 10.1075 2.95619 7.43024H2.95986Z" fill="white"/>
<path d="M21.2266 8.01319C22.0151 6.82862 22.8879 5.73206 23.493 4.46314C22.4148 5.34332 21.63 6.47655 20.7755 7.58778C20.2547 5.83842 22.2644 2.90082 24.4906 2.90448C25.4074 4.60983 23.2987 7.96918 21.2266 8.01319Z" fill="white"/>
<path d="M9.3185 4.55865C9.91629 5.76156 10.7415 6.82878 11.4383 7.97301C11.4163 8.00235 11.3906 8.03169 11.3686 8.06103C11.1192 7.97668 10.8551 7.91801 10.6204 7.80432C9.12413 7.09284 8.33197 5.86425 8.11193 4.25059C8.06425 3.90585 8.08992 3.54645 8.11193 3.19804C8.1376 2.86064 8.19261 2.82763 8.52634 2.90098C10.2023 3.26405 11.2512 4.32394 11.827 5.89726C12.0104 6.40703 12.0727 6.93881 11.9737 7.5696C11.5299 6.98648 11.1485 6.45104 10.7305 5.94493C10.3124 5.4425 9.85027 4.9694 9.41019 4.4853C9.38085 4.51097 9.34784 4.53298 9.3185 4.55865Z" fill="white"/>
<path d="M16.3572 15.7772C17.3584 15.7772 18.1872 16.5914 18.1982 17.5706C18.2092 18.5571 17.3474 19.4043 16.3462 19.397C15.3083 19.3896 14.5162 18.5901 14.5235 17.5596C14.5345 16.5547 15.3377 15.7736 16.3572 15.7772Z" fill="white"/>
<path d="M6.3042 32.2034C8.32494 32.7682 10.2026 32.3648 12.0364 31.6276C12.4068 32.2768 12.7515 32.8819 13.1402 33.5604C12.5461 33.7401 11.9887 33.9454 11.4129 34.0701C10.9288 34.1765 10.4227 34.2242 9.92393 34.2315C8.42763 34.2608 7.34207 33.476 6.40689 32.4088C6.37388 32.3721 6.35921 32.3171 6.3042 32.1997V32.2034Z" fill="white"/>
<path d="M26.3573 32.2586C25.5028 33.2708 24.586 34.1473 23.174 34.206C22.1031 34.25 21.0689 34.096 20.0714 33.7036C19.9357 33.6485 19.8037 33.5825 19.6533 33.5129C19.9797 32.8784 20.2951 32.2733 20.5812 31.7158C21.5604 31.9505 22.5066 32.2183 23.4711 32.4016C24.4319 32.5813 25.4001 32.508 26.361 32.2586H26.3573Z" fill="white"/>
<path d="M14.3616 33.7696C15.0621 33.2012 15.6928 32.6951 16.3346 32.1743C16.9764 32.6768 17.6402 33.1975 18.3921 33.788C18.1793 33.964 17.985 34.129 17.7869 34.2867C17.6476 34.3968 17.5082 34.5031 17.3578 34.5948C16.1953 35.3063 16.4777 35.2953 15.3371 34.5691C14.9887 34.3491 14.6916 34.0447 14.3579 33.7696H14.3616Z" fill="white"/>
<path d="M17.8605 29.8013C18.4803 30.245 19.1221 30.6961 19.7492 31.1619C19.8189 31.2132 19.8776 31.3966 19.8409 31.4663C19.5805 31.9687 19.3055 32.4601 19.0048 32.9406C18.9644 33.0066 18.7517 33.0323 18.6637 32.9919C18.0256 32.6765 17.4901 32.2218 17.006 31.7047C16.9033 31.5983 16.874 31.492 16.9657 31.3453C17.2737 30.8392 17.5635 30.3257 17.8642 29.8049L17.8605 29.8013Z" fill="white"/>
<path d="M17.3872 35.5372C17.941 35.1008 18.4654 34.6754 19.0082 34.272C19.0926 34.2096 19.2613 34.2096 19.3749 34.2427C19.9324 34.4077 20.4715 34.6314 21.0363 34.7598C21.5974 34.8881 22.1768 34.9321 22.7343 35.0091C21.315 36.1717 18.8065 36.2634 17.3872 35.5336V35.5372Z" fill="white"/>
<path d="M14.853 29.8566C15.1757 30.4104 15.5021 30.9679 15.8505 31.562C15.3408 32.1414 14.7613 32.6585 14.0462 33.0069C13.9655 33.0473 13.7601 32.9923 13.7088 32.9153C13.4117 32.4678 13.1367 32.0021 12.8653 31.5363C12.7846 31.3969 12.7956 31.2649 12.9606 31.1549C13.5877 30.7331 14.2112 30.3004 14.853 29.8566Z" fill="white"/>
<path d="M15.3039 35.5776C13.4335 36.2377 11.6878 36.1093 9.95312 35.0531C10.4299 34.9835 10.8443 34.9578 11.2367 34.8624C11.9335 34.6901 12.6157 34.4773 13.3051 34.272C13.4775 34.2206 13.6242 34.1473 13.7929 34.294C14.2697 34.7121 14.7574 35.1155 15.3039 35.5739V35.5776Z" fill="white"/>
<path d="M16.3534 28.0265C16.6321 28.3932 16.8888 28.7196 17.1309 29.057C17.1785 29.1267 17.2115 29.2441 17.1859 29.3174C16.9952 29.8932 16.7788 30.4543 16.346 30.9751C16.0306 30.6083 15.8693 30.1976 15.6639 29.8089C15.4512 29.4091 15.4769 29.0827 15.7996 28.7563C16.0013 28.5509 16.1553 28.2942 16.3534 28.0265Z" fill="white"/>
</svg>
