<svg width="655" height="222" viewBox="0 0 655 222" fill="none" xmlns="http://www.w3.org/2000/svg">
<path d="M211.143 166.67C191.41 166.67 175.32 150.58 175.32 130.847C175.32 111.114 191.41 95.1753 211.143 95.1753C224.501 95.1753 236.037 102.461 241.957 114.908C242.716 116.426 243.02 118.096 243.02 119.766C243.02 121.284 242.868 122.65 242.261 124.016C241.198 126.9 238.921 129.329 236.037 130.391L200.062 144.963C203.098 147.392 207.045 148.758 211.143 148.758C216.911 148.758 222.376 146.026 225.715 141.32L240.136 151.642C233.457 161.053 222.528 166.67 211.143 166.67ZM193.384 128.57L221.769 117.033C218.885 114.301 215.242 112.935 211.143 112.935C202.036 112.935 194.446 119.766 193.384 128.57ZM268.306 165H250.547V61.7809H268.306V165ZM313.864 166.67C294.131 166.67 278.041 150.58 278.041 130.847C278.041 111.114 294.131 95.1753 313.864 95.1753C327.222 95.1753 338.758 102.461 344.678 114.908C345.437 116.426 345.741 118.096 345.741 119.766C345.741 121.284 345.589 122.65 344.982 124.016C343.919 126.9 341.642 129.329 338.758 130.391L302.784 144.963C305.819 147.392 309.766 148.758 313.864 148.758C319.633 148.758 325.097 146.026 328.436 141.32L342.857 151.642C336.178 161.053 325.249 166.67 313.864 166.67ZM296.105 128.57L324.49 117.033C321.606 114.301 317.963 112.935 313.864 112.935C304.757 112.935 297.167 119.766 296.105 128.57ZM381.866 165.304L344.374 96.6932H364.562L381.866 128.114L399.019 96.6932H419.207L381.866 165.304ZM451.272 166.67C431.539 166.67 415.449 150.58 415.449 130.847C415.449 111.114 431.539 95.1753 451.272 95.1753C457.8 95.1753 463.871 96.845 469.184 100.033L474.193 96.6932H486.944V165.152H469.184V161.812C463.871 164.848 457.8 166.67 451.272 166.67ZM451.272 148.758C461.139 148.758 469.184 140.713 469.184 130.847C469.184 120.98 461.139 112.935 451.272 112.935C441.406 112.935 433.209 120.98 433.209 130.847C433.209 140.713 441.406 148.758 451.272 148.758ZM572.483 165H554.723V130.847C554.723 121.891 549.258 112.935 538.633 112.935C530.891 112.935 521.48 121.132 521.48 130.847V165H503.72V96.6932H516.471L521.48 100.184C526.793 96.9968 532.713 95.1753 538.633 95.1753C557.91 95.1753 572.483 110.81 572.483 130.847V165ZM615.956 166.67C596.223 166.67 580.133 150.58 580.133 130.847C580.133 111.114 596.223 95.1753 615.956 95.1753C622.483 95.1753 628.555 96.845 633.867 100.033L638.877 96.6932H651.627V165.152H633.867V161.812C628.555 164.848 622.483 166.67 615.956 166.67ZM615.956 148.758C625.822 148.758 633.867 140.713 633.867 130.847C633.867 120.98 625.822 112.935 615.956 112.935C606.089 112.935 597.892 120.98 597.892 130.847C597.892 140.713 606.089 148.758 615.956 148.758Z" fill="white"/>
<path d="M345.905 220.995C344.003 220.995 342.455 220.58 341.261 219.75C340.066 218.941 339.257 217.878 338.832 216.563H341.352C341.655 217.311 342.181 217.888 342.93 218.293C343.679 218.718 344.63 218.931 345.784 218.931C347.525 218.931 348.789 218.516 349.579 217.686C350.388 216.876 350.793 215.692 350.793 214.134V212.039C350.226 212.849 349.488 213.507 348.577 214.012C347.686 214.498 346.614 214.741 345.359 214.741C343.881 214.741 342.586 214.407 341.473 213.739C340.38 213.051 339.53 212.12 338.923 210.946C338.316 209.772 338.012 208.467 338.012 207.03C338.012 205.573 338.316 204.267 338.923 203.114C339.53 201.94 340.38 201.019 341.473 200.351C342.586 199.663 343.881 199.319 345.359 199.319C346.614 199.319 347.686 199.562 348.577 200.048C349.488 200.513 350.226 201.161 350.793 201.99V199.562H353.07V214.286C353.07 216.451 352.443 218.111 351.188 219.265C349.953 220.418 348.192 220.995 345.905 220.995ZM345.663 212.677C346.776 212.677 347.717 212.424 348.486 211.918C349.275 211.412 349.872 210.734 350.277 209.884C350.702 209.013 350.915 208.062 350.915 207.03C350.915 205.978 350.702 205.026 350.277 204.176C349.872 203.326 349.275 202.648 348.486 202.142C347.717 201.636 346.776 201.383 345.663 201.383C344.549 201.383 343.588 201.636 342.778 202.142C341.969 202.648 341.352 203.326 340.927 204.176C340.502 205.026 340.289 205.978 340.289 207.03C340.289 208.062 340.502 209.013 340.927 209.884C341.352 210.734 341.969 211.412 342.778 211.918C343.588 212.424 344.549 212.677 345.663 212.677ZM357.616 214.741V199.562H359.892V203.296C359.973 203.033 360.125 202.689 360.348 202.264C360.591 201.818 360.935 201.373 361.38 200.928C361.825 200.483 362.382 200.108 363.05 199.805C363.738 199.481 364.547 199.319 365.478 199.319H365.63V201.596H365.357C364.224 201.596 363.242 201.91 362.412 202.537C361.603 203.144 360.975 203.944 360.53 204.935C360.105 205.907 359.892 206.949 359.892 208.062V214.741H357.616ZM374.89 214.984C373.352 214.984 372.017 214.64 370.883 213.952C369.75 213.243 368.879 212.292 368.272 211.098C367.665 209.904 367.362 208.588 367.362 207.151C367.362 205.694 367.665 204.379 368.272 203.205C368.879 202.011 369.75 201.07 370.883 200.381C372.017 199.673 373.352 199.319 374.89 199.319C376.449 199.319 377.785 199.673 378.898 200.381C380.031 201.07 380.901 202.011 381.509 203.205C382.116 204.379 382.419 205.694 382.419 207.151C382.419 208.588 382.116 209.904 381.509 211.098C380.901 212.292 380.031 213.243 378.898 213.952C377.785 214.64 376.449 214.984 374.89 214.984ZM374.89 212.92C376.024 212.92 376.975 212.656 377.744 212.13C378.533 211.604 379.131 210.906 379.535 210.036C379.94 209.145 380.143 208.184 380.143 207.151C380.143 206.099 379.94 205.138 379.535 204.267C379.131 203.397 378.533 202.699 377.744 202.173C376.975 201.646 376.024 201.383 374.89 201.383C373.777 201.383 372.826 201.646 372.037 202.173C371.247 202.699 370.65 203.397 370.246 204.267C369.841 205.138 369.638 206.099 369.638 207.151C369.638 208.184 369.841 209.145 370.246 210.036C370.65 210.906 371.247 211.604 372.037 212.13C372.826 212.656 373.777 212.92 374.89 212.92ZM388.694 214.741L383.928 199.562H386.357L390 211.918L393.855 199.562H396.344L400.2 211.918L403.843 199.562H406.272L401.505 214.741H398.895L395.1 202.628L391.305 214.741H388.694ZM410.646 214.741V201.565H407.55V199.562H410.646V194.128H412.923V199.562H416.414V201.565H412.923V214.741H410.646ZM419.516 214.741V193.49H421.793V201.93C422.339 201.201 423.007 200.584 423.797 200.078C424.586 199.572 425.598 199.319 426.833 199.319C427.885 199.319 428.867 199.572 429.777 200.078C430.708 200.564 431.457 201.302 432.024 202.294C432.611 203.266 432.904 204.47 432.904 205.907V214.741H430.627V205.967C430.627 204.591 430.233 203.488 429.443 202.658C428.654 201.808 427.632 201.383 426.377 201.383C425.527 201.383 424.758 201.576 424.07 201.96C423.382 202.345 422.825 202.891 422.4 203.599C421.995 204.288 421.793 205.087 421.793 205.998V214.741H419.516ZM444.389 214.741V199.562H446.666V201.869C447.01 201.262 447.556 200.685 448.305 200.139C449.054 199.592 450.046 199.319 451.28 199.319C452.292 199.319 453.223 199.592 454.073 200.139C454.943 200.665 455.621 201.414 456.107 202.385C456.31 202.041 456.623 201.626 457.048 201.14C457.494 200.655 458.07 200.23 458.779 199.865C459.487 199.501 460.337 199.319 461.329 199.319C462.3 199.319 463.211 199.572 464.061 200.078C464.911 200.584 465.599 201.312 466.126 202.264C466.672 203.195 466.945 204.298 466.945 205.573V214.741H464.668V205.634C464.668 204.358 464.304 203.336 463.575 202.567C462.867 201.778 461.977 201.383 460.904 201.383C459.791 201.383 458.829 201.758 458.02 202.507C457.21 203.255 456.805 204.308 456.805 205.664V214.741H454.529V205.634C454.529 204.358 454.164 203.336 453.436 202.567C452.727 201.778 451.837 201.383 450.764 201.383C449.651 201.383 448.69 201.758 447.88 202.507C447.07 203.255 446.666 204.308 446.666 205.664V214.741H444.389ZM478.092 214.984C476.554 214.984 475.208 214.64 474.054 213.952C472.9 213.243 472 212.292 471.352 211.098C470.725 209.904 470.411 208.588 470.411 207.151C470.411 205.694 470.715 204.379 471.322 203.205C471.929 202.011 472.799 201.07 473.933 200.381C475.066 199.673 476.402 199.319 477.94 199.319C479.498 199.319 480.834 199.673 481.947 200.381C483.081 201.07 483.951 202.011 484.558 203.205C485.165 204.379 485.469 205.694 485.469 207.151V208.062H472.749C472.87 208.953 473.153 209.772 473.599 210.521C474.064 211.25 474.682 211.837 475.451 212.282C476.22 212.707 477.11 212.92 478.122 212.92C479.195 212.92 480.095 212.687 480.824 212.221C481.553 211.736 482.119 211.118 482.524 210.369H485.014C484.487 211.725 483.647 212.839 482.494 213.709C481.36 214.559 479.893 214.984 478.092 214.984ZM472.779 205.937H483.101C482.899 204.642 482.352 203.559 481.462 202.689C480.571 201.818 479.397 201.383 477.94 201.383C476.483 201.383 475.309 201.818 474.418 202.689C473.548 203.559 473.002 204.642 472.779 205.937ZM495.598 214.984C494.06 214.984 492.714 214.64 491.56 213.952C490.406 213.243 489.506 212.292 488.858 211.098C488.231 209.904 487.917 208.588 487.917 207.151C487.917 205.694 488.221 204.379 488.828 203.205C489.435 202.011 490.305 201.07 491.439 200.381C492.572 199.673 493.908 199.319 495.446 199.319C497.004 199.319 498.34 199.673 499.453 200.381C500.587 201.07 501.457 202.011 502.064 203.205C502.671 204.379 502.975 205.694 502.975 207.151V208.062H490.255C490.376 208.953 490.659 209.772 491.105 210.521C491.57 211.25 492.187 211.837 492.957 212.282C493.726 212.707 494.616 212.92 495.628 212.92C496.701 212.92 497.601 212.687 498.33 212.221C499.059 211.736 499.625 211.118 500.03 210.369H502.52C501.993 211.725 501.153 212.839 500 213.709C498.866 214.559 497.399 214.984 495.598 214.984ZM490.285 205.937H500.607C500.405 204.642 499.858 203.559 498.968 202.689C498.077 201.818 496.903 201.383 495.446 201.383C493.989 201.383 492.815 201.818 491.924 202.689C491.054 203.559 490.508 204.642 490.285 205.937ZM508.004 214.741V201.565H504.907V199.562H508.004V194.128H510.28V199.562H513.772V201.565H510.28V214.741H508.004ZM522.399 214.984C521.002 214.984 519.818 214.751 518.847 214.286C517.895 213.82 517.167 213.213 516.661 212.464C516.155 211.695 515.872 210.865 515.811 209.975H518.179C518.24 210.481 518.412 210.977 518.695 211.462C518.999 211.928 519.454 212.312 520.061 212.616C520.668 212.899 521.458 213.041 522.429 213.041C522.733 213.041 523.107 213.011 523.552 212.95C523.998 212.889 524.423 212.778 524.827 212.616C525.252 212.454 525.607 212.211 525.89 211.887C526.173 211.564 526.315 211.149 526.315 210.643C526.315 210.015 526.072 209.53 525.586 209.185C525.101 208.841 524.473 208.578 523.704 208.396C522.935 208.194 522.115 208.001 521.245 207.819C520.395 207.637 519.585 207.404 518.816 207.121C518.047 206.818 517.42 206.403 516.934 205.876C516.448 205.33 516.206 204.591 516.206 203.66C516.206 202.284 516.701 201.221 517.693 200.473C518.705 199.703 520.193 199.319 522.156 199.319C523.492 199.319 524.574 199.531 525.404 199.956C526.254 200.361 526.892 200.887 527.317 201.535C527.762 202.183 528.025 202.881 528.106 203.63H525.799C525.718 202.982 525.394 202.426 524.827 201.96C524.281 201.495 523.37 201.262 522.095 201.262C519.687 201.262 518.482 201.99 518.482 203.448C518.482 204.055 518.725 204.52 519.211 204.844C519.697 205.168 520.324 205.431 521.093 205.634C521.862 205.816 522.672 205.998 523.522 206.18C524.392 206.342 525.212 206.575 525.981 206.878C526.75 207.182 527.377 207.617 527.863 208.184C528.349 208.73 528.592 209.479 528.592 210.43C528.592 211.908 528.025 213.041 526.892 213.83C525.779 214.599 524.281 214.984 522.399 214.984ZM539.196 220.752V199.562H541.473V201.99C542.04 201.161 542.769 200.513 543.659 200.048C544.57 199.562 545.653 199.319 546.908 199.319C548.385 199.319 549.67 199.673 550.763 200.381C551.876 201.07 552.736 202.011 553.344 203.205C553.951 204.379 554.254 205.694 554.254 207.151C554.254 208.588 553.951 209.904 553.344 211.098C552.736 212.292 551.876 213.243 550.763 213.952C549.67 214.64 548.385 214.984 546.908 214.984C545.653 214.984 544.57 214.741 543.659 214.255C542.769 213.749 542.04 213.092 541.473 212.282V220.752H539.196ZM546.604 212.92C547.737 212.92 548.699 212.656 549.488 212.13C550.298 211.604 550.915 210.906 551.34 210.036C551.765 209.145 551.977 208.184 551.977 207.151C551.977 206.099 551.765 205.138 551.34 204.267C550.915 203.397 550.298 202.699 549.488 202.173C548.699 201.646 547.737 201.383 546.604 201.383C545.491 201.383 544.54 201.646 543.75 202.173C542.961 202.699 542.364 203.397 541.959 204.267C541.554 205.138 541.352 206.099 541.352 207.151C541.352 208.184 541.554 209.145 541.959 210.036C542.364 210.906 542.961 211.604 543.75 212.13C544.54 212.656 545.491 212.92 546.604 212.92ZM563.779 214.984C562.746 214.984 561.765 214.741 560.834 214.255C559.903 213.749 559.144 213.011 558.557 212.039C557.99 211.047 557.707 209.833 557.707 208.396V199.562H559.984V208.335C559.984 209.712 560.378 210.825 561.168 211.675C561.977 212.505 562.999 212.92 564.234 212.92C565.084 212.92 565.853 212.727 566.541 212.343C567.229 211.938 567.776 211.392 568.181 210.703C568.606 210.015 568.818 209.216 568.818 208.305V199.562H571.095V214.741H568.818V212.373C568.272 213.102 567.604 213.719 566.814 214.225C566.025 214.731 565.013 214.984 563.779 214.984ZM575.661 214.741V199.562H577.938V203.296C578.019 203.033 578.171 202.689 578.393 202.264C578.636 201.818 578.98 201.373 579.426 200.928C579.871 200.483 580.427 200.108 581.095 199.805C581.783 199.481 582.593 199.319 583.524 199.319H583.676V201.596H583.403C582.269 201.596 581.288 201.91 580.458 202.537C579.648 203.144 579.021 203.944 578.576 204.935C578.151 205.907 577.938 206.949 577.938 208.062V214.741H575.661ZM586.734 220.752V199.562H589.011V201.99C589.577 201.161 590.306 200.513 591.196 200.048C592.107 199.562 593.19 199.319 594.445 199.319C595.922 199.319 597.207 199.673 598.3 200.381C599.413 201.07 600.274 202.011 600.881 203.205C601.488 204.379 601.792 205.694 601.792 207.151C601.792 208.588 601.488 209.904 600.881 211.098C600.274 212.292 599.413 213.243 598.3 213.952C597.207 214.64 595.922 214.984 594.445 214.984C593.19 214.984 592.107 214.741 591.196 214.255C590.306 213.749 589.577 213.092 589.011 212.282V220.752H586.734ZM594.141 212.92C595.275 212.92 596.236 212.656 597.025 212.13C597.835 211.604 598.452 210.906 598.877 210.036C599.302 209.145 599.515 208.184 599.515 207.151C599.515 206.099 599.302 205.138 598.877 204.267C598.452 203.397 597.835 202.699 597.025 202.173C596.236 201.646 595.275 201.383 594.141 201.383C593.028 201.383 592.077 201.646 591.287 202.173C590.498 202.699 589.901 203.397 589.496 204.267C589.092 205.138 588.889 206.099 588.889 207.151C588.889 208.184 589.092 209.145 589.496 210.036C589.901 210.906 590.498 211.604 591.287 212.13C592.077 212.656 593.028 212.92 594.141 212.92ZM611.984 214.984C610.446 214.984 609.11 214.64 607.976 213.952C606.843 213.243 605.973 212.292 605.366 211.098C604.758 209.904 604.455 208.588 604.455 207.151C604.455 205.694 604.758 204.379 605.366 203.205C605.973 202.011 606.843 201.07 607.976 200.381C609.11 199.673 610.446 199.319 611.984 199.319C613.542 199.319 614.878 199.673 615.991 200.381C617.124 201.07 617.995 202.011 618.602 203.205C619.209 204.379 619.513 205.694 619.513 207.151C619.513 208.588 619.209 209.904 618.602 211.098C617.995 212.292 617.124 213.243 615.991 213.952C614.878 214.64 613.542 214.984 611.984 214.984ZM611.984 212.92C613.117 212.92 614.068 212.656 614.837 212.13C615.627 211.604 616.224 210.906 616.629 210.036C617.033 209.145 617.236 208.184 617.236 207.151C617.236 206.099 617.033 205.138 616.629 204.267C616.224 203.397 615.627 202.699 614.837 202.173C614.068 201.646 613.117 201.383 611.984 201.383C610.871 201.383 609.919 201.646 609.13 202.173C608.341 202.699 607.744 203.397 607.339 204.267C606.934 205.138 606.732 206.099 606.732 207.151C606.732 208.184 606.934 209.145 607.339 210.036C607.744 210.906 608.341 211.604 609.13 212.13C609.919 212.656 610.871 212.92 611.984 212.92ZM628.664 214.984C627.268 214.984 626.084 214.751 625.112 214.286C624.161 213.82 623.433 213.213 622.927 212.464C622.421 211.695 622.137 210.865 622.076 209.975H624.444C624.505 210.481 624.677 210.977 624.961 211.462C625.264 211.928 625.72 212.312 626.327 212.616C626.934 212.899 627.723 213.041 628.695 213.041C628.998 213.041 629.373 213.011 629.818 212.95C630.263 212.889 630.688 212.778 631.093 212.616C631.518 212.454 631.872 212.211 632.156 211.887C632.439 211.564 632.581 211.149 632.581 210.643C632.581 210.015 632.338 209.53 631.852 209.185C631.366 208.841 630.739 208.578 629.97 208.396C629.201 208.194 628.381 208.001 627.511 207.819C626.661 207.637 625.851 207.404 625.082 207.121C624.313 206.818 623.686 206.403 623.2 205.876C622.714 205.33 622.471 204.591 622.471 203.66C622.471 202.284 622.967 201.221 623.959 200.473C624.971 199.703 626.458 199.319 628.421 199.319C629.757 199.319 630.84 199.531 631.67 199.956C632.52 200.361 633.157 200.887 633.582 201.535C634.028 202.183 634.291 202.881 634.372 203.63H632.064C631.984 202.982 631.66 202.426 631.093 201.96C630.547 201.495 629.636 201.262 628.361 201.262C625.952 201.262 624.748 201.99 624.748 203.448C624.748 204.055 624.991 204.52 625.477 204.844C625.962 205.168 626.59 205.431 627.359 205.634C628.128 205.816 628.938 205.998 629.788 206.18C630.658 206.342 631.478 206.575 632.247 206.878C633.016 207.182 633.643 207.617 634.129 208.184C634.615 208.73 634.857 209.479 634.857 210.43C634.857 211.908 634.291 213.041 633.157 213.83C632.044 214.599 630.547 214.984 628.664 214.984ZM645.131 214.984C643.593 214.984 642.247 214.64 641.094 213.952C639.94 213.243 639.04 212.292 638.392 211.098C637.764 209.904 637.451 208.588 637.451 207.151C637.451 205.694 637.754 204.379 638.361 203.205C638.969 202.011 639.839 201.07 640.972 200.381C642.106 199.673 643.441 199.319 644.98 199.319C646.538 199.319 647.874 199.673 648.987 200.381C650.12 201.07 650.991 202.011 651.598 203.205C652.205 204.379 652.509 205.694 652.509 207.151V208.062H639.788C639.91 208.953 640.193 209.772 640.638 210.521C641.104 211.25 641.721 211.837 642.49 212.282C643.259 212.707 644.15 212.92 645.162 212.92C646.234 212.92 647.135 212.687 647.864 212.221C648.592 211.736 649.159 211.118 649.564 210.369H652.053C651.527 211.725 650.687 212.839 649.533 213.709C648.4 214.559 646.933 214.984 645.131 214.984ZM639.819 205.937H650.141C649.938 204.642 649.392 203.559 648.501 202.689C647.611 201.818 646.437 201.383 644.98 201.383C643.522 201.383 642.349 201.818 641.458 202.689C640.588 203.559 640.041 204.642 639.819 205.937Z" fill="white"/>
<path d="M12.6296 120.538C21.3881 122.921 30.0858 125.426 37.9183 130.389C32.135 133.699 25.9722 134.867 19.521 133.289C11.0055 131.209 4.53909 126.261 0.000488281 118.489C0.774632 118.049 1.27555 117.73 1.822 117.472C9.29021 113.92 16.9557 113.814 24.7883 116.091C30.3742 117.715 35.3075 120.553 39.8461 124.12C43.99 127.384 48.0733 130.723 52.2324 133.987C55.3442 136.416 58.6684 138.48 62.4784 139.694C67.3661 141.243 72.011 140.499 76.4889 138.237C80.1774 136.385 83.3954 133.85 86.5527 131.239C91.5315 127.126 96.4041 122.86 102.081 119.718C108.396 116.212 115.12 114.33 122.391 114.633C126.535 114.8 130.482 115.802 134.201 117.684C134.534 117.851 134.838 118.109 135.369 118.489C131.574 125.426 125.791 129.858 118.535 132.423C111.325 134.974 104.343 134.169 97.2541 130.435C101.489 127.672 105.77 125.927 110.172 124.515C114.528 123.119 118.961 121.935 123.378 120.386C121.86 120.386 120.327 120.28 118.809 120.401C110.293 121.1 102.172 123.21 95.1139 128.219C88.8296 132.666 83.3803 137.994 79.7069 144.901C76.7317 150.487 75.4719 156.331 77.0961 162.615C77.8702 165.621 79.3426 168.262 81.3159 170.584C82.6972 172.193 83.4713 173.939 83.6839 176.018C83.9419 178.538 83.9874 181.043 83.2437 183.76C82.5302 183.411 81.8775 183.153 81.3007 182.773C76.2764 179.525 72.0565 175.487 69.0966 170.235C68.0644 168.398 67.2143 168.429 66.167 170.311C63.1311 175.821 58.6836 179.935 53.3708 183.168C53.0369 183.365 52.6878 183.532 51.9895 183.896C51.8074 182.181 51.4279 180.648 51.5493 179.145C51.7011 177.096 52.1413 175.047 52.6119 173.043C52.7789 172.33 53.3101 171.647 53.811 171.055C60.0649 163.541 61.173 154.145 56.2397 145.629C48.7867 132.757 37.979 124.242 23.0882 121.434C19.6425 120.781 16.1664 120.326 12.6296 120.568V120.538Z" fill="white"/>
<path d="M67.8204 57.6963C83.2729 72.0407 85.4436 96.2365 69.6419 111.674C69.8241 100.517 69.3232 89.7398 67.8204 79.0232C67.6686 79.0232 67.5017 79.0232 67.3499 79.008C67.0159 84.4574 66.6061 89.9068 66.3632 95.3561C66.1203 100.76 66.0293 106.179 65.665 111.644C58.8191 104.676 55.2823 96.2669 54.9332 86.537C54.5689 76.5945 61.0656 62.1287 67.8356 57.6812L67.8204 57.6963Z" fill="#FF4E00"/>
<path d="M80.8938 125.198C85.7663 118.443 91.1094 111.977 94.4792 104.266C94.3881 104.19 94.3122 104.114 94.2212 104.023C92.855 105.556 91.4585 107.059 90.1076 108.607C88.7111 110.216 87.3449 111.856 85.9788 113.495C84.6582 115.089 83.3528 116.713 82.0626 118.337C80.742 119.992 79.4365 121.661 77.9186 123.255C77.1748 121.13 76.932 119.02 77.1748 116.85C78.2374 107.363 83.3073 100.426 91.0335 95.2344C93.5685 93.5343 96.3007 92.2441 99.2607 91.5003C101.355 90.969 101.598 91.0904 102.008 93.1548C103.42 100.152 102.281 106.771 98.8357 112.979C95.8302 118.413 91.5041 122.451 85.6297 124.637C84.2028 125.168 82.6394 125.365 81.1366 125.714L80.8786 125.198H80.8938Z" fill="#FF4E00"/>
<path d="M57.4699 123.256C51.8081 116.471 46.3132 109.883 40.8335 103.31C40.7272 103.386 40.6361 103.462 40.5299 103.538C43.8997 111.629 49.1972 118.49 54.7832 125.153C54.6921 125.305 54.6162 125.442 54.5252 125.594C53.4019 125.442 52.2483 125.427 51.1554 125.138C45.873 123.742 41.896 120.433 38.6628 116.198C33.3349 109.215 31.8625 101.322 33.5474 92.7911C33.8965 91.0303 34.1242 90.8937 35.8243 91.4098C47.2695 94.8707 54.7225 102.263 57.6521 113.951C58.4111 116.972 58.4262 120.038 57.4699 123.256Z" fill="#FF4E00"/>
<path d="M85.8666 143.626C93.3955 143.277 100.439 143.96 107.482 144.764C106.389 143.762 104.507 142.973 101 142.229C98.6476 141.728 96.2644 141.318 93.8813 141.015C91.4981 140.711 89.0998 140.605 86.2916 140.377C86.9747 139.831 87.3997 139.375 87.931 139.087C95.2778 135.11 102.549 135.368 109.668 139.618C112.43 141.273 114.722 143.519 116.559 146.191C117.485 147.542 117.44 147.83 116.073 148.529C107.406 152.946 95.4751 152.657 87.2783 145.265C86.8533 144.87 86.5041 144.4 85.8514 143.641L85.8666 143.626Z" fill="white"/>
<path d="M27.6701 144.644C34.7436 144.264 41.7868 143.247 48.9666 143.672C45.9156 151.322 25.7878 153.918 17.9553 147.634C20.9456 142.215 25.545 138.86 31.4193 137.145C37.6732 135.308 43.4413 136.325 48.7085 140.257C41.4984 140.834 34.3338 141.41 27.6701 144.659V144.644Z" fill="white"/>
<path d="M52.0949 168.126C51.3056 168.9 50.6225 169.795 49.7421 170.448C41.8337 176.216 32.9993 178.402 23.3301 176.854C18.8674 176.14 15.5735 173.742 13.8279 169.446C13.6306 168.945 13.4788 168.429 13.2511 167.716H51.8824L52.0949 168.126Z" fill="#FF4E00"/>
<path d="M83.4865 167.7H122.042C121.237 171.374 119.416 174.015 116.107 175.518C113.025 176.914 109.747 177.263 106.422 177.202C99.7738 177.096 93.5807 175.411 87.9188 171.874C86.2339 170.812 84.6249 169.628 83.5016 167.7H83.4865Z" fill="#FF4E00"/>
<path d="M17.4875 178.174C28.3559 182.242 38.6019 180.648 48.5292 175.245C48.6354 175.563 48.7417 175.715 48.7113 175.852C48.3015 178.721 48.3926 181.559 48.9694 184.398C49.1212 185.126 48.9238 185.567 48.2408 185.87C41.3646 188.785 34.3366 190.272 26.9442 188.147C21.8744 186.69 19.3698 182.743 17.5027 178.189L17.4875 178.174Z" fill="white"/>
<path d="M87.0858 175.245C91.8065 178.053 96.8461 179.647 102.204 180.163C107.487 180.679 112.739 180.436 117.991 178.205C117.778 178.842 117.687 179.237 117.505 179.601C114.469 185.855 109.506 189.043 102.508 189.058C97.3925 189.058 92.5048 188.041 87.784 186.098C86.6911 185.642 86.3116 185.126 86.4786 183.851C86.8277 181.089 86.8884 178.296 87.0858 175.245Z" fill="white"/>
<path d="M105.652 109.245C105.864 107.5 105.971 105.739 106.32 104.024C107.822 96.6768 114.608 89.8309 121.56 88.5407C123.29 88.2219 123.321 88.2523 123.594 89.9979C124.884 98.3617 119.359 108.046 111.481 111.112C110.464 111.507 109.371 111.674 108.187 111.765C111.39 106.589 115.169 101.883 117.628 96.3428C113.135 100.107 109.796 104.874 106.213 109.397C106.031 109.351 105.834 109.291 105.652 109.245Z" fill="#FF4E00"/>
<path d="M12.2522 88.434C20.5704 88.768 30.1485 98.3309 29.4199 109.397C25.443 104.767 22.1491 99.8033 17.489 96.0388C20.1606 101.594 23.9706 106.452 27.477 111.689C18.6426 111.218 9.18595 99.5149 12.237 88.434H12.2522Z" fill="#FF4E00"/>
<path d="M87.8561 90.8476C91.1197 85.9447 94.7323 81.4061 97.2369 76.154C92.7742 79.7971 89.5259 84.4875 85.9891 89.0868C83.8336 81.8463 92.1519 69.6877 101.366 69.7028C105.161 76.7612 96.4324 90.6654 87.8561 90.8476Z" fill="#FF4E00"/>
<path d="M38.5734 76.5491C41.0476 81.5279 44.4629 85.945 47.347 90.681C47.2559 90.8024 47.1497 90.9239 47.0586 91.0453C46.0264 90.6962 44.9335 90.4533 43.962 89.9827C37.7689 87.038 34.4901 81.9529 33.5794 75.274C33.382 73.8472 33.4883 72.3596 33.5794 70.9176C33.6856 69.5211 33.9133 69.3845 35.2946 69.688C42.2316 71.1908 46.5728 75.5776 48.956 82.0895C49.715 84.1994 49.973 86.4004 49.5632 89.0113C47.7265 86.5978 46.1478 84.3816 44.4174 82.2868C42.6869 80.2073 40.7744 78.2492 38.9528 76.2455C38.8314 76.3517 38.6948 76.4428 38.5734 76.5491Z" fill="#FF4E00"/>
<path d="M67.7026 122.983C71.8466 122.983 75.2771 126.352 75.3226 130.405C75.3682 134.489 71.801 137.995 67.6571 137.965C63.3614 137.934 60.0826 134.625 60.113 130.36C60.1585 126.201 63.4828 122.967 67.7026 122.983Z" fill="white"/>
<path d="M26.0966 190.971C34.4603 193.308 42.2321 191.638 49.8218 188.587C51.3549 191.274 52.7817 193.779 54.3907 196.587C51.9317 197.331 49.6244 198.181 47.2413 198.697C45.2376 199.137 43.1429 199.334 41.0785 199.365C34.8854 199.486 30.3923 196.238 26.5216 191.821C26.385 191.669 26.3242 191.441 26.0966 190.955V190.971Z" fill="white"/>
<path d="M109.094 191.198C105.557 195.388 101.762 199.015 95.9183 199.258C91.4859 199.44 87.2054 198.803 83.0766 197.179C82.515 196.951 81.9685 196.678 81.3462 196.389C82.6971 193.763 84.0026 191.259 85.1865 188.952C89.2394 189.923 93.1557 191.031 97.1478 191.79C101.125 192.534 105.132 192.23 109.109 191.198H109.094Z" fill="white"/>
<path d="M59.439 197.452C62.3383 195.099 64.9491 193.004 67.6055 190.849C70.2618 192.928 73.0093 195.084 76.121 197.528C75.2406 198.256 74.4361 198.939 73.6165 199.592C73.0396 200.047 72.4628 200.488 71.8405 200.867C67.0287 203.812 68.1975 203.766 63.4767 200.761C62.0347 199.85 60.8051 198.59 59.4238 197.452H59.439Z" fill="white"/>
<path d="M73.9242 181.027C76.4895 182.864 79.1459 184.731 81.7415 186.659C82.0299 186.871 82.2728 187.63 82.121 187.919C81.0433 189.998 79.9048 192.032 78.6601 194.021C78.4931 194.294 77.6128 194.4 77.2484 194.233C74.6073 192.928 72.3911 191.046 70.3874 188.905C69.9624 188.465 69.841 188.025 70.2204 187.418C71.4955 185.323 72.6947 183.198 73.9394 181.042L73.9242 181.027Z" fill="white"/>
<path d="M71.9673 204.768C74.2594 202.962 76.43 201.201 78.6765 199.531C79.0257 199.273 79.7239 199.273 80.1945 199.41C82.5017 200.093 84.7331 201.019 87.0707 201.55C89.3931 202.082 91.7914 202.264 94.0987 202.583C88.2243 207.394 77.8417 207.774 71.9673 204.753V204.768Z" fill="#FF4E00"/>
<path d="M61.473 181.256C62.8088 183.548 64.1597 185.855 65.6018 188.314C63.4919 190.712 61.0935 192.853 58.1336 194.295C57.7996 194.462 56.9496 194.234 56.7371 193.915C55.5075 192.063 54.3691 190.136 53.2458 188.208C52.9119 187.631 52.9574 187.085 53.6405 186.629C56.2361 184.884 58.8166 183.092 61.473 181.256Z" fill="white"/>
<path d="M63.343 204.935C55.6015 207.668 48.3762 207.136 41.1964 202.765C43.1697 202.476 44.885 202.37 46.5092 201.976C49.3932 201.262 52.2166 200.382 55.0703 199.532C55.7837 199.319 56.3909 199.016 57.0891 199.623C59.0624 201.353 61.0813 203.023 63.343 204.92V204.935Z" fill="#FF4E00"/>
<path d="M67.6873 173.681C68.841 175.199 69.9035 176.55 70.9053 177.946C71.1027 178.235 71.2393 178.72 71.133 179.024C70.3437 181.407 69.4481 183.73 67.657 185.885C66.3516 184.367 65.6837 182.667 64.8336 181.058C63.9532 179.403 64.0595 178.052 65.3953 176.702C66.2301 175.851 66.8676 174.789 67.6873 173.681Z" fill="white"/>
</svg>
