<svg width="1030" height="966" viewBox="0 0 1030 966" fill="none" xmlns="http://www.w3.org/2000/svg">
<path opacity="0.2" d="M745.054 453.946C745.451 456.718 745.794 459.507 746.079 462.311L745.251 462.396C745.533 465.168 745.759 467.956 745.93 470.757L746.762 470.707V470.706C746.931 473.495 747.045 476.298 747.102 479.115L746.269 479.131C746.297 480.531 746.312 481.935 746.312 483.341C746.312 484.747 746.297 486.151 746.269 487.55L747.102 487.567C747.045 490.383 746.931 493.186 746.762 495.975L745.93 495.925C745.759 498.727 745.533 501.515 745.251 504.287L746.079 504.37C745.794 507.174 745.451 509.963 745.054 512.736L744.23 512.619C743.833 515.395 743.378 518.154 742.87 520.896L743.688 521.046C743.176 523.813 742.607 526.562 741.984 529.292L741.174 529.107C740.551 531.838 739.873 534.551 739.142 537.243L739.944 537.46C739.207 540.176 738.415 542.872 737.57 545.545L736.776 545.295C735.933 547.966 735.036 550.615 734.087 553.242L734.869 553.524C733.914 556.168 732.906 558.788 731.847 561.385L731.077 561.072C730.02 563.663 728.912 566.23 727.754 568.773L728.512 569.118C727.347 571.675 726.133 574.208 724.868 576.713L724.124 576.337C722.864 578.835 721.554 581.307 720.196 583.751L720.924 584.156C719.56 586.61 718.148 589.037 716.689 591.436L715.979 591.004C714.525 593.394 713.025 595.755 711.479 598.086L712.173 598.546C710.622 600.886 709.024 603.196 707.383 605.475L706.708 604.99C705.074 607.258 703.395 609.496 701.674 611.703L702.329 612.214C700.603 614.426 698.835 616.607 697.023 618.754L696.388 618.217C694.586 620.354 692.741 622.458 690.856 624.529L691.472 625.088C689.583 627.163 687.654 629.204 685.685 631.21L685.091 630.627C683.133 632.622 681.137 634.583 679.102 636.507L679.673 637.112C677.636 639.038 675.56 640.929 673.448 642.784L672.899 642.159C670.8 644.002 668.664 645.809 666.493 647.579L667.02 648.224C664.846 649.996 662.636 651.729 660.393 653.425L659.891 652.761C657.661 654.446 655.398 656.094 653.102 657.702L653.579 658.383C651.284 659.991 648.955 661.559 646.596 663.087L646.144 662.39C643.8 663.908 641.425 665.387 639.021 666.825L639.447 667.539C637.041 668.977 634.606 670.375 632.141 671.732L631.74 671.003C629.293 672.35 626.816 673.656 624.312 674.919L624.687 675.663C622.185 676.925 619.657 678.146 617.102 679.324L616.754 678.568C614.22 679.736 611.66 680.862 609.074 681.945L609.395 682.712C606.811 683.794 604.203 684.835 601.57 685.83L601.275 685.05C598.663 686.038 596.027 686.982 593.368 687.881L593.635 688.668C590.982 689.566 588.307 690.42 585.61 691.228L585.372 690.431C582.701 691.232 580.008 691.988 577.296 692.699L577.506 693.503C574.797 694.213 572.069 694.879 569.321 695.498L569.14 694.686C566.416 695.3 563.673 695.868 560.912 696.39L561.066 697.208C558.318 697.728 555.552 698.202 552.77 698.629L552.644 697.808C549.889 698.232 547.118 698.61 544.331 698.941L544.429 699.767C541.649 700.098 538.854 700.381 536.045 700.619L535.976 699.79C533.195 700.024 530.4 700.213 527.592 700.355L527.633 701.185C524.843 701.326 522.041 701.421 519.227 701.468L519.213 700.636C517.812 700.66 516.407 700.671 515 700.671C513.593 700.671 512.188 700.66 510.786 700.636L510.772 701.468C507.958 701.421 505.156 701.326 502.366 701.185L502.408 700.355C499.6 700.213 496.805 700.024 494.024 699.79L493.954 700.619C491.145 700.381 488.35 700.098 485.57 699.767L485.669 698.941C482.882 698.61 480.111 698.232 477.356 697.808L477.229 698.629C474.447 698.202 471.681 697.728 468.933 697.208L469.088 696.39C466.327 695.868 463.584 695.3 460.86 694.686L460.678 695.498C457.93 694.878 455.202 694.213 452.493 693.503L452.704 692.699C449.992 691.988 447.299 691.232 444.628 690.431L444.389 691.228C441.692 690.42 439.017 689.567 436.364 688.669L436.632 687.881C433.973 686.982 431.337 686.038 428.725 685.05L428.429 685.83C425.796 684.835 423.188 683.794 420.604 682.712L420.926 681.945C418.34 680.862 415.78 679.736 413.246 678.568L412.896 679.325C410.342 678.147 407.814 676.925 405.312 675.663L405.688 674.919C403.184 673.656 400.707 672.35 398.26 671.003L397.858 671.732C395.393 670.375 392.958 668.977 390.552 667.539L390.979 666.825C388.575 665.387 386.2 663.908 383.856 662.39L383.403 663.087C381.044 661.559 378.715 659.991 376.42 658.383L376.898 657.703C374.602 656.095 372.339 654.446 370.109 652.761L369.606 653.425C367.363 651.729 365.153 649.996 362.979 648.224L363.507 647.579C361.335 645.809 359.199 644.002 357.1 642.159L356.551 642.784C354.439 640.929 352.363 639.038 350.326 637.112L350.898 636.507C348.863 634.583 346.867 632.622 344.909 630.627L344.314 631.21C342.345 629.204 340.416 627.163 338.527 625.088L339.144 624.529C337.259 622.458 335.414 620.354 333.612 618.217L332.976 618.754C331.164 616.607 329.395 614.426 327.669 612.214L328.326 611.703C326.605 609.496 324.926 607.258 323.292 604.99L322.616 605.476C320.974 603.197 319.377 600.886 317.826 598.546L318.521 598.086C316.975 595.755 315.475 593.394 314.021 591.004L313.31 591.436C311.851 589.037 310.439 586.61 309.075 584.156L309.804 583.751C308.446 581.307 307.136 578.835 305.876 576.337L305.132 576.713H305.131C303.866 574.208 302.652 571.675 301.487 569.118L302.246 568.774C301.088 566.231 299.98 563.663 298.923 561.072L298.152 561.385C297.093 558.788 296.085 556.168 295.13 553.524L295.913 553.243C294.964 550.616 294.068 547.966 293.224 545.295L292.429 545.545C291.584 542.872 290.792 540.176 290.055 537.46L290.858 537.243C290.127 534.551 289.449 531.838 288.826 529.107L288.015 529.292C287.392 526.562 286.823 523.813 286.311 521.046L287.13 520.896C286.622 518.154 286.167 515.395 285.77 512.619L284.944 512.736C284.547 509.963 284.205 507.174 283.92 504.37L284.749 504.287C284.467 501.514 284.241 498.726 284.07 495.924L283.237 495.975C283.068 493.186 282.955 490.383 282.898 487.567L283.731 487.55C283.717 486.85 283.706 486.149 283.699 485.448L283.688 483.341C283.688 481.935 283.703 480.531 283.731 479.131L282.898 479.115C282.955 476.298 283.068 473.495 283.237 470.706L283.238 470.707L284.07 470.757C284.241 467.956 284.467 465.168 284.749 462.396L283.92 462.311C284.205 459.507 284.547 456.718 284.944 453.946L285.77 454.064C286.167 451.288 286.622 448.528 287.13 445.787L286.311 445.634C286.823 442.868 287.392 440.119 288.015 437.389L288.826 437.575C289.449 434.843 290.127 432.131 290.858 429.439L290.055 429.22C290.683 426.906 291.351 424.607 292.058 422.324L292.429 421.135L293.224 421.386C294.067 418.716 294.964 416.066 295.913 413.44L295.13 413.157C296.085 410.513 297.093 407.892 298.152 405.295L298.923 405.61C299.98 403.019 301.088 400.451 302.246 397.909L301.487 397.563C302.652 395.006 303.866 392.473 305.131 389.967L305.132 389.968L305.876 390.344C307.136 387.846 308.446 385.375 309.804 382.93L309.076 382.525C310.44 380.07 311.852 377.643 313.311 375.245L314.021 375.677C315.475 373.288 316.975 370.927 318.521 368.595L317.826 368.135L317.825 368.134C319.34 365.849 320.9 363.592 322.502 361.364L322.616 361.206L323.292 361.692C324.926 359.423 326.605 357.185 328.326 354.979L327.669 354.467C329.395 352.255 331.164 350.075 332.976 347.927L333.612 348.464C335.414 346.328 337.259 344.223 339.144 342.153L338.527 341.592C340.416 339.518 342.345 337.476 344.314 335.47L344.909 336.054C346.867 334.06 348.863 332.099 350.898 330.174L350.326 329.569C352.363 327.642 354.438 325.751 356.55 323.897L357.1 324.523C359.199 322.68 361.335 320.873 363.507 319.103L362.98 318.458C365.154 316.686 367.363 314.951 369.606 313.255L370.109 313.92C372.339 312.235 374.602 310.588 376.898 308.98L376.42 308.297C378.715 306.69 381.044 305.122 383.403 303.593L383.856 304.292C386.2 302.773 388.575 301.295 390.979 299.857L390.552 299.142C392.957 297.704 395.393 296.306 397.857 294.95L398.26 295.679C400.707 294.332 403.184 293.026 405.688 291.762L405.312 291.018C407.814 289.756 410.342 288.534 412.896 287.356L412.897 287.357L413.246 288.114C415.78 286.946 418.34 285.819 420.926 284.737L420.604 283.968C423.188 282.886 425.797 281.847 428.43 280.852L428.724 281.631C431.336 280.644 433.973 279.701 436.632 278.801L436.364 278.011C439.017 277.114 441.692 276.261 444.389 275.453L444.628 276.25C447.299 275.45 449.992 274.694 452.704 273.983L452.493 273.177C455.201 272.467 457.93 271.803 460.677 271.184L460.86 271.996C463.584 271.382 466.327 270.814 469.088 270.292L468.933 269.473C471.681 268.953 474.447 268.479 477.229 268.051L477.356 268.874C480.111 268.45 482.882 268.072 485.669 267.741L485.57 266.914C488.35 266.583 491.145 266.299 493.954 266.062L494.024 266.892C496.805 266.657 499.6 266.468 502.408 266.327L502.366 265.496C505.156 265.355 507.958 265.26 510.772 265.212L510.786 266.045C512.188 266.022 513.593 266.01 515 266.01C516.407 266.01 517.812 266.022 519.213 266.045L519.227 265.212C522.041 265.26 524.844 265.355 527.633 265.496L527.592 266.327C530.4 266.468 533.195 266.657 535.976 266.892L536.045 266.062C538.854 266.299 541.649 266.583 544.429 266.914L544.331 267.741C547.118 268.072 549.889 268.45 552.644 268.874L552.77 268.051C555.552 268.479 558.318 268.953 561.066 269.473L560.912 270.292C563.673 270.814 566.416 271.382 569.14 271.996L569.321 271.184C572.069 271.803 574.797 272.467 577.506 273.177H577.507L577.296 273.983C580.008 274.694 582.701 275.45 585.372 276.25L585.61 275.453C588.307 276.261 590.982 277.115 593.635 278.012L593.368 278.801C596.027 279.701 598.663 280.644 601.275 281.631L601.569 280.852C604.202 281.847 606.811 282.886 609.395 283.968L609.074 284.737C611.66 285.82 614.22 286.946 616.754 288.114L617.102 287.357C619.657 288.535 622.185 289.756 624.687 291.018L624.312 291.762C626.816 293.026 629.293 294.332 631.74 295.679L632.141 294.949C634.605 296.305 637.041 297.704 639.446 299.142L639.021 299.857C641.425 301.295 643.8 302.773 646.144 304.292L646.596 303.593C648.955 305.122 651.284 306.69 653.579 308.297L653.102 308.98C655.398 310.588 657.661 312.235 659.891 313.92L660.393 313.255C662.636 314.951 664.845 316.686 667.019 318.458L666.493 319.103C668.664 320.873 670.8 322.68 672.899 324.523L673.448 323.897C675.56 325.751 677.636 327.642 679.673 329.569L679.101 330.174C681.136 332.099 683.133 334.059 685.091 336.054L685.685 335.47C687.654 337.476 689.583 339.518 691.472 341.592H691.473L690.856 342.153C692.741 344.223 694.586 346.328 696.388 348.464L697.023 347.927C698.835 350.075 700.604 352.255 702.33 354.467L701.674 354.979C703.395 357.185 705.074 359.423 706.708 361.692L707.383 361.206C709.024 363.485 710.622 365.795 712.173 368.134L711.479 368.595C713.025 370.927 714.525 373.288 715.979 375.677L716.688 375.245C718.147 377.643 719.559 380.07 720.923 382.525L720.196 382.93C721.554 385.375 722.864 387.846 724.124 390.344L724.868 389.968V389.967C726.133 392.473 727.347 395.006 728.512 397.563L727.754 397.909C728.912 400.451 730.02 403.019 731.077 405.61L731.847 405.295C732.906 407.892 733.914 410.513 734.869 413.157H734.87L734.087 413.44C735.036 416.066 735.933 418.716 736.776 421.386L737.57 421.135C738.415 423.809 739.207 426.505 739.944 429.22L739.142 429.439C739.873 432.131 740.551 434.843 741.174 437.575L741.984 437.389C742.607 440.119 743.176 442.868 743.688 445.634L742.87 445.787C743.378 448.528 743.833 451.288 744.23 454.064L745.054 453.946Z" stroke="#9EA1AE" stroke-width="1.66654" stroke-dasharray="8.33 8.33"/>
<path opacity="0.2" d="M814.479 389.396C815.402 391.996 816.286 394.611 817.133 397.243L816.341 397.497C817.183 400.114 817.987 402.746 818.753 405.393L819.552 405.161C820.318 407.808 821.046 410.471 821.735 413.148L820.93 413.355C821.615 416.017 822.262 418.694 822.87 421.384L823.683 421.201C824.29 423.886 824.856 426.586 825.385 429.298L824.569 429.457C825.096 432.157 825.582 434.87 826.029 437.595L826.851 437.46C827.296 440.174 827.702 442.9 828.068 445.638L827.243 445.748C827.608 448.473 827.933 451.21 828.218 453.957L829.044 453.871C829.327 456.607 829.571 459.353 829.774 462.11L828.945 462.17C829.147 464.909 829.309 467.658 829.431 470.417L830.262 470.381C830.383 473.13 830.465 475.887 830.506 478.655L829.673 478.667C829.693 480.047 829.704 481.429 829.704 482.813C829.704 484.197 829.694 485.579 829.674 486.958L830.506 486.969C830.465 489.736 830.383 492.494 830.262 495.243L829.431 495.207C829.309 497.966 829.147 500.716 828.945 503.454L829.774 503.515C829.571 506.271 829.327 509.017 829.044 511.752L828.218 511.668C827.933 514.416 827.608 517.152 827.243 519.876L828.067 519.987C827.701 522.724 827.296 525.45 826.851 528.163L826.029 528.03C825.582 530.755 825.096 533.468 824.569 536.167L825.385 536.327C824.856 539.038 824.289 541.738 823.683 544.423L822.871 544.241C822.263 546.931 821.615 549.607 820.93 552.27L821.735 552.477C821.046 555.153 820.318 557.816 819.552 560.463L818.753 560.233C817.987 562.879 817.183 565.511 816.341 568.127L817.133 568.381C816.286 571.012 815.402 573.628 814.479 576.228L813.695 575.951C812.775 578.545 811.817 581.124 810.822 583.686L811.598 583.987C810.597 586.563 809.56 589.123 808.486 591.665L807.721 591.342C806.65 593.878 805.542 596.397 804.398 598.898L805.155 599.244C804.007 601.756 802.822 604.25 801.602 606.726L800.855 606.359C799.639 608.828 798.386 611.279 797.1 613.711L797.835 614.1C796.544 616.54 795.217 618.961 793.856 621.363L793.133 620.953C791.776 623.348 790.385 625.723 788.961 628.078L789.673 628.509C788.244 630.871 786.781 633.212 785.286 635.533L784.588 635.083C783.098 637.397 781.574 639.689 780.019 641.96L780.705 642.43C779.145 644.708 777.553 646.963 775.929 649.198L775.256 648.708C773.638 650.934 771.989 653.138 770.309 655.319L770.967 655.826C769.283 658.011 767.569 660.175 765.823 662.316L765.178 661.79C763.439 663.923 761.67 666.032 759.871 668.118L760.5 668.661C758.699 670.749 756.869 672.816 755.009 674.857L754.394 674.296C752.54 676.33 750.657 678.341 748.746 680.327L749.345 680.903C747.433 682.889 745.493 684.852 743.525 686.789L742.942 686.197C740.981 688.127 738.992 690.033 736.976 691.913L737.543 692.522C735.527 694.402 733.484 696.257 731.415 698.086L730.864 697.462C728.803 699.284 726.715 701.081 724.602 702.851L725.136 703.488C723.022 705.258 720.882 707.003 718.718 708.72L718.201 708.069C716.047 709.778 713.867 711.46 711.664 713.116L712.163 713.78C709.958 715.436 707.729 717.067 705.476 718.669L704.994 717.991C702.754 719.583 700.49 721.149 698.203 722.686L698.667 723.375C696.377 724.915 694.064 726.427 691.729 727.91L691.283 727.207C688.964 728.68 686.622 730.125 684.26 731.54L684.688 732.253C682.321 733.671 679.932 735.06 677.523 736.419L677.114 735.696C674.722 737.046 672.309 738.369 669.875 739.661L670.266 740.396C667.83 741.689 665.374 742.951 662.898 744.185L662.527 743.441C660.067 744.667 657.588 745.863 655.09 747.029L655.441 747.783C652.944 748.948 650.428 750.083 647.894 751.188L647.562 750.426C645.041 751.525 642.502 752.594 639.945 753.631L640.258 754.402C637.706 755.438 635.136 756.443 632.55 757.417L632.258 756.638C629.683 757.608 627.091 758.546 624.483 759.453L624.757 760.239C622.157 761.143 619.542 762.016 616.91 762.858L616.657 762.066C614.035 762.904 611.398 763.711 608.745 764.486L608.978 765.285C606.338 766.056 603.683 766.795 601.014 767.502L600.802 766.698C598.142 767.403 595.467 768.076 592.779 768.716L592.972 769.525C590.296 770.162 587.607 770.768 584.904 771.341L584.732 770.528C582.042 771.098 579.338 771.637 576.622 772.142L576.773 772.96C574.069 773.464 571.351 773.934 568.622 774.372L568.491 773.551C565.777 773.987 563.051 774.389 560.313 774.759L560.425 775.583C557.698 775.952 554.959 776.287 552.21 776.59L552.12 775.764C549.389 776.065 546.647 776.333 543.896 776.568L543.965 777.396C541.223 777.63 538.471 777.832 535.709 777.999L535.659 777.169C532.918 777.336 530.167 777.469 527.407 777.57L527.437 778.401C524.686 778.501 521.926 778.568 519.158 778.602L519.149 777.769C517.769 777.786 516.386 777.794 515.001 777.794C513.616 777.794 512.233 777.786 510.853 777.769L510.843 778.602C508.075 778.568 505.315 778.501 502.564 778.401L502.595 777.57C499.835 777.469 497.084 777.336 494.343 777.169L494.292 777.999C491.53 777.832 488.778 777.63 486.036 777.396L486.106 776.568C483.355 776.333 480.613 776.065 477.882 775.764L477.791 776.59C475.042 776.287 472.304 775.952 469.577 775.583L469.688 774.759C466.951 774.389 464.225 773.987 461.511 773.551L461.379 774.372C458.65 773.934 455.932 773.464 453.228 772.96L453.38 772.142C450.664 771.637 447.96 771.098 445.27 770.528L445.097 771.341C442.394 770.768 439.705 770.162 437.029 769.525L437.223 768.716C434.535 768.076 431.861 767.403 429.201 766.698L428.987 767.502C426.318 766.795 423.663 766.056 421.023 765.285L421.257 764.486C418.604 763.711 415.967 762.904 413.345 762.066L413.092 762.858C410.46 762.016 407.845 761.144 405.245 760.24L405.519 759.453C402.911 758.546 400.319 757.608 397.744 756.638L397.451 757.417C394.865 756.443 392.295 755.438 389.743 754.402L390.057 753.631C387.5 752.594 384.961 751.525 382.44 750.426L382.107 751.188C379.573 750.083 377.057 748.948 374.56 747.783L374.912 747.029C372.414 745.863 369.934 744.667 367.475 743.441L367.103 744.185C364.627 742.951 362.171 741.689 359.735 740.396L360.127 739.661C357.693 738.368 355.28 737.046 352.888 735.696L352.478 736.419C350.069 735.06 347.681 733.671 345.314 732.253L345.742 731.54C343.38 730.125 341.039 728.68 338.72 727.207L338.272 727.91C335.937 726.427 333.624 724.915 331.334 723.375L331.799 722.686C329.512 721.149 327.248 719.583 325.008 717.991L324.525 718.669C322.272 717.067 320.043 715.436 317.838 713.78L318.338 713.116C316.134 711.46 313.955 709.778 311.801 708.069L311.283 708.72C309.119 707.003 306.979 705.259 304.865 703.489L305.4 702.851C303.287 701.081 301.199 699.284 299.138 697.462L298.586 698.086C296.517 696.257 294.474 694.402 292.458 692.522L293.026 691.913C291.01 690.033 289.022 688.127 287.061 686.197L286.476 686.789C284.508 684.852 282.568 682.889 280.656 680.903L281.256 680.327C279.345 678.341 277.462 676.33 275.608 674.296L274.992 674.857C273.132 672.816 271.302 670.749 269.501 668.661L270.131 668.118C268.332 666.032 266.563 663.923 264.824 661.79L264.178 662.316C262.432 660.175 260.718 658.011 259.034 655.826L259.693 655.319C258.013 653.138 256.364 650.934 254.746 648.708L254.072 649.198C252.448 646.963 250.856 644.708 249.296 642.43L249.983 641.96C248.428 639.689 246.904 637.397 245.414 635.083L244.715 635.533C243.22 633.212 241.757 630.871 240.328 628.509L241.041 628.078C239.617 625.723 238.226 623.348 236.869 620.953L236.145 621.363C234.784 618.961 233.457 616.54 232.166 614.1L232.902 613.711C231.615 611.279 230.363 608.828 229.146 606.359L228.399 606.726C227.179 604.25 225.994 601.756 224.846 599.244L225.604 598.898C224.46 596.397 223.352 593.878 222.281 591.342L221.515 591.665C220.441 589.123 219.404 586.563 218.403 583.987L219.18 583.686C218.185 581.124 217.227 578.545 216.307 575.951L215.521 576.228C214.599 573.628 213.715 571.012 212.868 568.381L213.661 568.127C212.819 565.511 212.015 562.879 211.249 560.233L210.449 560.463C209.683 557.816 208.955 555.153 208.266 552.477L209.071 552.27C208.386 549.607 207.739 546.931 207.131 544.241L206.318 544.423C205.711 541.738 205.145 539.038 204.616 536.327L205.433 536.167C204.906 533.468 204.42 530.755 203.973 528.03L203.15 528.163C202.705 525.45 202.3 522.724 201.934 519.987L202.759 519.877C202.394 517.153 202.069 514.416 201.784 511.668L200.957 511.753C200.674 509.018 200.429 506.272 200.226 503.515L201.057 503.454C200.855 500.716 200.693 497.966 200.571 495.207L199.739 495.243C199.618 492.494 199.536 489.736 199.495 486.969L200.328 486.958C200.318 486.269 200.311 485.578 200.306 484.887L200.298 482.813C200.298 481.429 200.308 480.047 200.328 478.667L199.495 478.655C199.536 475.887 199.618 473.13 199.739 470.381L200.571 470.418C200.693 467.659 200.855 464.91 201.057 462.171L200.226 462.11C200.429 459.353 200.674 456.607 200.957 453.871L201.784 453.957C202.069 451.21 202.394 448.473 202.759 445.748L201.933 445.638C202.299 442.9 202.705 440.174 203.15 437.46L203.973 437.595C204.42 434.87 204.906 432.157 205.433 429.457L204.616 429.298C205.145 426.586 205.711 423.886 206.318 421.201L207.131 421.384C207.739 418.694 208.386 416.018 209.071 413.356L208.266 413.148C208.955 410.471 209.682 407.809 210.448 405.161L211.249 405.393C212.015 402.746 212.819 400.115 213.661 397.498L212.868 397.243C213.687 394.699 214.54 392.17 215.429 389.657L215.521 389.396L216.307 389.675C217.227 387.08 218.185 384.501 219.18 381.939L218.403 381.637C219.403 379.061 220.441 376.502 221.515 373.959L222.281 374.284C223.352 371.747 224.46 369.228 225.604 366.727L224.847 366.38C225.995 363.868 227.18 361.374 228.399 358.899L229.146 359.267C230.363 356.798 231.615 354.346 232.902 351.914L232.166 351.525L232.165 351.524C233.456 349.083 234.784 346.663 236.145 344.261L236.869 344.672C238.226 342.277 239.617 339.901 241.041 337.546L240.328 337.116C241.757 334.754 243.22 332.412 244.715 330.091L245.414 330.541C246.904 328.228 248.428 325.936 249.983 323.664L249.296 323.194C250.856 320.916 252.448 318.661 254.072 316.427L254.746 316.916C256.364 314.691 258.013 312.488 259.693 310.307L259.034 309.798C260.718 307.612 262.432 305.448 264.178 303.308L264.823 303.835C266.562 301.703 268.332 299.593 270.131 297.507L269.5 296.963C271.301 294.874 273.132 292.808 274.992 290.767L275.608 291.328C277.462 289.294 279.345 287.284 281.256 285.298L280.655 284.721C282.567 282.734 284.507 280.772 286.476 278.834L287.06 279.428C289.021 277.497 291.01 275.592 293.026 273.711L292.459 273.103C294.475 271.223 296.516 269.366 298.585 267.537L298.586 267.538L299.138 268.162C301.199 266.341 303.286 264.545 305.399 262.775L304.865 262.136C306.541 260.732 308.233 259.344 309.941 257.974L311.283 256.904L311.801 257.557C313.955 255.848 316.134 254.164 318.338 252.509L317.838 251.844C319.606 250.516 321.389 249.204 323.188 247.911L324.525 246.955L325.008 247.634C327.248 246.042 329.512 244.477 331.799 242.94L331.334 242.248C333.624 240.709 335.937 239.197 338.272 237.714L338.719 238.417C341.038 236.945 343.38 235.501 345.742 234.085L345.313 233.371C347.68 231.953 350.068 230.564 352.478 229.204L352.888 229.929C355.28 228.579 357.694 227.257 360.127 225.965L359.736 225.229C362.172 223.936 364.627 222.673 367.103 221.44L367.475 222.185C369.935 220.959 372.414 219.762 374.912 218.596L374.56 217.841C377.057 216.676 379.573 215.541 382.107 214.436L382.44 215.199C384.961 214.1 387.5 213.031 390.057 211.994L389.743 211.223C392.295 210.187 394.865 209.18 397.451 208.206L397.744 208.987C400.319 208.017 402.911 207.078 405.519 206.171L405.244 205.385C407.844 204.481 410.459 203.608 413.091 202.767L413.345 203.559C415.967 202.721 418.604 201.914 421.257 201.139L421.022 200.339C423.663 199.568 426.318 198.829 428.987 198.121L429.2 198.927C431.86 198.222 434.535 197.549 437.223 196.909L437.029 196.099C439.705 195.461 442.394 194.856 445.097 194.283L445.27 195.097C447.96 194.527 450.664 193.988 453.38 193.483L453.228 192.663C455.932 192.16 458.649 191.69 461.378 191.252L461.511 192.075C464.225 191.639 466.951 191.236 469.688 190.866L469.576 190.041C472.303 189.673 475.042 189.336 477.791 189.034L477.882 189.861C480.613 189.56 483.355 189.292 486.106 189.057L486.036 188.228C488.778 187.994 491.53 187.793 494.292 187.625L494.343 188.456C497.084 188.29 499.835 188.156 502.595 188.056L502.564 187.223C505.315 187.123 508.075 187.056 510.843 187.023L510.853 187.856C512.233 187.839 513.616 187.83 515.001 187.83C516.386 187.83 517.769 187.839 519.149 187.856L519.158 187.023C521.926 187.056 524.686 187.123 527.437 187.223L527.407 188.056C530.167 188.156 532.918 188.29 535.659 188.456L535.709 187.625C538.471 187.793 541.223 187.994 543.965 188.228L543.896 189.057C546.647 189.292 549.389 189.56 552.12 189.861L552.21 189.034C554.959 189.336 557.697 189.673 560.424 190.041L560.313 190.866C563.051 191.236 565.777 191.639 568.491 192.075L568.622 191.252C571.351 191.69 574.069 192.16 576.773 192.663L576.622 193.483C579.338 193.988 582.042 194.527 584.732 195.097L584.904 194.283C587.607 194.856 590.296 195.461 592.972 196.099L592.779 196.909C595.467 197.549 598.141 198.222 600.801 198.927L601.014 198.121C603.683 198.829 606.338 199.568 608.978 200.339L608.745 201.139C611.398 201.914 614.035 202.721 616.657 203.559L616.909 202.766C619.541 203.607 622.156 204.481 624.756 205.385L624.483 206.171C627.091 207.078 629.683 208.017 632.258 208.987L632.55 208.206C635.136 209.18 637.706 210.187 640.258 211.223L639.945 211.994C642.502 213.031 645.041 214.1 647.562 215.199L647.894 214.436C650.428 215.541 652.944 216.676 655.441 217.841H655.442L655.09 218.596C657.588 219.762 660.067 220.959 662.527 222.185L662.898 221.44C665.373 222.673 667.829 223.936 670.265 225.229L669.875 225.965C672.308 227.257 674.722 228.579 677.114 229.929L677.523 229.204C679.932 230.564 682.32 231.953 684.687 233.37L684.26 234.085C686.622 235.501 688.963 236.945 691.282 238.417L691.729 237.714C694.064 239.197 696.377 240.709 698.667 242.248L698.203 242.94C700.49 244.477 702.753 246.042 704.993 247.634L705.476 246.955C707.729 248.557 709.958 250.187 712.163 251.844L711.664 252.509C713.867 254.164 716.047 255.848 718.201 257.557L718.718 256.904C720.882 258.621 723.022 260.366 725.136 262.136L724.602 262.775C726.715 264.545 728.803 266.34 730.864 268.162L731.416 267.538V267.537C733.485 269.366 735.526 271.223 737.542 273.103L736.976 273.711C738.991 275.592 740.98 277.498 742.941 279.428L743.525 278.834C745.494 280.772 747.434 282.734 749.346 284.721L748.746 285.298C750.657 287.284 752.54 289.294 754.394 291.328L755.008 290.767C756.868 292.809 758.699 294.874 760.501 296.963L759.871 297.507C761.67 299.593 763.439 301.702 765.178 303.834L765.823 303.308C767.569 305.448 769.283 307.612 770.967 309.798L770.309 310.306C771.989 312.487 773.638 314.691 775.256 316.916L775.929 316.427C777.553 318.661 779.145 320.916 780.705 323.194L780.019 323.664C781.574 325.936 783.097 328.228 784.587 330.541L785.286 330.091C786.781 332.412 788.244 334.753 789.673 337.115L788.961 337.546C790.385 339.901 791.776 342.277 793.133 344.672L793.856 344.261C795.217 346.663 796.545 349.083 797.836 351.524V351.525L797.1 351.914C798.386 354.346 799.639 356.798 800.855 359.267L801.602 358.898C802.822 361.374 804.006 363.868 805.154 366.38L804.398 366.727C805.542 369.228 806.649 371.747 807.72 374.283L808.486 373.958C809.56 376.501 810.597 379.061 811.598 381.637L810.822 381.939C811.817 384.501 812.775 387.08 813.695 389.675L814.479 389.396Z" stroke="#9EA1AE" stroke-width="1.66654" stroke-dasharray="8.33 8.33"/>
<path opacity="0.2" d="M939.427 388.977C940.102 391.654 940.748 394.341 941.367 397.038L940.558 397.224C941.173 399.907 941.761 402.6 942.32 405.302L943.134 405.134C943.692 407.834 944.223 410.544 944.725 413.262L943.907 413.414C944.408 416.126 944.879 418.847 945.322 421.578L946.145 421.444V421.443C946.585 424.16 946.996 426.886 947.379 429.62L946.556 429.736C946.938 432.464 947.292 435.2 947.616 437.945L948.441 437.847C948.765 440.585 949.06 443.331 949.326 446.084L948.499 446.165C948.763 448.901 948.998 451.645 949.204 454.397L950.034 454.335C950.241 457.092 950.417 459.857 950.564 462.628L949.734 462.672C949.88 465.411 949.997 468.156 950.085 470.909L950.916 470.882C951.004 473.641 951.062 476.406 951.092 479.178L950.262 479.187C950.276 480.57 950.283 481.954 950.283 483.34C950.283 484.726 950.276 486.112 950.262 487.495L951.092 487.502C951.062 490.274 951.004 493.039 950.916 495.797L950.085 495.772C949.997 498.524 949.88 501.27 949.734 504.008L950.564 504.052C950.417 506.824 950.241 509.588 950.034 512.345L949.204 512.284C948.998 515.036 948.763 517.78 948.499 520.517L949.326 520.596C949.061 523.35 948.765 526.095 948.441 528.833L947.616 528.736C947.292 531.481 946.938 534.218 946.556 536.946L947.379 537.06C946.996 539.794 946.585 542.52 946.145 545.237L945.322 545.104C944.879 547.834 944.408 550.556 943.907 553.268L944.725 553.418C944.223 556.137 943.692 558.846 943.134 561.546L942.32 561.378C941.761 564.081 941.173 566.774 940.558 569.457L941.367 569.642C940.748 572.339 940.102 575.027 939.427 577.704L938.62 577.5C937.946 580.172 937.244 582.835 936.514 585.486L937.315 585.706C936.58 588.375 935.816 591.034 935.025 593.682L934.229 593.444C933.44 596.086 932.624 598.718 931.779 601.338L932.57 601.592C931.722 604.224 930.848 606.845 929.945 609.454L929.158 609.182C928.256 611.789 927.327 614.385 926.37 616.969L927.15 617.257C926.191 619.848 925.205 622.427 924.192 624.994L923.419 624.689C922.406 627.256 921.367 629.811 920.301 632.353L921.067 632.674C919.999 635.222 918.904 637.758 917.783 640.281L917.023 639.943C915.903 642.463 914.756 644.971 913.584 647.465L914.336 647.819C913.161 650.32 911.959 652.807 910.732 655.282L909.988 654.913C908.764 657.382 907.513 659.839 906.237 662.282L906.975 662.667C905.695 665.116 904.39 667.551 903.061 669.972L902.332 669.573C901.005 671.989 899.653 674.392 898.276 676.78L898.996 677.195C897.616 679.588 896.214 681.968 894.785 684.333L894.072 683.902C892.646 686.261 891.196 688.606 889.722 690.936L890.425 691.38C888.948 693.714 887.446 696.033 885.921 698.336L885.228 697.878C883.706 700.177 882.161 702.46 880.593 704.728L881.277 705.201C879.706 707.473 878.11 709.729 876.492 711.97L875.818 711.484C874.205 713.718 872.569 715.935 870.91 718.137L871.574 718.636C869.912 720.843 868.227 723.033 866.52 725.207L865.866 724.694C864.164 726.861 862.44 729.012 860.693 731.146L861.337 731.672C859.588 733.809 857.816 735.929 856.023 738.033L855.392 737.494C853.603 739.592 851.793 741.674 849.962 743.738L850.583 744.289C848.751 746.353 846.9 748.402 845.026 750.432L844.414 749.867C842.544 751.892 840.653 753.902 838.741 755.892L839.34 756.467C837.428 758.458 835.496 760.431 833.544 762.385L832.956 761.798C831.009 763.748 829.041 765.68 827.054 767.593L827.63 768.192C825.64 770.107 823.632 772.005 821.603 773.883L821.037 773.273C819.016 775.144 816.975 776.997 814.916 778.831L815.469 779.451C813.405 781.288 811.322 783.107 809.221 784.907L808.681 784.276C806.59 786.066 804.48 787.838 802.352 789.59L802.88 790.233C800.748 791.988 798.599 793.724 796.431 795.441L795.914 794.789C793.754 796.499 791.576 798.19 789.38 799.862L789.883 800.523C787.687 802.194 785.474 803.845 783.243 805.476L782.753 804.806C780.527 806.434 778.283 808.042 776.022 809.63L776.5 810.311C774.244 811.896 771.972 813.462 769.683 815.006L769.217 814.316C766.932 815.857 764.631 817.378 762.313 818.878L762.765 819.577C760.448 821.077 758.115 822.556 755.766 824.014L755.327 823.308C752.988 824.761 750.633 826.193 748.263 827.604L748.688 828.318C746.312 829.732 743.922 831.125 741.516 832.497L741.104 831.773C738.715 833.135 736.31 834.477 733.891 835.796L734.288 836.527C731.864 837.849 729.426 839.149 726.973 840.428L726.588 839.691C724.146 840.965 721.689 842.217 719.218 843.448L719.587 844.191C717.118 845.42 714.636 846.629 712.14 847.815L711.783 847.064C709.291 848.248 706.785 849.41 704.266 850.549L704.608 851.307C702.099 852.442 699.575 853.556 697.039 854.647L696.711 853.883C694.18 854.972 691.635 856.039 689.078 857.083L689.393 857.853C686.838 858.897 684.27 859.918 681.69 860.917L681.391 860.141C678.825 861.134 676.246 862.106 673.655 863.054L673.94 863.834C671.345 864.785 668.738 865.713 666.118 866.618L665.848 865.832C663.249 866.729 660.639 867.604 658.018 868.456L658.273 869.247C655.649 870.099 653.013 870.93 650.366 871.737L650.124 870.941C647.488 871.744 644.841 872.525 642.184 873.283L642.412 874.083C639.763 874.838 637.102 875.569 634.432 876.278L634.219 875.474C631.553 876.181 628.877 876.865 626.19 877.526L626.389 878.333C623.714 878.991 621.029 879.626 618.334 880.237L618.15 879.426C615.466 880.035 612.771 880.62 610.067 881.182L610.236 881.996C607.531 882.558 604.817 883.096 602.093 883.611L601.938 882.794C599.239 883.304 596.531 883.791 593.814 884.254L593.953 885.073C591.231 885.536 588.501 885.977 585.762 886.393L585.638 885.572C582.917 885.985 580.188 886.375 577.45 886.741L577.56 887.564C574.829 887.929 572.09 888.269 569.344 888.586L569.249 887.761C566.508 888.078 563.758 888.371 561.001 888.639L561.081 889.465C558.344 889.732 555.599 889.975 552.847 890.194L552.781 889.366C550.037 889.584 547.286 889.778 544.527 889.948L544.578 890.777C541.821 890.947 539.056 891.094 536.285 891.215L536.25 890.384C533.508 890.505 530.76 890.602 528.005 890.674L528.025 891.504C525.265 891.577 522.499 891.627 519.727 891.651L519.721 890.82C518.337 890.832 516.951 890.838 515.564 890.838C514.178 890.838 512.792 890.832 511.408 890.82L511.401 891.651C508.629 891.627 505.862 891.577 503.103 891.504L503.124 890.674C500.369 890.602 497.621 890.505 494.879 890.384L494.842 891.215C492.071 891.094 489.307 890.947 486.55 890.777L486.602 889.948C483.843 889.778 481.092 889.584 478.348 889.366L478.281 890.194C475.529 889.975 472.784 889.732 470.047 889.465L470.127 888.639C467.37 888.371 464.621 888.078 461.88 887.761L461.784 888.586C459.038 888.269 456.299 887.929 453.568 887.564L453.679 886.741C450.941 886.375 448.212 885.985 445.491 885.572L445.366 886.393C442.627 885.977 439.896 885.537 437.174 885.073L437.314 884.254C434.598 883.791 431.889 883.304 429.19 882.794L429.035 883.611C426.311 883.096 423.597 882.558 420.892 881.996L421.062 881.182C418.358 880.62 415.663 880.035 412.979 879.426L412.794 880.237C410.099 879.626 407.414 878.991 404.739 878.333L404.938 877.526C402.252 876.865 399.576 876.181 396.91 875.474L396.696 876.278C394.026 875.569 391.365 874.838 388.716 874.083H388.717L388.944 873.283C386.287 872.525 383.64 871.744 381.005 870.941L380.762 871.737C378.115 870.93 375.479 870.099 372.854 869.247L373.111 868.456C370.49 867.604 367.88 866.729 365.281 865.832L365.01 866.618C362.39 865.713 359.783 864.786 357.188 863.835L357.474 863.054C354.883 862.106 352.304 861.135 349.738 860.142L349.438 860.917C346.858 859.918 344.29 858.897 341.735 857.853L342.051 857.083C339.494 856.039 336.949 854.972 334.418 853.883L334.089 854.648H334.088C331.552 853.557 329.029 852.442 326.52 851.307L326.862 850.549C324.343 849.41 321.838 848.248 319.346 847.064L318.988 847.815C316.491 846.629 314.009 845.42 311.54 844.191L311.911 843.448C309.44 842.217 306.983 840.965 304.541 839.692L304.155 840.428C301.702 839.149 299.263 837.848 296.839 836.526L297.238 835.796C294.819 834.477 292.414 833.135 290.024 831.773L289.611 832.497C287.205 831.125 284.815 829.731 282.44 828.318L282.866 827.604C280.496 826.193 278.141 824.761 275.802 823.309L275.362 824.014C273.013 822.556 270.68 821.077 268.363 819.577L268.815 818.878C266.498 817.378 264.197 815.857 261.912 814.316L261.446 815.006C259.156 813.462 256.883 811.896 254.627 810.311L255.106 809.63C252.846 808.042 250.602 806.434 248.376 804.806L247.885 805.476C245.654 803.845 243.441 802.194 241.245 800.523L241.749 799.862C239.553 798.19 237.374 796.499 235.214 794.789L234.697 795.441C232.529 793.724 230.379 791.988 228.247 790.233L228.777 789.591C226.649 787.839 224.539 786.067 222.448 784.276L221.907 784.907C219.806 783.107 217.722 781.289 215.658 779.452L216.212 778.831C214.153 776.997 212.113 775.144 210.092 773.273L209.525 773.883C207.496 772.005 205.488 770.107 203.498 768.192L204.075 767.593C202.088 765.68 200.12 763.748 198.173 761.798L197.584 762.385C195.631 760.43 193.699 758.458 191.787 756.467L192.388 755.892C190.476 753.901 188.584 751.893 186.714 749.867L186.102 750.431C184.228 748.401 182.376 746.353 180.544 744.289L181.167 743.738C179.336 741.674 177.526 739.592 175.737 737.494L175.104 738.034C173.311 735.93 171.54 733.81 169.791 731.673L170.436 731.146C168.689 729.012 166.965 726.862 165.263 724.695L164.608 725.208C162.901 723.034 161.217 720.843 159.555 718.637L160.219 718.137C158.56 715.935 156.924 713.718 155.311 711.484L154.636 711.971C153.017 709.73 151.422 707.473 149.851 705.201L150.535 704.728C148.967 702.46 147.422 700.177 145.9 697.878L145.207 698.337C143.682 696.033 142.18 693.715 140.703 691.38L141.407 690.936C139.933 688.606 138.483 686.261 137.057 683.902L136.343 684.332C134.914 681.967 133.51 679.588 132.131 677.195L132.853 676.78C131.476 674.392 130.124 671.989 128.797 669.573L128.067 669.973C126.738 667.551 125.433 665.116 124.153 662.667L124.892 662.282C123.616 659.839 122.365 657.382 121.141 654.913L120.396 655.282C119.169 652.807 117.967 650.32 116.792 647.819L117.545 647.465C116.373 644.971 115.226 642.463 114.105 639.943L113.345 640.281C112.224 637.758 111.129 635.223 110.061 632.675L110.828 632.354C109.762 629.812 108.722 627.256 107.709 624.689L106.936 624.995C105.923 622.428 104.937 619.849 103.978 617.258L104.758 616.969C103.801 614.385 102.872 611.789 101.97 609.182L101.183 609.454C100.28 606.845 99.4055 604.224 98.5576 601.592L99.3496 601.338C98.5054 598.718 97.6876 596.087 96.8984 593.445L96.1025 593.682C95.3116 591.034 94.5467 588.375 93.8115 585.706L94.6152 585.486C93.8852 582.835 93.182 580.173 92.5078 577.501L91.7012 577.704C91.0256 575.027 90.3788 572.339 89.7598 569.642L90.5703 569.457C89.9546 566.774 89.3667 564.081 88.8076 561.378L87.9932 561.546C87.4346 558.846 86.9039 556.137 86.4023 553.418L87.2207 553.268C86.7203 550.556 86.2485 547.834 85.8057 545.104L84.9834 545.237C84.5427 542.52 84.1323 539.794 83.749 537.06L84.5723 536.946C84.1899 534.218 83.8363 531.481 83.5117 528.737L82.6865 528.833C82.3628 526.096 82.0674 523.35 81.8018 520.596L82.6299 520.517C82.3659 517.781 82.1308 515.036 81.9248 512.285L81.0938 512.345C80.8874 509.588 80.7102 506.824 80.5625 504.052L81.3945 504.009C81.2486 501.271 81.131 498.524 81.043 495.772L80.2119 495.798C80.1237 493.04 80.0647 490.274 80.0352 487.502L80.8672 487.495C80.8525 486.112 80.8447 484.727 80.8447 483.34C80.8447 481.954 80.8525 480.57 80.8672 479.187L80.0352 479.178C80.0647 476.407 80.1238 473.641 80.2119 470.883L81.043 470.91C81.1309 468.157 81.2486 465.412 81.3945 462.673L80.5625 462.628C80.7102 459.857 80.8874 457.092 81.0938 454.335L81.9248 454.398C82.1308 451.646 82.3659 448.901 82.6299 446.165L81.8018 446.084C82.0674 443.331 82.3628 440.585 82.6865 437.847L83.5117 437.946C83.8363 435.201 84.1898 432.464 84.5723 429.736L83.749 429.621C84.1323 426.886 84.5427 424.161 84.9834 421.444L85.8057 421.578C86.2485 418.847 86.7203 416.126 87.2207 413.414L86.4023 413.262C86.9039 410.544 87.4346 407.834 87.9932 405.134L88.8076 405.303C89.3667 402.601 89.9546 399.908 90.5703 397.225L89.7598 397.039C90.3788 394.341 91.0256 391.654 91.7012 388.977L92.5078 389.181C93.182 386.509 93.8852 383.847 94.6152 381.196L93.8115 380.975C94.5467 378.305 95.3116 375.647 96.1025 372.999L96.8984 373.237C97.6876 370.595 98.5054 367.963 99.3496 365.343L98.5566 365.088C99.1563 363.227 99.7694 361.372 100.396 359.522L101.183 357.227L101.97 357.5C102.872 354.892 103.801 352.296 104.758 349.712L103.978 349.422C104.937 346.832 105.923 344.253 106.936 341.686L107.709 341.993C108.722 339.426 109.762 336.87 110.828 334.328L110.061 334.005C111.129 331.458 112.224 328.922 113.345 326.4L114.105 326.739C115.226 324.218 116.372 321.711 117.544 319.216L116.792 318.862C117.967 316.361 119.168 313.873 120.395 311.399L121.141 311.769C122.365 309.299 123.616 306.843 124.892 304.4L124.152 304.014C125.432 301.565 126.738 299.129 128.067 296.708L128.797 297.109C130.124 294.692 131.476 292.29 132.853 289.902L132.131 289.486C133.51 287.093 134.914 284.713 136.343 282.349L137.057 282.78C138.483 280.42 139.933 278.075 141.407 275.746L140.703 275.3C142.18 272.966 143.682 270.647 145.207 268.343L145.9 268.803C147.422 266.505 148.967 264.221 150.535 261.954L149.85 261.48C151.421 259.207 153.017 256.951 154.636 254.709L155.311 255.198C156.924 252.964 158.56 250.746 160.219 248.544L159.555 248.043C161.217 245.837 162.901 243.647 164.608 241.473L165.263 241.987C166.965 239.82 168.689 237.67 170.436 235.536L169.791 235.007C171.54 232.871 173.311 230.751 175.104 228.648L175.737 229.188C177.526 227.09 179.336 225.008 181.167 222.944L180.544 222.392C182.376 220.328 184.228 218.279 186.102 216.25L186.714 216.815C188.584 214.789 190.476 212.78 192.388 210.79L191.786 210.212C193.698 208.222 195.631 206.25 197.584 204.295L198.173 204.883C200.12 202.934 202.088 201.002 204.075 199.088L203.498 198.489C205.488 196.573 207.495 194.675 209.524 192.796L209.525 192.797L210.092 193.409C212.113 191.538 214.153 189.685 216.212 187.851L215.658 187.229C217.722 185.392 219.805 183.574 221.906 181.774L222.447 182.406C224.538 180.615 226.649 178.843 228.777 177.09L228.247 176.448C230.379 174.693 232.528 172.956 234.696 171.24L235.214 171.893C237.374 170.183 239.553 168.491 241.749 166.82L241.245 166.158C243.441 164.487 245.654 162.835 247.885 161.204L248.376 161.875C250.602 160.247 252.846 158.639 255.106 157.051L254.627 156.37C256.883 154.785 259.156 153.219 261.445 151.674L261.911 152.366C264.196 150.824 266.498 149.304 268.815 147.803L268.363 147.104C270.68 145.604 273.013 144.125 275.362 142.667L275.802 143.373C278.141 141.92 280.496 140.488 282.866 139.078L282.439 138.363C284.815 136.949 287.205 135.556 289.611 134.184L290.024 134.909C292.414 133.547 294.819 132.205 297.238 130.885L296.839 130.155C299.263 128.833 301.702 127.532 304.155 126.252L304.54 126.99C306.982 125.716 309.44 124.464 311.911 123.234L311.539 122.489C314.008 121.259 316.491 120.052 318.987 118.866L319.345 119.618C321.837 118.434 324.343 117.272 326.862 116.132L326.52 115.374C329.029 114.238 331.552 113.124 334.089 112.033L334.418 112.798C336.949 111.709 339.494 110.643 342.051 109.598L341.735 108.827C344.29 107.783 346.858 106.763 349.438 105.764L349.738 106.54C352.304 105.546 354.883 104.576 357.474 103.627L357.187 102.846C359.782 101.896 362.389 100.968 365.009 100.063L365.281 100.85C367.88 99.9527 370.49 99.078 373.111 98.2261L372.854 97.4341C375.478 96.5811 378.114 95.7508 380.762 94.9438L381.005 95.7407C383.64 94.9373 386.287 94.1562 388.944 93.3989L388.716 92.5981L388.715 92.5972C391.365 91.8421 394.025 91.1116 396.696 90.4028L396.91 91.2075C399.576 90.5002 402.252 89.8164 404.938 89.1558L404.739 88.3472C407.414 87.6893 410.099 87.0549 412.794 86.4438L412.979 87.2554C415.663 86.6466 418.357 86.0613 421.061 85.4995L420.892 84.6851C423.597 84.1229 426.311 83.5845 429.035 83.0698L429.189 83.8872C431.889 83.3772 434.598 82.8902 437.314 82.4272L437.174 81.6069C439.896 81.1431 442.627 80.7037 445.366 80.2876L445.491 81.1099C448.212 80.6966 450.941 80.3066 453.679 79.9409L453.568 79.1167C456.299 78.7519 459.037 78.4103 461.783 78.0933L461.879 78.9204C464.62 78.6039 467.37 78.3109 470.127 78.0425L470.047 77.2153C472.784 76.9488 475.529 76.7055 478.281 76.4868L478.348 77.3159C481.091 77.0979 483.843 76.9039 486.601 76.7339L486.55 75.9028C489.307 75.7328 492.071 75.587 494.842 75.4653L494.879 76.2964C497.621 76.176 500.369 76.0799 503.124 76.0073L503.103 75.1763C505.862 75.1036 508.628 75.0541 511.4 75.0298L511.408 75.8618C512.792 75.8497 514.178 75.8433 515.564 75.8433C516.951 75.8433 518.336 75.8497 519.72 75.8618L519.727 75.0298C522.499 75.0541 525.265 75.1036 528.025 75.1763L528.004 76.0073C530.759 76.0799 533.508 76.176 536.25 76.2964L536.285 75.4653C539.056 75.587 541.82 75.7328 544.577 75.9028L544.527 76.7339C547.286 76.904 550.037 77.0978 552.781 77.3159L552.846 76.4858C555.598 76.7046 558.343 76.9488 561.081 77.2153L561.001 78.0425C563.758 78.3109 566.508 78.6039 569.249 78.9204L569.344 78.0933C572.09 78.4103 574.828 78.752 577.559 79.1167L577.449 79.9409C580.187 80.3066 582.916 80.6966 585.637 81.1099L585.762 80.2876C588.501 80.7037 591.231 81.1432 593.953 81.6069L593.814 82.4272C596.531 82.8902 599.239 83.3772 601.938 83.8872L602.092 83.0698C604.816 83.5845 607.53 84.123 610.235 84.6851L610.067 85.4995C612.771 86.0613 615.466 86.6466 618.15 87.2554L618.333 86.4438C621.028 87.055 623.713 87.6893 626.389 88.3472L626.19 89.1558C628.876 89.8163 631.552 90.5002 634.218 91.2075L634.431 90.4028C637.102 91.1116 639.762 91.8421 642.412 92.5972V92.5981L642.184 93.3989C644.841 94.1562 647.488 94.9373 650.124 95.7407L650.366 94.9438C653.013 95.7507 655.649 96.5802 658.273 97.4331L658.017 98.2261C660.638 99.078 663.249 99.9527 665.848 100.85L666.118 100.063C668.738 100.968 671.345 101.896 673.94 102.846L673.655 103.626C676.246 104.575 678.824 105.546 681.39 106.54L681.689 105.764C684.269 106.763 686.837 107.783 689.392 108.827L689.078 109.598C691.635 110.643 694.18 111.709 696.711 112.798L697.039 112.034C699.575 113.125 702.099 114.238 704.608 115.374H704.609L704.266 116.132C706.785 117.272 709.291 118.434 711.783 119.618L712.14 118.866C714.636 120.052 717.119 121.259 719.588 122.489L719.218 123.234C721.689 124.464 724.146 125.716 726.588 126.99L726.972 126.252C729.425 127.532 731.864 128.832 734.288 130.154L733.891 130.885C736.31 132.205 738.715 133.546 741.104 134.908L741.516 134.184C743.922 135.555 746.312 136.948 748.688 138.362L748.262 139.078C750.632 140.489 752.988 141.92 755.327 143.373L755.765 142.666C758.114 144.124 760.447 145.604 762.765 147.104L762.313 147.802C764.631 149.303 766.932 150.824 769.217 152.366L769.682 151.674C771.971 153.219 774.244 154.785 776.5 156.37L776.022 157.05C778.283 158.638 780.527 160.247 782.753 161.875L783.243 161.204C785.474 162.835 787.687 164.487 789.883 166.158L789.379 166.82C791.575 168.491 793.754 170.183 795.914 171.893L796.431 171.24C798.599 172.956 800.748 174.693 802.88 176.448L802.352 177.09C804.48 178.843 806.59 180.615 808.681 182.406L809.221 181.774C811.322 183.574 813.405 185.392 815.469 187.23L814.916 187.851C816.975 189.685 819.016 191.538 821.037 193.409L821.603 192.797V192.796C823.632 194.675 825.639 196.573 827.629 198.489L827.053 199.088C829.04 201.002 831.009 202.934 832.956 204.883L833.544 204.295C835.496 206.25 837.429 208.222 839.341 210.212L838.741 210.79C840.653 212.78 842.544 214.788 844.414 216.814L845.026 216.25V216.249C846.9 218.278 848.751 220.328 850.583 222.392L849.962 222.944C851.793 225.008 853.603 227.089 855.392 229.187L856.023 228.648C857.816 230.751 859.588 232.87 861.337 235.007L860.692 235.536C862.439 237.67 864.164 239.82 865.866 241.987L866.52 241.473C868.227 243.647 869.911 245.837 871.573 248.043L870.91 248.544C872.569 250.746 874.205 252.964 875.818 255.198L876.492 254.709C878.11 256.95 879.705 259.207 881.276 261.479L880.593 261.954C882.161 264.221 883.706 266.504 885.228 268.802L885.92 268.343C887.445 270.647 888.947 272.965 890.424 275.299L889.722 275.746C891.196 278.075 892.646 280.42 894.072 282.78L894.784 282.348C896.213 284.713 897.616 287.092 898.996 289.486L898.276 289.901C899.653 292.289 901.005 294.691 902.332 297.108L903.061 296.708C904.39 299.13 905.696 301.564 906.976 304.013V304.014L906.237 304.4C907.513 306.842 908.764 309.298 909.988 311.768L910.732 311.398C911.96 313.872 913.16 316.361 914.336 318.862L913.584 319.216C914.756 321.711 915.903 324.218 917.023 326.739L917.783 326.4C918.904 328.922 919.999 331.458 921.067 334.005L920.301 334.328C921.367 336.87 922.406 339.425 923.419 341.992L924.192 341.686C925.205 344.253 926.19 346.832 927.149 349.422L926.37 349.711C927.327 352.295 928.256 354.891 929.158 357.499L929.945 357.226C930.848 359.835 931.722 362.456 932.57 365.087L931.779 365.343C932.624 367.963 933.44 370.595 934.229 373.237L935.025 372.999C935.816 375.647 936.58 378.305 937.315 380.975L936.514 381.196C937.244 383.847 937.946 386.508 938.62 389.18L939.427 388.977Z" stroke="url(#paint0_linear_1061_10986)" stroke-width="1.66654" stroke-dasharray="8.33 8.33"/>
<path opacity="0.2" d="M760.235 58.1494C762.719 59.4128 765.19 60.6957 767.649 61.9961L767.262 62.7314C769.718 64.0301 772.161 65.3474 774.592 66.6826L774.991 65.9541C777.426 67.2916 779.849 68.6458 782.258 70.0195L781.847 70.7432C784.263 72.1214 786.667 73.5183 789.058 74.9326L789.48 74.2158C791.875 75.6325 794.255 77.068 796.623 78.5205L796.188 79.2295C798.553 80.6802 800.905 82.1487 803.242 83.6348L803.688 82.9326C806.039 84.4272 808.377 85.9379 810.7 87.4678V87.4688L810.242 88.1641C812.561 89.6914 814.866 91.2366 817.157 92.7988L817.625 92.1113C819.922 93.6776 822.204 95.2615 824.472 96.8623L823.992 97.542C826.264 99.1454 828.522 100.766 830.764 102.403L831.253 101.731C833.499 103.372 835.731 105.028 837.946 106.702L837.444 107.367C839.659 109.041 841.859 110.731 844.043 112.438L844.555 111.782C846.748 113.497 848.926 115.228 851.089 116.976L850.567 117.623C852.726 119.368 854.87 121.13 856.997 122.907L857.529 122.269C859.663 124.052 861.782 125.851 863.884 127.667L863.341 128.297C865.444 130.113 867.53 131.946 869.601 133.795L870.155 133.174C872.229 135.026 874.285 136.895 876.325 138.778L875.762 139.39C877.802 141.273 879.826 143.173 881.833 145.088L882.406 144.486C884.419 146.407 886.415 148.344 888.394 150.296L887.811 150.889C889.786 152.838 891.745 154.802 893.686 156.782L894.279 156.198C896.227 158.185 898.156 160.188 900.068 162.205L899.465 162.777C901.375 164.793 903.269 166.824 905.144 168.869L905.756 168.307C907.634 170.356 909.494 172.42 911.336 174.499L910.715 175.051C912.557 177.129 914.381 179.223 916.186 181.331L916.816 180.79C918.625 182.903 920.417 185.029 922.188 187.17L921.547 187.701C923.315 189.839 925.066 191.991 926.797 194.157L927.446 193.638C929.183 195.811 930.9 197.999 932.598 200.2L931.94 200.709C933.636 202.907 935.312 205.119 936.969 207.345L937.635 206.849C939.294 209.078 940.935 211.321 942.555 213.578L941.88 214.063C943.499 216.319 945.098 218.589 946.678 220.871L947.361 220.396C948.943 222.683 950.506 224.982 952.048 227.295L951.355 227.758C952.895 230.067 954.414 232.389 955.912 234.724L956.611 234.274C958.113 236.614 959.594 238.967 961.054 241.333L960.348 241.771C961.805 244.132 963.242 246.506 964.658 248.893L965.373 248.469C966.791 250.859 968.189 253.262 969.564 255.677L968.843 256.089C970.216 258.5 971.569 260.923 972.899 263.358L973.63 262.959C974.963 265.398 976.274 267.85 977.563 270.313L976.827 270.7C978.114 273.158 979.38 275.627 980.623 278.108L981.366 277.734C982.612 280.219 983.834 282.716 985.035 285.224L984.286 285.582C985.485 288.085 986.662 290.6 987.816 293.125L988.572 292.778C989.727 295.305 990.861 297.843 991.972 300.392L991.208 300.725C992.316 303.267 993.402 305.821 994.464 308.385L995.231 308.066C996.296 310.635 997.337 313.215 998.355 315.805L997.582 316.109C998.596 318.689 999.588 321.279 1000.56 323.879L1001.33 323.588C1002.3 326.191 1003.25 328.805 1004.17 331.429L1003.39 331.705C1004.31 334.324 1005.21 336.953 1006.09 339.592L1006.88 339.329C1007.75 341.963 1008.6 344.606 1009.42 347.259L1008.63 347.507C1009.45 350.154 1010.26 352.811 1011.03 355.478L1011.83 355.245C1012.61 357.914 1013.36 360.593 1014.09 363.28L1013.29 363.499C1014.02 366.17 1014.72 368.851 1015.4 371.54L1016.2 371.337C1016.88 374.031 1017.54 376.734 1018.17 379.445H1018.17L1017.36 379.634C1017.99 382.336 1018.59 385.047 1019.17 387.766L1019.98 387.592C1020.56 390.303 1021.12 393.023 1021.65 395.751L1020.83 395.91C1021.36 398.633 1021.86 401.363 1022.34 404.102L1023.16 403.958C1023.64 406.695 1024.1 409.439 1024.53 412.19H1024.53L1023.71 412.319C1024.13 415.053 1024.54 417.794 1024.92 420.542L1025.74 420.428C1026.12 423.181 1026.47 425.941 1026.8 428.709L1025.98 428.808C1026.3 431.56 1026.61 434.319 1026.88 437.085L1027.71 437.001C1027.99 439.758 1028.24 442.522 1028.47 445.293L1027.64 445.36C1027.86 448.126 1028.07 450.898 1028.24 453.676L1029.07 453.623C1029.25 456.393 1029.4 459.168 1029.53 461.95L1028.7 461.987C1028.82 464.749 1028.92 467.518 1029 470.292L1029.83 470.269V470.268C1029.9 473.047 1029.95 475.832 1029.98 478.623L1029.15 478.63C1029.16 480.023 1029.17 481.417 1029.17 482.812C1029.17 484.208 1029.16 485.602 1029.15 486.994L1029.98 487.001C1029.95 489.792 1029.9 492.577 1029.83 495.356L1029 495.333C1028.92 498.107 1028.82 500.875 1028.7 503.637L1029.53 503.674C1029.4 506.456 1029.25 509.231 1029.07 512.001L1028.24 511.949C1028.07 514.727 1027.86 517.499 1027.64 520.265L1028.47 520.331C1028.24 523.101 1027.99 525.865 1027.71 528.622L1026.88 528.54C1026.61 531.306 1026.3 534.065 1025.98 536.817L1026.8 536.915C1026.47 539.683 1026.12 542.443 1025.74 545.196L1024.92 545.083C1024.54 547.831 1024.13 550.572 1023.71 553.306L1024.53 553.434C1024.1 556.185 1023.64 558.929 1023.16 561.666L1022.34 561.523C1021.86 564.262 1021.36 566.992 1020.83 569.715L1021.65 569.873C1021.12 572.601 1020.56 575.321 1019.98 578.032L1019.17 577.859C1018.59 580.578 1017.99 583.289 1017.36 585.991L1018.17 586.179C1017.54 588.89 1016.88 591.593 1016.2 594.287L1015.4 594.085C1014.72 596.774 1014.02 599.455 1013.29 602.126L1014.09 602.344C1013.36 605.031 1012.61 607.71 1011.83 610.379L1011.03 610.147C1010.26 612.814 1009.45 615.471 1008.63 618.119L1009.42 618.365C1008.6 621.018 1007.75 623.661 1006.88 626.295L1006.09 626.033C1005.21 628.672 1004.31 631.301 1003.39 633.92L1004.17 634.195C1003.25 636.819 1002.3 639.433 1001.33 642.036L1000.56 641.747C999.588 644.347 998.596 646.936 997.582 649.516L998.355 649.819C997.337 652.409 996.296 654.989 995.231 657.558L994.464 657.24C993.402 659.804 992.316 662.358 991.208 664.9L991.972 665.232C990.861 667.781 989.727 670.319 988.572 672.846L987.816 672.5C986.662 675.025 985.485 677.54 984.286 680.043L985.035 680.401C983.834 682.909 982.611 685.405 981.366 687.89L980.623 687.518C979.38 689.999 978.114 692.468 976.827 694.926L977.563 695.312C976.274 697.774 974.963 700.226 973.63 702.665L972.899 702.267C971.569 704.702 970.216 707.125 968.843 709.536L969.564 709.947C968.188 712.363 966.79 714.766 965.372 717.156L964.658 716.732C963.242 719.119 961.805 721.494 960.348 723.855L961.054 724.291C959.593 726.657 958.113 729.01 956.611 731.35L955.912 730.901C954.414 733.236 952.895 735.559 951.355 737.868L952.048 738.329C950.506 740.642 948.943 742.941 947.361 745.228L946.678 744.755C945.098 747.037 943.499 749.306 941.88 751.562L942.555 752.046C940.934 754.303 939.294 756.546 937.634 758.776L936.968 758.28C935.311 760.506 933.636 762.718 931.94 764.916L932.598 765.424C930.899 767.626 929.182 769.814 927.445 771.987L926.796 771.468C925.065 773.634 923.315 775.786 921.547 777.924L922.188 778.454C920.417 780.596 918.625 782.722 916.816 784.835L916.185 784.295C914.38 786.403 912.556 788.497 910.714 790.575L911.336 791.126C909.494 793.205 907.634 795.268 905.756 797.317L905.144 796.756C903.269 798.801 901.376 800.832 899.465 802.848L900.068 803.42C898.156 805.437 896.227 807.439 894.279 809.426L893.685 808.844C891.744 810.823 889.786 812.788 887.811 814.737L888.394 815.328C886.415 817.28 884.419 819.218 882.406 821.139L881.833 820.537C879.826 822.452 877.802 824.353 875.762 826.236L876.325 826.846C874.284 828.73 872.228 830.599 870.154 832.451L869.601 831.83C867.53 833.679 865.444 835.512 863.341 837.328L863.884 837.957C861.782 839.773 859.663 841.572 857.529 843.355L856.997 842.718C854.87 844.496 852.725 846.257 850.566 848.002L851.089 848.648C848.926 850.396 846.748 852.128 844.555 853.843L844.043 853.188C841.859 854.894 839.659 856.584 837.444 858.258L837.945 858.922C835.73 860.596 833.498 862.252 831.253 863.893L830.763 863.222C828.521 864.859 826.264 866.481 823.992 868.084L824.471 868.763C822.203 870.363 819.921 871.947 817.625 873.513L817.157 872.826C814.866 874.388 812.561 875.934 810.242 877.461L810.699 878.156C808.377 879.686 806.039 881.197 803.688 882.691L803.242 881.99C800.905 883.476 798.553 884.945 796.188 886.396L796.622 887.104C794.255 888.557 791.875 889.992 789.48 891.408L789.057 890.692C786.666 892.107 784.263 893.504 781.846 894.882L782.258 895.604C779.849 896.978 777.426 898.332 774.991 899.67L774.592 898.942C772.161 900.278 769.718 901.595 767.262 902.894L767.649 903.628C765.19 904.928 762.719 906.212 760.235 907.476L759.858 906.733C757.391 907.988 754.911 909.225 752.42 910.443L752.784 911.189C750.289 912.409 747.781 913.61 745.262 914.793L744.909 914.041C742.395 915.221 739.869 916.383 737.332 917.525L737.673 918.283C735.145 919.421 732.606 920.54 730.056 921.641L729.727 920.878C727.18 921.977 724.622 923.056 722.054 924.116L722.37 924.884C719.799 925.945 717.218 926.989 714.625 928.012L714.319 927.238C711.745 928.254 709.161 929.251 706.565 930.229L706.858 931.008C704.259 931.987 701.648 932.944 699.028 933.884L698.748 933.103C696.134 934.04 693.509 934.959 690.875 935.857L691.143 936.645C688.52 937.539 685.888 938.417 683.246 939.272L682.989 938.479C680.351 939.334 677.703 940.169 675.046 940.984L675.289 941.778C672.63 942.594 669.961 943.391 667.282 944.167L667.052 943.369C664.395 944.139 661.729 944.889 659.054 945.619L659.272 946.422C656.593 947.153 653.905 947.864 651.208 948.556L651.002 947.751C648.311 948.441 645.611 949.111 642.902 949.761L643.096 950.569C640.403 951.216 637.702 951.842 634.992 952.448L634.812 951.637C632.106 952.242 629.392 952.828 626.67 953.393L626.839 954.206C624.113 954.772 621.38 955.32 618.639 955.845L618.481 955.026C615.767 955.546 613.045 956.047 610.315 956.526L610.459 957.344C607.725 957.824 604.983 958.285 602.234 958.725L602.104 957.904C599.359 958.343 596.607 958.762 593.848 959.16L593.966 959.982C591.226 960.378 588.479 960.752 585.726 961.106L585.62 960.283C582.872 960.637 580.118 960.97 577.356 961.283L577.449 962.11C574.684 962.424 571.911 962.714 569.132 962.986L569.052 962.16C566.3 962.43 563.542 962.679 560.777 962.907L560.846 963.737C558.082 963.966 555.312 964.172 552.536 964.359L552.48 963.53C549.709 963.717 546.931 963.884 544.147 964.03L544.189 964.861C541.422 965.006 538.649 965.13 535.87 965.233L535.84 964.403C533.075 964.507 530.304 964.589 527.528 964.651L527.546 965.482C524.766 965.545 521.98 965.587 519.189 965.607L519.185 964.776C517.791 964.787 516.396 964.792 515 964.792C513.604 964.792 512.21 964.787 510.816 964.776L510.81 965.607C508.019 965.587 505.233 965.545 502.453 965.482L502.472 964.651C499.696 964.589 496.925 964.507 494.16 964.403L494.129 965.233C491.35 965.13 488.577 965.006 485.81 964.861L485.854 964.03C483.07 963.884 480.291 963.717 477.52 963.53L477.463 964.359C474.687 964.172 471.917 963.966 469.153 963.737L469.223 962.907C466.458 962.679 463.7 962.43 460.948 962.16L460.867 962.986C458.088 962.714 455.315 962.424 452.55 962.11L452.644 961.283C449.882 960.97 447.128 960.637 444.38 960.283L444.273 961.106C441.52 960.752 438.773 960.378 436.033 959.982L436.152 959.16C433.393 958.762 430.641 958.343 427.896 957.904L427.765 958.725C425.016 958.285 422.274 957.824 419.54 957.344L419.685 956.526C416.955 956.047 414.233 955.546 411.519 955.026L411.361 955.845H411.36C408.619 955.32 405.886 954.772 403.16 954.206L403.33 953.393C400.608 952.828 397.894 952.242 395.188 951.637L395.007 952.448C392.297 951.842 389.596 951.216 386.903 950.569L387.098 949.761C384.389 949.111 381.689 948.441 378.998 947.751L378.791 948.556C376.094 947.864 373.406 947.153 370.727 946.422L370.946 945.619C368.271 944.889 365.605 944.139 362.948 943.369L362.717 944.167C360.038 943.391 357.37 942.594 354.71 941.778L354.954 940.984C352.297 940.169 349.648 939.334 347.01 938.479L346.753 939.271C344.11 938.416 341.478 937.538 338.855 936.644L339.125 935.857C336.491 934.959 333.866 934.04 331.252 933.103L330.971 933.884C328.35 932.944 325.739 931.987 323.14 931.008L323.435 930.229C320.839 929.251 318.254 928.254 315.68 927.238L315.374 928.012C312.781 926.989 310.2 925.945 307.629 924.884L307.946 924.116C305.378 923.056 302.82 921.977 300.273 920.878L299.943 921.641C297.393 920.54 294.854 919.421 292.326 918.283L292.668 917.525C290.131 916.383 287.605 915.221 285.091 914.041L284.736 914.793C282.217 913.61 279.709 912.409 277.214 911.189L277.58 910.443C275.089 909.225 272.609 907.988 270.142 906.733L269.764 907.475C267.28 906.211 264.809 904.928 262.35 903.628L262.738 902.894C260.282 901.595 257.839 900.278 255.408 898.942L255.008 899.67C252.573 898.332 250.15 896.978 247.741 895.604L248.153 894.882C245.736 893.504 243.333 892.107 240.942 890.692L240.519 891.408C238.124 889.992 235.744 888.556 233.376 887.104L233.812 886.396C231.447 884.945 229.095 883.476 226.758 881.99L226.311 882.691C223.96 881.197 221.622 879.686 219.299 878.156H219.3L219.758 877.461C217.439 875.934 215.134 874.388 212.843 872.826L212.374 873.513C210.077 871.946 207.795 870.363 205.527 868.762L206.008 868.083C203.736 866.48 201.478 864.859 199.236 863.222L198.746 863.893C196.5 862.252 194.268 860.596 192.053 858.922L192.556 858.258C190.341 856.584 188.141 854.894 185.957 853.187L185.444 853.842C183.251 852.127 181.073 850.396 178.91 848.648L179.433 848.002C177.274 846.257 175.13 844.495 173.003 842.718L172.47 843.355C170.336 841.572 168.217 839.773 166.115 837.957L166.659 837.328C164.556 835.512 162.47 833.679 160.399 831.83L159.844 832.45C157.77 830.598 155.714 828.729 153.674 826.846L154.238 826.235C152.198 824.352 150.174 822.452 148.167 820.537L147.593 821.138C145.58 819.217 143.584 817.28 141.605 815.328L142.189 814.736C140.214 812.787 138.255 810.823 136.314 808.843L135.72 809.426C133.772 807.439 131.843 805.436 129.931 803.419L130.535 802.848C128.625 800.832 126.731 798.801 124.856 796.756L124.243 797.317C122.365 795.268 120.505 793.204 118.663 791.125L119.285 790.574C117.443 788.496 115.619 786.402 113.814 784.294L113.183 784.834C111.374 782.721 109.582 780.596 107.811 778.454L108.453 777.924C106.685 775.786 104.934 773.634 103.203 771.468L102.553 771.986C100.816 769.813 99.0994 767.625 97.4014 765.424L98.0596 764.916C96.3641 762.718 94.6879 760.506 93.0312 758.28L92.3643 758.775C90.7048 756.546 89.0645 754.303 87.4443 752.046L88.1201 751.562C86.5009 749.306 84.9016 747.036 83.3223 744.754L82.6377 745.228C81.0556 742.941 79.4929 740.642 77.9512 738.329L78.6445 737.867C77.1054 735.558 75.5863 733.236 74.0879 730.901L73.3877 731.35C71.8861 729.01 70.4055 726.657 68.9453 724.291L69.6523 723.854C68.1947 721.493 66.7577 719.119 65.3418 716.732L64.626 717.155C63.2079 714.765 61.8104 712.362 60.4346 709.947L61.1572 709.536C59.7837 707.125 58.4314 704.702 57.1006 702.267L56.3691 702.665C55.036 700.226 53.7254 697.774 52.4355 695.311L53.1729 694.925C51.8859 692.467 50.6204 689.998 49.377 687.517L48.6328 687.89C47.3875 685.405 46.1651 682.908 44.9639 680.4L45.7139 680.043C44.5149 677.54 43.3381 675.025 42.1836 672.5L41.4268 672.846C40.2716 670.319 39.1376 667.781 38.0273 665.232L38.792 664.9C37.6844 662.358 36.5985 659.804 35.5361 657.24L34.7676 657.558C33.7033 654.989 32.662 652.409 31.6436 649.819L32.418 649.516C31.4037 646.936 30.4117 644.346 29.4434 641.746L28.6641 642.036C27.6943 639.433 26.7475 636.819 25.8242 634.195L26.6094 633.92C25.6878 631.301 24.7888 628.672 23.9141 626.033L23.123 626.295C22.25 623.661 21.4013 621.018 20.5752 618.365L21.3701 618.118C20.5456 615.471 19.7449 612.814 18.9678 610.147L18.1689 610.379C17.391 607.71 16.6373 605.031 15.9072 602.344L16.709 602.126C15.9832 599.455 15.2814 596.774 14.6035 594.085L13.7959 594.287C13.1167 591.593 12.4609 588.89 11.8301 586.179L12.6416 585.991C12.0129 583.289 11.4082 580.578 10.8281 577.859L10.0146 578.032C9.43613 575.321 8.88336 572.601 8.35352 569.873L9.16895 569.715C8.64009 566.992 8.13511 564.262 7.65527 561.523L6.83594 561.666C6.35642 558.929 5.89993 556.185 5.46973 553.434L6.29297 553.306C5.86565 550.572 5.46312 547.831 5.08496 545.083L4.26074 545.196C3.88188 542.443 3.52839 539.683 3.19922 536.915L4.02441 536.817C3.69708 534.065 3.39487 531.306 3.11719 528.54L2.28906 528.622C2.01228 525.865 1.76032 523.101 1.5332 520.331L2.3623 520.265C2.1356 517.499 1.93355 514.727 1.75684 511.949L0.927734 512.001C0.751575 509.231 0.599781 506.456 0.473633 503.674L1.30469 503.638C1.17944 500.876 1.07838 498.107 1.00293 495.333L0.169922 495.356C0.094314 492.577 0.0458048 489.792 0.0205078 487.001L0.852539 486.995C0.839912 485.602 0.833008 484.208 0.833008 482.812C0.833008 481.417 0.839915 480.023 0.852539 478.631L0.0205078 478.623C0.0458103 475.832 0.0943078 473.047 0.169922 470.268L0.170898 470.269L1.00293 470.292C1.07838 467.518 1.17945 464.75 1.30469 461.988L0.473633 461.95C0.599786 459.168 0.75157 456.393 0.927734 453.623L1.75684 453.676C1.93355 450.898 2.1356 448.126 2.3623 445.36L1.5332 445.293C1.76032 442.523 2.01228 439.759 2.28906 437.002L3.11719 437.085C3.39487 434.319 3.69708 431.56 4.02441 428.808L3.19922 428.709C3.52839 425.941 3.88188 423.181 4.26074 420.428L5.08496 420.542C5.46312 417.794 5.86564 415.053 6.29297 412.319L5.46973 412.19C5.89994 409.439 6.35642 406.695 6.83594 403.958L7.65527 404.102C8.13511 401.363 8.64009 398.633 9.16895 395.91L8.35352 395.751C8.88337 393.023 9.43612 390.303 10.0146 387.592L10.8281 387.766C11.4082 385.047 12.0129 382.336 12.6416 379.634L11.8301 379.445C12.4609 376.734 13.1167 374.031 13.7959 371.337L14.6035 371.54C15.2814 368.851 15.9832 366.17 16.709 363.499L15.9072 363.28C16.6374 360.593 17.3909 357.914 18.1689 355.244L18.9678 355.478C19.7449 352.811 20.5456 350.154 21.3701 347.506L20.5752 347.259C21.4013 344.606 22.2499 341.963 23.123 339.329L23.9141 339.592C24.7888 336.953 25.6878 334.324 26.6094 331.705L25.8242 331.429C26.7475 328.805 27.6943 326.191 28.6641 323.588L29.4434 323.878C30.4117 321.278 31.4037 318.689 32.418 316.109L31.6436 315.805C32.662 313.215 33.7033 310.635 34.7676 308.066L35.5361 308.385C36.5985 305.821 37.6844 303.267 38.792 300.725L38.0273 300.392C39.1376 297.843 40.2716 295.305 41.4268 292.778L42.1836 293.125C43.3381 290.6 44.5149 288.085 45.7139 285.582L44.9639 285.223C46.165 282.715 47.3876 280.219 48.6328 277.734L49.377 278.107C50.6204 275.626 51.8859 273.157 53.1729 270.699L52.4355 270.312C53.7253 267.85 55.0362 265.398 56.3691 262.959L57.1006 263.358C58.4314 260.923 59.7837 258.5 61.1572 256.089L60.4346 255.677C61.8106 253.261 63.2086 250.858 64.627 248.468L65.3418 248.893C66.7578 246.506 68.1946 244.131 69.6523 241.77L68.9453 241.333C70.4055 238.967 71.8861 236.614 73.3877 234.274L74.0879 234.724C75.5863 232.389 77.1053 230.066 78.6445 227.757L77.9512 227.295C79.4929 224.982 81.0556 222.683 82.6377 220.396L83.3223 220.87C84.9016 218.588 86.501 216.319 88.1201 214.063L87.4443 213.578C89.0648 211.321 90.7054 209.078 92.3652 206.848L93.0322 207.345C94.6887 205.119 96.3642 202.907 98.0596 200.709L97.4014 200.2C99.0997 197.998 100.817 195.81 102.554 193.637L103.203 194.157C104.934 191.991 106.685 189.839 108.453 187.701L107.811 187.17C109.582 185.028 111.374 182.902 113.183 180.789L113.814 181.33C115.62 179.222 117.444 177.129 119.286 175.05L118.663 174.498C120.505 172.419 122.365 170.356 124.243 168.307L124.856 168.869C126.731 166.824 128.624 164.793 130.535 162.777L129.931 162.204C131.843 160.187 133.772 158.185 135.72 156.198L136.315 156.781C138.256 154.802 140.214 152.837 142.189 150.888L141.605 150.296C143.584 148.344 145.58 146.406 147.593 144.485L148.167 145.088C150.174 143.173 152.198 141.272 154.238 139.389L153.674 138.778C155.715 136.894 157.771 135.025 159.845 133.173L160.399 133.795C162.47 131.946 164.556 130.113 166.659 128.297L166.115 127.667C168.217 125.851 170.336 124.052 172.47 122.269L173.003 122.907C175.13 121.129 177.275 119.368 179.434 117.623L178.91 116.976C181.073 115.228 183.251 113.496 185.444 111.781L185.957 112.438C188.141 110.731 190.341 109.041 192.556 107.367L192.054 106.702C194.269 105.028 196.501 103.372 198.746 101.731L199.237 102.403C201.479 100.766 203.736 99.1444 206.008 97.541L205.528 96.8613C207.796 95.2608 210.078 93.6773 212.374 92.1113L212.843 92.7988C215.134 91.2366 217.439 89.6915 219.758 88.1641L219.3 87.4678C221.622 85.9381 223.96 84.427 226.311 82.9326L226.758 83.6348C229.095 82.1487 231.447 80.6802 233.812 79.2295L233.377 78.5195C235.744 77.0673 238.125 75.6323 240.519 74.2158L240.943 74.9326C243.334 73.5183 245.737 72.1214 248.154 70.7432L247.741 70.0195C250.15 68.6458 252.573 67.2916 255.008 65.9541L255.408 66.6826C257.839 65.3474 260.282 64.0301 262.738 62.7314L262.35 61.9961C264.809 60.6956 267.28 59.4119 269.764 58.1484L270.142 58.8916C272.609 57.6367 275.089 56.3996 277.58 55.1816L277.215 54.4346C279.71 53.2146 282.218 52.0136 284.737 50.8311L285.091 51.584C287.605 50.4039 290.131 49.242 292.668 48.0996L292.326 47.3408C294.854 46.2028 297.393 45.0837 299.943 43.9834L300.273 44.7471C302.82 43.6485 305.378 42.5693 307.946 41.5088L307.629 40.7402C310.2 39.6787 312.781 38.6353 315.374 37.6123L315.681 38.3867C318.255 37.371 320.839 36.3738 323.435 35.3965L323.142 34.6172L323.141 34.6162C325.74 33.6374 328.351 32.6803 330.971 31.7402L331.252 32.5225C333.866 31.5846 336.491 30.6664 339.125 29.7676L338.856 28.9795C341.479 28.0847 344.111 27.2074 346.753 26.3516L346.754 26.3525L347.011 27.1455C349.649 26.291 352.297 25.4558 354.954 24.6406L354.71 23.8457C357.37 23.0299 360.038 22.2332 362.717 21.457L362.948 22.2559C365.605 21.486 368.271 20.7362 370.946 20.0059L370.727 19.2021C373.406 18.4706 376.094 17.76 378.791 17.0684L378.998 17.874C381.689 17.1839 384.389 16.5142 387.098 15.8643L386.903 15.0547C389.596 14.4085 392.297 13.782 395.007 13.1758L395.188 13.9883C397.894 13.383 400.608 12.7975 403.33 12.2324L403.16 11.418C405.886 10.8522 408.619 10.3044 411.36 9.7793L411.361 9.78027L411.519 10.5986C414.233 10.0787 416.955 9.57827 419.685 9.09863L419.54 8.28027C422.274 7.79986 425.016 7.33914 427.765 6.89941L427.896 7.7207C430.641 7.2817 433.393 6.8629 436.152 6.46484L436.033 5.6416C438.773 5.24637 441.52 4.87216 444.273 4.51758L444.38 5.3418C447.128 4.988 449.882 4.65473 452.644 4.3418L452.55 3.51367C455.315 3.20025 458.088 2.90985 460.867 2.6377L460.948 3.46484C463.7 3.19537 466.458 2.94639 469.223 2.71777L469.153 1.88672C471.917 1.65816 474.687 1.45211 477.463 1.26465L477.52 2.09473C480.291 1.90756 483.069 1.74055 485.853 1.59473L485.81 0.762695C488.577 0.617733 491.35 0.494462 494.129 0.390625L494.16 1.22168C496.925 1.11836 499.696 1.03586 502.472 0.973633L502.453 0.141602C505.233 0.0792841 508.019 0.0374536 510.81 0.0166016L510.815 0.848633C512.209 0.838222 513.604 0.833008 515 0.833008C516.396 0.833008 517.79 0.838225 519.184 0.848633L519.189 0.0166016C521.98 0.0374486 524.766 0.0792893 527.546 0.141602L527.528 0.973633C530.304 1.03586 533.075 1.11836 535.84 1.22168L535.87 0.390625C538.649 0.494457 541.422 0.617738 544.189 0.762695L544.146 1.59473C546.93 1.74055 549.709 1.90754 552.48 2.09473L552.536 1.26465C555.312 1.45211 558.082 1.65817 560.846 1.88672L560.777 2.71777C563.542 2.94639 566.3 3.19537 569.052 3.46484L569.132 2.6377C571.911 2.90984 574.684 3.20025 577.449 3.51367L577.356 4.3418C580.118 4.65473 582.872 4.988 585.62 5.3418L585.726 4.51758C588.479 4.87215 591.226 5.24638 593.966 5.6416L593.848 6.46484C596.607 6.8629 599.359 7.2817 602.104 7.7207L602.234 6.89941C604.983 7.33913 607.725 7.79987 610.459 8.28027L610.315 9.09863C613.045 9.57827 615.767 10.0787 618.481 10.5986L618.639 9.78027V9.7793C621.38 10.3044 624.113 10.8522 626.839 11.418L626.67 12.2324C629.392 12.7975 632.106 13.383 634.812 13.9883L634.992 13.1758C637.702 13.782 640.403 14.4085 643.096 15.0547L642.902 15.8643C645.611 16.5142 648.311 17.1839 651.002 17.874L651.208 17.0684C653.905 17.76 656.593 18.4706 659.272 19.2021L659.054 20.0059C661.729 20.7363 664.395 21.486 667.052 22.2559L667.282 21.457C669.961 22.2332 672.63 23.0299 675.289 23.8457L675.046 24.6406C677.703 25.4558 680.352 26.291 682.99 27.1455L683.246 26.3525C685.889 27.2084 688.521 28.0856 691.144 28.9805L690.875 29.7676C693.509 30.6664 696.134 31.5846 698.748 32.5225L699.028 31.7402C701.649 32.6804 704.26 33.6373 706.859 34.6162V34.6172L706.565 35.3965C709.161 36.3739 711.746 37.371 714.32 38.3867L714.625 37.6123C717.218 38.6353 719.799 39.6788 722.37 40.7402L722.054 41.5088C724.622 42.5693 727.18 43.6485 729.727 44.7471L730.056 43.9834C732.606 45.0837 735.145 46.2028 737.673 47.3408L737.332 48.0996C739.869 49.242 742.395 50.4039 744.909 51.584L745.263 50.8311C747.782 52.0136 750.29 53.2146 752.785 54.4346L752.42 55.1816C754.911 56.3997 757.391 57.6366 759.858 58.8916L760.235 58.1494Z" stroke="url(#paint1_linear_1061_10986)" stroke-width="1.66654" stroke-dasharray="8.33 8.33"/>
<defs>
<linearGradient id="paint0_linear_1061_10986" x1="491.112" y1="971.905" x2="478.351" y2="74.9853" gradientUnits="userSpaceOnUse">
<stop offset="0.128613" stop-opacity="0.04"/>
<stop offset="1"/>
</linearGradient>
<linearGradient id="paint1_linear_1061_10986" x1="486.088" y1="1060.49" x2="470.999" y2="-0.0295289" gradientUnits="userSpaceOnUse">
<stop offset="0.128613" stop-opacity="0.04"/>
<stop offset="1"/>
</linearGradient>
</defs>
</svg>
