<svg width="98" height="107" viewBox="0 0 98 107" fill="none" xmlns="http://www.w3.org/2000/svg">
<path d="M9.0545 45.0656C15.3339 46.7742 21.5697 48.5699 27.1853 52.1286C23.0389 54.501 18.6205 55.339 13.9953 54.2072C7.89004 52.7163 3.25396 49.1685 0 43.5965C0.555023 43.2809 0.914157 43.0523 1.30594 42.8673C6.66028 40.3207 12.1561 40.2445 17.7716 41.877C21.7765 43.0414 25.3134 45.0765 28.5674 47.634C31.5384 49.9738 34.4659 52.368 37.4478 54.7078C39.6787 56.449 42.0621 57.9291 44.7937 58.7997C48.2979 59.9098 51.6281 59.3765 54.8385 57.755C57.483 56.4273 59.7902 54.6099 62.0538 52.738C65.6234 49.7888 69.1167 46.7307 73.1869 44.478C77.7142 41.964 82.5352 40.6146 87.7481 40.8322C90.7191 40.9519 93.5486 41.6702 96.2149 43.0197C96.4544 43.1394 96.672 43.3244 97.0529 43.5965C94.3322 48.5699 90.1859 51.7477 84.9839 53.5869C79.8145 55.4152 74.8084 54.8384 69.7262 52.1612C72.7625 50.1806 75.8314 48.929 78.9874 47.9169C82.1108 46.9157 85.2886 46.0669 88.4555 44.9568C87.3672 44.9568 86.268 44.8806 85.1798 44.9677C79.0745 45.4683 73.2522 46.981 68.1917 50.5723C63.6862 53.761 59.7793 57.5809 57.1456 62.5325C55.0126 66.5374 54.1093 70.7273 55.2738 75.2328C55.8288 77.3876 56.8845 79.2812 58.2992 80.9463C59.2896 82.0998 59.8446 83.3514 59.9969 84.8423C60.1819 86.6489 60.2146 88.4445 59.6813 90.3925C59.1698 90.1422 58.7019 89.9572 58.2883 89.6852C54.6861 87.3563 51.6607 84.4614 49.5386 80.696C48.7985 79.3791 48.1891 79.4009 47.4382 80.7504C45.2616 84.7008 42.073 87.6501 38.264 89.9681C38.0245 90.1096 37.7742 90.2293 37.2736 90.4905C37.143 89.2607 36.871 88.1616 36.958 87.0842C37.0669 85.615 37.3825 84.1458 37.7198 82.7093C37.8395 82.1978 38.2204 81.7081 38.5796 81.2836C43.0633 75.8966 43.8577 69.1602 40.3208 63.0549C34.9774 53.8263 27.2288 47.721 16.5528 45.7077C14.0824 45.2398 11.5902 44.9133 9.0545 45.0874V45.0656Z" fill="#3A96AF"/>
<path d="M48.625 0.0108768C59.7037 10.2951 61.2599 27.6423 49.9309 38.7102C50.0615 30.7113 49.7024 22.9845 48.625 15.3012C48.5162 15.3012 48.3965 15.3012 48.2876 15.2904C48.0482 19.1973 47.7544 23.1042 47.5803 27.0111C47.4061 30.8854 47.3408 34.7706 47.0796 38.6884C42.1715 33.6932 39.6358 27.6641 39.3855 20.6882C39.1243 13.56 43.7821 3.18866 48.6359 0L48.625 0.0108768Z" fill="#D97E59"/>
<path d="M57.9941 48.407C61.4875 43.5642 65.3182 38.9281 67.7342 33.3996C67.6689 33.3452 67.6145 33.2908 67.5492 33.2255C66.5698 34.3247 65.5686 35.4021 64.6 36.5121C63.5988 37.6657 62.6193 38.841 61.6399 40.0164C60.6931 41.1591 59.7571 42.3235 58.8321 43.488C57.8853 44.6742 56.9494 45.8713 55.8611 47.014C55.3278 45.4904 55.1537 43.9777 55.3278 42.4215C56.0896 35.6197 59.7245 30.6463 65.2638 26.9244C67.0813 25.7055 69.0402 24.7804 71.1623 24.2472C72.6641 23.8663 72.8383 23.9533 73.1321 25.4334C74.1442 30.4504 73.328 35.1953 70.8576 39.6464C68.7028 43.5424 65.6012 46.4372 61.3895 48.0044C60.3666 48.3853 59.2456 48.5267 58.1682 48.777L57.9832 48.407H57.9941Z" fill="#D97E59"/>
<path d="M41.2019 47.0134C37.1426 42.1488 33.203 37.4257 29.2743 32.7134C29.1981 32.7678 29.1328 32.8223 29.0566 32.8767C31.4726 38.6772 35.2707 43.5962 39.2756 48.3738C39.2103 48.4826 39.1559 48.5806 39.0906 48.6894C38.2853 48.5806 37.4582 48.5697 36.6746 48.3629C32.8874 47.3617 30.0361 44.9893 27.7181 41.9529C23.8982 36.9469 22.8426 31.2878 24.0505 25.1716C24.3009 23.9092 24.4641 23.8113 25.683 24.1813C33.8886 26.6626 39.2321 31.9625 41.3325 40.3423C41.8766 42.508 41.8875 44.7063 41.2019 47.0134Z" fill="#D97E59"/>
<path d="M61.5646 61.6182C66.9625 61.3679 72.0121 61.8576 77.0617 62.4344C76.2782 61.7161 74.9287 61.1502 72.4148 60.617C70.7279 60.2578 69.0193 59.964 67.3107 59.7463C65.6021 59.5287 63.8826 59.4525 61.8693 59.2893C62.359 58.8975 62.6638 58.571 63.0447 58.3642C68.3119 55.5129 73.5248 55.6979 78.6288 58.7451C80.6095 59.9313 82.2528 61.542 83.5696 63.4574C84.2335 64.4259 84.2008 64.6327 83.2214 65.1333C77.0073 68.3002 68.4534 68.0935 62.5767 62.7935C62.272 62.5106 62.0217 62.1732 61.5537 61.6291L61.5646 61.6182Z" fill="#3A96AF"/>
<path d="M19.84 62.3472C24.9114 62.0752 29.961 61.346 35.1086 61.6507C32.9211 67.1357 18.4905 68.9966 12.875 64.4911C15.0189 60.606 18.3164 58.2009 22.5281 56.9711C27.0118 55.6543 31.1472 56.3834 34.9236 59.2021C29.7542 59.6156 24.6176 60.0292 19.84 62.3581V62.3472Z" fill="#3A96AF"/>
<path d="M37.3491 79.183C36.7832 79.738 36.2935 80.3801 35.6623 80.8481C29.9923 84.9835 23.6585 86.5507 16.7262 85.4406C13.5266 84.9291 11.1651 83.2096 9.91355 80.1298C9.77207 79.7707 9.66324 79.4007 9.5 78.8892H37.1968L37.3491 79.183Z" fill="#D97E59"/>
<path d="M59.8555 78.8789H87.4978C86.921 81.5125 85.6151 83.4061 83.2426 84.4835C81.0334 85.4848 78.6827 85.7351 76.2994 85.6915C71.5327 85.6154 67.0925 84.4074 63.0332 81.8717C61.8253 81.1099 60.6717 80.261 59.8663 78.8789H59.8555Z" fill="#D97E59"/>
<path d="M12.5371 86.388C20.3292 89.3046 27.6751 88.1619 34.7925 84.2876C34.8686 84.5161 34.9448 84.625 34.9231 84.7229C34.6292 86.7798 34.6945 88.8148 35.1081 90.8499C35.2169 91.3723 35.0754 91.6879 34.5857 91.9056C29.6558 93.9951 24.617 95.0616 19.3171 93.538C15.6822 92.4932 13.8866 89.6637 12.548 86.3989L12.5371 86.388Z" fill="#3A96AF"/>
<path d="M62.434 84.2876C65.8186 86.3009 69.4317 87.4436 73.2733 87.8136C77.0605 88.1836 80.826 88.0095 84.5914 86.4097C84.4391 86.8668 84.3738 87.1498 84.2432 87.411C82.0666 91.8947 78.5079 94.1801 73.4909 94.191C69.8234 94.191 66.3192 93.4618 62.9346 92.0688C62.1511 91.7423 61.879 91.3723 61.9987 90.4581C62.249 88.4775 62.2925 86.475 62.434 84.2876Z" fill="#3A96AF"/>
<path d="M75.7441 36.9686C75.8965 35.7171 75.9727 34.4547 76.223 33.225C77.3004 27.9577 82.165 23.0495 87.1493 22.1245C88.39 21.8959 88.4117 21.9177 88.6076 23.1692C89.5327 29.1657 85.5713 36.1089 79.9231 38.3072C79.194 38.5902 78.4104 38.7099 77.5616 38.7752C79.8578 35.0641 82.5677 31.6905 84.3307 27.7183C81.1094 30.4172 78.7152 33.8344 76.1468 37.0775C76.0162 37.0448 75.8747 37.0013 75.7441 36.9686Z" fill="#D97E59"/>
<path d="M8.78258 22.0486C14.7464 22.288 21.6134 29.1442 21.091 37.0777C18.2397 33.7585 15.8782 30.1998 12.5371 27.5009C14.4525 31.484 17.1841 34.9665 19.698 38.7211C13.3642 38.3837 6.58425 29.993 8.7717 22.0486H8.78258Z" fill="#D97E59"/>
<path d="M62.9895 23.7791C65.3293 20.264 67.9194 17.01 69.715 13.2446C66.5155 15.8565 64.1866 19.2193 61.6509 22.5168C60.1055 17.3256 66.0693 8.60851 72.6752 8.61939C75.3959 13.6799 69.1383 23.6486 62.9895 23.7791Z" fill="#D97E59"/>
<path d="M27.6526 13.5277C29.4265 17.0973 31.8752 20.2642 33.9429 23.6596C33.8776 23.7467 33.8014 23.8337 33.7361 23.9208C32.9961 23.6705 32.2125 23.4964 31.516 23.159C27.0759 21.0477 24.7252 17.402 24.0722 12.6136C23.9307 11.5906 24.0069 10.5241 24.0722 9.49019C24.1484 8.48898 24.3116 8.39102 25.302 8.60868C30.2754 9.68608 33.3879 12.8312 35.0965 17.4999C35.6406 19.0127 35.8256 20.5907 35.5318 22.4625C34.215 20.7321 33.0832 19.1432 31.8425 17.6414C30.6019 16.1505 29.2307 14.7466 27.9247 13.3101C27.8377 13.3862 27.7397 13.4515 27.6526 13.5277Z" fill="#D97E59"/>
<path d="M48.5373 46.8182C51.5083 46.8182 53.9678 49.2342 54.0004 52.1399C54.0331 55.0673 51.4756 57.5813 48.5046 57.5595C45.4248 57.5377 43.0741 55.1653 43.0959 52.1072C43.1285 49.1253 45.5118 46.8073 48.5373 46.8182Z" fill="#3A96AF"/>
<path d="M18.708 95.5619C24.7044 97.2378 30.2764 96.0407 35.7178 93.8533C36.817 95.7795 37.84 97.5752 38.9936 99.5885C37.2306 100.122 35.5764 100.731 33.8678 101.101C32.4312 101.417 30.9294 101.558 29.4493 101.58C25.0092 101.667 21.7878 99.3382 19.0127 96.1713C18.9148 96.0625 18.8712 95.8993 18.708 95.551V95.5619Z" fill="#3A96AF"/>
<path d="M78.2141 95.7254C75.6784 98.7291 72.9577 101.33 68.7678 101.504C65.59 101.635 62.5211 101.178 59.561 100.013C59.1583 99.85 58.7665 99.6541 58.3203 99.4473C59.2889 97.5646 60.2248 95.7689 61.0737 94.1147C63.9794 94.8112 66.7871 95.6057 69.6493 96.1498C72.5006 96.6831 75.3737 96.4654 78.225 95.7254H78.2141Z" fill="#3A96AF"/>
<path d="M42.6164 100.209C44.695 98.522 46.5668 97.0202 48.4713 95.4749C50.3758 96.9658 52.3456 98.5112 54.5766 100.263C53.9454 100.786 53.3686 101.275 52.7809 101.743C52.3674 102.07 51.9538 102.385 51.5076 102.658C48.0578 104.769 48.8957 104.736 45.5112 102.581C44.4773 101.928 43.5958 101.025 42.6055 100.209H42.6164Z" fill="#3A96AF"/>
<path d="M52.9994 88.4341C54.8386 89.7509 56.7431 91.0895 58.604 92.4716C58.8108 92.624 58.9849 93.1681 58.8761 93.3749C58.1034 94.8658 57.2872 96.3241 56.3948 97.7498C56.2751 97.9457 55.6439 98.0218 55.3827 97.9021C53.4891 96.9662 51.9002 95.6167 50.4637 94.0823C50.1589 93.7667 50.0719 93.4511 50.344 93.0158C51.2581 91.5139 52.1179 89.9903 53.0102 88.445L52.9994 88.4341Z" fill="#3A96AF"/>
<path d="M51.5957 105.455C53.239 104.16 54.7953 102.897 56.4059 101.7C56.6562 101.515 57.1568 101.515 57.4942 101.613C59.1484 102.103 60.7482 102.767 62.4241 103.147C64.0892 103.528 65.8087 103.659 67.4628 103.887C63.2512 107.337 55.8074 107.609 51.5957 105.444V105.455Z" fill="#D97E59"/>
<path d="M44.0757 88.5969C45.0334 90.2402 46.002 91.8944 47.0358 93.6574C45.5231 95.3769 43.8036 96.9114 41.6815 97.9453C41.4421 98.065 40.8326 97.9017 40.6803 97.6732C39.7988 96.3455 38.9826 94.9634 38.1772 93.5812C37.9378 93.1677 37.9705 92.7759 38.4602 92.4494C40.3211 91.1979 42.1712 89.9137 44.0757 88.5969Z" fill="#3A96AF"/>
<path d="M45.4142 105.574C39.8639 107.533 34.6837 107.152 29.5361 104.018C30.9509 103.811 32.1807 103.735 33.3451 103.452C35.4129 102.941 37.4371 102.309 39.483 101.7C39.9945 101.548 40.4298 101.33 40.9304 101.765C42.3452 103.006 43.7926 104.203 45.4142 105.563V105.574Z" fill="#D97E59"/>
<path d="M48.5263 83.1665C49.3534 84.2548 50.1152 85.2234 50.8335 86.2246C50.975 86.4313 51.0729 86.7796 50.9967 86.9973C50.4308 88.7059 49.7887 90.3709 48.5046 91.9163C47.5687 90.828 47.0898 89.6091 46.4804 88.4556C45.8492 87.2693 45.9254 86.3008 46.883 85.3322C47.4816 84.7228 47.9387 83.9609 48.5263 83.1665Z" fill="#3A96AF"/>
</svg>
