<svg width="71" height="70" viewBox="0 0 71 70" fill="none" xmlns="http://www.w3.org/2000/svg">
<circle cx="36" cy="35" r="35" fill="#3A96AF" fill-opacity="0.12"/>
<path d="M35.048 38.808V41.664C35.048 43.2347 33.7627 44.52 32.192 44.52H29.336C27.7653 44.52 26.48 43.2347 26.48 41.664V38.808C26.48 37.2373 27.7653 35.952 29.336 35.952H32.192C33.7627 35.952 35.048 37.2373 35.048 38.808ZM35.048 28.336V31.192C35.048 32.7627 33.7627 34.048 32.192 34.048H29.336C27.7653 34.048 26.48 32.7627 26.48 31.192V28.336C26.48 26.7653 27.7653 25.48 29.336 25.48H32.192C33.7627 25.48 35.048 26.7653 35.048 28.336ZM45.52 38.808V41.664C45.52 43.2347 44.2347 44.52 42.664 44.52H39.808C38.2373 44.52 36.952 43.2347 36.952 41.664V38.808C36.952 37.2373 38.2373 35.952 39.808 35.952H42.664C44.2347 35.952 45.52 37.2373 45.52 38.808ZM45.52 28.336V31.192C45.52 32.7627 44.2347 34.048 42.664 34.048H39.808C38.2373 34.048 36.952 32.7627 36.952 31.192V28.336C36.952 26.7653 38.2373 25.48 39.808 25.48H42.664C44.2347 25.48 45.52 26.7653 45.52 28.336Z" fill="#3A96AF"/>
</svg>
