<svg width="20" height="20" viewBox="0 0 20 20" fill="none" xmlns="http://www.w3.org/2000/svg">
<path d="M9.04798 13.808V16.664C9.04798 18.2347 7.76269 19.52 6.19198 19.52H3.33598C1.76527 19.52 0.47998 18.2347 0.47998 16.664V13.808C0.47998 12.2373 1.76527 10.952 3.33598 10.952H6.19198C7.76269 10.952 9.04798 12.2373 9.04798 13.808ZM9.04798 3.33601V6.19201C9.04798 7.76272 7.76269 9.04801 6.19198 9.04801H3.33598C1.76527 9.04801 0.47998 7.76272 0.47998 6.19201V3.33601C0.47998 1.7653 1.76527 0.480011 3.33598 0.480011H6.19198C7.76269 0.480011 9.04798 1.7653 9.04798 3.33601ZM19.52 13.808V16.664C19.52 18.2347 18.2347 19.52 16.664 19.52H13.808C12.2373 19.52 10.952 18.2347 10.952 16.664V13.808C10.952 12.2373 12.2373 10.952 13.808 10.952H16.664C18.2347 10.952 19.52 12.2373 19.52 13.808ZM19.52 3.33601V6.19201C19.52 7.76272 18.2347 9.04801 16.664 9.04801H13.808C12.2373 9.04801 10.952 7.76272 10.952 6.19201V3.33601C10.952 1.7653 12.2373 0.480011 13.808 0.480011H16.664C18.2347 0.480011 19.52 1.7653 19.52 3.33601Z" fill="#3A96AF"/>
</svg>
