<svg width="34" height="34" viewBox="0 0 34 34" fill="none" xmlns="http://www.w3.org/2000/svg">
<path d="M9.06663 19.8333C10.2689 19.8333 11.422 19.3557 12.2722 18.5056C13.1223 17.6554 13.6 16.5023 13.6 15.3C13.6 14.0977 13.1223 12.9446 12.2722 12.0945C11.422 11.2443 10.2689 10.7667 9.06663 10.7667C7.86432 10.7667 6.71125 11.2443 5.86108 12.0945C5.01092 12.9446 4.5333 14.0977 4.5333 15.3C4.5333 16.5023 5.01092 17.6554 5.86108 18.5056C6.71125 19.3557 7.86432 19.8333 9.06663 19.8333ZM17 31.7333V28.9C17 24.3667 12.5091 21.5333 9.06663 21.5333C5.62413 21.5333 1.1333 24.3667 1.1333 28.9V31.7333H17ZM30.0333 2.83334H15.8666C15.2655 2.83334 14.6889 3.07215 14.2639 3.49723C13.8388 3.92232 13.6 4.49885 13.6 5.10001V10.2419C14.9877 11.4863 15.8666 13.2883 15.8666 15.3C15.8666 16.2792 15.6553 17.2068 15.2835 18.0483C15.4705 18.0982 15.6643 18.1333 15.8666 18.1333H20.4V20.0968C20.4 20.2543 20.4427 20.4088 20.5236 20.5439C20.6045 20.679 20.7206 20.7896 20.8595 20.8639C20.9983 20.9382 21.1548 20.9734 21.312 20.9657C21.4693 20.9581 21.6216 20.9079 21.7526 20.8205L25.7833 18.1333H30.0333C30.6345 18.1333 31.211 17.8945 31.6361 17.4695C32.0612 17.0444 32.3 16.4678 32.3 15.8667V5.10001C32.3 4.49885 32.0612 3.92232 31.6361 3.49723C31.211 3.07215 30.6345 2.83334 30.0333 2.83334Z" fill="#3A96AF"/>
</svg>
