<svg width="32" height="27" viewBox="0 0 32 27" fill="none" xmlns="http://www.w3.org/2000/svg">
<path fill-rule="evenodd" clip-rule="evenodd" d="M11.0432 20.4629C10.9893 22.3018 12.0547 22.6857 12.0547 22.6857C12.3791 22.9591 12.7658 23.1532 13.1823 23.2481C14.6089 27.6497 28.3138 27.4046 29.6667 23.2481C32.0665 22.7848 31.7959 19.9898 31.0805 17.8421C30.0747 15.1136 27.8378 12.2618 25.0937 11.2461C25.7476 10.7015 26.2737 10.0196 26.6346 9.24887C26.9954 8.47815 27.1823 7.63745 27.1818 6.78642C27.1818 3.56775 24.5539 0.958252 21.3126 0.958252C18.0713 0.958252 15.4433 3.56775 15.4433 6.78642C15.4433 8.57142 16.2508 10.1708 17.5258 11.2404C14.0068 12.6925 11.4568 16.6918 11.0432 20.4629ZM8.91959 20.3992C8.92101 20.3425 8.92526 20.2858 8.93092 20.232C9.27517 17.0913 10.8746 13.7607 13.3552 11.4586C12.6808 10.7998 11.9102 10.2686 11.0758 9.95975C11.572 9.5467 11.9713 9.0295 12.2453 8.44485C12.5192 7.8602 12.6612 7.22241 12.661 6.57675C12.661 4.13584 10.6678 2.15675 8.20842 2.15675C5.74909 2.15675 3.75584 4.13584 3.75584 6.57675C3.75584 7.93109 4.36926 9.14375 5.33542 9.9555C2.66642 11.0563 0.731256 14.0922 0.419589 16.951C0.377089 18.3464 1.18459 18.6368 1.18459 18.6368C1.43109 18.8451 1.72434 18.991 2.04026 19.0647C2.62392 20.8638 5.91201 21.6402 8.98192 21.4787C8.92874 21.1214 8.90788 20.7601 8.91959 20.3992Z" fill="#D97E59"/>
</svg>
