<svg width="34" height="34" viewBox="0 0 34 34" fill="none" xmlns="http://www.w3.org/2000/svg">
<path d="M9.91732 2.83325H8.50065C4.25065 2.83325 2.83398 5.36909 2.83398 8.49992V9.91658V29.7499C2.83398 30.9258 4.16565 31.5916 5.10065 30.8832L7.52315 29.0699C8.08982 28.6449 8.88315 28.7016 9.39315 29.2116L11.7448 31.5774C12.2973 32.1299 13.204 32.1299 13.7565 31.5774L16.1365 29.1974C16.6323 28.7016 17.4256 28.6449 17.9782 29.0699L20.4007 30.8832C21.3356 31.5774 22.6673 30.9116 22.6673 29.7499V5.66659C22.6673 4.10825 23.9423 2.83325 25.5007 2.83325H9.91732ZM9.30815 11.3758C10.0873 11.3758 10.7248 12.0133 10.7248 12.7924C10.7248 13.5716 10.0873 14.2091 9.30815 14.2091C8.52898 14.2091 7.89148 13.5716 7.89148 12.7924C7.89148 12.0133 8.52898 11.3758 9.30815 11.3758ZM16.1932 19.9466C15.3998 19.9466 14.7765 19.3091 14.7765 18.5299C14.7765 17.7508 15.414 17.1133 16.1932 17.1133C16.9723 17.1133 17.6098 17.7508 17.6098 18.5299C17.6098 19.3091 16.9723 19.9466 16.1932 19.9466ZM17.369 12.4666L9.63398 20.2016C9.42148 20.4141 9.15232 20.5133 8.88315 20.5133C8.61398 20.5133 8.34482 20.4141 8.13232 20.2016C7.72148 19.7908 7.72148 19.1108 8.13232 18.6999L15.8673 10.9649C16.2782 10.5541 16.9582 10.5541 17.369 10.9649C17.7798 11.3758 17.7798 12.0558 17.369 12.4666Z" fill="#D97E59"/>
<path d="M25.5135 2.83325V4.95825C26.4485 4.95825 27.341 5.34075 27.9927 5.97825C28.6727 6.67242 29.041 7.56492 29.041 8.49992V11.9283C29.041 12.9766 28.5735 13.4583 27.511 13.4583H24.791V5.68075C24.791 5.28409 25.1168 4.95825 25.5135 4.95825V2.83325ZM25.5135 2.83325C23.941 2.83325 22.666 4.10825 22.666 5.68075V15.5833H27.511C29.7493 15.5833 31.166 14.1666 31.166 11.9283V8.49992C31.166 6.94159 30.5285 5.52492 29.5085 4.49075C28.4743 3.47075 27.0718 2.84742 25.5135 2.83325C25.5277 2.83325 25.5135 2.83325 25.5135 2.83325Z" fill="#D97E59"/>
</svg>
