<svg width="30" height="30" viewBox="0 0 30 30" fill="none" xmlns="http://www.w3.org/2000/svg">
<path d="M20.7736 22.3312L22.3319 20.8791C22.4972 20.7138 22.5798 20.5308 22.5798 20.3301C22.5798 20.1295 22.4972 19.9464 22.3319 19.7812L16.9486 14.3978C17.0666 14.0673 17.1611 13.7485 17.2319 13.4416C17.3027 13.1347 17.3382 12.8159 17.3382 12.4853C17.3382 11.1159 16.8541 9.94717 15.8861 8.97909C14.918 8.01101 13.7492 7.527 12.3798 7.527C11.9784 7.527 11.5771 7.58601 11.1757 7.70409C10.7742 7.82216 10.3847 7.98742 10.0069 8.19992L13.1236 11.2812L11.2111 13.0874L8.16523 10.077C7.95273 10.4548 7.79336 10.8443 7.68711 11.2458C7.58086 11.6472 7.52773 12.0603 7.52773 12.4853C7.52773 13.8312 7.99998 14.9704 8.9444 15.903C9.88882 16.8357 11.034 17.302 12.3798 17.302C12.7104 17.302 13.035 17.2725 13.3538 17.2135C13.6725 17.1545 13.9972 17.0659 14.3277 16.9478L19.6756 22.3312C19.8173 22.4728 20.0003 22.5437 20.2246 22.5437C20.4489 22.5437 20.6319 22.4728 20.7736 22.3312ZM15.0007 29.1666C13.0646 29.1666 11.2347 28.7947 9.51107 28.051C7.78748 27.3072 6.28227 26.292 4.99544 25.0051C3.70863 23.7183 2.69336 22.2131 1.94961 20.4895C1.20586 18.7659 0.833984 16.936 0.833984 14.9999C0.833984 13.0402 1.20586 11.1985 1.94961 9.47492C2.69336 7.75133 3.70863 6.252 4.99544 4.977C6.28227 3.702 7.78748 2.69263 9.51107 1.94888C11.2347 1.20513 13.0646 0.833252 15.0007 0.833252C16.9604 0.833252 18.8021 1.20513 20.5257 1.94888C22.2492 2.69263 23.7486 3.702 25.0236 4.977C26.2986 6.252 27.3079 7.75133 28.0517 9.47492C28.7954 11.1985 29.1673 13.0402 29.1673 14.9999C29.1673 16.936 28.7954 18.7659 28.0517 20.4895C27.3079 22.2131 26.2986 23.7183 25.0236 25.0051C23.7486 26.292 22.2492 27.3072 20.5257 28.051C18.8021 28.7947 16.9604 29.1666 15.0007 29.1666Z" fill="#D97E59"/>
</svg>
