<svg width="34" height="34" viewBox="0 0 34 34" fill="none" xmlns="http://www.w3.org/2000/svg">
<path fill-rule="evenodd" clip-rule="evenodd" d="M2.29869 4.23344C2.94066 3.96909 3.66258 4.31917 4.11757 4.84354C4.14071 4.87021 4.1643 4.89656 4.18829 4.92252C4.50194 5.26211 4.88126 5.5345 5.30327 5.72315C5.72528 5.91182 6.1812 6.01285 6.64341 6.02011C7.10561 6.02737 7.56447 5.94075 7.99221 5.76543C8.41995 5.59013 8.80763 5.32982 9.13179 5.00028C9.45596 4.67073 9.70987 4.27878 9.87809 3.84822C10.0463 3.41766 10.1254 2.95742 10.1105 2.49541C10.1087 2.43872 10.1054 2.38217 10.1008 2.32579C10.046 1.65824 10.2825 0.92999 10.8889 0.645514L11.8872 0.177183C12.4467 -0.0560234 13.0757 -0.0591359 13.6376 0.168521C14.1995 0.396178 14.6489 0.836235 14.8884 1.39319L16.0631 4.10662C16.018 4.19679 15.9755 4.28844 15.9354 4.38148L15.9335 4.38576L8.18829 22.2764L7.34643 24.1897L0.166933 7.57671C-0.0498428 7.03885 -0.0556928 6.43899 0.15055 5.89701C0.356794 5.35502 0.759944 4.91081 1.27945 4.65312L2.29869 4.23344ZM29.7964 9.1C30.2464 8.5713 30.9684 8.22217 31.6103 8.48652L32.6871 8.92988C33.2202 9.1943 33.6338 9.65012 33.8455 10.2063C34.0571 10.7624 34.051 11.378 33.8285 11.9299L24.9086 32.5703C24.6629 33.142 24.2018 33.5935 23.6252 33.8271C23.0486 34.0607 22.4032 34.0576 21.829 33.8181L11.0502 29.2252C10.4787 28.9794 10.0271 28.5185 9.79353 27.9417C9.55993 27.3651 9.56311 26.7199 9.80242 26.1455L10.9706 23.4907L18.7224 5.58474C18.9681 5.01323 19.4293 4.56166 20.0059 4.32805C20.5824 4.09445 21.2279 4.09766 21.8021 4.33694L22.8551 4.83099C23.4615 5.11545 23.6987 5.84312 23.6379 6.51015C23.6316 6.57847 23.6274 6.64702 23.6252 6.71575C23.6099 7.18986 23.691 7.66212 23.8637 8.10395C24.0363 8.54578 24.2969 8.94795 24.6294 9.2861C24.9621 9.62428 25.3599 9.8914 25.7987 10.0713C26.2378 10.2512 26.7087 10.3401 27.183 10.3326C27.6573 10.3251 28.125 10.2215 28.5581 10.0279C28.9911 9.83428 29.3804 9.5548 29.7022 9.20633C29.7345 9.1715 29.7658 9.13604 29.7964 9.1Z" fill="#D97E59"/>
</svg>
