<svg width="61" height="62" viewBox="0 0 61 62" fill="none" xmlns="http://www.w3.org/2000/svg">
<path d="M34.0859 0.220703C38.1429 0.72008 41.9509 2.05572 45.3447 4.05664L44.8379 4.91699C45.5031 5.30917 46.1521 5.72805 46.7832 6.17188L47.3574 5.35352C48.0106 5.81284 48.6439 6.29978 49.2588 6.80957L48.623 7.57812C50.401 9.05234 52.0084 10.7391 53.4082 12.6016L54.2051 12.001C56.5674 15.1436 58.3571 18.7679 59.4131 22.708L58.4492 22.9668C58.6482 23.7094 58.8198 24.4638 58.9639 25.2285L59.9443 25.043C60.0912 25.8226 60.2087 26.6127 60.2979 27.4121L59.3076 27.5225C59.4348 28.6629 59.5 29.8235 59.5 31C59.5 32.1765 59.4348 33.3371 59.3076 34.4775L60.2979 34.5869C59.8421 38.6736 58.6188 42.5176 56.7783 45.9619L55.8984 45.4912C55.533 46.1752 55.1428 46.8432 54.7285 47.4932L55.5693 48.0283C55.1388 48.7037 54.684 49.3609 54.2051 49.998L53.4082 49.3984C52.0084 51.2609 50.401 52.9477 48.623 54.4219L49.2588 55.1895C46.1974 57.7277 42.6457 59.6598 38.7715 60.8057L38.4883 59.8477C37.7521 60.0654 37.004 60.2534 36.2451 60.4111L36.4473 61.3887C35.6705 61.5501 34.8831 61.6802 34.0859 61.7783L33.9639 60.7881C32.8285 60.9278 31.6726 61 30.5 61C29.3274 61 28.1715 60.9278 27.0361 60.7881L26.9131 61.7783C22.8561 61.2788 19.0481 59.9435 15.6543 57.9424L16.1621 57.083C15.4969 56.6908 14.8479 56.2719 14.2168 55.8281L13.6416 56.6455C12.9884 56.1861 12.3551 55.6993 11.7402 55.1895L12.377 54.4219C10.599 52.9477 8.99164 51.2609 7.5918 49.3984L6.79395 49.998C4.43183 46.8553 2.64172 43.2311 1.58594 39.291L2.55078 39.0332C2.35177 38.2906 2.18016 37.5362 2.03613 36.7715L1.05469 36.9561C0.907847 36.1764 0.790309 35.3863 0.701172 34.5869L1.69238 34.4775C1.56518 33.3371 1.5 32.1765 1.5 31C1.5 29.8235 1.56518 28.6629 1.69238 27.5225L0.701172 27.4121C1.15698 23.3256 2.38023 19.4813 4.2207 16.0371L5.10156 16.5088C5.46703 15.8248 5.85718 15.1568 6.27148 14.5068L5.42969 13.9707C5.8602 13.2953 6.31504 12.6381 6.79395 12.001L7.5918 12.6016C8.99164 10.7391 10.599 9.05234 12.377 7.57812L11.7402 6.80957C14.8015 4.27139 18.3536 2.33928 22.2275 1.19336L22.5117 2.15234C23.2479 1.93461 23.996 1.74661 24.7549 1.58887L24.5518 0.610352C25.3284 0.448909 26.1159 0.31885 26.9131 0.220703L27.0361 1.21191C28.1715 1.07216 29.3274 1 30.5 1C31.6726 1 32.8285 1.07216 33.9639 1.21191L34.0859 0.220703Z" stroke="#3A96AF" stroke-width="2" stroke-miterlimit="3.8637" stroke-linejoin="round" stroke-dasharray="6 2 2 10"/>
<ellipse cx="30.501" cy="31.0001" rx="25" ry="25.8333" fill="#D97E59"/>
<path d="M30.4997 17.8333C26.788 17.8333 23.7705 20.8508 23.7705 24.5624C23.7705 28.2033 26.618 31.1499 30.3297 31.2774C30.443 31.2633 30.5563 31.2633 30.6413 31.2774C30.6697 31.2774 30.6838 31.2774 30.7122 31.2774C30.7263 31.2774 30.7263 31.2774 30.7405 31.2774C34.3672 31.1499 37.2147 28.2033 37.2288 24.5624C37.2288 20.8508 34.2113 17.8333 30.4997 17.8333Z" fill="white"/>
<path d="M37.6964 35.0458C33.7439 32.4108 27.298 32.4108 23.3172 35.0458C21.518 36.25 20.5264 37.8792 20.5264 39.6217C20.5264 41.3642 21.518 42.9792 23.303 44.1692C25.2864 45.5008 27.893 46.1667 30.4997 46.1667C33.1064 46.1667 35.713 45.5008 37.6964 44.1692C39.4814 42.965 40.473 41.35 40.473 39.5933C40.4589 37.8508 39.4814 36.2358 37.6964 35.0458Z" fill="white"/>
</svg>
