<svg width="34" height="34" viewBox="0 0 34 34" fill="none" xmlns="http://www.w3.org/2000/svg">
<path d="M23.7288 5.04325V2.83325C23.7288 2.25242 23.2472 1.77075 22.6663 1.77075C22.0855 1.77075 21.6038 2.25242 21.6038 2.83325V4.95825H12.3955V2.83325C12.3955 2.25242 11.9138 1.77075 11.333 1.77075C10.7522 1.77075 10.2705 2.25242 10.2705 2.83325V5.04325C6.44551 5.39742 4.58967 7.67825 4.30634 11.0641C4.27801 11.4749 4.61801 11.8149 5.01467 11.8149H28.9847C29.3955 11.8149 29.7355 11.4608 29.693 11.0641C29.4097 7.67825 27.5538 5.39742 23.7288 5.04325Z" fill="#D97E59"/>
<path d="M28.3333 13.9399H5.66667C4.8875 13.9399 4.25 14.5774 4.25 15.3566V24.0833C4.25 28.3333 6.375 31.1666 11.3333 31.1666H22.6667C27.625 31.1666 29.75 28.3333 29.75 24.0833V15.3566C29.75 14.5774 29.1125 13.9399 28.3333 13.9399ZM13.0475 25.7974C12.9767 25.8541 12.9058 25.9249 12.835 25.9674C12.75 26.0241 12.665 26.0666 12.58 26.0949C12.495 26.1374 12.41 26.1658 12.325 26.1799C12.2258 26.1941 12.1408 26.2083 12.0417 26.2083C11.8575 26.2083 11.6733 26.1658 11.5033 26.0949C11.3192 26.0241 11.1775 25.9249 11.0358 25.7974C10.7808 25.5283 10.625 25.1599 10.625 24.7916C10.625 24.4233 10.7808 24.0549 11.0358 23.7858C11.1775 23.6583 11.3192 23.5591 11.5033 23.4883C11.7583 23.3749 12.0417 23.3466 12.325 23.4033C12.41 23.4174 12.495 23.4458 12.58 23.4883C12.665 23.5166 12.75 23.5591 12.835 23.6158C12.9058 23.6724 12.9767 23.7291 13.0475 23.7858C13.3025 24.0549 13.4583 24.4233 13.4583 24.7916C13.4583 25.1599 13.3025 25.5283 13.0475 25.7974ZM13.0475 20.8391C12.7783 21.0941 12.41 21.2499 12.0417 21.2499C11.6733 21.2499 11.305 21.0941 11.0358 20.8391C10.7808 20.5699 10.625 20.2016 10.625 19.8333C10.625 19.4649 10.7808 19.0966 11.0358 18.8274C11.4325 18.4308 12.0558 18.3033 12.58 18.5299C12.7642 18.6008 12.92 18.6999 13.0475 18.8274C13.3025 19.0966 13.4583 19.4649 13.4583 19.8333C13.4583 20.2016 13.3025 20.5699 13.0475 20.8391ZM18.0058 25.7974C17.7367 26.0524 17.3683 26.2083 17 26.2083C16.6317 26.2083 16.2633 26.0524 15.9942 25.7974C15.7392 25.5283 15.5833 25.1599 15.5833 24.7916C15.5833 24.4233 15.7392 24.0549 15.9942 23.7858C16.5183 23.2616 17.4817 23.2616 18.0058 23.7858C18.2608 24.0549 18.4167 24.4233 18.4167 24.7916C18.4167 25.1599 18.2608 25.5283 18.0058 25.7974ZM18.0058 20.8391C17.935 20.8958 17.8642 20.9524 17.7933 21.0091C17.7083 21.0658 17.6233 21.1083 17.5383 21.1366C17.4533 21.1791 17.3683 21.2074 17.2833 21.2216C17.1842 21.2358 17.0992 21.2499 17 21.2499C16.6317 21.2499 16.2633 21.0941 15.9942 20.8391C15.7392 20.5699 15.5833 20.2016 15.5833 19.8333C15.5833 19.4649 15.7392 19.0966 15.9942 18.8274C16.1217 18.6999 16.2775 18.6008 16.4617 18.5299C16.9858 18.3033 17.6092 18.4308 18.0058 18.8274C18.2608 19.0966 18.4167 19.4649 18.4167 19.8333C18.4167 20.2016 18.2608 20.5699 18.0058 20.8391ZM22.9642 25.7974C22.695 26.0524 22.3267 26.2083 21.9583 26.2083C21.59 26.2083 21.2217 26.0524 20.9525 25.7974C20.6975 25.5283 20.5417 25.1599 20.5417 24.7916C20.5417 24.4233 20.6975 24.0549 20.9525 23.7858C21.4767 23.2616 22.44 23.2616 22.9642 23.7858C23.2192 24.0549 23.375 24.4233 23.375 24.7916C23.375 25.1599 23.2192 25.5283 22.9642 25.7974ZM22.9642 20.8391C22.8933 20.8958 22.8225 20.9524 22.7517 21.0091C22.6667 21.0658 22.5817 21.1083 22.4967 21.1366C22.4117 21.1791 22.3267 21.2074 22.2417 21.2216C22.1425 21.2358 22.0433 21.2499 21.9583 21.2499C21.59 21.2499 21.2217 21.0941 20.9525 20.8391C20.6975 20.5699 20.5417 20.2016 20.5417 19.8333C20.5417 19.4649 20.6975 19.0966 20.9525 18.8274C21.0942 18.6999 21.2358 18.6008 21.42 18.5299C21.675 18.4166 21.9583 18.3883 22.2417 18.4449C22.3267 18.4591 22.4117 18.4874 22.4967 18.5299C22.5817 18.5583 22.6667 18.6008 22.7517 18.6574C22.8225 18.7141 22.8933 18.7708 22.9642 18.8274C23.2192 19.0966 23.375 19.4649 23.375 19.8333C23.375 20.2016 23.2192 20.5699 22.9642 20.8391Z" fill="#D97E59"/>
</svg>
