<svg width="60" height="62" viewBox="0 0 60 62" fill="none" xmlns="http://www.w3.org/2000/svg">
<path d="M33.5859 0.220703C37.6429 0.72008 41.4509 2.05572 44.8447 4.05664L44.3379 4.91699C45.0031 5.30917 45.6521 5.72805 46.2832 6.17188L46.8574 5.35352C47.5106 5.81284 48.1439 6.29978 48.7588 6.80957L48.123 7.57812C49.901 9.05234 51.5084 10.7391 52.9082 12.6016L53.7051 12.001C56.0674 15.1436 57.8571 18.7679 58.9131 22.708L57.9492 22.9668C58.1482 23.7094 58.3198 24.4638 58.4639 25.2285L59.4443 25.043C59.5912 25.8226 59.7087 26.6127 59.7979 27.4121L58.8076 27.5225C58.9348 28.6629 59 29.8235 59 31C59 32.1765 58.9348 33.3371 58.8076 34.4775L59.7979 34.5869C59.3421 38.6736 58.1188 42.5176 56.2783 45.9619L55.3984 45.4912C55.033 46.1752 54.6428 46.8432 54.2285 47.4932L55.0693 48.0283C54.6388 48.7037 54.184 49.3609 53.7051 49.998L52.9082 49.3984C51.5084 51.2609 49.901 52.9477 48.123 54.4219L48.7588 55.1895C45.6974 57.7277 42.1457 59.6598 38.2715 60.8057L37.9883 59.8477C37.2521 60.0654 36.504 60.2534 35.7451 60.4111L35.9473 61.3887C35.1705 61.5501 34.3831 61.6802 33.5859 61.7783L33.4639 60.7881C32.3285 60.9278 31.1726 61 30 61C28.8274 61 27.6715 60.9278 26.5361 60.7881L26.4131 61.7783C22.3561 61.2788 18.5481 59.9435 15.1543 57.9424L15.6621 57.083C14.9969 56.6908 14.3479 56.2719 13.7168 55.8281L13.1416 56.6455C12.4884 56.1861 11.8551 55.6993 11.2402 55.1895L11.877 54.4219C10.099 52.9477 8.49164 51.2609 7.0918 49.3984L6.29395 49.998C3.93183 46.8553 2.14172 43.2311 1.08594 39.291L2.05078 39.0332C1.85177 38.2906 1.68016 37.5362 1.53613 36.7715L0.554688 36.9561C0.407847 36.1764 0.290309 35.3863 0.201172 34.5869L1.19238 34.4775C1.06518 33.3371 1 32.1765 1 31C1 29.8235 1.06518 28.6629 1.19238 27.5225L0.201172 27.4121C0.656977 23.3256 1.88023 19.4813 3.7207 16.0371L4.60156 16.5088C4.96703 15.8248 5.35718 15.1568 5.77148 14.5068L4.92969 13.9707C5.3602 13.2953 5.81504 12.6381 6.29395 12.001L7.0918 12.6016C8.49164 10.7391 10.099 9.05234 11.877 7.57812L11.2402 6.80957C14.3015 4.27139 17.8536 2.33928 21.7275 1.19336L22.0117 2.15234C22.7479 1.93461 23.496 1.74661 24.2549 1.58887L24.0518 0.610352C24.8284 0.448909 25.6159 0.31885 26.4131 0.220703L26.5361 1.21191C27.6715 1.07216 28.8274 1 30 1C31.1726 1 32.3285 1.07216 33.4639 1.21191L33.5859 0.220703Z" stroke="#3A96AF" stroke-width="2" stroke-miterlimit="3.8637" stroke-linejoin="round" stroke-dasharray="6 2 2 10"/>
<ellipse cx="30.001" cy="31.0001" rx="25" ry="25.8333" fill="#D97E59"/>
<path d="M33.6224 21.8044V26.6329H31.7164V21.8044C31.7164 21.4613 31.4114 21.2961 31.2081 21.2961C31.1446 21.2961 31.081 21.3088 31.0175 21.3343L20.9412 25.1335C20.2677 25.3877 19.8357 26.023 19.8357 26.7473V27.5986C18.6794 28.4627 17.9297 29.8477 17.9297 31.4106V26.7473C17.9297 25.2352 18.8573 23.8883 20.2677 23.3546L30.3568 19.5426C30.6363 19.441 30.9286 19.3901 31.2081 19.3901C32.4788 19.3901 33.6224 20.4194 33.6224 21.8044Z" fill="white"/>
<path d="M42.0717 35.21V36.4807C42.0717 36.8238 41.8049 37.1033 41.4491 37.116H39.5939C38.9205 37.116 38.3105 36.6205 38.2597 35.9597C38.2216 35.5658 38.3741 35.1973 38.6282 34.9432C38.8569 34.7018 39.1746 34.5747 39.5177 34.5747H41.4364C41.8049 34.5874 42.0717 34.867 42.0717 35.21Z" fill="white"/>
<path d="M39.5055 33.2405H40.8016C41.5005 33.2405 42.0723 32.6687 42.0723 31.9698V31.4107C42.0723 28.7805 39.9249 26.6331 37.2946 26.6331H22.7074C21.6273 26.6331 20.6362 26.9888 19.8357 27.5988C18.6794 28.4628 17.9297 29.8478 17.9297 31.4107V39.9623C17.9297 42.5926 20.0771 44.74 22.7074 44.74H37.2946C39.9249 44.74 42.0723 42.5926 42.0723 39.9623V39.7209C42.0723 39.022 41.5005 38.4502 40.8016 38.4502H39.6961C38.4763 38.4502 37.3073 37.7005 36.9896 36.5188C36.7228 35.5531 37.0405 34.6255 37.6758 34.0029C38.1459 33.52 38.794 33.2405 39.5055 33.2405ZM32.5423 32.9864H23.6477C23.1267 32.9864 22.6947 32.5543 22.6947 32.0334C22.6947 31.5124 23.1267 31.0804 23.6477 31.0804H32.5423C33.0633 31.0804 33.4953 31.5124 33.4953 32.0334C33.4953 32.5543 33.0633 32.9864 32.5423 32.9864Z" fill="white"/>
</svg>
