<svg width="61" height="62" viewBox="0 0 61 62" fill="none" xmlns="http://www.w3.org/2000/svg">
<path d="M34.0859 0.220703C38.1429 0.72008 41.9509 2.05572 45.3447 4.05664L44.8379 4.91699C45.5031 5.30917 46.1521 5.72805 46.7832 6.17188L47.3574 5.35352C48.0106 5.81284 48.6439 6.29978 49.2588 6.80957L48.623 7.57812C50.401 9.05234 52.0084 10.7391 53.4082 12.6016L54.2051 12.001C56.5674 15.1436 58.3571 18.7679 59.4131 22.708L58.4492 22.9668C58.6482 23.7094 58.8198 24.4638 58.9639 25.2285L59.9443 25.043C60.0912 25.8226 60.2087 26.6127 60.2979 27.4121L59.3076 27.5225C59.4348 28.6629 59.5 29.8235 59.5 31C59.5 32.1765 59.4348 33.3371 59.3076 34.4775L60.2979 34.5869C59.8421 38.6736 58.6188 42.5176 56.7783 45.9619L55.8984 45.4912C55.533 46.1752 55.1428 46.8432 54.7285 47.4932L55.5693 48.0283C55.1388 48.7037 54.684 49.3609 54.2051 49.998L53.4082 49.3984C52.0084 51.2609 50.401 52.9477 48.623 54.4219L49.2588 55.1895C46.1974 57.7277 42.6457 59.6598 38.7715 60.8057L38.4883 59.8477C37.7521 60.0654 37.004 60.2534 36.2451 60.4111L36.4473 61.3887C35.6705 61.5501 34.8831 61.6802 34.0859 61.7783L33.9639 60.7881C32.8285 60.9278 31.6726 61 30.5 61C29.3274 61 28.1715 60.9278 27.0361 60.7881L26.9131 61.7783C22.8561 61.2788 19.0481 59.9435 15.6543 57.9424L16.1621 57.083C15.4969 56.6908 14.8479 56.2719 14.2168 55.8281L13.6416 56.6455C12.9884 56.1861 12.3551 55.6993 11.7402 55.1895L12.377 54.4219C10.599 52.9477 8.99164 51.2609 7.5918 49.3984L6.79395 49.998C4.43183 46.8553 2.64172 43.2311 1.58594 39.291L2.55078 39.0332C2.35177 38.2906 2.18016 37.5362 2.03613 36.7715L1.05469 36.9561C0.907847 36.1764 0.790309 35.3863 0.701172 34.5869L1.69238 34.4775C1.56518 33.3371 1.5 32.1765 1.5 31C1.5 29.8235 1.56518 28.6629 1.69238 27.5225L0.701172 27.4121C1.15698 23.3256 2.38023 19.4813 4.2207 16.0371L5.10156 16.5088C5.46703 15.8248 5.85718 15.1568 6.27148 14.5068L5.42969 13.9707C5.8602 13.2953 6.31504 12.6381 6.79395 12.001L7.5918 12.6016C8.99164 10.7391 10.599 9.05234 12.377 7.57812L11.7402 6.80957C14.8015 4.27139 18.3536 2.33928 22.2275 1.19336L22.5117 2.15234C23.2479 1.93461 23.996 1.74661 24.7549 1.58887L24.5518 0.610352C25.3284 0.448909 26.1159 0.31885 26.9131 0.220703L27.0361 1.21191C28.1715 1.07216 29.3274 1 30.5 1C31.6726 1 32.8285 1.07216 33.9639 1.21191L34.0859 0.220703Z" stroke="#3A96AF" stroke-width="2" stroke-miterlimit="3.8637" stroke-linejoin="round" stroke-dasharray="6 2 2 10"/>
<ellipse cx="30.501" cy="31.0001" rx="25" ry="25.8333" fill="#D97E59"/>
<path d="M37.2298 20.0433V17.8333C37.2298 17.2524 36.7481 16.7708 36.1673 16.7708C35.5865 16.7708 35.1048 17.2524 35.1048 17.8333V19.9583H25.8965V17.8333C25.8965 17.2524 25.4148 16.7708 24.834 16.7708C24.2532 16.7708 23.7715 17.2524 23.7715 17.8333V20.0433C19.9465 20.3974 18.0907 22.6783 17.8073 26.0641C17.779 26.4749 18.119 26.8149 18.5157 26.8149H42.4856C42.8965 26.8149 43.2365 26.4608 43.194 26.0641C42.9106 22.6783 41.0548 20.3974 37.2298 20.0433Z" fill="white"/>
<path d="M41.8343 28.9399H19.1676C18.3885 28.9399 17.751 29.5774 17.751 30.3566V39.0833C17.751 43.3333 19.876 46.1666 24.8343 46.1666H36.1676C41.126 46.1666 43.251 43.3333 43.251 39.0833V30.3566C43.251 29.5774 42.6135 28.9399 41.8343 28.9399ZM26.5485 40.7974C26.4776 40.8541 26.4068 40.9249 26.336 40.9674C26.251 41.0241 26.166 41.0666 26.081 41.0949C25.996 41.1374 25.911 41.1658 25.826 41.1799C25.7268 41.1941 25.6418 41.2083 25.5426 41.2083C25.3585 41.2083 25.1743 41.1658 25.0043 41.0949C24.8201 41.0241 24.6785 40.9249 24.5368 40.7974C24.2818 40.5283 24.126 40.1599 24.126 39.7916C24.126 39.4233 24.2818 39.0549 24.5368 38.7858C24.6785 38.6583 24.8201 38.5591 25.0043 38.4883C25.2593 38.3749 25.5426 38.3466 25.826 38.4033C25.911 38.4174 25.996 38.4458 26.081 38.4883C26.166 38.5166 26.251 38.5591 26.336 38.6158C26.4068 38.6724 26.4776 38.7291 26.5485 38.7858C26.8035 39.0549 26.9593 39.4233 26.9593 39.7916C26.9593 40.1599 26.8035 40.5283 26.5485 40.7974ZM26.5485 35.8391C26.2793 36.0941 25.911 36.2499 25.5426 36.2499C25.1743 36.2499 24.806 36.0941 24.5368 35.8391C24.2818 35.5699 24.126 35.2016 24.126 34.8333C24.126 34.4649 24.2818 34.0966 24.5368 33.8274C24.9335 33.4308 25.5568 33.3033 26.081 33.5299C26.2651 33.6008 26.421 33.6999 26.5485 33.8274C26.8035 34.0966 26.9593 34.4649 26.9593 34.8333C26.9593 35.2016 26.8035 35.5699 26.5485 35.8391ZM31.5068 40.7974C31.2376 41.0524 30.8693 41.2083 30.501 41.2083C30.1326 41.2083 29.7643 41.0524 29.4951 40.7974C29.2401 40.5283 29.0843 40.1599 29.0843 39.7916C29.0843 39.4233 29.2401 39.0549 29.4951 38.7858C30.0193 38.2616 30.9826 38.2616 31.5068 38.7858C31.7618 39.0549 31.9176 39.4233 31.9176 39.7916C31.9176 40.1599 31.7618 40.5283 31.5068 40.7974ZM31.5068 35.8391C31.436 35.8958 31.3651 35.9524 31.2943 36.0091C31.2093 36.0658 31.1243 36.1083 31.0393 36.1366C30.9543 36.1791 30.8693 36.2074 30.7843 36.2216C30.6851 36.2358 30.6001 36.2499 30.501 36.2499C30.1326 36.2499 29.7643 36.0941 29.4951 35.8391C29.2401 35.5699 29.0843 35.2016 29.0843 34.8333C29.0843 34.4649 29.2401 34.0966 29.4951 33.8274C29.6226 33.6999 29.7785 33.6008 29.9626 33.5299C30.4868 33.3033 31.1101 33.4308 31.5068 33.8274C31.7618 34.0966 31.9176 34.4649 31.9176 34.8333C31.9176 35.2016 31.7618 35.5699 31.5068 35.8391ZM36.4651 40.7974C36.196 41.0524 35.8276 41.2083 35.4593 41.2083C35.091 41.2083 34.7226 41.0524 34.4535 40.7974C34.1985 40.5283 34.0426 40.1599 34.0426 39.7916C34.0426 39.4233 34.1985 39.0549 34.4535 38.7858C34.9776 38.2616 35.941 38.2616 36.4651 38.7858C36.7201 39.0549 36.876 39.4233 36.876 39.7916C36.876 40.1599 36.7201 40.5283 36.4651 40.7974ZM36.4651 35.8391C36.3943 35.8958 36.3235 35.9524 36.2526 36.0091C36.1676 36.0658 36.0826 36.1083 35.9976 36.1366C35.9126 36.1791 35.8276 36.2074 35.7426 36.2216C35.6435 36.2358 35.5443 36.2499 35.4593 36.2499C35.091 36.2499 34.7226 36.0941 34.4535 35.8391C34.1985 35.5699 34.0426 35.2016 34.0426 34.8333C34.0426 34.4649 34.1985 34.0966 34.4535 33.8274C34.5951 33.6999 34.7368 33.6008 34.921 33.5299C35.176 33.4166 35.4593 33.3883 35.7426 33.4449C35.8276 33.4591 35.9126 33.4874 35.9976 33.5299C36.0826 33.5583 36.1676 33.6008 36.2526 33.6574C36.3235 33.7141 36.3943 33.7708 36.4651 33.8274C36.7201 34.0966 36.876 34.4649 36.876 34.8333C36.876 35.2016 36.7201 35.5699 36.4651 35.8391Z" fill="white"/>
</svg>
