<svg width="34" height="34" viewBox="0 0 34 34" fill="none" xmlns="http://www.w3.org/2000/svg">
<path fill-rule="evenodd" clip-rule="evenodd" d="M14.658 25.3408C14.5853 25.3224 14.5171 25.2897 14.4571 25.2447C14.3972 25.1998 14.3468 25.1433 14.3089 25.0787C14.2709 25.0141 14.2462 24.9425 14.2361 24.8683C14.2261 24.794 14.2308 24.7185 14.2502 24.6461C14.2695 24.5737 14.3031 24.5059 14.3488 24.4465C14.3946 24.3872 14.4517 24.3375 14.5168 24.3004C14.5819 24.2634 14.6538 24.2396 14.7282 24.2305C14.8025 24.2214 14.878 24.2271 14.9501 24.2474C16.3808 24.6307 17.7987 25.0913 19.2491 25.3912C19.9954 25.4826 20.6122 25.2441 20.8192 24.4717C21.0075 23.7692 20.5646 23.1063 19.9006 22.8769C17.9165 22.5139 15.9897 21.8174 14.4747 21.2697C12.2727 20.4736 11.6799 20.2906 9.50943 21.5473L5.43371 23.907L8.72744 29.7269L9.19829 29.455C9.3275 29.3806 9.481 29.3605 9.62502 29.3992L18.3277 31.7292C19.4297 32.0246 20.4731 31.8909 21.4476 31.2911C25.4466 28.8292 29.4463 26.3681 33.4451 23.9057C34.0629 23.5253 34.1444 22.4901 33.7782 21.9001C32.9754 20.6066 30.7663 21.6721 29.8398 22.2116L23.2287 26.0622C22.1901 26.6671 21.09 26.833 19.9097 26.6441C18.0922 26.3384 16.4227 25.8135 14.658 25.3408ZM21.5551 5.2948L23.7409 6.55679L16.9851 10.4572V13.4064C16.9846 13.4438 16.9942 13.4806 17.0129 13.513C17.0316 13.5454 17.0587 13.5721 17.0914 13.5904L18.6256 14.4762C18.7677 14.5583 18.9443 14.4563 18.9443 14.2922V11.5884L25.7002 7.6879L27.886 8.94989C28.0212 9.02794 28.0985 9.16188 28.0985 9.31791V16.6282C28.0985 16.7842 28.0212 16.9181 27.886 16.9962L21.5552 20.6513C21.42 20.7294 21.2653 20.7294 21.1302 20.6513L14.7993 16.9962C14.6642 16.9181 14.5869 16.7842 14.5869 16.6282V9.31791C14.5869 9.16188 14.6642 9.02794 14.7993 8.94989L21.1302 5.2948C21.2653 5.21675 21.42 5.21675 21.5551 5.2948ZM25.9202 2.08882C25.9728 2.03621 26.0352 1.99448 26.1039 1.966C26.1727 1.93753 26.2463 1.92287 26.3207 1.92287C26.3951 1.92287 26.4688 1.93753 26.5375 1.966C26.6063 1.99448 26.6687 2.03621 26.7213 2.08882C26.774 2.14143 26.8157 2.20388 26.8442 2.27262C26.8726 2.34135 26.8873 2.41502 26.8873 2.48942C26.8873 2.56382 26.8726 2.63749 26.8442 2.70623C26.8157 2.77496 26.774 2.83741 26.7213 2.89002L25.0529 4.55849C25.0003 4.6111 24.9378 4.65284 24.8691 4.68131C24.8004 4.70979 24.7267 4.72444 24.6523 4.72444C24.5779 4.72444 24.5042 4.70979 24.4355 4.68131C24.3667 4.65284 24.3043 4.6111 24.2517 4.55849C24.1991 4.50588 24.1573 4.44343 24.1289 4.3747C24.1004 4.30596 24.0857 4.23229 24.0857 4.15789C24.0857 4.08349 24.1004 4.00982 24.1289 3.94108C24.1573 3.87235 24.1991 3.8099 24.2517 3.75729L25.9202 2.08882ZM15.9639 2.89002C15.9113 2.83741 15.8695 2.77496 15.8411 2.70623C15.8126 2.63749 15.7979 2.56382 15.7979 2.48942C15.7979 2.41502 15.8126 2.34135 15.8411 2.27262C15.8695 2.20388 15.9113 2.14143 15.9639 2.08882C16.0165 2.03621 16.0789 1.99448 16.1477 1.966C16.2164 1.93753 16.2901 1.92287 16.3645 1.92287C16.4389 1.92287 16.5126 1.93753 16.5813 1.966C16.65 1.99448 16.7125 2.03621 16.7651 2.08882L18.4335 3.75729C18.4862 3.8099 18.5279 3.87235 18.5564 3.94108C18.5848 4.00982 18.5995 4.08349 18.5995 4.15789C18.5995 4.23229 18.5848 4.30596 18.5564 4.3747C18.5279 4.44343 18.4862 4.50588 18.4335 4.55849C18.3809 4.6111 18.3185 4.65284 18.2498 4.68131C18.181 4.70979 18.1073 4.72444 18.0329 4.72444C17.9585 4.72444 17.8849 4.70979 17.8161 4.68131C17.7474 4.65284 17.685 4.6111 17.6323 4.55849L15.9639 2.89002ZM20.776 0.566615C20.776 0.416339 20.8357 0.272218 20.942 0.165958C21.0482 0.0596967 21.1923 0 21.3426 0C21.4929 0 21.637 0.0596967 21.7433 0.165958C21.8495 0.272218 21.9092 0.416339 21.9092 0.566615V2.92614C21.9092 3.07642 21.8495 3.22054 21.7433 3.3268C21.637 3.43306 21.4929 3.49275 21.3426 3.49275C21.1923 3.49275 21.0482 3.43306 20.942 3.3268C20.8357 3.22054 20.776 3.07642 20.776 2.92614V0.566615ZM3.54178 22.8647L8.79798 32.1521C9.05211 32.6011 8.8926 33.1765 8.44356 33.4306L6.65568 34.4425C6.20664 34.6966 5.63124 34.5371 5.37711 34.0881L0.120985 24.8008C-0.133142 24.3518 0.0262894 23.7764 0.475402 23.5222L2.26321 22.5104C2.71226 22.2562 3.28765 22.4157 3.54178 22.8647ZM2.40756 24.3824C2.24005 24.4069 2.08913 24.497 1.988 24.6327C1.88687 24.7685 1.84382 24.9389 1.86832 25.1064C1.89281 25.2739 1.98285 25.4248 2.11862 25.5259C2.25438 25.6271 2.42476 25.6701 2.59227 25.6456C2.75816 25.6193 2.907 25.5287 3.00651 25.3934C3.10603 25.258 3.1482 25.089 3.1239 24.9228C3.0996 24.7566 3.01077 24.6067 2.87668 24.5055C2.74259 24.4044 2.57404 24.3601 2.40756 24.3824Z" fill="#D97E59"/>
</svg>
