<svg width="61" height="62" viewBox="0 0 61 62" fill="none" xmlns="http://www.w3.org/2000/svg">
<path d="M34.0859 0.220703C38.1429 0.72008 41.9509 2.05572 45.3447 4.05664L44.8379 4.91699C45.5031 5.30917 46.1521 5.72805 46.7832 6.17188L47.3574 5.35352C48.0106 5.81284 48.6439 6.29978 49.2588 6.80957L48.623 7.57812C50.401 9.05234 52.0084 10.7391 53.4082 12.6016L54.2051 12.001C56.5674 15.1436 58.3571 18.7679 59.4131 22.708L58.4492 22.9668C58.6482 23.7094 58.8198 24.4638 58.9639 25.2285L59.9443 25.043C60.0912 25.8226 60.2087 26.6127 60.2979 27.4121L59.3076 27.5225C59.4348 28.6629 59.5 29.8235 59.5 31C59.5 32.1765 59.4348 33.3371 59.3076 34.4775L60.2979 34.5869C59.8421 38.6736 58.6188 42.5176 56.7783 45.9619L55.8984 45.4912C55.533 46.1752 55.1428 46.8432 54.7285 47.4932L55.5693 48.0283C55.1388 48.7037 54.684 49.3609 54.2051 49.998L53.4082 49.3984C52.0084 51.2609 50.401 52.9477 48.623 54.4219L49.2588 55.1895C46.1974 57.7277 42.6457 59.6598 38.7715 60.8057L38.4883 59.8477C37.7521 60.0654 37.004 60.2534 36.2451 60.4111L36.4473 61.3887C35.6705 61.5501 34.8831 61.6802 34.0859 61.7783L33.9639 60.7881C32.8285 60.9278 31.6726 61 30.5 61C29.3274 61 28.1715 60.9278 27.0361 60.7881L26.9131 61.7783C22.8561 61.2788 19.0481 59.9435 15.6543 57.9424L16.1621 57.083C15.4969 56.6908 14.8479 56.2719 14.2168 55.8281L13.6416 56.6455C12.9884 56.1861 12.3551 55.6993 11.7402 55.1895L12.377 54.4219C10.599 52.9477 8.99164 51.2609 7.5918 49.3984L6.79395 49.998C4.43183 46.8553 2.64172 43.2311 1.58594 39.291L2.55078 39.0332C2.35177 38.2906 2.18016 37.5362 2.03613 36.7715L1.05469 36.9561C0.907847 36.1764 0.790309 35.3863 0.701172 34.5869L1.69238 34.4775C1.56518 33.3371 1.5 32.1765 1.5 31C1.5 29.8235 1.56518 28.6629 1.69238 27.5225L0.701172 27.4121C1.15698 23.3256 2.38023 19.4813 4.2207 16.0371L5.10156 16.5088C5.46703 15.8248 5.85718 15.1568 6.27148 14.5068L5.42969 13.9707C5.8602 13.2953 6.31504 12.6381 6.79395 12.001L7.5918 12.6016C8.99164 10.7391 10.599 9.05234 12.377 7.57812L11.7402 6.80957C14.8015 4.27139 18.3536 2.33928 22.2275 1.19336L22.5117 2.15234C23.2479 1.93461 23.996 1.74661 24.7549 1.58887L24.5518 0.610352C25.3284 0.448909 26.1159 0.31885 26.9131 0.220703L27.0361 1.21191C28.1715 1.07216 29.3274 1 30.5 1C31.6726 1 32.8285 1.07216 33.9639 1.21191L34.0859 0.220703Z" stroke="#3A96AF" stroke-width="2" stroke-miterlimit="3.8637" stroke-linejoin="round" stroke-dasharray="6 2 2 10"/>
<ellipse cx="30.501" cy="31.0001" rx="25" ry="25.8333" fill="#D97E59"/>
<path fill-rule="evenodd" clip-rule="evenodd" d="M29.1861 35.2697C29.1861 34.4858 28.8749 33.7344 28.3204 33.181C28.0463 32.9064 27.7207 32.6887 27.3623 32.5401C27.0039 32.3916 26.6197 32.3152 26.2317 32.3153H19.3382C18.5543 32.3153 17.8029 32.6265 17.2494 33.181C16.9749 33.4551 16.7571 33.7807 16.6086 34.1391C16.46 34.4975 16.3837 34.8817 16.3838 35.2697V42.1632C16.3838 42.9471 16.695 43.6985 17.2494 44.252C17.5236 44.5265 17.8492 44.7443 18.2076 44.8928C18.566 45.0414 18.9502 45.1178 19.3382 45.1176H26.2317C27.0156 45.1176 27.767 44.8064 28.3204 44.252C28.595 43.9778 28.8127 43.6522 28.9613 43.2938C29.1098 42.9354 29.1862 42.5512 29.1861 42.1632V35.2697ZM43.9579 35.2697C43.9579 34.4858 43.6467 33.7344 43.0923 33.181C42.8182 32.9064 42.4926 32.6887 42.1341 32.5401C41.7757 32.3916 41.3915 32.3152 41.0036 32.3153H34.11C33.3261 32.3153 32.5747 32.6265 32.0213 33.181C31.7468 33.4551 31.529 33.7807 31.3804 34.1391C31.2319 34.4975 31.1555 34.8817 31.1557 35.2697V42.1632C31.1557 42.9471 31.4668 43.6985 32.0213 44.252C32.2954 44.5265 32.621 44.7443 32.9794 44.8928C33.3379 45.0414 33.7221 45.1178 34.11 45.1176H41.0036C41.7875 45.1176 42.5389 44.8064 43.0923 44.252C43.3668 43.9778 43.5846 43.6522 43.7331 43.2938C43.8817 42.9354 43.9581 42.5512 43.9579 42.1632V35.2697ZM39.6455 30.1419L43.7541 26.0334C44.3079 25.4793 44.6191 24.728 44.6191 23.9446C44.6191 23.1612 44.3079 22.4099 43.7541 21.8559L39.6455 17.7473C39.0915 17.1935 38.3402 16.8823 37.5568 16.8823C36.7734 16.8823 36.0221 17.1935 35.4681 17.7473L31.3595 21.8559C30.8056 22.4099 30.4945 23.1612 30.4945 23.9446C30.4945 24.728 30.8056 25.4793 31.3595 26.0334L35.4681 30.1419C36.0221 30.6958 36.7734 31.0069 37.5568 31.0069C38.3402 31.0069 39.0915 30.6958 39.6455 30.1419ZM29.1861 20.4978C29.1861 19.714 28.8749 18.9626 28.3204 18.4091C28.0463 18.1346 27.7207 17.9168 27.3623 17.7683C27.0039 17.6197 26.6197 17.5433 26.2317 17.5435H19.3382C18.5543 17.5435 17.8029 17.8547 17.2494 18.4091C16.9749 18.6833 16.7571 19.0089 16.6086 19.3673C16.46 19.7257 16.3837 20.1099 16.3838 20.4978V27.3914C16.3838 28.1753 16.695 28.9267 17.2494 29.4801C17.5236 29.7547 17.8492 29.9724 18.2076 30.121C18.566 30.2695 18.9502 30.3459 19.3382 30.3458H26.2317C27.0156 30.3458 27.767 30.0346 28.3204 29.4801C28.595 29.206 28.8127 28.8804 28.9613 28.522C29.1098 28.1635 29.1862 27.7794 29.1861 27.3914V20.4978Z" fill="white"/>
</svg>
