<svg width="61" height="62" viewBox="0 0 61 62" fill="none" xmlns="http://www.w3.org/2000/svg">
<path d="M34.0859 0.220703C38.1429 0.72008 41.9509 2.05572 45.3447 4.05664L44.8379 4.91699C45.5031 5.30917 46.1521 5.72805 46.7832 6.17188L47.3574 5.35352C48.0106 5.81284 48.6439 6.29978 49.2588 6.80957L48.623 7.57812C50.401 9.05234 52.0084 10.7391 53.4082 12.6016L54.2051 12.001C56.5674 15.1436 58.3571 18.7679 59.4131 22.708L58.4492 22.9668C58.6482 23.7094 58.8198 24.4638 58.9639 25.2285L59.9443 25.043C60.0912 25.8226 60.2087 26.6127 60.2979 27.4121L59.3076 27.5225C59.4348 28.6629 59.5 29.8235 59.5 31C59.5 32.1765 59.4348 33.3371 59.3076 34.4775L60.2979 34.5869C59.8421 38.6736 58.6188 42.5176 56.7783 45.9619L55.8984 45.4912C55.533 46.1752 55.1428 46.8432 54.7285 47.4932L55.5693 48.0283C55.1388 48.7037 54.684 49.3609 54.2051 49.998L53.4082 49.3984C52.0084 51.2609 50.401 52.9477 48.623 54.4219L49.2588 55.1895C46.1974 57.7277 42.6457 59.6598 38.7715 60.8057L38.4883 59.8477C37.7521 60.0654 37.004 60.2534 36.2451 60.4111L36.4473 61.3887C35.6705 61.5501 34.8831 61.6802 34.0859 61.7783L33.9639 60.7881C32.8285 60.9278 31.6726 61 30.5 61C29.3274 61 28.1715 60.9278 27.0361 60.7881L26.9131 61.7783C22.8561 61.2788 19.0481 59.9435 15.6543 57.9424L16.1621 57.083C15.4969 56.6908 14.8479 56.2719 14.2168 55.8281L13.6416 56.6455C12.9884 56.1861 12.3551 55.6993 11.7402 55.1895L12.377 54.4219C10.599 52.9477 8.99164 51.2609 7.5918 49.3984L6.79395 49.998C4.43183 46.8553 2.64172 43.2311 1.58594 39.291L2.55078 39.0332C2.35177 38.2906 2.18016 37.5362 2.03613 36.7715L1.05469 36.9561C0.907847 36.1764 0.790309 35.3863 0.701172 34.5869L1.69238 34.4775C1.56518 33.3371 1.5 32.1765 1.5 31C1.5 29.8235 1.56518 28.6629 1.69238 27.5225L0.701172 27.4121C1.15698 23.3256 2.38023 19.4813 4.2207 16.0371L5.10156 16.5088C5.46703 15.8248 5.85718 15.1568 6.27148 14.5068L5.42969 13.9707C5.8602 13.2953 6.31504 12.6381 6.79395 12.001L7.5918 12.6016C8.99164 10.7391 10.599 9.05234 12.377 7.57812L11.7402 6.80957C14.8015 4.27139 18.3536 2.33928 22.2275 1.19336L22.5117 2.15234C23.2479 1.93461 23.996 1.74661 24.7549 1.58887L24.5518 0.610352C25.3284 0.448909 26.1159 0.31885 26.9131 0.220703L27.0361 1.21191C28.1715 1.07216 29.3274 1 30.5 1C31.6726 1 32.8285 1.07216 33.9639 1.21191L34.0859 0.220703Z" stroke="#3A96AF" stroke-width="2" stroke-miterlimit="3.8637" stroke-linejoin="round" stroke-dasharray="6 2 2 10"/>
<ellipse cx="30.501" cy="31.0001" rx="25" ry="25.8333" fill="#D97E59"/>
<g clip-path="url(#clip0_1061_11510)">
<path d="M45.1358 23.938L37.5636 16.3658C37.0759 15.8781 36.2876 15.8781 35.7999 16.3658L32.6173 19.5533C32.8778 19.4932 33.1494 19.5006 33.4063 19.5747C33.6632 19.6489 33.8969 19.7873 34.0854 19.977C34.7751 20.6667 34.6963 21.8245 33.8538 22.4108C33.3316 22.7704 32.6123 22.7753 32.0901 22.4206C31.8223 22.243 31.6148 21.9881 31.4951 21.6899C31.3754 21.3916 31.3493 21.064 31.4201 20.7505L28.2375 23.9331C27.7498 24.4208 27.7498 25.2091 28.2375 25.6968L31.4201 28.8843C31.3068 28.3769 31.4447 27.8153 31.8438 27.4162C32.0095 27.2504 32.21 27.1235 32.4307 27.0446C32.6515 26.9657 32.887 26.9367 33.1203 26.9598C33.3535 26.9829 33.5788 27.0575 33.7798 27.1781C33.9807 27.2988 34.1524 27.4626 34.2825 27.6576C34.6372 28.1798 34.6372 28.8991 34.2825 29.4213C34.1048 29.6862 33.8511 29.8911 33.5547 30.0089C33.2583 30.1268 32.9332 30.1521 32.6222 30.0815L35.8048 33.2641C36.2925 33.7518 37.0808 33.7518 37.5685 33.2641L40.7511 30.0815C40.6082 30.6875 40.8349 31.3526 41.4211 31.7516C41.9433 32.1063 42.6626 32.1014 43.1849 31.7418C43.3782 31.6107 43.5403 31.4386 43.6594 31.2377C43.7785 31.0367 43.8517 30.812 43.8738 30.5794C43.896 30.3469 43.8664 30.1123 43.7874 29.8925C43.7083 29.6728 43.5816 29.4732 43.4164 29.308C43.2279 29.1183 42.9942 28.9799 42.7373 28.9057C42.4804 28.8316 42.2088 28.8242 41.9483 28.8843L45.1309 25.7017C45.6235 25.214 45.6235 24.4257 45.1358 23.938ZM29.5775 33.1212C30.1737 33.2592 30.8437 33.0375 31.2378 32.461C31.5925 31.9388 31.5925 31.2195 31.2378 30.6973C31.1081 30.5018 30.9366 30.3376 30.7356 30.2167C30.5346 30.0957 30.3092 30.0209 30.0758 29.9978C29.8423 29.9747 29.6067 30.0038 29.3858 30.0831C29.165 30.1623 28.9646 30.2896 28.7991 30.4559C28.4001 30.855 28.2621 31.4166 28.3755 31.924L25.1929 28.7415C24.7051 28.2537 23.9169 28.2537 23.4291 28.7415L20.2465 31.924C20.3066 31.6635 20.2993 31.3919 20.2251 31.135C20.151 30.8781 20.0125 30.6444 19.8228 30.4559C19.6577 30.2907 19.4581 30.164 19.2383 30.085C19.0185 30.0059 18.784 29.9764 18.5514 29.9985C18.3189 30.0206 18.0941 30.0938 17.8932 30.2129C17.6923 30.3321 17.5201 30.4941 17.3891 30.6875C17.0295 31.2097 17.0245 31.929 17.3792 32.4512C17.7734 33.0325 18.4434 33.2592 19.0494 33.1212L15.8668 36.3087C15.379 36.7965 15.379 37.5847 15.8668 38.0725L23.439 45.6447C23.9267 46.1324 24.715 46.1324 25.2027 45.6447L28.3853 42.4621C28.2424 43.068 28.4691 43.7331 29.0553 44.1322C29.5775 44.4869 30.2968 44.482 30.8191 44.1223C31.0124 43.9913 31.1745 43.8192 31.2936 43.6182C31.4127 43.4173 31.4859 43.1925 31.508 42.96C31.5302 42.7275 31.5006 42.4929 31.4216 42.2731C31.3425 42.0533 31.2158 41.8537 31.0506 41.6886C30.8621 41.4989 30.6284 41.3604 30.3715 41.2863C30.1146 41.2122 29.843 41.2048 29.5825 41.2649L32.7651 38.0823C33.2528 37.5946 33.2528 36.8063 32.7651 36.3186L29.5775 33.1212ZM38.1351 37.9444C38.0895 37.8988 38.0353 37.8626 37.9757 37.8379C37.9161 37.8132 37.8523 37.8005 37.7877 37.8005C37.7232 37.8005 37.6594 37.8132 37.5998 37.8379C37.5402 37.8626 37.486 37.8988 37.4404 37.9444C37.3948 37.99 37.3586 38.0441 37.3339 38.1037C37.3093 38.1633 37.2966 38.2272 37.2966 38.2917C37.2966 38.3562 37.3093 38.4201 37.3339 38.4797C37.3586 38.5393 37.3948 38.5934 37.4404 38.639L38.9627 40.1613C39.0613 40.2599 39.1844 40.3042 39.3125 40.3042C39.4406 40.3042 39.5638 40.2549 39.6623 40.1613C39.708 40.1158 39.7442 40.0616 39.769 40.002C39.7937 39.9424 39.8064 39.8785 39.8064 39.814C39.8064 39.7495 39.7937 39.6856 39.769 39.626C39.7442 39.5664 39.708 39.5123 39.6623 39.4667L38.1351 37.9444ZM41.5295 37.0083L39.2583 36.6043C38.9923 36.5551 38.7361 36.7373 38.6869 37.0034C38.6376 37.2694 38.8199 37.5256 39.0859 37.5749L41.3571 37.9789C41.3866 37.9838 41.4162 37.9887 41.4458 37.9887C41.6822 37.9887 41.8892 37.8212 41.9286 37.5798C41.9729 37.3138 41.7955 37.0576 41.5295 37.0083ZM36.4994 39.1908C36.2334 39.2401 36.0511 39.4963 36.1004 39.7623L36.5044 42.0335C36.5487 42.2699 36.7556 42.4424 36.9872 42.4424C37.0167 42.4424 37.0463 42.4424 37.0758 42.4325C37.3419 42.3832 37.5242 42.1271 37.4749 41.861L37.0709 39.5899C37.0266 39.3238 36.7704 39.1465 36.4994 39.1908ZM22.8626 24.0612C22.9611 24.1597 23.0843 24.204 23.2124 24.204C23.3405 24.204 23.4636 24.1548 23.5621 24.0612C23.6078 24.0156 23.6441 23.9615 23.6688 23.9019C23.6935 23.8423 23.7062 23.7784 23.7062 23.7138C23.7062 23.6493 23.6935 23.5854 23.6688 23.5258C23.6441 23.4662 23.6078 23.4121 23.5621 23.3665L22.0398 21.8442C21.9942 21.7986 21.9401 21.7624 21.8805 21.7377C21.8209 21.713 21.757 21.7003 21.6925 21.7003C21.628 21.7003 21.5641 21.713 21.5045 21.7377C21.4449 21.7624 21.3908 21.7986 21.3452 21.8442C21.2996 21.8898 21.2634 21.944 21.2387 22.0036C21.214 22.0631 21.2013 22.127 21.2013 22.1915C21.2013 22.256 21.214 22.3199 21.2387 22.3795C21.2634 22.4391 21.2996 22.4932 21.3452 22.5388L22.8626 24.0612ZM24.4095 22.8197C24.4391 22.8197 24.4686 22.8197 24.4982 22.8098C24.7642 22.7605 24.9465 22.5044 24.8973 22.2383L24.4933 19.9672C24.444 19.7011 24.1878 19.5188 23.9218 19.5681C23.6558 19.6174 23.4735 19.8735 23.5227 20.1396L23.9267 22.4108C23.9661 22.6522 24.173 22.8197 24.4095 22.8197ZM19.4681 24.9972L21.7393 25.4012C21.7689 25.4061 21.7984 25.4111 21.828 25.4111C22.0645 25.4111 22.2714 25.2436 22.3108 25.0022C22.3601 24.7361 22.1778 24.4799 21.9117 24.4307L19.6406 24.0267C19.3745 23.9774 19.1183 24.1597 19.0691 24.4257C19.0247 24.6918 19.2021 24.948 19.4681 24.9972Z" fill="white"/>
</g>
<defs>
<clipPath id="clip0_1061_11510">
<rect width="30" height="30" fill="white" transform="translate(15.501 16)"/>
</clipPath>
</defs>
</svg>
