<svg width="61" height="62" viewBox="0 0 61 62" fill="none" xmlns="http://www.w3.org/2000/svg">
<path d="M34.0859 0.220703C38.1429 0.72008 41.9509 2.05572 45.3447 4.05664L44.8379 4.91699C45.5031 5.30917 46.1521 5.72805 46.7832 6.17188L47.3574 5.35352C48.0106 5.81284 48.6439 6.29978 49.2588 6.80957L48.623 7.57812C50.401 9.05234 52.0084 10.7391 53.4082 12.6016L54.2051 12.001C56.5674 15.1436 58.3571 18.7679 59.4131 22.708L58.4492 22.9668C58.6482 23.7094 58.8198 24.4638 58.9639 25.2285L59.9443 25.043C60.0912 25.8226 60.2087 26.6127 60.2979 27.4121L59.3076 27.5225C59.4348 28.6629 59.5 29.8235 59.5 31C59.5 32.1765 59.4348 33.3371 59.3076 34.4775L60.2979 34.5869C59.8421 38.6736 58.6188 42.5176 56.7783 45.9619L55.8984 45.4912C55.533 46.1752 55.1428 46.8432 54.7285 47.4932L55.5693 48.0283C55.1388 48.7037 54.684 49.3609 54.2051 49.998L53.4082 49.3984C52.0084 51.2609 50.401 52.9477 48.623 54.4219L49.2588 55.1895C46.1974 57.7277 42.6457 59.6598 38.7715 60.8057L38.4883 59.8477C37.7521 60.0654 37.004 60.2534 36.2451 60.4111L36.4473 61.3887C35.6705 61.5501 34.8831 61.6802 34.0859 61.7783L33.9639 60.7881C32.8285 60.9278 31.6726 61 30.5 61C29.3274 61 28.1715 60.9278 27.0361 60.7881L26.9131 61.7783C22.8561 61.2788 19.0481 59.9435 15.6543 57.9424L16.1621 57.083C15.4969 56.6908 14.8479 56.2719 14.2168 55.8281L13.6416 56.6455C12.9884 56.1861 12.3551 55.6993 11.7402 55.1895L12.377 54.4219C10.599 52.9477 8.99164 51.2609 7.5918 49.3984L6.79395 49.998C4.43183 46.8553 2.64172 43.2311 1.58594 39.291L2.55078 39.0332C2.35177 38.2906 2.18016 37.5362 2.03613 36.7715L1.05469 36.9561C0.907847 36.1764 0.790309 35.3863 0.701172 34.5869L1.69238 34.4775C1.56518 33.3371 1.5 32.1765 1.5 31C1.5 29.8235 1.56518 28.6629 1.69238 27.5225L0.701172 27.4121C1.15698 23.3256 2.38023 19.4813 4.2207 16.0371L5.10156 16.5088C5.46703 15.8248 5.85718 15.1568 6.27148 14.5068L5.42969 13.9707C5.8602 13.2953 6.31504 12.6381 6.79395 12.001L7.5918 12.6016C8.99164 10.7391 10.599 9.05234 12.377 7.57812L11.7402 6.80957C14.8015 4.27139 18.3536 2.33928 22.2275 1.19336L22.5117 2.15234C23.2479 1.93461 23.996 1.74661 24.7549 1.58887L24.5518 0.610352C25.3284 0.448909 26.1159 0.31885 26.9131 0.220703L27.0361 1.21191C28.1715 1.07216 29.3274 1 30.5 1C31.6726 1 32.8285 1.07216 33.9639 1.21191L34.0859 0.220703Z" stroke="#3A96AF" stroke-width="2" stroke-miterlimit="3.8637" stroke-linejoin="round" stroke-dasharray="6 2 2 10"/>
<ellipse cx="30.501" cy="31.0001" rx="25" ry="25.8333" fill="#D97E59"/>
<path d="M32.526 22.1875H20.726C20.376 22.1875 20.051 22.2 19.751 22.2125C16.7885 22.3875 16.001 23.475 16.001 26.85V27.575C16.001 28.2625 16.5635 28.825 17.251 28.825H36.001C36.6885 28.825 37.251 28.2625 37.251 27.575V26.85C37.251 23.125 36.301 22.1875 32.526 22.1875Z" fill="white"/>
<path d="M17.251 30.7C16.5635 30.7 16.001 31.2625 16.001 31.95V35.5875C16.001 39.3125 16.951 40.25 20.726 40.25H32.526C36.2385 40.25 37.2135 39.35 37.251 35.7875V31.95C37.251 31.2625 36.6885 30.7 36.001 30.7H17.251ZM22.201 37.2H20.0635C19.551 37.2 19.126 36.775 19.126 36.2625C19.126 35.75 19.551 35.325 20.0635 35.325H22.2135C22.726 35.325 23.151 35.75 23.151 36.2625C23.151 36.775 22.726 37.2 22.201 37.2ZM29.1885 37.2H24.8885C24.376 37.2 23.951 36.775 23.951 36.2625C23.951 35.75 24.376 35.325 24.8885 35.325H29.1885C29.701 35.325 30.126 35.75 30.126 36.2625C30.126 36.775 29.7135 37.2 29.1885 37.2Z" fill="white"/>
<path d="M41.001 30.6625V24.1125C41.001 20.2 38.7635 18.5 35.3885 18.5H24.226C23.276 18.5 22.426 18.6375 21.676 18.925C21.0885 19.1375 20.5635 19.45 20.1385 19.8625C19.9135 20.075 20.0885 20.425 20.4135 20.425H34.001C36.8135 20.425 39.0885 22.7 39.0885 25.5125V34.475C39.0885 34.7875 39.426 34.9625 39.651 34.7375C40.5135 33.825 41.001 32.4875 41.001 30.6625Z" fill="white"/>
</svg>
