<svg width="34" height="26" viewBox="0 0 34 26" fill="none" xmlns="http://www.w3.org/2000/svg">
<path d="M5.20091 0.0123542H5.19805C5.03969 0.0120134 4.88282 0.0430474 4.73652 0.103664C4.59021 0.164281 4.45736 0.253279 4.34564 0.36552C4.23174 0.478565 4.14143 0.613111 4.07996 0.761348C4.01849 0.909584 3.98708 1.06856 3.98755 1.22903V19.4729C3.98755 20.1419 4.53396 20.6875 5.20572 20.6892C8.03769 20.696 12.7824 21.2862 16.0555 24.7115V5.61882C16.0555 5.39204 15.9976 5.179 15.8883 5.0027C13.2018 0.676329 8.03929 0.018994 5.20091 0.0123542ZM30.0124 19.4729V1.22892C30.0124 0.902424 29.8852 0.595737 29.6543 0.365406C29.5426 0.253193 29.4098 0.164213 29.2635 0.103598C29.1172 0.042983 28.9604 0.011933 28.802 0.0122398H28.799C25.9608 0.018994 20.7983 0.676329 18.1117 5.0027C18.0024 5.179 17.9445 5.39204 17.9445 5.61882V24.7114C21.2177 21.2861 25.9624 20.6959 28.7944 20.6891C29.466 20.6874 30.0124 20.1418 30.0124 19.4729Z" fill="#3A96AF"/>
<path d="M32.7836 4.21967H31.9014V19.4729C31.9014 21.181 30.5097 22.5739 28.7989 22.5781C26.3968 22.5838 22.4361 23.0536 19.631 25.7084C24.4824 24.5206 29.5966 25.2928 32.5112 25.957C32.6898 25.9981 32.8753 25.9984 33.054 25.9577C33.2326 25.9169 33.3997 25.8363 33.5428 25.7218C33.6858 25.6082 33.8012 25.4637 33.8804 25.2991C33.9596 25.1345 34.0005 24.9542 34 24.7715V5.43611C34.0001 4.76538 33.4543 4.21967 32.7836 4.21967ZM2.09862 19.4729V4.21967H1.21645C0.545834 4.21967 0 4.76538 0 5.43611V24.7712C0 25.1432 0.166681 25.4897 0.457227 25.7215C0.600252 25.836 0.767367 25.9167 0.946028 25.9574C1.12469 25.9981 1.31025 25.9979 1.48879 25.9566C4.40342 25.2923 9.51774 24.5203 14.3689 25.7081C11.5639 23.0533 7.6032 22.5837 5.2011 22.578C3.49045 22.5739 2.09862 21.181 2.09862 19.4729Z" fill="#3A96AF"/>
</svg>
