<svg width="32" height="34" viewBox="0 0 32 34" fill="none" xmlns="http://www.w3.org/2000/svg">
<path d="M16.0002 5.66667C14.4376 5.66667 13.1668 4.39592 13.1668 2.83333C13.1668 1.27075 14.4376 0 16.0002 0C17.5627 0 18.8335 1.27075 18.8335 2.83333C18.8335 4.39592 17.5627 5.66667 16.0002 5.66667ZM20.6043 11.3333H11.396C11.1142 11.3333 10.844 11.2214 10.6447 11.0221C10.4454 10.8229 10.3335 10.5526 10.3335 10.2708C10.3335 8.51275 11.7643 7.08333 13.521 7.08333H18.4793C20.236 7.08333 21.6668 8.51275 21.6668 10.2708C21.6668 10.5526 21.5549 10.8229 21.3556 11.0221C21.1564 11.2214 20.8861 11.3333 20.6043 11.3333Z" fill="#3A96AF"/>
<path d="M27.3335 28.3333C28.5071 28.3333 29.4585 27.3819 29.4585 26.2083C29.4585 25.0347 28.5071 24.0833 27.3335 24.0833C26.1599 24.0833 25.2085 25.0347 25.2085 26.2083C25.2085 27.3819 26.1599 28.3333 27.3335 28.3333Z" fill="#3A96AF"/>
<path d="M30.521 34H24.146C23.8642 34 23.594 33.8881 23.3947 33.6888C23.1954 33.4895 23.0835 33.2193 23.0835 32.9375C23.0835 31.1794 24.5143 29.75 26.271 29.75H28.396C30.1527 29.75 31.5835 31.1794 31.5835 32.9375C31.5835 33.2193 31.4716 33.4895 31.2723 33.6888C31.073 33.8881 30.8028 34 30.521 34Z" fill="#3A96AF"/>
<path d="M16 28.3333C17.1736 28.3333 18.125 27.3819 18.125 26.2083C18.125 25.0347 17.1736 24.0833 16 24.0833C14.8264 24.0833 13.875 25.0347 13.875 26.2083C13.875 27.3819 14.8264 28.3333 16 28.3333Z" fill="#3A96AF"/>
<path d="M19.1875 34H12.8125C12.5307 34 12.2605 33.8881 12.0612 33.6888C11.8619 33.4895 11.75 33.2193 11.75 32.9375C11.75 31.1794 13.1808 29.75 14.9375 29.75H17.0625C18.8192 29.75 20.25 31.1794 20.25 32.9375C20.25 33.2193 20.1381 33.4895 19.9388 33.6888C19.7395 33.8881 19.4693 34 19.1875 34Z" fill="#3A96AF"/>
<path d="M4.66675 28.3333C5.84035 28.3333 6.79175 27.3819 6.79175 26.2083C6.79175 25.0347 5.84035 24.0833 4.66675 24.0833C3.49314 24.0833 2.54175 25.0347 2.54175 26.2083C2.54175 27.3819 3.49314 28.3333 4.66675 28.3333Z" fill="#3A96AF"/>
<path d="M7.85425 34H1.47925C1.19746 34 0.927204 33.8881 0.727947 33.6888C0.52869 33.4895 0.416748 33.2193 0.416748 32.9375C0.416748 31.1794 1.84758 29.75 3.60425 29.75H5.72925C7.48591 29.75 8.91675 31.1794 8.91675 32.9375C8.91675 33.2193 8.80481 33.4895 8.60555 33.6888C8.40629 33.8881 8.13604 34 7.85425 34ZM24.5001 12.75H7.50008C7.12436 12.75 6.76402 12.8993 6.49835 13.1649C6.23267 13.4306 6.08341 13.7909 6.08341 14.1667C6.08341 14.5424 6.23267 14.9027 6.49835 15.1684C6.76402 15.4341 7.12436 15.5833 7.50008 15.5833H8.35716L9.28508 24.2392C9.38283 25.2124 10.1393 25.5 11.114 25.5C11.4611 23.103 13.5096 21.25 16.0001 21.25C18.4906 21.25 20.5391 23.103 20.8862 25.5C21.8608 25.5 22.6173 25.2124 22.7151 24.2392L23.643 15.5833H24.5001C24.8758 15.5833 25.2361 15.4341 25.5018 15.1684C25.7675 14.9027 25.9167 14.5424 25.9167 14.1667C25.9167 13.7909 25.7675 13.4306 25.5018 13.1649C25.2361 12.8993 24.8758 12.75 24.5001 12.75Z" fill="#3A96AF"/>
</svg>
