<svg width="40" height="27" viewBox="0 0 40 27" fill="none" xmlns="http://www.w3.org/2000/svg">
<rect width="40" height="27" rx="4" fill="#F1F6FF"/>
<path d="M31.4253 16.1084H31.4458L33.1138 11.9873H34.2856L30.6821 20.25H29.5698L30.9097 17.3594L28.5444 11.9873H29.7173L31.4253 16.1084ZM25.7847 11.8008C26.5818 11.8008 27.2121 12.0141 27.6743 12.4355C28.1364 12.857 28.3637 13.446 28.3638 14.1885V17.7275H27.3325V16.9316H27.2856C26.8368 17.5873 26.247 17.915 25.5034 17.915C24.8738 17.915 24.3375 17.7281 23.9155 17.3535C23.5002 17.0056 23.2664 16.4901 23.2798 15.9482C23.2798 15.353 23.507 14.8848 23.9556 14.5303C24.4044 14.1757 25.008 14.001 25.7583 14.001C26.4012 14.001 26.9241 14.1222 27.3394 14.3496V14.1016C27.3393 13.7338 27.1781 13.3863 26.897 13.1455C26.609 12.8914 26.2406 12.7501 25.8589 12.75C25.256 12.75 24.7795 13.0043 24.4312 13.5127L23.48 12.918C23.9891 12.1754 24.7598 11.8008 25.7847 11.8008ZM20.6733 9.33887C21.3632 9.32549 22.033 9.58588 22.522 10.0674C23.5 10.9772 23.5608 12.5097 22.6431 13.4932L22.522 13.6133C22.0196 14.0882 21.4034 14.3291 20.6733 14.3291H18.8911V17.7275H17.813V9.33887H20.6733ZM25.9263 14.8711C25.4908 14.8711 25.1215 14.9782 24.8267 15.1855C24.5387 15.3929 24.3911 15.6544 24.3911 15.9688C24.3913 16.2496 24.5256 16.5104 24.7466 16.6709C24.9878 16.8582 25.283 16.9588 25.5845 16.9522C26.0398 16.952 26.4749 16.771 26.7964 16.4502C27.1515 16.1157 27.3325 15.7206 27.3325 15.2656C26.9976 14.9982 26.5289 14.8645 25.9263 14.8711ZM18.8921 13.2988H20.7007C21.1027 13.3122 21.4914 13.1519 21.7661 12.8643C22.3289 12.2823 22.3157 11.3452 21.7329 10.7832C21.4582 10.5156 21.0893 10.3682 20.7007 10.3682H18.8921V13.2988Z" fill="#3C4043"/>
<path d="M15.168 13.5935C15.168 13.2656 15.1412 12.9378 15.0876 12.6167H10.5391V14.4699H13.1449C13.0378 15.0653 12.6894 15.6005 12.1803 15.935V17.1392H13.7344C14.6455 16.3029 15.168 15.0653 15.168 13.5935Z" fill="#4285F4"/>
<path d="M10.5393 18.3033C11.8389 18.3033 12.9376 17.8751 13.7347 17.1392L12.1806 15.935C11.7451 16.2294 11.1891 16.3966 10.5393 16.3966C9.27994 16.3966 8.21482 15.547 7.83298 14.4097H6.23193V15.654C7.0492 17.2797 8.71723 18.3033 10.5393 18.3033Z" fill="#34A853"/>
<path d="M7.83323 14.4096C7.63223 13.8142 7.63223 13.1652 7.83323 12.5631V11.3254H6.23193C5.54183 12.6835 5.54183 14.2892 6.23193 15.6472L7.83323 14.4096Z" fill="#FBBC04"/>
<path d="M10.5393 10.5762C11.2293 10.5628 11.8925 10.8237 12.3882 11.2987L13.7682 9.92053C12.8907 9.10434 11.7384 8.6561 10.5393 8.66948C8.71723 8.66948 7.0492 9.69976 6.23193 11.3255L7.83298 12.5698C8.21482 11.4258 9.27994 10.5762 10.5393 10.5762Z" fill="#EA4335"/>
</svg>
