<svg width="36" height="36" viewBox="0 0 36 36" fill="none" xmlns="http://www.w3.org/2000/svg">
<rect width="36" height="36" rx="8" fill="white"/>
<path d="M18 9C21.5951 9 23.3928 8.9998 24.6875 9.85645C25.2657 10.239 25.761 10.7343 26.1436 11.3125C27.0002 12.6072 27 14.4049 27 18C27 21.5951 27.0002 23.3928 26.1436 24.6875C25.761 25.2657 25.2657 25.761 24.6875 26.1436C23.3928 27.0002 21.5951 27 18 27C14.4049 27 12.6072 27.0002 11.3125 26.1436C10.7343 25.761 10.239 25.2657 9.85645 24.6875C8.9998 23.3928 9 21.5951 9 18C9 14.4049 8.9998 12.6072 9.85645 11.3125C10.239 10.7343 10.7343 10.239 11.3125 9.85645C12.6072 8.9998 14.4049 9 18 9ZM18 13.3408C15.4269 13.3409 13.341 15.4269 13.3408 18C13.3408 20.5733 15.4268 22.66 18 22.6602C20.5733 22.6602 22.6592 20.5733 22.6592 18C22.659 15.4268 20.5732 13.3408 18 13.3408ZM18 14.917C19.7026 14.917 21.0829 16.2974 21.083 18C21.083 19.7027 19.7027 21.083 18 21.083C16.2974 21.0829 14.917 19.7026 14.917 18C14.9171 16.2975 16.2975 14.9171 18 14.917ZM22.8438 12.0117C22.2392 12.0117 21.7492 12.5019 21.749 13.1064C21.749 13.7111 22.2391 14.2012 22.8438 14.2012C23.4484 14.2011 23.9385 13.7111 23.9385 13.1064C23.9383 12.502 23.4482 12.0118 22.8438 12.0117Z" fill="#3A96AF"/>
</svg>
