<svg width="40" height="40" viewBox="0 0 40 40" fill="none" xmlns="http://www.w3.org/2000/svg">
<rect width="40" height="40" rx="8" fill="#F7F8F9"/>
<g clip-path="url(#clip0_239_4843)">
<path d="M19.9998 10.8898C22.9685 10.8898 23.3201 10.9028 24.4876 10.9549C25.5727 11.0026 26.1586 11.1849 26.5493 11.3368C27.0658 11.5365 27.439 11.7795 27.8253 12.1658C28.2159 12.5565 28.4546 12.9254 28.6543 13.4419C28.8062 13.8325 28.9885 14.4228 29.0362 15.5035C29.0883 16.6754 29.1013 17.0269 29.1013 19.9913C29.1013 22.9601 29.0883 23.3117 29.0362 24.4792C28.9885 25.5643 28.8062 26.1502 28.6543 26.5408C28.4546 27.0573 28.2116 27.4306 27.8253 27.8169C27.4347 28.2075 27.0658 28.4462 26.5493 28.6459C26.1586 28.7978 25.5684 28.9801 24.4876 29.0278C23.3158 29.0799 22.9642 29.0929 19.9998 29.0929C17.031 29.0929 16.6795 29.0799 15.5119 29.0278C14.4269 28.9801 13.8409 28.7978 13.4503 28.6459C12.9338 28.4462 12.5605 28.2032 12.1743 27.8169C11.7836 27.4262 11.5449 27.0573 11.3453 26.5408C11.1934 26.1502 11.0111 25.5599 10.9633 24.4792C10.9112 23.3073 10.8982 22.9558 10.8982 19.9913C10.8982 17.0226 10.9112 16.671 10.9633 15.5035C11.0111 14.4184 11.1934 13.8325 11.3453 13.4419C11.5449 12.9254 11.788 12.5521 12.1743 12.1658C12.5649 11.7752 12.9338 11.5365 13.4503 11.3368C13.8409 11.1849 14.4312 11.0026 15.5119 10.9549C16.6795 10.9028 17.031 10.8898 19.9998 10.8898ZM19.9998 8.88892C16.9833 8.88892 16.6057 8.90194 15.4208 8.95402C14.2402 9.0061 13.4286 9.19708 12.7255 9.47051C11.992 9.75697 11.3713 10.1346 10.755 10.7552C10.1343 11.3716 9.75673 11.9922 9.47027 12.7214C9.19683 13.4288 9.00586 14.2361 8.95378 15.4167C8.90169 16.6059 8.88867 16.9835 8.88867 20C8.88867 23.0165 8.90169 23.3941 8.95378 24.579C9.00586 25.7596 9.19683 26.5712 9.47027 27.2743C9.75673 28.0078 10.1343 28.6285 10.755 29.2448C11.3713 29.8611 11.992 30.2431 12.7211 30.5252C13.4286 30.7986 14.2359 30.9896 15.4164 31.0417C16.6013 31.0938 16.9789 31.1068 19.9954 31.1068C23.0119 31.1068 23.3895 31.0938 24.5744 31.0417C25.755 30.9896 26.5666 30.7986 27.2698 30.5252C27.9989 30.2431 28.6196 29.8611 29.2359 29.2448C29.8522 28.6285 30.2342 28.0078 30.5163 27.2787C30.7897 26.5712 30.9807 25.7639 31.0328 24.5834C31.0849 23.3985 31.0979 23.0209 31.0979 20.0044C31.0979 16.9879 31.0849 16.6103 31.0328 15.4254C30.9807 14.2448 30.7897 13.4332 30.5163 12.7301C30.2428 11.9922 29.8652 11.3716 29.2446 10.7552C28.6283 10.1389 28.0076 9.75697 27.2784 9.47485C26.571 9.20142 25.7637 9.01044 24.5831 8.95836C23.3939 8.90194 23.0163 8.88892 19.9998 8.88892Z" fill="#3A96AF"/>
<path d="M19.9999 14.2925C16.8489 14.2925 14.2925 16.8489 14.2925 19.9999C14.2925 23.151 16.8489 25.7074 19.9999 25.7074C23.151 25.7074 25.7074 23.151 25.7074 19.9999C25.7074 16.8489 23.151 14.2925 19.9999 14.2925ZM19.9999 23.7022C17.9557 23.7022 16.2977 22.0442 16.2977 19.9999C16.2977 17.9557 17.9557 16.2977 19.9999 16.2977C22.0442 16.2977 23.7022 17.9557 23.7022 19.9999C23.7022 22.0442 22.0442 23.7022 19.9999 23.7022Z" fill="#3A96AF"/>
<path d="M27.2655 14.0668C27.2655 14.8047 26.6666 15.3993 25.9331 15.3993C25.1952 15.3993 24.6006 14.8004 24.6006 14.0668C24.6006 13.329 25.1995 12.7344 25.9331 12.7344C26.6666 12.7344 27.2655 13.3333 27.2655 14.0668Z" fill="#3A96AF"/>
</g>
<defs>
<clipPath id="clip0_239_4843">
<rect width="22.2222" height="22.2222" fill="white" transform="translate(8.88867 8.88892)"/>
</clipPath>
</defs>
</svg>
