<svg width="40" height="40" viewBox="0 0 40 40" fill="none" xmlns="http://www.w3.org/2000/svg">
<rect width="40" height="40" rx="8" fill="#F7F8F9"/>
<path d="M10 12.6887C10 12.0473 10.2252 11.5182 10.6757 11.1014C11.1261 10.6845 11.7117 10.4761 12.4324 10.4761C13.1403 10.4761 13.713 10.6813 14.1506 11.0918C14.601 11.515 14.8263 12.0666 14.8263 12.7464C14.8263 13.3621 14.6075 13.8751 14.1699 14.2856C13.7194 14.7089 13.1274 14.9205 12.3938 14.9205H12.3745C11.6667 14.9205 11.094 14.7089 10.6564 14.2856C10.2188 13.8623 10 13.33 10 12.6887ZM10.251 29.5237V16.6714H14.5367V29.5237H10.251ZM16.9112 29.5237H21.1969V22.3472C21.1969 21.8982 21.2484 21.5519 21.3514 21.3082C21.5315 20.8721 21.805 20.5033 22.1718 20.2019C22.5386 19.9005 22.9987 19.7498 23.5521 19.7498C24.9936 19.7498 25.7143 20.7182 25.7143 22.655V29.5237H30V22.1548C30 20.2564 29.5496 18.8166 28.6486 17.8354C27.7477 16.8541 26.5573 16.3635 25.0772 16.3635C23.417 16.3635 22.1236 17.0754 21.1969 18.4992V18.5376H21.1776L21.1969 18.4992V16.6714H16.9112C16.9369 17.0818 16.9498 18.3581 16.9498 20.5001C16.9498 22.6422 16.9369 25.65 16.9112 29.5237Z" fill="#3A96AF"/>
</svg>
