<svg width="35" height="22" viewBox="0 0 35 22" fill="none" xmlns="http://www.w3.org/2000/svg">
<path d="M34.0406 7.00269V20.9703C34.0406 21.4757 33.627 21.8892 33.1216 21.8892C32.6162 21.8892 32.2027 21.4757 32.2027 20.9703V8.33513L17.8216 13.8486C17.7297 13.8946 17.5919 13.8946 17.5 13.8946C17.4081 13.8946 17.2703 13.8946 17.1784 13.8486L1.55677 7.87567C1.1892 7.73783 0.959473 7.41621 0.959473 7.00269C0.959473 6.58918 1.1892 6.26756 1.55677 6.12972L17.1784 0.156749C17.4081 0.0648566 17.6379 0.0648566 17.8216 0.156749L33.3973 6.12972C33.4892 6.17567 33.5351 6.17567 33.5811 6.22161C33.627 6.22161 33.627 6.26756 33.673 6.26756C33.7189 6.31351 33.7649 6.31351 33.7649 6.35945L33.8108 6.4054C33.9027 6.54323 33.9946 6.68107 33.9946 6.81891V6.86486C34.0406 6.95675 34.0406 6.95675 34.0406 7.00269Z" fill="#3A96AF"/>
<path d="M28.0215 11.9189V20.9703C28.0215 21.4757 27.608 21.8892 27.1026 21.8892H7.89719C7.39178 21.8892 6.97827 21.4757 6.97827 20.9703V11.9189L16.4891 15.5486C16.8107 15.6865 17.1323 15.7324 17.4999 15.7324C17.8675 15.7324 18.1891 15.6865 18.5107 15.5486L28.0215 11.9189Z" fill="#3A96AF"/>
</svg>
