<svg width="40" height="27" viewBox="0 0 40 27" fill="none" xmlns="http://www.w3.org/2000/svg">
<rect width="40" height="27" rx="4" fill="#FFF4EE"/>
<path d="M25.3447 5.625C29.6515 5.62518 33.1425 9.10188 33.1426 13.3906C33.1426 17.6795 29.6516 21.1561 25.3447 21.1562C23.4136 21.1562 21.6472 20.4565 20.2852 19.2988C18.9233 20.4561 17.1582 21.1562 15.2275 21.1562C10.9205 21.1562 7.42871 17.6796 7.42871 13.3906C7.42884 9.10177 10.9206 5.625 15.2275 5.625C17.1581 5.62506 18.9233 6.32529 20.2852 7.48242C21.6472 6.32484 23.4137 5.625 25.3447 5.625Z" fill="#ED0006"/>
<path d="M25.3442 5.625C29.6512 5.62503 33.1429 9.10178 33.1431 13.3906C33.1431 17.6796 29.6513 21.1562 25.3442 21.1562C23.4133 21.1562 21.6476 20.4563 20.2856 19.2988C21.9617 17.8744 23.0259 15.7568 23.0259 13.3906C23.0258 11.0244 21.9617 8.90677 20.2856 7.48242C21.6476 6.32504 23.4134 5.625 25.3442 5.625Z" fill="#F9A000"/>
<path d="M20.2852 7.48218C21.9616 8.90658 23.0264 11.0248 23.0264 13.3914C23.0262 15.7575 21.9612 17.8743 20.2852 19.2986C18.6096 17.8743 17.546 15.7571 17.5459 13.3914C17.5459 11.0252 18.6092 8.90657 20.2852 7.48218Z" fill="#FF5E00"/>
</svg>
