<svg width="40" height="27" viewBox="0 0 40 27" fill="none" xmlns="http://www.w3.org/2000/svg">
<rect width="40" height="27" rx="4" fill="#F3FBFF"/>
<path d="M17.4124 19.9899L17.6576 18.4571L17.1115 18.4446H14.5039L16.3161 7.13367C16.3216 7.09952 16.3399 7.06768 16.3667 7.04508C16.3934 7.02247 16.4277 7.01001 16.4633 7.01001H20.8601C22.3198 7.01001 23.3271 7.30901 23.8531 7.89917C24.0996 8.17603 24.2566 8.46534 24.3326 8.78372C24.4122 9.1178 24.4137 9.51693 24.3359 10.0037L24.3302 10.0393V10.3512L24.5768 10.4887C24.7845 10.5971 24.9494 10.7212 25.076 10.8634C25.287 11.1001 25.4234 11.4009 25.481 11.7576C25.5405 12.1244 25.5208 12.5609 25.4234 13.0551C25.3109 13.6236 25.129 14.1187 24.8834 14.5239C24.6574 14.8971 24.3696 15.2067 24.0279 15.4467C23.7017 15.6746 23.314 15.8477 22.8757 15.9585C22.451 16.0673 21.9668 16.1223 21.4357 16.1223H21.0935C20.8489 16.1223 20.6111 16.209 20.4247 16.3645C20.2376 16.5233 20.1138 16.74 20.0759 16.9773L20.0501 17.1153L19.617 19.8168L19.5973 19.916C19.5921 19.9475 19.5832 19.9632 19.5701 19.9738C19.5584 19.9834 19.5415 19.9899 19.5251 19.9899H17.4124Z" fill="#253B80"/>
<path d="M24.8092 10.0759C24.7961 10.1585 24.7811 10.243 24.7643 10.3297C24.1843 13.2602 22.2007 14.2726 19.667 14.2726H18.377C18.0672 14.2726 17.8061 14.4941 17.7578 14.7949L17.0973 18.9182L16.9103 20.087C16.8789 20.2845 17.0336 20.4626 17.236 20.4626H19.5241C19.7951 20.4626 20.0251 20.2688 20.0678 20.0058L20.0903 19.8913L20.5211 17.2003L20.5488 17.0527C20.5909 16.7888 20.8215 16.595 21.0925 16.595H21.4346C23.6513 16.595 25.3867 15.7091 25.8939 13.1453C26.1058 12.0744 25.9961 11.1801 25.4354 10.5512C25.2658 10.3615 25.0553 10.2042 24.8092 10.0759Z" fill="#179BD7"/>
<path d="M24.2012 9.83719C24.1127 9.81181 24.0212 9.78874 23.9274 9.76798C23.8332 9.74768 23.7366 9.72969 23.6373 9.714C23.2894 9.65862 22.9084 9.63232 22.5001 9.63232H19.0539C18.969 9.63232 18.8884 9.65124 18.8163 9.68539C18.6573 9.76059 18.5392 9.90872 18.5106 10.0901L17.7774 14.6609L17.7563 14.7943C17.8047 14.4934 18.0658 14.2719 18.3756 14.2719H19.6655C22.1992 14.2719 24.183 13.2591 24.7628 10.3291C24.7801 10.2423 24.7946 10.1579 24.8077 10.0753C24.661 9.9987 24.5021 9.93317 24.331 9.87733C24.2889 9.86349 24.2453 9.85012 24.2012 9.83719Z" fill="#222D65"/>
<path d="M18.5128 10.0904C18.5414 9.909 18.6596 9.76089 18.8185 9.68614C18.8912 9.65199 18.9713 9.63307 19.0561 9.63307H22.5024C22.9107 9.63307 23.2918 9.65937 23.6395 9.71475C23.739 9.73043 23.8356 9.74843 23.9298 9.76873C24.0235 9.7895 24.1149 9.81257 24.2035 9.83794C24.2475 9.85087 24.2911 9.86424 24.3337 9.87763C24.5048 9.93346 24.6638 9.99945 24.8105 10.0756C24.983 8.99262 24.8091 8.25526 24.2143 7.58757C23.5586 6.85253 22.3749 6.53784 20.8604 6.53784H16.4635C16.1541 6.53784 15.8903 6.75931 15.8424 7.06063L14.011 18.4878C13.9749 18.7139 14.1521 18.9179 14.3836 18.9179H17.0982L17.7797 14.6612L18.5128 10.0904Z" fill="#253B80"/>
</svg>
