<svg width="35" height="34" viewBox="0 0 35 34" fill="none" xmlns="http://www.w3.org/2000/svg">
<g clip-path="url(#clip0_155_4857)">
<path fill-rule="evenodd" clip-rule="evenodd" d="M12.5602 17.4936C11.7063 17.4937 10.8715 17.2407 10.1615 16.7664C9.45145 16.2921 8.898 15.6179 8.57113 14.829C8.24427 14.0402 8.15867 13.1721 8.32517 12.3347C8.49167 11.4972 8.90279 10.7278 9.50653 10.124C10.1103 9.52018 10.8795 9.10895 11.717 8.94232C12.5545 8.77569 13.4225 8.86115 14.2114 9.18789C15.0003 9.51464 15.6746 10.068 16.149 10.778C16.6234 11.4879 16.8766 12.3226 16.8766 13.1765C16.8752 14.3209 16.42 15.4181 15.6108 16.2274C14.8017 17.0367 13.7046 17.492 12.5602 17.4936ZM15.3195 33.1601H9.80411C9.0242 33.1595 8.27463 32.8578 7.7117 32.318C7.14877 31.7783 6.81595 31.042 6.78263 30.2628H18.3377C18.3051 31.0417 17.973 31.7779 17.4106 32.3177C16.8482 32.8576 16.099 33.1594 15.3195 33.1601ZM19.9812 27.8802C19.9806 28.2955 19.8153 28.6936 19.5217 28.9873C19.228 29.281 18.8299 29.4462 18.4145 29.4469H6.70593C6.49938 29.4482 6.29459 29.4087 6.10337 29.3306C5.91215 29.2524 5.73827 29.1373 5.59174 28.9917C5.4452 28.8461 5.32891 28.673 5.24955 28.4823C5.1702 28.2916 5.12934 28.0871 5.12934 27.8805C5.12934 27.6739 5.1702 27.4694 5.24955 27.2787C5.32891 27.088 5.4452 26.9149 5.59174 26.7693C5.73827 26.6237 5.91215 26.5085 6.10337 26.4304C6.29459 26.3523 6.49938 26.3128 6.70593 26.3141H18.4144C18.8297 26.3146 19.2278 26.4797 19.5215 26.7733C19.8152 27.0669 19.9805 27.4649 19.9811 27.8802H19.9812ZM6.77964 25.4982H12.1543V18.2919C10.8676 18.1899 9.66669 17.6067 8.79085 16.6586C7.91501 15.7105 7.42862 14.4672 7.42862 13.1765C7.42862 11.8858 7.91501 10.6425 8.79085 9.69445C9.66669 8.74638 10.8676 8.16319 12.1543 8.06112V0.839905C5.69244 1.05539 0.5 6.37952 0.5 12.893C0.499792 14.8632 0.982289 16.8034 1.90529 18.544C2.8283 20.2846 4.1637 21.7725 5.7947 22.8777C6.10214 23.08 6.35356 23.3566 6.5257 23.6819C6.69784 24.0072 6.78514 24.3707 6.77951 24.7387V25.4982H6.77964ZM21.9347 14.6194V11.733L20.2337 11.5241C20.1526 11.5145 20.0763 11.4807 20.0147 11.4271C19.9531 11.3735 19.9091 11.3026 19.8884 11.2237C19.7151 10.5767 19.4571 9.95543 19.121 9.3761C19.0804 9.30561 19.0618 9.22462 19.0675 9.14348C19.0732 9.06234 19.1029 8.98474 19.153 8.92062L20.2081 7.56951L18.1682 5.52825L16.816 6.58351C16.7522 6.6337 16.6748 6.66353 16.5938 6.6691C16.5128 6.67468 16.4321 6.65576 16.362 6.61479C15.7826 6.27887 15.1611 6.02144 14.5139 5.84926C14.4352 5.82824 14.3645 5.78419 14.311 5.72275C14.2574 5.66131 14.2235 5.58528 14.2134 5.50441L14.0024 3.80308H12.9694V8.06112C14.2561 8.16319 15.457 8.74638 16.3329 9.69445C17.2087 10.6425 17.6951 11.8858 17.6951 13.1765C17.6951 14.4672 17.2087 15.7105 16.3329 16.6586C15.457 17.6067 14.2561 18.1899 12.9694 18.2919V22.5492H14.0022L14.2132 20.8479C14.2233 20.7671 14.2572 20.6912 14.3108 20.6298C14.3643 20.5685 14.435 20.5246 14.5137 20.5038C15.1609 20.3316 15.7824 20.0741 16.3618 19.7382C16.4318 19.6971 16.5126 19.6781 16.5936 19.6837C16.6746 19.6893 16.7521 19.7192 16.8158 19.7695L18.1682 20.825L20.2081 18.7837L19.153 17.4326C19.1029 17.3683 19.0732 17.2906 19.0675 17.2093C19.0618 17.1281 19.0804 17.047 19.121 16.9764C19.4574 16.3972 19.7154 15.776 19.8884 15.129C19.9091 15.0501 19.9532 14.9793 20.0148 14.9258C20.0764 14.8723 20.1526 14.8386 20.2337 14.8291L21.9347 14.6196V14.6194ZM27.629 8.4494H22.5325C22.4785 8.44871 22.4249 8.45875 22.3748 8.47894C22.3247 8.49914 22.2791 8.52908 22.2407 8.56703C22.2022 8.60498 22.1717 8.65019 22.1509 8.70003C22.1301 8.74987 22.1193 8.80335 22.1193 8.85736C22.1193 8.91138 22.1301 8.96486 22.1509 9.0147C22.1717 9.06454 22.2022 9.10975 22.2407 9.1477C22.2791 9.18565 22.3247 9.21559 22.3748 9.23578C22.4249 9.25598 22.4785 9.26602 22.5325 9.26533H27.677C28.0319 9.26533 28.2908 9.0436 28.4473 8.60711L29.5218 5.61531C29.6171 5.6293 29.7133 5.63631 29.8096 5.6363C30.3017 5.63697 30.7775 5.45937 31.1488 5.13637C31.5201 4.81337 31.7619 4.36682 31.8294 3.87932C31.8969 3.39182 31.7856 2.89637 31.516 2.48462C31.2464 2.07287 30.8368 1.77269 30.363 1.6396C29.8892 1.50651 29.3832 1.54953 28.9387 1.76069C28.4941 1.97185 28.1411 2.33687 27.9449 2.78822C27.7487 3.23956 27.7226 3.7467 27.8714 4.2158C28.0203 4.68491 28.334 5.08424 28.7545 5.33992L27.6801 8.33179C27.6664 8.37238 27.6493 8.41173 27.6289 8.4494H27.629ZM29.8096 20.7166C29.7133 20.7168 29.6171 20.7236 29.5218 20.7371L28.4475 17.7459C28.2908 17.3087 28.0319 17.0877 27.6772 17.0877H22.5325C22.4785 17.087 22.4249 17.0971 22.3748 17.1173C22.3247 17.1375 22.2791 17.1674 22.2407 17.2054C22.2022 17.2433 22.1717 17.2885 22.1509 17.3384C22.1301 17.3882 22.1193 17.4417 22.1193 17.4957C22.1193 17.5497 22.1301 17.6032 22.1509 17.653C22.1717 17.7029 22.2022 17.7481 22.2407 17.786C22.2791 17.824 22.3247 17.8539 22.3748 17.8741C22.4249 17.8943 22.4785 17.9043 22.5325 17.9037H27.629C27.6497 17.9412 27.6669 17.9805 27.6802 18.0213L28.7545 21.0131C28.3351 21.2685 28.0224 21.6671 27.8742 22.1352C27.7259 22.6034 27.7522 23.1093 27.9482 23.5595C28.1441 24.0098 28.4964 24.3738 28.94 24.5844C29.3836 24.7949 29.8884 24.8377 30.3611 24.7049C30.8338 24.5721 31.2425 24.2726 31.5114 23.8618C31.7804 23.451 31.8915 22.9567 31.8243 22.4703C31.757 21.9839 31.5159 21.5383 31.1455 21.2159C30.7752 20.8936 30.3006 20.7162 29.8096 20.7166ZM22.7499 13.1086V13.2443C22.7501 13.3345 22.786 13.4209 22.8498 13.4847C22.9135 13.5485 23 13.5844 23.0901 13.5845H30.4745C30.5756 14.0782 30.8564 14.5167 31.2624 14.8151C31.6684 15.1136 32.1707 15.2507 32.672 15.1999C33.1733 15.149 33.6379 14.9139 33.9758 14.5401C34.3136 14.1663 34.5007 13.6803 34.5007 13.1765C34.5007 12.6726 34.3136 12.1866 33.9758 11.8128C33.6379 11.439 33.1733 11.2039 32.672 11.1531C32.1707 11.1023 31.6684 11.2394 31.2624 11.5378C30.8564 11.8362 30.5756 12.2748 30.4745 12.7684H23.0901C23 12.7686 22.9135 12.8044 22.8498 12.8682C22.786 12.932 22.7501 13.0184 22.7499 13.1086Z" fill="#3A96AF"/>
</g>
<defs>
<clipPath id="clip0_155_4857">
<rect width="34" height="34" fill="white" transform="translate(0.5)"/>
</clipPath>
</defs>
</svg>
