<svg width="28" height="26" viewBox="0 0 28 26" fill="none" xmlns="http://www.w3.org/2000/svg">
<path d="M26.3779 9.03441L18.4436 7.88129L14.8967 0.690661C14.7998 0.493786 14.6404 0.334411 14.4436 0.237536C13.9498 -0.00621402 13.3498 0.196911 13.1029 0.690661L9.55606 7.88129L1.62169 9.03441C1.40294 9.06566 1.20294 9.16879 1.04981 9.32504C0.864695 9.51531 0.762685 9.77129 0.766201 10.0367C0.769717 10.3022 0.87847 10.5554 1.06856 10.7407L6.80919 16.3375L5.45294 24.2407C5.42113 24.4245 5.44148 24.6136 5.51166 24.7865C5.58185 24.9593 5.69907 25.1091 5.85003 25.2187C6.00099 25.3284 6.17965 25.3935 6.36575 25.4068C6.55185 25.42 6.73795 25.3809 6.90294 25.2938L13.9998 21.5625L21.0967 25.2938C21.2904 25.3969 21.5154 25.4313 21.7311 25.3938C22.2748 25.3 22.6404 24.7844 22.5467 24.2407L21.1904 16.3375L26.9311 10.7407C27.0873 10.5875 27.1904 10.3875 27.2217 10.1688C27.3061 9.62191 26.9248 9.11566 26.3779 9.03441Z" fill="#F99D26"/>
</svg>
