<svg width="14" height="14" viewBox="0 0 14 14" fill="none" xmlns="http://www.w3.org/2000/svg">
<path d="M4.80816 4.28162L1.08649 4.82121L1.02057 4.83462C0.920789 4.86111 0.829822 4.91361 0.756962 4.98676C0.684102 5.0599 0.63196 5.15107 0.605861 5.25096C0.579762 5.35085 0.580641 5.45588 0.608407 5.55531C0.636174 5.65475 0.689834 5.74504 0.763908 5.81695L3.46007 8.44137L2.82424 12.1485L2.81666 12.2126C2.81055 12.3158 2.83198 12.4188 2.87875 12.511C2.92553 12.6032 2.99596 12.6813 3.08285 12.7373C3.16974 12.7934 3.26996 12.8253 3.37324 12.8299C3.47653 12.8344 3.57917 12.8114 3.67066 12.7633L6.99916 11.0133L10.3201 12.7633L10.3784 12.7901C10.4747 12.828 10.5793 12.8397 10.6816 12.8238C10.7839 12.808 10.8801 12.7652 10.9603 12.6999C11.0406 12.6345 11.1021 12.5491 11.1384 12.4522C11.1747 12.3553 11.1846 12.2504 11.1671 12.1485L10.5307 8.44137L13.228 5.81637L13.2735 5.76679C13.3385 5.68674 13.3811 5.59089 13.397 5.489C13.4129 5.38712 13.4015 5.28284 13.364 5.1868C13.3264 5.09075 13.2641 5.00637 13.1834 4.94225C13.1026 4.87813 13.0063 4.83657 12.9042 4.82179L9.18257 4.28162L7.51891 0.909955C7.47077 0.812267 7.39624 0.730005 7.30377 0.672482C7.21129 0.61496 7.10456 0.584473 6.99566 0.584473C6.88675 0.584473 6.78002 0.61496 6.68755 0.672482C6.59507 0.730005 6.52055 0.812267 6.47241 0.909955L4.80816 4.28162Z" fill="#F99D26"/>
</svg>
