<svg width="40" height="27" viewBox="0 0 40 27" fill="none" xmlns="http://www.w3.org/2000/svg">
<rect width="40" height="27" rx="4" fill="#F5F4FF"/>
<path d="M25.7173 10.0576C27.134 10.0576 28.4699 11.3139 28.478 13.6191C28.478 16.1391 27.1585 17.2842 25.7095 17.2842C24.9973 17.2842 24.5683 16.9899 24.2769 16.7832L24.2681 19.0322L22.2446 19.4541V10.1846H24.0259L24.1313 10.6777C24.4147 10.4234 24.9244 10.0577 25.7173 10.0576ZM8.45068 10.0576C9.12254 10.0576 9.78664 10.1615 10.4585 10.4238V12.292C9.84331 11.9661 9.0659 11.7832 8.45068 11.7832C8.02174 11.7832 7.76233 11.9021 7.76221 12.2119C7.76221 13.1022 10.8467 12.6812 10.855 15.0498C10.855 16.4727 9.697 17.292 8.01318 17.292C7.31704 17.292 6.55601 17.1568 5.80322 16.8389V14.9463C6.48316 15.3119 7.3413 15.583 8.01318 15.583C8.46652 15.583 8.79053 15.4633 8.79053 15.0977C8.79035 14.1518 5.71443 14.5015 5.71436 12.3076C5.71436 10.9006 6.80734 10.0576 8.45068 10.0576ZM13.2271 10.1934H14.7651V11.8857H13.2271V14.708C13.2271 15.8845 14.5061 15.5194 14.7651 15.416V17.0293C14.498 17.1724 14.0119 17.292 13.3481 17.292C12.1501 17.292 11.2516 16.4254 11.2515 15.249L11.2593 8.88184L13.2349 8.46777L13.2271 10.1934ZM31.9351 10.0576C33.8533 10.0578 34.8568 11.6635 34.8569 13.6982C34.8569 13.889 34.8413 14.3029 34.8413 14.4062H30.8823C30.9714 15.3441 31.6675 15.6142 32.4526 15.6143C33.2541 15.6143 33.8856 15.447 34.436 15.1768V16.7666C33.8856 17.0687 33.1572 17.2842 32.1938 17.2842C30.2186 17.2842 28.8423 16.0754 28.8423 13.6826C28.8423 11.6636 30.0084 10.0576 31.9351 10.0576ZM17.2827 10.7812C17.7604 9.92285 18.7073 10.098 18.9663 10.1934V12.0215C18.7154 11.934 17.9059 11.8226 17.4282 12.4346V17.1484H15.4048V10.1934H17.1528L17.2827 10.7812ZM21.4917 17.1484H19.4595V10.1934H21.4917V17.1484ZM25.2319 11.8223C24.7705 11.8223 24.4785 11.9814 24.2681 12.2119L24.2769 15.1611C24.4711 15.3678 24.7544 15.5352 25.2319 15.5352C25.9766 15.5351 26.478 14.7399 26.478 13.6748C26.478 12.6335 25.9685 11.8224 25.2319 11.8223ZM31.9263 11.6719C31.4164 11.6721 30.858 12.0454 30.8579 12.9434H32.9468C32.9467 12.0452 32.4201 11.6719 31.9263 11.6719ZM21.4917 9.15918L19.4604 9.58887V7.9668L21.4917 7.5459V9.15918Z" fill="#6461FC"/>
</svg>
