<svg width="99" height="98" viewBox="0 0 99 98" fill="none" xmlns="http://www.w3.org/2000/svg">
<path d="M98.25 49C98.25 53.1625 93.15 56.5 92.1 60.4375C91.05 64.375 93.75 69.925 91.725 73.375C89.7 76.825 83.55 77.3125 80.7 80.2C77.85 83.0875 77.4 89.2 73.875 91.225C70.35 93.25 64.875 90.55 60.9375 91.6C57 92.65 53.6625 97.75 49.5 97.75C45.3375 97.75 42 92.65 38.25 91.6C34.5 90.55 28.7625 93.25 25.3125 91.225C21.8625 89.2 21.375 83.05 18.4875 80.2C15.6 77.35 9.4875 76.9 7.4625 73.375C5.4375 69.85 8.1375 64.375 7.0875 60.4375C6.0375 56.5 0.75 53.1625 0.75 49C0.75 44.8375 5.85 41.5 6.9 37.75C7.95 34 5.25 28.2625 7.275 24.8125C9.3 21.3625 15.45 20.6875 18.3 17.8C21.15 14.9125 21.6 8.8 25.125 6.775C28.65 4.75 34.125 7.45 38.0625 6.4C42 5.35 45.3375 0.25 49.5 0.25C53.6625 0.25 57 5.35 60.9375 6.4C64.875 7.45 70.425 4.75 73.875 6.775C77.325 8.8 77.8125 14.95 80.7 17.8C83.5875 20.65 89.7 21.1 91.725 24.625C93.75 28.15 91.05 33.625 92.1 37.5625C93.15 41.5 98.25 44.8375 98.25 49Z" fill="#14A65B"/>
<path d="M49.5 80.875C67.1041 80.875 81.375 66.6041 81.375 49C81.375 31.3959 67.1041 17.125 49.5 17.125C31.8959 17.125 17.625 31.3959 17.625 49C17.625 66.6041 31.8959 80.875 49.5 80.875Z" fill="white"/>
<path d="M46.238 57.8876C45.8684 57.8893 45.5023 57.8172 45.161 57.6756C44.8197 57.5339 44.5101 57.3255 44.2505 57.0626L35.513 48.4751C34.9863 47.9477 34.6904 47.2329 34.6904 46.4876C34.6904 45.7423 34.9863 45.0274 35.513 44.5001C36.0403 43.9734 36.7551 43.6775 37.5005 43.6775C38.2458 43.6775 38.9606 43.9734 39.488 44.5001L46.238 51.1751L59.513 38.0876C60.045 37.5604 60.7647 37.2663 61.5137 37.2698C62.2627 37.2733 62.9796 37.5742 63.5067 38.1063C64.0338 38.6384 64.328 39.3581 64.3245 40.1071C64.3209 40.856 64.02 41.5729 63.488 42.1001L48.188 57.1001C47.9348 57.3587 47.6308 57.5621 47.2953 57.6976C46.9597 57.8331 46.5997 57.8978 46.238 57.8876Z" fill="#14A65B"/>
</svg>
