<svg width="16" height="16" viewBox="0 0 16 16" fill="none" xmlns="http://www.w3.org/2000/svg">
<path d="M11.9199 4.07998L2.61323 13.3867C2.32656 13.6733 1.84656 13.6467 1.61323 13.32C1.2799 12.86 1.21323 12.22 1.5599 11.6667L3.3999 8.71332C3.64656 8.31998 3.64656 7.67998 3.3999 7.28665L1.5599 4.33332C0.939896 3.34665 1.65323 2.06665 2.81323 2.06665H10.4466C10.8999 2.06665 11.4599 2.37998 11.6999 2.75998L12.0132 3.25332C12.1732 3.51998 12.1399 3.85998 11.9199 4.07998Z" fill="#3A96AF"/>
<path d="M14.4201 8.74L10.9667 13.34C10.7267 13.6667 10.1934 13.9333 9.78008 13.9333H5.00674C4.41341 13.9333 4.11341 13.2133 4.53341 12.7933L12.2134 5.12C12.5134 4.82 13.0267 4.87333 13.2534 5.24L14.4867 7.22C14.7534 7.64666 14.7267 8.33333 14.4201 8.74Z" fill="#3A96AF"/>
</svg>
