<svg width="40" height="27" viewBox="0 0 40 27" fill="none" xmlns="http://www.w3.org/2000/svg">
<rect width="40" height="27" rx="4" fill="#EBF3FA"/>
<path d="M17.1133 18.0932H14.8516L16.2662 9.48291H18.5278L17.1133 18.0932Z" fill="#00579F"/>
<path d="M25.3113 9.69348C24.8652 9.51926 24.1576 9.3269 23.2828 9.3269C21.0493 9.3269 19.4765 10.4993 19.4668 12.1755C19.4483 13.4122 20.5929 14.0991 21.449 14.5114C22.324 14.9328 22.6214 15.2078 22.6214 15.5834C22.6125 16.1602 21.9144 16.4261 21.2632 16.4261C20.3603 16.4261 19.8764 16.289 19.1412 15.9681L18.8433 15.8305L18.5269 17.7634C19.0573 18.0012 20.0346 18.2123 21.0493 18.2216C23.4224 18.2216 24.9674 17.0673 24.9857 15.2811C24.9947 14.3009 24.3903 13.5499 23.0872 12.9362C22.2962 12.5422 21.8117 12.2765 21.8117 11.8734C21.821 11.507 22.2215 11.1317 23.1144 11.1317C23.8497 11.1133 24.3899 11.2872 24.7992 11.4613L25.0037 11.5528L25.3113 9.69348Z" fill="#00579F"/>
<path d="M28.3185 15.0429C28.5048 14.5482 29.2215 12.6338 29.2215 12.6338C29.2121 12.6522 29.4074 12.13 29.5191 11.8095L29.6771 12.5514C29.6771 12.5514 30.1054 14.6124 30.1984 15.0429C29.845 15.0429 28.7653 15.0429 28.3185 15.0429ZM31.1103 9.48291H29.3609C28.8214 9.48291 28.4115 9.6385 28.1788 10.1973L24.8193 18.0931H27.1925C27.1925 18.0931 27.5832 17.0304 27.6671 16.8015C27.9275 16.8015 30.236 16.8015 30.571 16.8015C30.6359 17.1038 30.8408 18.0931 30.8408 18.0931H32.9349L31.1103 9.48291Z" fill="#00579F"/>
<path d="M12.9623 9.48291L10.7474 15.3543L10.5054 14.1635C10.0959 12.7895 8.81159 11.2967 7.37842 10.5544L9.40722 18.0841H11.7989L15.3539 9.48291H12.9623Z" fill="#00579F"/>
<path d="M8.69072 9.48291H5.05188L5.01465 9.65688C7.85317 10.3714 9.73307 12.0937 10.5054 14.1639L9.7144 10.2067C9.58416 9.65676 9.18394 9.50105 8.69072 9.48291Z" fill="#FAA61A"/>
</svg>
