<svg width="36" height="36" viewBox="0 0 36 36" fill="none" xmlns="http://www.w3.org/2000/svg">
<rect width="36" height="36" rx="8" fill="white"/>
<path d="M18.4383 24.9799L14.3761 24.904C13.0608 24.8776 11.7423 24.9304 10.4528 24.6563C8.49128 24.2468 8.35232 22.2389 8.20691 20.5546C8.00654 18.1868 8.08411 15.776 8.46222 13.4279C8.67567 12.1104 9.51571 11.3242 10.8148 11.2386C15.2001 10.9282 19.6146 10.965 23.9903 11.1098C24.4524 11.1231 24.9177 11.1957 25.3734 11.2783C27.6227 11.6812 27.6775 13.9566 27.8233 15.8721C27.9688 17.8073 27.9074 19.7524 27.6294 21.6745C27.4065 23.2659 26.9798 24.6004 25.1795 24.7293C22.9237 24.8977 20.7197 25.0333 18.4576 24.9902C18.4577 24.9799 18.4447 24.9799 18.4383 24.9799ZM16.0501 20.9509C17.75 19.9535 19.4175 18.9727 21.1076 17.982C19.4046 16.9846 17.7403 16.0038 16.0501 15.0131V20.9509Z" fill="#3A96AF"/>
</svg>
