<svg width="40" height="40" viewBox="0 0 40 40" fill="none" xmlns="http://www.w3.org/2000/svg">
<rect width="40" height="40" rx="8" fill="#F7F8F9"/>
<path d="M8.88867 31.1111L10.4507 25.4047C9.48682 23.7343 8.98034 21.8408 8.98126 19.8991C8.98404 13.8287 13.9238 8.88892 19.9933 8.88892C22.9386 8.88984 25.7034 10.0371 27.7831 12.1185C29.8618 14.2 31.0062 16.9667 31.0053 19.9093C31.0025 25.9806 26.0627 30.9204 19.9933 30.9204C18.1507 30.9195 16.335 30.4574 14.7266 29.5797L8.88867 31.1111ZM14.997 27.5861C16.5488 28.5074 18.0303 29.0593 19.9896 29.0602C25.034 29.0602 29.1433 24.9547 29.146 19.9074C29.1479 14.85 25.0581 10.75 19.997 10.7482C14.9488 10.7482 10.8424 14.8537 10.8405 19.9C10.8396 21.9602 11.4433 23.5028 12.4572 25.1167L11.5322 28.4945L14.997 27.5861ZM25.5405 22.5269C25.472 22.4121 25.2886 22.3435 25.0127 22.2056C24.7377 22.0676 23.3849 21.4019 23.1322 21.3102C22.8803 21.2185 22.697 21.1722 22.5127 21.4482C22.3294 21.7232 21.8016 22.3435 21.6414 22.5269C21.4812 22.7102 21.3201 22.7334 21.0451 22.5954C20.7701 22.4574 19.8831 22.1676 18.8322 21.2297C18.0146 20.5 17.4618 19.5991 17.3016 19.3232C17.1414 19.0482 17.2849 18.8991 17.422 18.7621C17.5461 18.6389 17.697 18.4408 17.8349 18.2797C17.9748 18.1204 18.0201 18.0056 18.1127 17.8213C18.2044 17.638 18.159 17.4769 18.0896 17.3389C18.0201 17.2019 17.4701 15.8472 17.2414 15.2963C17.0174 14.7602 16.7905 14.8324 16.622 14.8241L16.0942 14.8148C15.9109 14.8148 15.6127 14.8834 15.3609 15.1593C15.109 15.4352 14.3979 16.1 14.3979 17.4547C14.3979 18.8093 15.384 20.1176 15.5211 20.301C15.659 20.4843 17.4609 23.2639 20.2211 24.4556C20.8775 24.7389 21.3905 24.9084 21.7896 25.0352C22.4488 25.2445 23.0488 25.2148 23.5229 25.1445C24.0516 25.0658 25.1507 24.4787 25.3803 23.8361C25.6099 23.1926 25.6099 22.6417 25.5405 22.5269Z" fill="#3A96AF"/>
</svg>
